M48
; DRILL file {KiCad (6.0.4)} date Mon Jul 24 12:17:26 2023
; FORMAT={-:-/ absolute / inch / decimal}
; #@! TF.CreationDate,2023-07-24T12:17:26-04:00
; #@! TF.GenerationSoftware,Kicad,Pcbnew,(6.0.4)
; #@! TF.FileFunction,Plated,1,2,PTH
FMAT,2
INCH
; #@! TA.AperFunction,Plated,PTH,ViaDrill
T1C0.0157
; #@! TA.AperFunction,Plated,PTH,ComponentDrill
T2C0.0315
; #@! TA.AperFunction,Plated,PTH,ViaDrill
T3C0.0394
; #@! TA.AperFunction,Plated,PTH,ComponentDrill
T4C0.0394
; #@! TA.AperFunction,Plated,PTH,ComponentDrill
T5C0.0433
; #@! TA.AperFunction,Plated,PTH,ComponentDrill
T6C0.0512
; #@! TA.AperFunction,Plated,PTH,ComponentDrill
T7C0.1260
%
G90
G05
T1
X6.3968Y-4.0289
T2
X6.5418Y-4.5389
X6.5418Y-4.7389
X6.5568Y-3.9939
X6.5568Y-4.1939
X6.6418Y-4.6389
X6.6568Y-4.0939
X6.8918Y-4.2339
X6.8918Y-4.4339
X6.9068Y-4.8239
X6.9068Y-5.0239
X6.9918Y-4.3339
X7.0068Y-4.9239
T3
X5.1668Y-2.6689
X5.2579Y-3.3602
X5.2579Y-3.4567
X5.9118Y-3.6939
X6.0618Y-4.3689
X6.0618Y-4.5039
X6.3943Y-4.4014
X7.0718Y-4.5264
T4
X5.1024Y-3.1024
X5.1024Y-3.2024
X5.1024Y-3.3024
X5.1024Y-3.4024
X5.1024Y-3.5024
X5.1024Y-3.6024
X5.1024Y-3.7024
X5.1024Y-3.8024
X5.1024Y-3.9024
X5.1024Y-4.0024
X5.315Y-3.937
X5.315Y-4.037
X5.315Y-4.137
X5.315Y-4.237
X5.315Y-4.337
X5.315Y-4.437
X5.315Y-4.537
X5.315Y-4.637
X5.315Y-4.737
X5.315Y-4.837
X5.315Y-4.937
X5.315Y-5.037
X5.315Y-5.137
X5.315Y-5.237
X5.315Y-5.337
X5.915Y-3.937
X5.915Y-4.037
X5.915Y-4.137
X5.915Y-4.237
X5.915Y-4.337
X5.915Y-4.437
X5.915Y-4.537
X5.915Y-4.637
X5.915Y-4.737
X5.915Y-4.837
X5.915Y-4.937
X5.915Y-5.037
X5.915Y-5.137
X5.915Y-5.237
X5.915Y-5.337
T5
X7.3668Y-2.3639
X7.3668Y-2.4639
X7.3668Y-2.5639
X7.3668Y-2.9239
X7.3668Y-3.0239
X7.3668Y-3.1239
X7.3668Y-3.5239
X7.3668Y-3.6239
X7.3668Y-3.7239
X7.3668Y-4.0639
X7.3668Y-4.1639
X7.3668Y-4.2639
X7.3818Y-4.5789
X7.3818Y-4.6789
X7.3818Y-4.7789
X7.3818Y-4.8789
T6
X6.2668Y-1.7639
X6.2668Y-2.0639
X6.2668Y-2.3239
X6.2668Y-2.6239
X6.2668Y-2.9039
X6.2668Y-3.2039
X6.2668Y-3.4639
X6.2668Y-3.7639
X6.6668Y-2.0639
X6.6668Y-2.6239
X6.6668Y-3.2039
X6.6668Y-3.7639
X6.8668Y-1.7639
X6.8668Y-2.3239
X6.8668Y-2.9039
X6.8668Y-3.4639
X6.9668Y-2.0639
X6.9668Y-2.6239
X6.9668Y-3.2039
X6.9668Y-3.7639
T7
X5.0236Y-1.7638
X5.0236Y-5.3071
X7.3858Y-1.7638
X7.3858Y-5.3071
T0
M30
