%TF.GenerationSoftware,KiCad,Pcbnew,(6.0.4)*%
%TF.CreationDate,2023-07-24T12:17:23-04:00*%
%TF.ProjectId,BREAD_Slice,42524541-445f-4536-9c69-63652e6b6963,rev?*%
%TF.SameCoordinates,Original*%
%TF.FileFunction,Legend,Bot*%
%TF.FilePolarity,Positive*%
%FSLAX46Y46*%
G04 Gerber Fmt 4.6, Leading zero omitted, Abs format (unit mm)*
G04 Created by KiCad (PCBNEW (6.0.4)) date 2023-07-24 12:17:23*
%MOMM*%
%LPD*%
G01*
G04 APERTURE LIST*
%ADD10C,0.150000*%
%ADD11C,0.120000*%
G04 APERTURE END LIST*
D10*
%TO.C,C2*%
X154961142Y-100089333D02*
X155008761Y-100041714D01*
X155056380Y-99898857D01*
X155056380Y-99803619D01*
X155008761Y-99660761D01*
X154913523Y-99565523D01*
X154818285Y-99517904D01*
X154627809Y-99470285D01*
X154484952Y-99470285D01*
X154294476Y-99517904D01*
X154199238Y-99565523D01*
X154104000Y-99660761D01*
X154056380Y-99803619D01*
X154056380Y-99898857D01*
X154104000Y-100041714D01*
X154151619Y-100089333D01*
X154151619Y-100470285D02*
X154104000Y-100517904D01*
X154056380Y-100613142D01*
X154056380Y-100851238D01*
X154104000Y-100946476D01*
X154151619Y-100994095D01*
X154246857Y-101041714D01*
X154342095Y-101041714D01*
X154484952Y-100994095D01*
X155056380Y-100422666D01*
X155056380Y-101041714D01*
%TO.C,C1*%
X135149142Y-74689333D02*
X135196761Y-74641714D01*
X135244380Y-74498857D01*
X135244380Y-74403619D01*
X135196761Y-74260761D01*
X135101523Y-74165523D01*
X135006285Y-74117904D01*
X134815809Y-74070285D01*
X134672952Y-74070285D01*
X134482476Y-74117904D01*
X134387238Y-74165523D01*
X134292000Y-74260761D01*
X134244380Y-74403619D01*
X134244380Y-74498857D01*
X134292000Y-74641714D01*
X134339619Y-74689333D01*
X135244380Y-75641714D02*
X135244380Y-75070285D01*
X135244380Y-75356000D02*
X134244380Y-75356000D01*
X134387238Y-75260761D01*
X134482476Y-75165523D01*
X134530095Y-75070285D01*
%TO.C,D1*%
X160856380Y-48129904D02*
X159856380Y-48129904D01*
X159856380Y-48368000D01*
X159904000Y-48510857D01*
X159999238Y-48606095D01*
X160094476Y-48653714D01*
X160284952Y-48701333D01*
X160427809Y-48701333D01*
X160618285Y-48653714D01*
X160713523Y-48606095D01*
X160808761Y-48510857D01*
X160856380Y-48368000D01*
X160856380Y-48129904D01*
X160856380Y-49653714D02*
X160856380Y-49082285D01*
X160856380Y-49368000D02*
X159856380Y-49368000D01*
X159999238Y-49272761D01*
X160094476Y-49177523D01*
X160142095Y-49082285D01*
%TO.C,D2*%
X160602380Y-76577904D02*
X159602380Y-76577904D01*
X159602380Y-76816000D01*
X159650000Y-76958857D01*
X159745238Y-77054095D01*
X159840476Y-77101714D01*
X160030952Y-77149333D01*
X160173809Y-77149333D01*
X160364285Y-77101714D01*
X160459523Y-77054095D01*
X160554761Y-76958857D01*
X160602380Y-76816000D01*
X160602380Y-76577904D01*
X159697619Y-77530285D02*
X159650000Y-77577904D01*
X159602380Y-77673142D01*
X159602380Y-77911238D01*
X159650000Y-78006476D01*
X159697619Y-78054095D01*
X159792857Y-78101714D01*
X159888095Y-78101714D01*
X160030952Y-78054095D01*
X160602380Y-77482666D01*
X160602380Y-78101714D01*
%TO.C,D3*%
X160475380Y-61591904D02*
X159475380Y-61591904D01*
X159475380Y-61830000D01*
X159523000Y-61972857D01*
X159618238Y-62068095D01*
X159713476Y-62115714D01*
X159903952Y-62163333D01*
X160046809Y-62163333D01*
X160237285Y-62115714D01*
X160332523Y-62068095D01*
X160427761Y-61972857D01*
X160475380Y-61830000D01*
X160475380Y-61591904D01*
X159475380Y-62496666D02*
X159475380Y-63115714D01*
X159856333Y-62782380D01*
X159856333Y-62925238D01*
X159903952Y-63020476D01*
X159951571Y-63068095D01*
X160046809Y-63115714D01*
X160284904Y-63115714D01*
X160380142Y-63068095D01*
X160427761Y-63020476D01*
X160475380Y-62925238D01*
X160475380Y-62639523D01*
X160427761Y-62544285D01*
X160380142Y-62496666D01*
%TO.C,D4*%
X160856380Y-90801904D02*
X159856380Y-90801904D01*
X159856380Y-91040000D01*
X159904000Y-91182857D01*
X159999238Y-91278095D01*
X160094476Y-91325714D01*
X160284952Y-91373333D01*
X160427809Y-91373333D01*
X160618285Y-91325714D01*
X160713523Y-91278095D01*
X160808761Y-91182857D01*
X160856380Y-91040000D01*
X160856380Y-90801904D01*
X160189714Y-92230476D02*
X160856380Y-92230476D01*
X159808761Y-91992380D02*
X160523047Y-91754285D01*
X160523047Y-92373333D01*
%TO.C,D5*%
X158824380Y-126996904D02*
X157824380Y-126996904D01*
X157824380Y-127235000D01*
X157872000Y-127377857D01*
X157967238Y-127473095D01*
X158062476Y-127520714D01*
X158252952Y-127568333D01*
X158395809Y-127568333D01*
X158586285Y-127520714D01*
X158681523Y-127473095D01*
X158776761Y-127377857D01*
X158824380Y-127235000D01*
X158824380Y-126996904D01*
X157824380Y-128473095D02*
X157824380Y-127996904D01*
X158300571Y-127949285D01*
X158252952Y-127996904D01*
X158205333Y-128092142D01*
X158205333Y-128330238D01*
X158252952Y-128425476D01*
X158300571Y-128473095D01*
X158395809Y-128520714D01*
X158633904Y-128520714D01*
X158729142Y-128473095D01*
X158776761Y-128425476D01*
X158824380Y-128330238D01*
X158824380Y-128092142D01*
X158776761Y-127996904D01*
X158729142Y-127949285D01*
%TO.C,D6*%
X158824380Y-120138904D02*
X157824380Y-120138904D01*
X157824380Y-120377000D01*
X157872000Y-120519857D01*
X157967238Y-120615095D01*
X158062476Y-120662714D01*
X158252952Y-120710333D01*
X158395809Y-120710333D01*
X158586285Y-120662714D01*
X158681523Y-120615095D01*
X158776761Y-120519857D01*
X158824380Y-120377000D01*
X158824380Y-120138904D01*
X157824380Y-121567476D02*
X157824380Y-121377000D01*
X157872000Y-121281761D01*
X157919619Y-121234142D01*
X158062476Y-121138904D01*
X158252952Y-121091285D01*
X158633904Y-121091285D01*
X158729142Y-121138904D01*
X158776761Y-121186523D01*
X158824380Y-121281761D01*
X158824380Y-121472238D01*
X158776761Y-121567476D01*
X158729142Y-121615095D01*
X158633904Y-121662714D01*
X158395809Y-121662714D01*
X158300571Y-121615095D01*
X158252952Y-121567476D01*
X158205333Y-121472238D01*
X158205333Y-121281761D01*
X158252952Y-121186523D01*
X158300571Y-121138904D01*
X158395809Y-121091285D01*
%TO.C,D7*%
X158824380Y-113153904D02*
X157824380Y-113153904D01*
X157824380Y-113392000D01*
X157872000Y-113534857D01*
X157967238Y-113630095D01*
X158062476Y-113677714D01*
X158252952Y-113725333D01*
X158395809Y-113725333D01*
X158586285Y-113677714D01*
X158681523Y-113630095D01*
X158776761Y-113534857D01*
X158824380Y-113392000D01*
X158824380Y-113153904D01*
X157824380Y-114058666D02*
X157824380Y-114725333D01*
X158824380Y-114296761D01*
%TO.C,D8*%
X158824380Y-105787904D02*
X157824380Y-105787904D01*
X157824380Y-106026000D01*
X157872000Y-106168857D01*
X157967238Y-106264095D01*
X158062476Y-106311714D01*
X158252952Y-106359333D01*
X158395809Y-106359333D01*
X158586285Y-106311714D01*
X158681523Y-106264095D01*
X158776761Y-106168857D01*
X158824380Y-106026000D01*
X158824380Y-105787904D01*
X158252952Y-106930761D02*
X158205333Y-106835523D01*
X158157714Y-106787904D01*
X158062476Y-106740285D01*
X158014857Y-106740285D01*
X157919619Y-106787904D01*
X157872000Y-106835523D01*
X157824380Y-106930761D01*
X157824380Y-107121238D01*
X157872000Y-107216476D01*
X157919619Y-107264095D01*
X158014857Y-107311714D01*
X158062476Y-107311714D01*
X158157714Y-107264095D01*
X158205333Y-107216476D01*
X158252952Y-107121238D01*
X158252952Y-106930761D01*
X158300571Y-106835523D01*
X158348190Y-106787904D01*
X158443428Y-106740285D01*
X158633904Y-106740285D01*
X158729142Y-106787904D01*
X158776761Y-106835523D01*
X158824380Y-106930761D01*
X158824380Y-107121238D01*
X158776761Y-107216476D01*
X158729142Y-107264095D01*
X158633904Y-107311714D01*
X158443428Y-107311714D01*
X158348190Y-107264095D01*
X158300571Y-107216476D01*
X158252952Y-107121238D01*
%TO.C,R1*%
X149690666Y-47330380D02*
X150024000Y-46854190D01*
X150262095Y-47330380D02*
X150262095Y-46330380D01*
X149881142Y-46330380D01*
X149785904Y-46378000D01*
X149738285Y-46425619D01*
X149690666Y-46520857D01*
X149690666Y-46663714D01*
X149738285Y-46758952D01*
X149785904Y-46806571D01*
X149881142Y-46854190D01*
X150262095Y-46854190D01*
X148738285Y-47330380D02*
X149309714Y-47330380D01*
X149024000Y-47330380D02*
X149024000Y-46330380D01*
X149119238Y-46473238D01*
X149214476Y-46568476D01*
X149309714Y-46616095D01*
%TO.C,R2*%
X149944666Y-74762380D02*
X150278000Y-74286190D01*
X150516095Y-74762380D02*
X150516095Y-73762380D01*
X150135142Y-73762380D01*
X150039904Y-73810000D01*
X149992285Y-73857619D01*
X149944666Y-73952857D01*
X149944666Y-74095714D01*
X149992285Y-74190952D01*
X150039904Y-74238571D01*
X150135142Y-74286190D01*
X150516095Y-74286190D01*
X149563714Y-73857619D02*
X149516095Y-73810000D01*
X149420857Y-73762380D01*
X149182761Y-73762380D01*
X149087523Y-73810000D01*
X149039904Y-73857619D01*
X148992285Y-73952857D01*
X148992285Y-74048095D01*
X149039904Y-74190952D01*
X149611333Y-74762380D01*
X148992285Y-74762380D01*
%TO.C,R3*%
X150071666Y-60792380D02*
X150405000Y-60316190D01*
X150643095Y-60792380D02*
X150643095Y-59792380D01*
X150262142Y-59792380D01*
X150166904Y-59840000D01*
X150119285Y-59887619D01*
X150071666Y-59982857D01*
X150071666Y-60125714D01*
X150119285Y-60220952D01*
X150166904Y-60268571D01*
X150262142Y-60316190D01*
X150643095Y-60316190D01*
X149738333Y-59792380D02*
X149119285Y-59792380D01*
X149452619Y-60173333D01*
X149309761Y-60173333D01*
X149214523Y-60220952D01*
X149166904Y-60268571D01*
X149119285Y-60363809D01*
X149119285Y-60601904D01*
X149166904Y-60697142D01*
X149214523Y-60744761D01*
X149309761Y-60792380D01*
X149595476Y-60792380D01*
X149690714Y-60744761D01*
X149738333Y-60697142D01*
%TO.C,R4*%
X149817666Y-87970380D02*
X150151000Y-87494190D01*
X150389095Y-87970380D02*
X150389095Y-86970380D01*
X150008142Y-86970380D01*
X149912904Y-87018000D01*
X149865285Y-87065619D01*
X149817666Y-87160857D01*
X149817666Y-87303714D01*
X149865285Y-87398952D01*
X149912904Y-87446571D01*
X150008142Y-87494190D01*
X150389095Y-87494190D01*
X148960523Y-87303714D02*
X148960523Y-87970380D01*
X149198619Y-86922761D02*
X149436714Y-87637047D01*
X148817666Y-87637047D01*
%TO.C,U1*%
X150412904Y-51205380D02*
X150412904Y-52014904D01*
X150365285Y-52110142D01*
X150317666Y-52157761D01*
X150222428Y-52205380D01*
X150031952Y-52205380D01*
X149936714Y-52157761D01*
X149889095Y-52110142D01*
X149841476Y-52014904D01*
X149841476Y-51205380D01*
X148841476Y-52205380D02*
X149412904Y-52205380D01*
X149127190Y-52205380D02*
X149127190Y-51205380D01*
X149222428Y-51348238D01*
X149317666Y-51443476D01*
X149412904Y-51491095D01*
%TO.C,U2*%
X150539904Y-79145380D02*
X150539904Y-79954904D01*
X150492285Y-80050142D01*
X150444666Y-80097761D01*
X150349428Y-80145380D01*
X150158952Y-80145380D01*
X150063714Y-80097761D01*
X150016095Y-80050142D01*
X149968476Y-79954904D01*
X149968476Y-79145380D01*
X149539904Y-79240619D02*
X149492285Y-79193000D01*
X149397047Y-79145380D01*
X149158952Y-79145380D01*
X149063714Y-79193000D01*
X149016095Y-79240619D01*
X148968476Y-79335857D01*
X148968476Y-79431095D01*
X149016095Y-79573952D01*
X149587523Y-80145380D01*
X148968476Y-80145380D01*
%TO.C,U3*%
X150666904Y-64667380D02*
X150666904Y-65476904D01*
X150619285Y-65572142D01*
X150571666Y-65619761D01*
X150476428Y-65667380D01*
X150285952Y-65667380D01*
X150190714Y-65619761D01*
X150143095Y-65572142D01*
X150095476Y-65476904D01*
X150095476Y-64667380D01*
X149714523Y-64667380D02*
X149095476Y-64667380D01*
X149428809Y-65048333D01*
X149285952Y-65048333D01*
X149190714Y-65095952D01*
X149143095Y-65143571D01*
X149095476Y-65238809D01*
X149095476Y-65476904D01*
X149143095Y-65572142D01*
X149190714Y-65619761D01*
X149285952Y-65667380D01*
X149571666Y-65667380D01*
X149666904Y-65619761D01*
X149714523Y-65572142D01*
%TO.C,U4*%
X150539904Y-91972380D02*
X150539904Y-92781904D01*
X150492285Y-92877142D01*
X150444666Y-92924761D01*
X150349428Y-92972380D01*
X150158952Y-92972380D01*
X150063714Y-92924761D01*
X150016095Y-92877142D01*
X149968476Y-92781904D01*
X149968476Y-91972380D01*
X149063714Y-92305714D02*
X149063714Y-92972380D01*
X149301809Y-91924761D02*
X149539904Y-92639047D01*
X148920857Y-92639047D01*
%TO.C,C2*%
X153534000Y-104286000D02*
X153534000Y-106296000D01*
X155674000Y-104256000D02*
X155674000Y-106266000D01*
%TO.C,C1*%
X133722000Y-78886000D02*
X133722000Y-80896000D01*
X135862000Y-78856000D02*
X135862000Y-80866000D01*
D11*
%TO.C,D1*%
X163359000Y-46408000D02*
X163359000Y-50468000D01*
X161089000Y-46408000D02*
X163359000Y-46408000D01*
X161089000Y-50468000D02*
X161089000Y-46408000D01*
%TO.C,D2*%
X160835000Y-74856000D02*
X163105000Y-74856000D01*
X163105000Y-74856000D02*
X163105000Y-78916000D01*
X160835000Y-78916000D02*
X160835000Y-74856000D01*
%TO.C,D3*%
X160708000Y-63930000D02*
X160708000Y-59870000D01*
X162978000Y-59870000D02*
X162978000Y-63930000D01*
X160708000Y-59870000D02*
X162978000Y-59870000D01*
%TO.C,D4*%
X161089000Y-93140000D02*
X161089000Y-89080000D01*
X161089000Y-89080000D02*
X163359000Y-89080000D01*
X163359000Y-89080000D02*
X163359000Y-93140000D01*
%TO.C,D5*%
X161327000Y-125275000D02*
X161327000Y-129335000D01*
X159057000Y-129335000D02*
X159057000Y-125275000D01*
X159057000Y-125275000D02*
X161327000Y-125275000D01*
%TO.C,D6*%
X159057000Y-118417000D02*
X161327000Y-118417000D01*
X159057000Y-122477000D02*
X159057000Y-118417000D01*
X161327000Y-118417000D02*
X161327000Y-122477000D01*
%TO.C,D7*%
X161327000Y-111432000D02*
X161327000Y-115492000D01*
X159057000Y-115492000D02*
X159057000Y-111432000D01*
X159057000Y-111432000D02*
X161327000Y-111432000D01*
%TO.C,D8*%
X159057000Y-108126000D02*
X159057000Y-104066000D01*
X161327000Y-104066000D02*
X161327000Y-108126000D01*
X159057000Y-104066000D02*
X161327000Y-104066000D01*
%TO.C,R1*%
X148796936Y-44148000D02*
X150251064Y-44148000D01*
X148796936Y-45968000D02*
X150251064Y-45968000D01*
%TO.C,R2*%
X149050936Y-71580000D02*
X150505064Y-71580000D01*
X149050936Y-73400000D02*
X150505064Y-73400000D01*
%TO.C,R3*%
X149177936Y-57610000D02*
X150632064Y-57610000D01*
X149177936Y-59430000D02*
X150632064Y-59430000D01*
%TO.C,R4*%
X148923936Y-86608000D02*
X150378064Y-86608000D01*
X148923936Y-84788000D02*
X150378064Y-84788000D01*
%TO.C,U1*%
X147341000Y-50698000D02*
X145651000Y-50698000D01*
X149651000Y-50913000D02*
X151961000Y-50913000D01*
X149651000Y-48093000D02*
X151961000Y-48093000D01*
X149651000Y-50913000D02*
X147341000Y-50913000D01*
X147341000Y-48093000D02*
X147341000Y-48308000D01*
X151961000Y-50913000D02*
X151961000Y-50698000D01*
X147341000Y-50913000D02*
X147341000Y-50698000D01*
X149651000Y-48093000D02*
X147341000Y-48093000D01*
X151961000Y-48093000D02*
X151961000Y-48308000D01*
%TO.C,U2*%
X149778000Y-76033000D02*
X147468000Y-76033000D01*
X149778000Y-78853000D02*
X147468000Y-78853000D01*
X152088000Y-78853000D02*
X152088000Y-78638000D01*
X147468000Y-78853000D02*
X147468000Y-78638000D01*
X152088000Y-76033000D02*
X152088000Y-76248000D01*
X147468000Y-78638000D02*
X145778000Y-78638000D01*
X149778000Y-78853000D02*
X152088000Y-78853000D01*
X147468000Y-76033000D02*
X147468000Y-76248000D01*
X149778000Y-76033000D02*
X152088000Y-76033000D01*
%TO.C,U3*%
X147595000Y-61555000D02*
X147595000Y-61770000D01*
X149905000Y-61555000D02*
X152215000Y-61555000D01*
X152215000Y-64375000D02*
X152215000Y-64160000D01*
X152215000Y-61555000D02*
X152215000Y-61770000D01*
X147595000Y-64375000D02*
X147595000Y-64160000D01*
X149905000Y-64375000D02*
X147595000Y-64375000D01*
X149905000Y-64375000D02*
X152215000Y-64375000D01*
X147595000Y-64160000D02*
X145905000Y-64160000D01*
X149905000Y-61555000D02*
X147595000Y-61555000D01*
%TO.C,U4*%
X147468000Y-88860000D02*
X147468000Y-89075000D01*
X152088000Y-88860000D02*
X152088000Y-89075000D01*
X149778000Y-91680000D02*
X152088000Y-91680000D01*
X149778000Y-91680000D02*
X147468000Y-91680000D01*
X149778000Y-88860000D02*
X147468000Y-88860000D01*
X147468000Y-91680000D02*
X147468000Y-91465000D01*
X147468000Y-91465000D02*
X145778000Y-91465000D01*
X152088000Y-91680000D02*
X152088000Y-91465000D01*
X149778000Y-88860000D02*
X152088000Y-88860000D01*
%TD*%
M02*
