%TF.GenerationSoftware,KiCad,Pcbnew,(6.0.4)*%
%TF.CreationDate,2023-07-24T12:17:23-04:00*%
%TF.ProjectId,BREAD_Slice,42524541-445f-4536-9c69-63652e6b6963,rev?*%
%TF.SameCoordinates,Original*%
%TF.FileFunction,Paste,Bot*%
%TF.FilePolarity,Positive*%
%FSLAX46Y46*%
G04 Gerber Fmt 4.6, Leading zero omitted, Abs format (unit mm)*
G04 Created by KiCad (PCBNEW (6.0.4)) date 2023-07-24 12:17:23*
%MOMM*%
%LPD*%
G01*
G04 APERTURE LIST*
G04 Aperture macros list*
%AMRoundRect*
0 Rectangle with rounded corners*
0 $1 Rounding radius*
0 $2 $3 $4 $5 $6 $7 $8 $9 X,Y pos of 4 corners*
0 Add a 4 corners polygon primitive as box body*
4,1,4,$2,$3,$4,$5,$6,$7,$8,$9,$2,$3,0*
0 Add four circle primitives for the rounded corners*
1,1,$1+$1,$2,$3*
1,1,$1+$1,$4,$5*
1,1,$1+$1,$6,$7*
1,1,$1+$1,$8,$9*
0 Add four rect primitives between the rounded corners*
20,1,$1+$1,$2,$3,$4,$5,0*
20,1,$1+$1,$4,$5,$6,$7,0*
20,1,$1+$1,$6,$7,$8,$9,0*
20,1,$1+$1,$8,$9,$2,$3,0*%
G04 Aperture macros list end*
%ADD10R,2.350000X2.770000*%
%ADD11RoundRect,0.250000X-0.625000X0.462500X-0.625000X-0.462500X0.625000X-0.462500X0.625000X0.462500X0*%
%ADD12RoundRect,0.250000X-0.400000X-0.625000X0.400000X-0.625000X0.400000X0.625000X-0.400000X0.625000X0*%
%ADD13RoundRect,0.150000X-0.662500X-0.150000X0.662500X-0.150000X0.662500X0.150000X-0.662500X0.150000X0*%
G04 APERTURE END LIST*
D10*
%TO.C,C2*%
X154604000Y-107826000D03*
X154604000Y-102686000D03*
%TD*%
%TO.C,C1*%
X134792000Y-82426000D03*
X134792000Y-77286000D03*
%TD*%
D11*
%TO.C,D1*%
X162224000Y-47380500D03*
X162224000Y-50355500D03*
%TD*%
%TO.C,D2*%
X161970000Y-75828500D03*
X161970000Y-78803500D03*
%TD*%
%TO.C,D3*%
X161843000Y-60842500D03*
X161843000Y-63817500D03*
%TD*%
%TO.C,D4*%
X162224000Y-90052500D03*
X162224000Y-93027500D03*
%TD*%
%TO.C,D5*%
X160192000Y-126247500D03*
X160192000Y-129222500D03*
%TD*%
%TO.C,D6*%
X160192000Y-119389500D03*
X160192000Y-122364500D03*
%TD*%
%TO.C,D7*%
X160192000Y-112404500D03*
X160192000Y-115379500D03*
%TD*%
%TO.C,D8*%
X160192000Y-105038500D03*
X160192000Y-108013500D03*
%TD*%
D12*
%TO.C,R1*%
X147974000Y-45058000D03*
X151074000Y-45058000D03*
%TD*%
%TO.C,R2*%
X148228000Y-72490000D03*
X151328000Y-72490000D03*
%TD*%
%TO.C,R3*%
X148355000Y-58520000D03*
X151455000Y-58520000D03*
%TD*%
%TO.C,R4*%
X148101000Y-85698000D03*
X151201000Y-85698000D03*
%TD*%
D13*
%TO.C,U1*%
X146463500Y-50138000D03*
X146463500Y-48868000D03*
X152838500Y-48868000D03*
X152838500Y-50138000D03*
%TD*%
%TO.C,U2*%
X146590500Y-78078000D03*
X146590500Y-76808000D03*
X152965500Y-76808000D03*
X152965500Y-78078000D03*
%TD*%
%TO.C,U3*%
X146717500Y-63600000D03*
X146717500Y-62330000D03*
X153092500Y-62330000D03*
X153092500Y-63600000D03*
%TD*%
%TO.C,U4*%
X146590500Y-90905000D03*
X146590500Y-89635000D03*
X152965500Y-89635000D03*
X152965500Y-90905000D03*
%TD*%
M02*
