%TF.GenerationSoftware,KiCad,Pcbnew,(6.0.4)*%
%TF.CreationDate,2023-07-24T12:17:23-04:00*%
%TF.ProjectId,BREAD_Slice,42524541-445f-4536-9c69-63652e6b6963,rev?*%
%TF.SameCoordinates,Original*%
%TF.FileFunction,Copper,L1,Top*%
%TF.FilePolarity,Positive*%
%FSLAX46Y46*%
G04 Gerber Fmt 4.6, Leading zero omitted, Abs format (unit mm)*
G04 Created by KiCad (PCBNEW (6.0.4)) date 2023-07-24 12:17:23*
%MOMM*%
%LPD*%
G01*
G04 APERTURE LIST*
%TA.AperFunction,ComponentPad*%
%ADD10C,5.600000*%
%TD*%
%TA.AperFunction,ComponentPad*%
%ADD11R,1.600000X1.600000*%
%TD*%
%TA.AperFunction,ComponentPad*%
%ADD12O,1.600000X1.600000*%
%TD*%
%TA.AperFunction,ComponentPad*%
%ADD13R,1.700000X1.700000*%
%TD*%
%TA.AperFunction,ComponentPad*%
%ADD14O,1.700000X1.700000*%
%TD*%
%TA.AperFunction,ComponentPad*%
%ADD15R,2.100000X2.100000*%
%TD*%
%TA.AperFunction,ComponentPad*%
%ADD16C,2.100000*%
%TD*%
%TA.AperFunction,ComponentPad*%
%ADD17R,2.300000X2.300000*%
%TD*%
%TA.AperFunction,ComponentPad*%
%ADD18C,2.300000*%
%TD*%
%TA.AperFunction,ComponentPad*%
%ADD19C,1.440000*%
%TD*%
%TA.AperFunction,ViaPad*%
%ADD20C,1.250000*%
%TD*%
%TA.AperFunction,ViaPad*%
%ADD21C,0.800000*%
%TD*%
%TA.AperFunction,Conductor*%
%ADD22C,0.500000*%
%TD*%
%TA.AperFunction,Conductor*%
%ADD23C,1.500000*%
%TD*%
G04 APERTURE END LIST*
D10*
%TO.P,H1,1*%
%TO.N,N/C*%
X127600000Y-44800000D03*
%TD*%
%TO.P,H2,1*%
%TO.N,N/C*%
X187600000Y-44800000D03*
%TD*%
%TO.P,H3,1*%
%TO.N,N/C*%
X127600000Y-134800000D03*
%TD*%
%TO.P,H4,1*%
%TO.N,N/C*%
X187600000Y-134800000D03*
%TD*%
D11*
%TO.P,A1,1,D1/TX*%
%TO.N,unconnected-(A1-Pad1)*%
X135000000Y-100000000D03*
D12*
%TO.P,A1,2,D0/RX*%
%TO.N,unconnected-(A1-Pad2)*%
X135000000Y-102540000D03*
%TO.P,A1,3,~{RESET}*%
%TO.N,unconnected-(A1-Pad3)*%
X135000000Y-105080000D03*
%TO.P,A1,4,GND*%
%TO.N,GND*%
X135000000Y-107620000D03*
%TO.P,A1,5,D2*%
%TO.N,/E_STOP*%
X135000000Y-110160000D03*
%TO.P,A1,6,D3*%
%TO.N,/INT*%
X135000000Y-112700000D03*
%TO.P,A1,7,D4*%
%TO.N,/SYNC*%
X135000000Y-115240000D03*
%TO.P,A1,8,D5*%
%TO.N,unconnected-(A1-Pad8)*%
X135000000Y-117780000D03*
%TO.P,A1,9,D6*%
%TO.N,/SW1*%
X135000000Y-120320000D03*
%TO.P,A1,10,D7*%
%TO.N,unconnected-(A1-Pad10)*%
X135000000Y-122860000D03*
%TO.P,A1,11,D8*%
%TO.N,unconnected-(A1-Pad11)*%
X135000000Y-125400000D03*
%TO.P,A1,12,D9*%
%TO.N,/SW2*%
X135000000Y-127940000D03*
%TO.P,A1,13,D10*%
%TO.N,/SW3*%
X135000000Y-130480000D03*
%TO.P,A1,14,D11*%
%TO.N,/SW4*%
X135000000Y-133020000D03*
%TO.P,A1,15,D12*%
%TO.N,unconnected-(A1-Pad15)*%
X135000000Y-135560000D03*
%TO.P,A1,16,D13*%
%TO.N,unconnected-(A1-Pad16)*%
X150240000Y-135560000D03*
%TO.P,A1,17,3V3*%
%TO.N,unconnected-(A1-Pad17)*%
X150240000Y-133020000D03*
%TO.P,A1,18,AREF*%
%TO.N,unconnected-(A1-Pad18)*%
X150240000Y-130480000D03*
%TO.P,A1,19,A0*%
%TO.N,/A_IN1*%
X150240000Y-127940000D03*
%TO.P,A1,20,A1*%
%TO.N,/A_IN2*%
X150240000Y-125400000D03*
%TO.P,A1,21,A2*%
%TO.N,/A_IN3*%
X150240000Y-122860000D03*
%TO.P,A1,22,A3*%
%TO.N,/A_IN4*%
X150240000Y-120320000D03*
%TO.P,A1,23,A4*%
%TO.N,/I2C_DAT*%
X150240000Y-117780000D03*
%TO.P,A1,24,A5*%
%TO.N,/I2C_CLK*%
X150240000Y-115240000D03*
%TO.P,A1,25,A6*%
%TO.N,unconnected-(A1-Pad25)*%
X150240000Y-112700000D03*
%TO.P,A1,26,A7*%
%TO.N,unconnected-(A1-Pad26)*%
X150240000Y-110160000D03*
%TO.P,A1,27,+5V*%
%TO.N,+5V*%
X150240000Y-107620000D03*
%TO.P,A1,28,~{RESET}*%
%TO.N,unconnected-(A1-Pad28)*%
X150240000Y-105080000D03*
%TO.P,A1,29,GND*%
%TO.N,GND*%
X150240000Y-102540000D03*
%TO.P,A1,30,VIN*%
%TO.N,+12V*%
X150240000Y-100000000D03*
%TD*%
D13*
%TO.P,J1,1,Pin_1*%
%TO.N,GND*%
X129600000Y-78800000D03*
D14*
%TO.P,J1,2,Pin_2*%
%TO.N,+12V*%
X129600000Y-81340000D03*
%TO.P,J1,3,Pin_3*%
%TO.N,/I2C_CLK*%
X129600000Y-83880000D03*
%TO.P,J1,4,Pin_4*%
%TO.N,/I2C_DAT*%
X129600000Y-86420000D03*
%TO.P,J1,5,Pin_5*%
%TO.N,GND*%
X129600000Y-88960000D03*
%TO.P,J1,6,Pin_6*%
%TO.N,/E_STOP*%
X129600000Y-91500000D03*
%TO.P,J1,7,Pin_7*%
%TO.N,/INT*%
X129600000Y-94040000D03*
%TO.P,J1,8,Pin_8*%
%TO.N,/SYNC*%
X129600000Y-96580000D03*
%TO.P,J1,9,Pin_9*%
%TO.N,+12V*%
X129600000Y-99120000D03*
%TO.P,J1,10,Pin_10*%
%TO.N,GND*%
X129600000Y-101660000D03*
%TD*%
D15*
%TO.P,J2,1,Pin_1*%
%TO.N,Net-(J2-Pad1)*%
X187116000Y-60044000D03*
D16*
%TO.P,J2,2,Pin_2*%
%TO.N,Net-(J2-Pad2)*%
X187116000Y-62584000D03*
%TO.P,J2,3,Pin_3*%
%TO.N,Net-(J2-Pad3)*%
X187116000Y-65124000D03*
%TD*%
D15*
%TO.P,J3,1,Pin_1*%
%TO.N,Net-(J3-Pad1)*%
X187116000Y-89508000D03*
D16*
%TO.P,J3,2,Pin_2*%
%TO.N,Net-(J3-Pad2)*%
X187116000Y-92048000D03*
%TO.P,J3,3,Pin_3*%
%TO.N,Net-(J3-Pad3)*%
X187116000Y-94588000D03*
%TD*%
D15*
%TO.P,J4,1,Pin_1*%
%TO.N,Net-(J4-Pad1)*%
X187116000Y-74268000D03*
D16*
%TO.P,J4,2,Pin_2*%
%TO.N,Net-(J4-Pad2)*%
X187116000Y-76808000D03*
%TO.P,J4,3,Pin_3*%
%TO.N,Net-(J4-Pad3)*%
X187116000Y-79348000D03*
%TD*%
D15*
%TO.P,J5,1,Pin_1*%
%TO.N,Net-(J5-Pad1)*%
X187116000Y-103224000D03*
D16*
%TO.P,J5,2,Pin_2*%
%TO.N,Net-(J5-Pad2)*%
X187116000Y-105764000D03*
%TO.P,J5,3,Pin_3*%
%TO.N,Net-(J5-Pad3)*%
X187116000Y-108304000D03*
%TD*%
D15*
%TO.P,J6,1,Pin_1*%
%TO.N,/F_1*%
X187497000Y-123925000D03*
D16*
%TO.P,J6,2,Pin_2*%
%TO.N,/F_2*%
X187497000Y-121385000D03*
%TO.P,J6,3,Pin_3*%
%TO.N,/F_3*%
X187497000Y-118845000D03*
%TO.P,J6,4,Pin_4*%
%TO.N,/F_4*%
X187497000Y-116305000D03*
%TD*%
D17*
%TO.P,K1,1*%
%TO.N,Net-(D1-Pad2)*%
X159176000Y-52424000D03*
D18*
%TO.P,K1,2*%
%TO.N,Net-(J2-Pad3)*%
X169336000Y-52424000D03*
%TO.P,K1,3*%
%TO.N,Net-(J2-Pad2)*%
X176956000Y-52424000D03*
%TO.P,K1,4*%
%TO.N,Net-(J2-Pad1)*%
X174416000Y-44804000D03*
%TO.P,K1,5*%
%TO.N,+5V*%
X159176000Y-44804000D03*
%TD*%
D17*
%TO.P,K2,1*%
%TO.N,Net-(D3-Pad2)*%
X159176000Y-66648000D03*
D18*
%TO.P,K2,2*%
%TO.N,Net-(J4-Pad3)*%
X169336000Y-66648000D03*
%TO.P,K2,3*%
%TO.N,Net-(J4-Pad2)*%
X176956000Y-66648000D03*
%TO.P,K2,4*%
%TO.N,Net-(J4-Pad1)*%
X174416000Y-59028000D03*
%TO.P,K2,5*%
%TO.N,+5V*%
X159176000Y-59028000D03*
%TD*%
D17*
%TO.P,K3,1*%
%TO.N,Net-(D2-Pad2)*%
X159176000Y-81380000D03*
D18*
%TO.P,K3,2*%
%TO.N,Net-(J3-Pad3)*%
X169336000Y-81380000D03*
%TO.P,K3,3*%
%TO.N,Net-(J3-Pad2)*%
X176956000Y-81380000D03*
%TO.P,K3,4*%
%TO.N,Net-(J3-Pad1)*%
X174416000Y-73760000D03*
%TO.P,K3,5*%
%TO.N,+5V*%
X159176000Y-73760000D03*
%TD*%
D17*
%TO.P,K4,1*%
%TO.N,Net-(D4-Pad2)*%
X159176000Y-95604000D03*
D18*
%TO.P,K4,2*%
%TO.N,Net-(J5-Pad3)*%
X169336000Y-95604000D03*
%TO.P,K4,3*%
%TO.N,Net-(J5-Pad2)*%
X176956000Y-95604000D03*
%TO.P,K4,4*%
%TO.N,Net-(J5-Pad1)*%
X174416000Y-87984000D03*
%TO.P,K4,5*%
%TO.N,+5V*%
X159176000Y-87984000D03*
%TD*%
D19*
%TO.P,RV1,1,1*%
%TO.N,/F_1*%
X175432000Y-122528000D03*
%TO.P,RV1,2,2*%
%TO.N,/A_IN1*%
X177972000Y-125068000D03*
%TO.P,RV1,3,3*%
%TO.N,GND*%
X175432000Y-127608000D03*
%TD*%
%TO.P,RV2,1,1*%
%TO.N,/F_2*%
X166161000Y-115289000D03*
%TO.P,RV2,2,2*%
%TO.N,/A_IN2*%
X168701000Y-117829000D03*
%TO.P,RV2,3,3*%
%TO.N,GND*%
X166161000Y-120369000D03*
%TD*%
%TO.P,RV3,1,1*%
%TO.N,/F_3*%
X175051000Y-107542000D03*
%TO.P,RV3,2,2*%
%TO.N,/A_IN3*%
X177591000Y-110082000D03*
%TO.P,RV3,3,3*%
%TO.N,GND*%
X175051000Y-112622000D03*
%TD*%
%TO.P,RV4,1,1*%
%TO.N,/F_4*%
X166542000Y-101446000D03*
%TO.P,RV4,2,2*%
%TO.N,/A_IN4*%
X169082000Y-103986000D03*
%TO.P,RV4,3,3*%
%TO.N,GND*%
X166542000Y-106526000D03*
%TD*%
D20*
%TO.N,GND*%
X162414500Y-111796500D03*
D21*
X162478000Y-102335000D03*
D20*
X179623000Y-114971500D03*
%TO.N,/I2C_CLK*%
X133550000Y-85350000D03*
X153969000Y-110971000D03*
%TO.N,/I2C_DAT*%
X133550000Y-87800000D03*
X153969000Y-114400000D03*
%TO.N,+12V*%
X150159000Y-93826000D03*
X131236000Y-67791000D03*
%TD*%
D22*
%TO.N,GND*%
X176448000Y-111796500D02*
X162414500Y-111796500D01*
X179623000Y-114971500D02*
X176448000Y-111796500D01*
%TO.N,/I2C_CLK*%
X151907999Y-108909999D02*
X153969000Y-110971000D01*
X141015000Y-100245002D02*
X149679997Y-108909999D01*
X149679997Y-108909999D02*
X151907999Y-108909999D01*
X135206000Y-85350000D02*
X141015000Y-91159000D01*
X141015000Y-91159000D02*
X141015000Y-100245002D01*
X133550000Y-85350000D02*
X135206000Y-85350000D01*
%TO.N,/I2C_DAT*%
X133550000Y-87800000D02*
X133550000Y-89282000D01*
X136951000Y-92683000D02*
X136951000Y-101261002D01*
X136951000Y-101261002D02*
X149679997Y-113989999D01*
X149679997Y-113989999D02*
X153558999Y-113989999D01*
X153558999Y-113989999D02*
X153969000Y-114400000D01*
X133550000Y-89282000D02*
X136951000Y-92683000D01*
D23*
%TO.N,+12V*%
X131236000Y-67791000D02*
X131236000Y-74903000D01*
X131236000Y-74903000D02*
X150159000Y-93826000D01*
%TD*%
M02*
