M48
; DRILL file {KiCad 9.0.7} date 2026-02-10T14:17:14-0500
; FORMAT={-:-/ absolute / metric / decimal}
; #@! TF.CreationDate,2026-02-10T14:17:14-05:00
; #@! TF.GenerationSoftware,Kicad,Pcbnew,9.0.7
; #@! TF.FileFunction,Plated,1,2,PTH
FMAT,2
METRIC
; #@! TA.AperFunction,Plated,PTH,ViaDrill
T1C0.200
; #@! TA.AperFunction,Plated,PTH,ViaDrill
T2C0.400
; #@! TA.AperFunction,Plated,PTH,ComponentDrill
T3C0.800
; #@! TA.AperFunction,Plated,PTH,ComponentDrill
T4C1.000
; #@! TA.AperFunction,Plated,PTH,ComponentDrill
T5C1.100
; #@! TA.AperFunction,Plated,PTH,ComponentDrill
T6C1.300
%
G90
G05
T1
X6.15Y16.145
X7.25Y18.845
X7.45Y21.845
X8.15Y18.845
X8.55Y21.045
X8.55Y19.545
X9.75Y21.845
T2
X3.55Y16.595
X3.75Y13.345
X7.35Y23.595
X14.25Y21.895
X14.25Y18.995
X14.25Y13.995
X25.588Y7.2
X26.781Y7.195
X28.088Y3.249
X31.388Y24.5
X31.388Y22.0
X50.2Y2.1
T3
X49.16Y26.9
X49.16Y21.82
X49.16Y19.24
X49.16Y14.16
X51.7Y24.36
X51.7Y16.7
X54.36Y14.14
X54.36Y9.06
X54.46Y21.84
X54.46Y16.76
X56.9Y11.6
X57.0Y19.3
T4
X3.6Y61.45
X3.6Y58.91
X3.6Y56.37
X3.6Y53.83
X3.6Y51.29
X3.6Y48.75
X3.6Y46.21
X3.6Y43.67
X3.6Y41.13
X3.6Y38.59
X19.988Y39.8
X19.988Y37.26
X19.988Y34.72
X19.988Y32.18
X19.988Y29.64
X19.988Y27.1
X19.988Y24.56
X19.988Y22.02
X19.988Y19.48
X19.988Y16.94
X19.988Y14.4
X19.988Y11.86
X19.988Y9.32
X19.988Y6.78
X19.988Y4.24
X35.228Y39.8
X35.228Y37.26
X35.228Y34.72
X35.228Y32.18
X35.228Y29.64
X35.228Y27.1
X35.228Y24.56
X35.228Y22.02
X35.228Y19.48
X35.228Y16.94
X35.228Y14.4
X35.228Y11.86
X35.228Y9.32
X35.228Y6.78
X35.228Y4.24
T5
X65.2Y20.355
X65.2Y17.815
X65.2Y15.275
X65.2Y12.735
T6
X36.36Y53.98
X36.36Y46.36
X36.39Y94.528
X36.39Y86.908
X36.425Y81.152
X36.425Y73.532
X36.425Y67.52
X36.425Y59.9
X46.52Y46.36
X46.55Y86.908
X46.585Y73.532
X46.585Y59.9
X51.6Y53.98
X51.63Y94.528
X51.665Y81.152
X51.665Y67.52
X54.14Y46.36
X54.17Y86.908
X54.205Y73.532
X54.205Y59.9
X63.145Y86.435
X63.145Y81.355
X63.145Y76.275
X63.145Y70.135
X63.145Y65.055
X63.145Y59.975
X63.15Y53.85
X63.15Y48.77
X63.15Y43.69
X63.15Y37.55
X63.15Y32.47
X63.15Y27.39
M30
