%TF.GenerationSoftware,KiCad,Pcbnew,(6.0.4)*%
%TF.CreationDate,2023-07-24T12:17:23-04:00*%
%TF.ProjectId,BREAD_Slice,42524541-445f-4536-9c69-63652e6b6963,rev?*%
%TF.SameCoordinates,Original*%
%TF.FileFunction,Soldermask,Bot*%
%TF.FilePolarity,Negative*%
%FSLAX46Y46*%
G04 Gerber Fmt 4.6, Leading zero omitted, Abs format (unit mm)*
G04 Created by KiCad (PCBNEW (6.0.4)) date 2023-07-24 12:17:23*
%MOMM*%
%LPD*%
G01*
G04 APERTURE LIST*
G04 Aperture macros list*
%AMRoundRect*
0 Rectangle with rounded corners*
0 $1 Rounding radius*
0 $2 $3 $4 $5 $6 $7 $8 $9 X,Y pos of 4 corners*
0 Add a 4 corners polygon primitive as box body*
4,1,4,$2,$3,$4,$5,$6,$7,$8,$9,$2,$3,0*
0 Add four circle primitives for the rounded corners*
1,1,$1+$1,$2,$3*
1,1,$1+$1,$4,$5*
1,1,$1+$1,$6,$7*
1,1,$1+$1,$8,$9*
0 Add four rect primitives between the rounded corners*
20,1,$1+$1,$2,$3,$4,$5,0*
20,1,$1+$1,$4,$5,$6,$7,0*
20,1,$1+$1,$6,$7,$8,$9,0*
20,1,$1+$1,$8,$9,$2,$3,0*%
G04 Aperture macros list end*
%ADD10C,5.700000*%
%ADD11RoundRect,0.050000X-0.800000X-0.800000X0.800000X-0.800000X0.800000X0.800000X-0.800000X0.800000X0*%
%ADD12O,1.700000X1.700000*%
%ADD13RoundRect,0.050000X-0.850000X-0.850000X0.850000X-0.850000X0.850000X0.850000X-0.850000X0.850000X0*%
%ADD14O,1.800000X1.800000*%
%ADD15RoundRect,0.050000X-1.050000X1.050000X-1.050000X-1.050000X1.050000X-1.050000X1.050000X1.050000X0*%
%ADD16C,2.200000*%
%ADD17RoundRect,0.050000X1.050000X-1.050000X1.050000X1.050000X-1.050000X1.050000X-1.050000X-1.050000X0*%
%ADD18RoundRect,0.050000X1.150000X1.150000X-1.150000X1.150000X-1.150000X-1.150000X1.150000X-1.150000X0*%
%ADD19C,2.400000*%
%ADD20C,1.540000*%
%ADD21RoundRect,0.050000X1.175000X-1.385000X1.175000X1.385000X-1.175000X1.385000X-1.175000X-1.385000X0*%
%ADD22RoundRect,0.300000X-0.625000X0.462500X-0.625000X-0.462500X0.625000X-0.462500X0.625000X0.462500X0*%
%ADD23RoundRect,0.300000X-0.400000X-0.625000X0.400000X-0.625000X0.400000X0.625000X-0.400000X0.625000X0*%
%ADD24RoundRect,0.200000X-0.662500X-0.150000X0.662500X-0.150000X0.662500X0.150000X-0.662500X0.150000X0*%
G04 APERTURE END LIST*
D10*
%TO.C,H1*%
X127600000Y-44800000D03*
%TD*%
%TO.C,H2*%
X187600000Y-44800000D03*
%TD*%
%TO.C,H3*%
X127600000Y-134800000D03*
%TD*%
%TO.C,H4*%
X187600000Y-134800000D03*
%TD*%
D11*
%TO.C,A1*%
X135000000Y-100000000D03*
D12*
X135000000Y-102540000D03*
X135000000Y-105080000D03*
X135000000Y-107620000D03*
X135000000Y-110160000D03*
X135000000Y-112700000D03*
X135000000Y-115240000D03*
X135000000Y-117780000D03*
X135000000Y-120320000D03*
X135000000Y-122860000D03*
X135000000Y-125400000D03*
X135000000Y-127940000D03*
X135000000Y-130480000D03*
X135000000Y-133020000D03*
X135000000Y-135560000D03*
X150240000Y-135560000D03*
X150240000Y-133020000D03*
X150240000Y-130480000D03*
X150240000Y-127940000D03*
X150240000Y-125400000D03*
X150240000Y-122860000D03*
X150240000Y-120320000D03*
X150240000Y-117780000D03*
X150240000Y-115240000D03*
X150240000Y-112700000D03*
X150240000Y-110160000D03*
X150240000Y-107620000D03*
X150240000Y-105080000D03*
X150240000Y-102540000D03*
X150240000Y-100000000D03*
%TD*%
D13*
%TO.C,J1*%
X129600000Y-78800000D03*
D14*
X129600000Y-81340000D03*
X129600000Y-83880000D03*
X129600000Y-86420000D03*
X129600000Y-88960000D03*
X129600000Y-91500000D03*
X129600000Y-94040000D03*
X129600000Y-96580000D03*
X129600000Y-99120000D03*
X129600000Y-101660000D03*
%TD*%
D15*
%TO.C,J2*%
X187116000Y-60044000D03*
D16*
X187116000Y-62584000D03*
X187116000Y-65124000D03*
%TD*%
D15*
%TO.C,J3*%
X187116000Y-89508000D03*
D16*
X187116000Y-92048000D03*
X187116000Y-94588000D03*
%TD*%
D15*
%TO.C,J4*%
X187116000Y-74268000D03*
D16*
X187116000Y-76808000D03*
X187116000Y-79348000D03*
%TD*%
D15*
%TO.C,J5*%
X187116000Y-103224000D03*
D16*
X187116000Y-105764000D03*
X187116000Y-108304000D03*
%TD*%
D17*
%TO.C,J6*%
X187497000Y-123925000D03*
D16*
X187497000Y-121385000D03*
X187497000Y-118845000D03*
X187497000Y-116305000D03*
%TD*%
D18*
%TO.C,K1*%
X159176000Y-52424000D03*
D19*
X169336000Y-52424000D03*
X176956000Y-52424000D03*
X174416000Y-44804000D03*
X159176000Y-44804000D03*
%TD*%
D18*
%TO.C,K2*%
X159176000Y-66648000D03*
D19*
X169336000Y-66648000D03*
X176956000Y-66648000D03*
X174416000Y-59028000D03*
X159176000Y-59028000D03*
%TD*%
D18*
%TO.C,K3*%
X159176000Y-81380000D03*
D19*
X169336000Y-81380000D03*
X176956000Y-81380000D03*
X174416000Y-73760000D03*
X159176000Y-73760000D03*
%TD*%
D18*
%TO.C,K4*%
X159176000Y-95604000D03*
D19*
X169336000Y-95604000D03*
X176956000Y-95604000D03*
X174416000Y-87984000D03*
X159176000Y-87984000D03*
%TD*%
D20*
%TO.C,RV1*%
X175432000Y-122528000D03*
X177972000Y-125068000D03*
X175432000Y-127608000D03*
%TD*%
%TO.C,RV2*%
X166161000Y-115289000D03*
X168701000Y-117829000D03*
X166161000Y-120369000D03*
%TD*%
%TO.C,RV3*%
X175051000Y-107542000D03*
X177591000Y-110082000D03*
X175051000Y-112622000D03*
%TD*%
%TO.C,RV4*%
X166542000Y-101446000D03*
X169082000Y-103986000D03*
X166542000Y-106526000D03*
%TD*%
D21*
%TO.C,C2*%
X154604000Y-107826000D03*
X154604000Y-102686000D03*
%TD*%
%TO.C,C1*%
X134792000Y-82426000D03*
X134792000Y-77286000D03*
%TD*%
D22*
%TO.C,D1*%
X162224000Y-47380500D03*
X162224000Y-50355500D03*
%TD*%
%TO.C,D2*%
X161970000Y-75828500D03*
X161970000Y-78803500D03*
%TD*%
%TO.C,D3*%
X161843000Y-60842500D03*
X161843000Y-63817500D03*
%TD*%
%TO.C,D4*%
X162224000Y-90052500D03*
X162224000Y-93027500D03*
%TD*%
%TO.C,D5*%
X160192000Y-126247500D03*
X160192000Y-129222500D03*
%TD*%
%TO.C,D6*%
X160192000Y-119389500D03*
X160192000Y-122364500D03*
%TD*%
%TO.C,D7*%
X160192000Y-112404500D03*
X160192000Y-115379500D03*
%TD*%
%TO.C,D8*%
X160192000Y-105038500D03*
X160192000Y-108013500D03*
%TD*%
D23*
%TO.C,R1*%
X147974000Y-45058000D03*
X151074000Y-45058000D03*
%TD*%
%TO.C,R2*%
X148228000Y-72490000D03*
X151328000Y-72490000D03*
%TD*%
%TO.C,R3*%
X148355000Y-58520000D03*
X151455000Y-58520000D03*
%TD*%
%TO.C,R4*%
X148101000Y-85698000D03*
X151201000Y-85698000D03*
%TD*%
D24*
%TO.C,U1*%
X146463500Y-50138000D03*
X146463500Y-48868000D03*
X152838500Y-48868000D03*
X152838500Y-50138000D03*
%TD*%
%TO.C,U2*%
X146590500Y-78078000D03*
X146590500Y-76808000D03*
X152965500Y-76808000D03*
X152965500Y-78078000D03*
%TD*%
%TO.C,U3*%
X146717500Y-63600000D03*
X146717500Y-62330000D03*
X153092500Y-62330000D03*
X153092500Y-63600000D03*
%TD*%
%TO.C,U4*%
X146590500Y-90905000D03*
X146590500Y-89635000D03*
X152965500Y-89635000D03*
X152965500Y-90905000D03*
%TD*%
M02*
