%TF.GenerationSoftware,KiCad,Pcbnew,9.0.7*%
%TF.CreationDate,2026-02-10T14:17:09-05:00*%
%TF.ProjectId,BREAD_Slice,42524541-445f-4536-9c69-63652e6b6963,rev?*%
%TF.SameCoordinates,PX74eba40PY8552dc0*%
%TF.FileFunction,Soldermask,Top*%
%TF.FilePolarity,Negative*%
%FSLAX46Y46*%
G04 Gerber Fmt 4.6, Leading zero omitted, Abs format (unit mm)*
G04 Created by KiCad (PCBNEW 9.0.7) date 2026-02-10 14:17:09*
%MOMM*%
%LPD*%
G01*
G04 APERTURE LIST*
G04 Aperture macros list*
%AMRoundRect*
0 Rectangle with rounded corners*
0 $1 Rounding radius*
0 $2 $3 $4 $5 $6 $7 $8 $9 X,Y pos of 4 corners*
0 Add a 4 corners polygon primitive as box body*
4,1,4,$2,$3,$4,$5,$6,$7,$8,$9,$2,$3,0*
0 Add four circle primitives for the rounded corners*
1,1,$1+$1,$2,$3*
1,1,$1+$1,$4,$5*
1,1,$1+$1,$6,$7*
1,1,$1+$1,$8,$9*
0 Add four rect primitives between the rounded corners*
20,1,$1+$1,$2,$3,$4,$5,0*
20,1,$1+$1,$4,$5,$6,$7,0*
20,1,$1+$1,$6,$7,$8,$9,0*
20,1,$1+$1,$8,$9,$2,$3,0*%
G04 Aperture macros list end*
%ADD10C,1.540000*%
%ADD11RoundRect,1.008333X-5.041667X-5.041667X5.041667X-5.041667X5.041667X5.041667X-5.041667X5.041667X0*%
%ADD12RoundRect,0.101600X-0.825500X-0.500000X0.825500X-0.500000X0.825500X0.500000X-0.825500X0.500000X0*%
%ADD13RoundRect,0.050000X-0.800000X-0.800000X0.800000X-0.800000X0.800000X0.800000X-0.800000X0.800000X0*%
%ADD14O,1.700000X1.700000*%
%ADD15C,5.100000*%
%ADD16RoundRect,0.050000X-0.850000X-0.850000X0.850000X-0.850000X0.850000X0.850000X-0.850000X0.850000X0*%
%ADD17C,1.800000*%
%ADD18RoundRect,0.259616X-1.090384X1.090384X-1.090384X-1.090384X1.090384X-1.090384X1.090384X1.090384X0*%
%ADD19C,2.700000*%
%ADD20RoundRect,0.261363X0.888637X-0.888637X0.888637X0.888637X-0.888637X0.888637X-0.888637X-0.888637X0*%
%ADD21C,2.300000*%
%ADD22RoundRect,0.050000X1.150000X1.150000X-1.150000X1.150000X-1.150000X-1.150000X1.150000X-1.150000X0*%
%ADD23C,2.400000*%
G04 APERTURE END LIST*
D10*
%TO.C,RV4*%
X49160000Y26900000D03*
X51700000Y24360000D03*
X49160000Y21820000D03*
%TD*%
%TO.C,RV3*%
X54460000Y21840000D03*
X57000000Y19300000D03*
X54460000Y16760000D03*
%TD*%
%TO.C,RV2*%
X49160000Y19240000D03*
X51700000Y16700000D03*
X49160000Y14160000D03*
%TD*%
%TO.C,RV1*%
X54360000Y14140000D03*
X56900000Y11600000D03*
X54360000Y9060000D03*
%TD*%
D11*
%TO.C,HS1*%
X8750000Y18445000D03*
%TD*%
D12*
%TO.C,D1*%
X48123000Y5267231D03*
X48123000Y2067231D03*
X53277000Y2067231D03*
X53277000Y5267231D03*
%TD*%
D13*
%TO.C,A1*%
X19988000Y39800000D03*
D14*
X19988000Y37260000D03*
X19988000Y34720000D03*
X19988000Y32180000D03*
X19988000Y29640000D03*
X19988000Y27100000D03*
X19988000Y24560000D03*
X19988000Y22020000D03*
X19988000Y19480000D03*
X19988000Y16940000D03*
X19988000Y14400000D03*
X19988000Y11860000D03*
X19988000Y9320000D03*
X19988000Y6780000D03*
X19988000Y4240000D03*
X35228000Y4240000D03*
X35228000Y6780000D03*
X35228000Y9320000D03*
X35228000Y11860000D03*
X35228000Y14400000D03*
X35228000Y16940000D03*
X35228000Y19480000D03*
X35228000Y22020000D03*
X35228000Y24560000D03*
X35228000Y27100000D03*
X35228000Y29640000D03*
X35228000Y32180000D03*
X35228000Y34720000D03*
X35228000Y37260000D03*
X35228000Y39800000D03*
%TD*%
D15*
%TO.C,H1*%
X5000000Y95000000D03*
%TD*%
%TO.C,H3*%
X65000000Y95000000D03*
%TD*%
%TO.C,H2*%
X5000000Y5000000D03*
%TD*%
%TO.C,H4*%
X65000000Y5000000D03*
%TD*%
D16*
%TO.C,J1*%
X3600000Y61450000D03*
D17*
X3600000Y58910000D03*
X3600000Y56370000D03*
X3600000Y53830000D03*
X3600000Y51290000D03*
X3600000Y48750000D03*
X3600000Y46210000D03*
X3600000Y43670000D03*
X3600000Y41130000D03*
X3600000Y38590000D03*
%TD*%
D18*
%TO.C,J5*%
X63150000Y53850000D03*
D19*
X63150000Y48770000D03*
X63150000Y43690000D03*
%TD*%
D20*
%TO.C,J2*%
X65200000Y12735000D03*
D21*
X65200000Y15275000D03*
X65200000Y17815000D03*
X65200000Y20355000D03*
%TD*%
D18*
%TO.C,J6*%
X63150000Y37550000D03*
D19*
X63150000Y32470000D03*
X63150000Y27390000D03*
%TD*%
D22*
%TO.C,K1*%
X36390000Y86908000D03*
D23*
X46550000Y86908000D03*
X54170000Y86908000D03*
X51630000Y94528000D03*
X36390000Y94528000D03*
%TD*%
D22*
%TO.C,K4*%
X36360000Y46360000D03*
D23*
X46520000Y46360000D03*
X54140000Y46360000D03*
X51600000Y53980000D03*
X36360000Y53980000D03*
%TD*%
D18*
%TO.C,J3*%
X63145000Y86435000D03*
D19*
X63145000Y81355000D03*
X63145000Y76275000D03*
%TD*%
D22*
%TO.C,K2*%
X36425000Y73532000D03*
D23*
X46585000Y73532000D03*
X54205000Y73532000D03*
X51665000Y81152000D03*
X36425000Y81152000D03*
%TD*%
D22*
%TO.C,K3*%
X36425000Y59900000D03*
D23*
X46585000Y59900000D03*
X54205000Y59900000D03*
X51665000Y67520000D03*
X36425000Y67520000D03*
%TD*%
D18*
%TO.C,J4*%
X63145000Y70135000D03*
D19*
X63145000Y65055000D03*
X63145000Y59975000D03*
%TD*%
M02*
