%TF.GenerationSoftware,KiCad,Pcbnew,9.0.7*%
%TF.CreationDate,2026-02-10T14:17:09-05:00*%
%TF.ProjectId,BREAD_Slice,42524541-445f-4536-9c69-63652e6b6963,rev?*%
%TF.SameCoordinates,PX74eba40PY8552dc0*%
%TF.FileFunction,Soldermask,Bot*%
%TF.FilePolarity,Negative*%
%FSLAX46Y46*%
G04 Gerber Fmt 4.6, Leading zero omitted, Abs format (unit mm)*
G04 Created by KiCad (PCBNEW 9.0.7) date 2026-02-10 14:17:09*
%MOMM*%
%LPD*%
G01*
G04 APERTURE LIST*
G04 Aperture macros list*
%AMRoundRect*
0 Rectangle with rounded corners*
0 $1 Rounding radius*
0 $2 $3 $4 $5 $6 $7 $8 $9 X,Y pos of 4 corners*
0 Add a 4 corners polygon primitive as box body*
4,1,4,$2,$3,$4,$5,$6,$7,$8,$9,$2,$3,0*
0 Add four circle primitives for the rounded corners*
1,1,$1+$1,$2,$3*
1,1,$1+$1,$4,$5*
1,1,$1+$1,$6,$7*
1,1,$1+$1,$8,$9*
0 Add four rect primitives between the rounded corners*
20,1,$1+$1,$2,$3,$4,$5,0*
20,1,$1+$1,$4,$5,$6,$7,0*
20,1,$1+$1,$6,$7,$8,$9,0*
20,1,$1+$1,$8,$9,$2,$3,0*%
G04 Aperture macros list end*
%ADD10RoundRect,0.050000X-0.450850X-0.254000X0.450850X-0.254000X0.450850X0.254000X-0.450850X0.254000X0*%
%ADD11C,1.540000*%
%ADD12RoundRect,0.050000X-0.800000X-0.800000X0.800000X-0.800000X0.800000X0.800000X-0.800000X0.800000X0*%
%ADD13O,1.700000X1.700000*%
%ADD14C,5.100000*%
%ADD15RoundRect,0.050000X-0.850000X-0.850000X0.850000X-0.850000X0.850000X0.850000X-0.850000X0.850000X0*%
%ADD16C,1.800000*%
%ADD17RoundRect,0.259616X-1.090384X1.090384X-1.090384X-1.090384X1.090384X-1.090384X1.090384X1.090384X0*%
%ADD18C,2.700000*%
%ADD19RoundRect,0.261363X0.888637X-0.888637X0.888637X0.888637X-0.888637X0.888637X-0.888637X-0.888637X0*%
%ADD20C,2.300000*%
%ADD21RoundRect,0.050000X1.150000X1.150000X-1.150000X1.150000X-1.150000X-1.150000X1.150000X-1.150000X0*%
%ADD22C,2.400000*%
%ADD23RoundRect,0.267544X0.494956X0.657456X-0.494956X0.657456X-0.494956X-0.657456X0.494956X-0.657456X0*%
%ADD24RoundRect,0.175000X-0.687500X-0.175000X0.687500X-0.175000X0.687500X0.175000X-0.687500X0.175000X0*%
%ADD25RoundRect,0.175000X0.175000X0.650000X-0.175000X0.650000X-0.175000X-0.650000X0.175000X-0.650000X0*%
%ADD26RoundRect,0.270833X0.379167X0.679167X-0.379167X0.679167X-0.379167X-0.679167X0.379167X-0.679167X0*%
%ADD27RoundRect,0.271739X0.353261X0.678261X-0.353261X0.678261X-0.353261X-0.678261X0.353261X-0.678261X0*%
%ADD28RoundRect,0.267544X-0.657456X0.494956X-0.657456X-0.494956X0.657456X-0.494956X0.657456X0.494956X0*%
%ADD29RoundRect,0.269231X-0.430769X-0.655769X0.430769X-0.655769X0.430769X0.655769X-0.430769X0.655769X0*%
%ADD30RoundRect,0.271739X-0.353261X-0.678261X0.353261X-0.678261X0.353261X0.678261X-0.353261X0.678261X0*%
%ADD31RoundRect,0.267544X-0.494956X-0.657456X0.494956X-0.657456X0.494956X0.657456X-0.494956X0.657456X0*%
%ADD32RoundRect,0.270000X-0.405000X-1.105000X0.405000X-1.105000X0.405000X1.105000X-0.405000X1.105000X0*%
G04 APERTURE END LIST*
D10*
%TO.C,U1*%
X4848250Y16094999D03*
X4848250Y17045000D03*
X4848250Y17995001D03*
X7451750Y17995001D03*
X7451750Y17045000D03*
X7451750Y16094999D03*
%TD*%
D11*
%TO.C,RV4*%
X49160000Y26900000D03*
X51700000Y24360000D03*
X49160000Y21820000D03*
%TD*%
%TO.C,RV3*%
X54460000Y21840000D03*
X57000000Y19300000D03*
X54460000Y16760000D03*
%TD*%
%TO.C,RV2*%
X49160000Y19240000D03*
X51700000Y16700000D03*
X49160000Y14160000D03*
%TD*%
%TO.C,RV1*%
X54360000Y14140000D03*
X56900000Y11600000D03*
X54360000Y9060000D03*
%TD*%
D12*
%TO.C,A1*%
X19988000Y39800000D03*
D13*
X19988000Y37260000D03*
X19988000Y34720000D03*
X19988000Y32180000D03*
X19988000Y29640000D03*
X19988000Y27100000D03*
X19988000Y24560000D03*
X19988000Y22020000D03*
X19988000Y19480000D03*
X19988000Y16940000D03*
X19988000Y14400000D03*
X19988000Y11860000D03*
X19988000Y9320000D03*
X19988000Y6780000D03*
X19988000Y4240000D03*
X35228000Y4240000D03*
X35228000Y6780000D03*
X35228000Y9320000D03*
X35228000Y11860000D03*
X35228000Y14400000D03*
X35228000Y16940000D03*
X35228000Y19480000D03*
X35228000Y22020000D03*
X35228000Y24560000D03*
X35228000Y27100000D03*
X35228000Y29640000D03*
X35228000Y32180000D03*
X35228000Y34720000D03*
X35228000Y37260000D03*
X35228000Y39800000D03*
%TD*%
D14*
%TO.C,H1*%
X5000000Y95000000D03*
%TD*%
%TO.C,H3*%
X65000000Y95000000D03*
%TD*%
%TO.C,H2*%
X5000000Y5000000D03*
%TD*%
%TO.C,H4*%
X65000000Y5000000D03*
%TD*%
D15*
%TO.C,J1*%
X3600000Y61450000D03*
D16*
X3600000Y58910000D03*
X3600000Y56370000D03*
X3600000Y53830000D03*
X3600000Y51290000D03*
X3600000Y48750000D03*
X3600000Y46210000D03*
X3600000Y43670000D03*
X3600000Y41130000D03*
X3600000Y38590000D03*
%TD*%
D17*
%TO.C,J5*%
X63150000Y53850000D03*
D18*
X63150000Y48770000D03*
X63150000Y43690000D03*
%TD*%
D19*
%TO.C,J2*%
X65200000Y12735000D03*
D20*
X65200000Y15275000D03*
X65200000Y17815000D03*
X65200000Y20355000D03*
%TD*%
D17*
%TO.C,J6*%
X63150000Y37550000D03*
D18*
X63150000Y32470000D03*
X63150000Y27390000D03*
%TD*%
D21*
%TO.C,K1*%
X36390000Y86908000D03*
D22*
X46550000Y86908000D03*
X54170000Y86908000D03*
X51630000Y94528000D03*
X36390000Y94528000D03*
%TD*%
D21*
%TO.C,K4*%
X36360000Y46360000D03*
D22*
X46520000Y46360000D03*
X54140000Y46360000D03*
X51600000Y53980000D03*
X36360000Y53980000D03*
%TD*%
D17*
%TO.C,J3*%
X63145000Y86435000D03*
D18*
X63145000Y81355000D03*
X63145000Y76275000D03*
%TD*%
D21*
%TO.C,K2*%
X36425000Y73532000D03*
D22*
X46585000Y73532000D03*
X54205000Y73532000D03*
X51665000Y81152000D03*
X36425000Y81152000D03*
%TD*%
D21*
%TO.C,K3*%
X36425000Y59900000D03*
D22*
X46585000Y59900000D03*
X54205000Y59900000D03*
X51665000Y67520000D03*
X36425000Y67520000D03*
%TD*%
D17*
%TO.C,J4*%
X63145000Y70135000D03*
D18*
X63145000Y65055000D03*
X63145000Y59975000D03*
%TD*%
D23*
%TO.C,D5*%
X46387500Y22100000D03*
X43412500Y22100000D03*
%TD*%
D24*
%TO.C,U3*%
X23966500Y76580000D03*
X23966500Y77850000D03*
X30341500Y77850000D03*
X30341500Y76580000D03*
%TD*%
D23*
%TO.C,D2*%
X51587500Y9100000D03*
X48612500Y9100000D03*
%TD*%
D24*
%TO.C,U4*%
X23839500Y63202000D03*
X23839500Y64472000D03*
X30214500Y64472000D03*
X30214500Y63202000D03*
%TD*%
D25*
%TO.C,J1*%
X29098000Y5400000D03*
X28098000Y5400000D03*
X27098000Y5400000D03*
X26098000Y5400000D03*
D26*
X30398000Y1525000D03*
X24798000Y1525000D03*
%TD*%
D24*
%TO.C,U2*%
X23677500Y89194000D03*
X23677500Y90464000D03*
X30052500Y90464000D03*
X30052500Y89194000D03*
%TD*%
D27*
%TO.C,C1*%
X7425000Y20345000D03*
X4475000Y20345000D03*
%TD*%
D28*
%TO.C,D8*%
X39219000Y65451500D03*
X39219000Y62476500D03*
%TD*%
%TO.C,D9*%
X39408000Y51911500D03*
X39408000Y48936500D03*
%TD*%
D23*
%TO.C,D3*%
X45987500Y14200000D03*
X43012500Y14200000D03*
%TD*%
D29*
%TO.C,R2*%
X25604000Y81660000D03*
X28704000Y81660000D03*
%TD*%
%TO.C,R3*%
X25477000Y68790000D03*
X28577000Y68790000D03*
%TD*%
D28*
%TO.C,D7*%
X39092000Y79337500D03*
X39092000Y76362500D03*
%TD*%
D27*
%TO.C,C2*%
X10025000Y13545000D03*
X7075000Y13545000D03*
%TD*%
D28*
%TO.C,D6*%
X39438000Y91951500D03*
X39438000Y88976500D03*
%TD*%
D30*
%TO.C,C3*%
X9775000Y20345000D03*
X12725000Y20345000D03*
%TD*%
D29*
%TO.C,R4*%
X25285000Y56266000D03*
X28385000Y56266000D03*
%TD*%
D30*
%TO.C,C4*%
X9775000Y23345000D03*
X12725000Y23345000D03*
%TD*%
D24*
%TO.C,U5*%
X23774500Y51059000D03*
X23774500Y52329000D03*
X30149500Y52329000D03*
X30149500Y51059000D03*
%TD*%
D31*
%TO.C,D4*%
X48575000Y11650000D03*
X51550000Y11650000D03*
%TD*%
D32*
%TO.C,L1*%
X9850000Y17045000D03*
X12650000Y17045000D03*
%TD*%
D29*
%TO.C,R1*%
X25188000Y94274000D03*
X28288000Y94274000D03*
%TD*%
M02*
