%TF.GenerationSoftware,KiCad,Pcbnew,(6.0.4)*%
%TF.CreationDate,2023-07-24T12:17:23-04:00*%
%TF.ProjectId,BREAD_Slice,42524541-445f-4536-9c69-63652e6b6963,rev?*%
%TF.SameCoordinates,Original*%
%TF.FileFunction,Legend,Top*%
%TF.FilePolarity,Positive*%
%FSLAX46Y46*%
G04 Gerber Fmt 4.6, Leading zero omitted, Abs format (unit mm)*
G04 Created by KiCad (PCBNEW (6.0.4)) date 2023-07-24 12:17:23*
%MOMM*%
%LPD*%
G01*
G04 APERTURE LIST*
%ADD10C,0.150000*%
%ADD11C,0.300000*%
%ADD12C,0.120000*%
%ADD13C,0.010000*%
G04 APERTURE END LIST*
D10*
X192252380Y-106609523D02*
X191252380Y-106609523D01*
X192252380Y-106038095D01*
X191252380Y-106038095D01*
X191252380Y-105371428D02*
X191252380Y-105180952D01*
X191300000Y-105085714D01*
X191395238Y-104990476D01*
X191585714Y-104942857D01*
X191919047Y-104942857D01*
X192109523Y-104990476D01*
X192204761Y-105085714D01*
X192252380Y-105180952D01*
X192252380Y-105371428D01*
X192204761Y-105466666D01*
X192109523Y-105561904D01*
X191919047Y-105609523D01*
X191585714Y-105609523D01*
X191395238Y-105561904D01*
X191300000Y-105466666D01*
X191252380Y-105371428D01*
X130971428Y-91442857D02*
X131238095Y-91442857D01*
X131352380Y-91861904D02*
X130971428Y-91861904D01*
X130971428Y-91061904D01*
X131352380Y-91061904D01*
X131657142Y-91823809D02*
X131771428Y-91861904D01*
X131961904Y-91861904D01*
X132038095Y-91823809D01*
X132076190Y-91785714D01*
X132114285Y-91709523D01*
X132114285Y-91633333D01*
X132076190Y-91557142D01*
X132038095Y-91519047D01*
X131961904Y-91480952D01*
X131809523Y-91442857D01*
X131733333Y-91404761D01*
X131695238Y-91366666D01*
X131657142Y-91290476D01*
X131657142Y-91214285D01*
X131695238Y-91138095D01*
X131733333Y-91100000D01*
X131809523Y-91061904D01*
X131999999Y-91061904D01*
X132114285Y-91100000D01*
X132342857Y-91061904D02*
X132799999Y-91061904D01*
X132571428Y-91861904D02*
X132571428Y-91061904D01*
X133219047Y-91061904D02*
X133371428Y-91061904D01*
X133447619Y-91100000D01*
X133523809Y-91176190D01*
X133561904Y-91328571D01*
X133561904Y-91595238D01*
X133523809Y-91747619D01*
X133447619Y-91823809D01*
X133371428Y-91861904D01*
X133219047Y-91861904D01*
X133142857Y-91823809D01*
X133066666Y-91747619D01*
X133028571Y-91595238D01*
X133028571Y-91328571D01*
X133066666Y-91176190D01*
X133142857Y-91100000D01*
X133219047Y-91061904D01*
X133904761Y-91861904D02*
X133904761Y-91061904D01*
X134209523Y-91061904D01*
X134285714Y-91100000D01*
X134323809Y-91138095D01*
X134361904Y-91214285D01*
X134361904Y-91328571D01*
X134323809Y-91404761D01*
X134285714Y-91442857D01*
X134209523Y-91480952D01*
X133904761Y-91480952D01*
X192252380Y-95123809D02*
X191252380Y-95123809D01*
X192252380Y-94647619D02*
X191252380Y-94647619D01*
X192252380Y-94076190D01*
X191252380Y-94076190D01*
X192252380Y-65673809D02*
X191252380Y-65673809D01*
X192252380Y-65197619D02*
X191252380Y-65197619D01*
X192252380Y-64626190D01*
X191252380Y-64626190D01*
X131390476Y-88600000D02*
X131314285Y-88561904D01*
X131200000Y-88561904D01*
X131085714Y-88600000D01*
X131009523Y-88676190D01*
X130971428Y-88752380D01*
X130933333Y-88904761D01*
X130933333Y-89019047D01*
X130971428Y-89171428D01*
X131009523Y-89247619D01*
X131085714Y-89323809D01*
X131200000Y-89361904D01*
X131276190Y-89361904D01*
X131390476Y-89323809D01*
X131428571Y-89285714D01*
X131428571Y-89019047D01*
X131276190Y-89019047D01*
X131771428Y-89361904D02*
X131771428Y-88561904D01*
X132228571Y-89361904D01*
X132228571Y-88561904D01*
X132609523Y-89361904D02*
X132609523Y-88561904D01*
X132800000Y-88561904D01*
X132914285Y-88600000D01*
X132990476Y-88676190D01*
X133028571Y-88752380D01*
X133066666Y-88904761D01*
X133066666Y-89019047D01*
X133028571Y-89171428D01*
X132990476Y-89247619D01*
X132914285Y-89323809D01*
X132800000Y-89361904D01*
X132609523Y-89361904D01*
X131390476Y-78400000D02*
X131314285Y-78361904D01*
X131200000Y-78361904D01*
X131085714Y-78400000D01*
X131009523Y-78476190D01*
X130971428Y-78552380D01*
X130933333Y-78704761D01*
X130933333Y-78819047D01*
X130971428Y-78971428D01*
X131009523Y-79047619D01*
X131085714Y-79123809D01*
X131200000Y-79161904D01*
X131276190Y-79161904D01*
X131390476Y-79123809D01*
X131428571Y-79085714D01*
X131428571Y-78819047D01*
X131276190Y-78819047D01*
X131771428Y-79161904D02*
X131771428Y-78361904D01*
X132228571Y-79161904D01*
X132228571Y-78361904D01*
X132609523Y-79161904D02*
X132609523Y-78361904D01*
X132800000Y-78361904D01*
X132914285Y-78400000D01*
X132990476Y-78476190D01*
X133028571Y-78552380D01*
X133066666Y-78704761D01*
X133066666Y-78819047D01*
X133028571Y-78971428D01*
X132990476Y-79047619D01*
X132914285Y-79123809D01*
X132800000Y-79161904D01*
X132609523Y-79161904D01*
X192252380Y-77609523D02*
X191252380Y-77609523D01*
X192252380Y-77038095D01*
X191252380Y-77038095D01*
X191252380Y-76371428D02*
X191252380Y-76180952D01*
X191300000Y-76085714D01*
X191395238Y-75990476D01*
X191585714Y-75942857D01*
X191919047Y-75942857D01*
X192109523Y-75990476D01*
X192204761Y-76085714D01*
X192252380Y-76180952D01*
X192252380Y-76371428D01*
X192204761Y-76466666D01*
X192109523Y-76561904D01*
X191919047Y-76609523D01*
X191585714Y-76609523D01*
X191395238Y-76561904D01*
X191300000Y-76466666D01*
X191252380Y-76371428D01*
D11*
X184008857Y-86778571D02*
X183508857Y-86064285D01*
X183151714Y-86778571D02*
X183151714Y-85278571D01*
X183723142Y-85278571D01*
X183866000Y-85350000D01*
X183937428Y-85421428D01*
X184008857Y-85564285D01*
X184008857Y-85778571D01*
X183937428Y-85921428D01*
X183866000Y-85992857D01*
X183723142Y-86064285D01*
X183151714Y-86064285D01*
X185223142Y-86707142D02*
X185080285Y-86778571D01*
X184794571Y-86778571D01*
X184651714Y-86707142D01*
X184580285Y-86564285D01*
X184580285Y-85992857D01*
X184651714Y-85850000D01*
X184794571Y-85778571D01*
X185080285Y-85778571D01*
X185223142Y-85850000D01*
X185294571Y-85992857D01*
X185294571Y-86135714D01*
X184580285Y-86278571D01*
X186151714Y-86778571D02*
X186008857Y-86707142D01*
X185937428Y-86564285D01*
X185937428Y-85278571D01*
X187366000Y-86778571D02*
X187366000Y-85992857D01*
X187294571Y-85850000D01*
X187151714Y-85778571D01*
X186866000Y-85778571D01*
X186723142Y-85850000D01*
X187366000Y-86707142D02*
X187223142Y-86778571D01*
X186866000Y-86778571D01*
X186723142Y-86707142D01*
X186651714Y-86564285D01*
X186651714Y-86421428D01*
X186723142Y-86278571D01*
X186866000Y-86207142D01*
X187223142Y-86207142D01*
X187366000Y-86135714D01*
X187937428Y-85778571D02*
X188294571Y-86778571D01*
X188651714Y-85778571D02*
X188294571Y-86778571D01*
X188151714Y-87135714D01*
X188080285Y-87207142D01*
X187937428Y-87278571D01*
X190223142Y-85278571D02*
X191151714Y-85278571D01*
X190651714Y-85850000D01*
X190866000Y-85850000D01*
X191008857Y-85921428D01*
X191080285Y-85992857D01*
X191151714Y-86135714D01*
X191151714Y-86492857D01*
X191080285Y-86635714D01*
X191008857Y-86707142D01*
X190866000Y-86778571D01*
X190437428Y-86778571D01*
X190294571Y-86707142D01*
X190223142Y-86635714D01*
D10*
X130971428Y-96961904D02*
X130971428Y-96161904D01*
X131352380Y-96961904D02*
X131352380Y-96161904D01*
X131809523Y-96961904D01*
X131809523Y-96161904D01*
X132076190Y-96161904D02*
X132533333Y-96161904D01*
X132304761Y-96961904D02*
X132304761Y-96161904D01*
X192352380Y-123639286D02*
X192352380Y-124210715D01*
X192352380Y-123925001D02*
X191352380Y-123925001D01*
X191495238Y-124020239D01*
X191590476Y-124115477D01*
X191638095Y-124210715D01*
X191352380Y-119178334D02*
X191352380Y-118559286D01*
X191733333Y-118892620D01*
X191733333Y-118749762D01*
X191780952Y-118654524D01*
X191828571Y-118606905D01*
X191923809Y-118559286D01*
X192161904Y-118559286D01*
X192257142Y-118606905D01*
X192304761Y-118654524D01*
X192352380Y-118749762D01*
X192352380Y-119035477D01*
X192304761Y-119130715D01*
X192257142Y-119178334D01*
X130933334Y-84223809D02*
X131047619Y-84261904D01*
X131238095Y-84261904D01*
X131314286Y-84223809D01*
X131352381Y-84185714D01*
X131390476Y-84109523D01*
X131390476Y-84033333D01*
X131352381Y-83957142D01*
X131314286Y-83919047D01*
X131238095Y-83880952D01*
X131085715Y-83842857D01*
X131009524Y-83804761D01*
X130971429Y-83766666D01*
X130933334Y-83690476D01*
X130933334Y-83614285D01*
X130971429Y-83538095D01*
X131009524Y-83500000D01*
X131085715Y-83461904D01*
X131276191Y-83461904D01*
X131390476Y-83500000D01*
X132190476Y-84185714D02*
X132152381Y-84223809D01*
X132038095Y-84261904D01*
X131961905Y-84261904D01*
X131847619Y-84223809D01*
X131771429Y-84147619D01*
X131733334Y-84071428D01*
X131695238Y-83919047D01*
X131695238Y-83804761D01*
X131733334Y-83652380D01*
X131771429Y-83576190D01*
X131847619Y-83500000D01*
X131961905Y-83461904D01*
X132038095Y-83461904D01*
X132152381Y-83500000D01*
X132190476Y-83538095D01*
X132914286Y-84261904D02*
X132533334Y-84261904D01*
X132533334Y-83461904D01*
X131390476Y-99511904D02*
X130933334Y-99511904D01*
X131161905Y-99511904D02*
X131161905Y-98711904D01*
X131085715Y-98826190D01*
X131009524Y-98902380D01*
X130933334Y-98940476D01*
X131695238Y-98788095D02*
X131733334Y-98750000D01*
X131809524Y-98711904D01*
X132000000Y-98711904D01*
X132076191Y-98750000D01*
X132114286Y-98788095D01*
X132152381Y-98864285D01*
X132152381Y-98940476D01*
X132114286Y-99054761D01*
X131657143Y-99511904D01*
X132152381Y-99511904D01*
X132380953Y-98711904D02*
X132647619Y-99511904D01*
X132914286Y-98711904D01*
D11*
X184008857Y-57078571D02*
X183508857Y-56364285D01*
X183151714Y-57078571D02*
X183151714Y-55578571D01*
X183723142Y-55578571D01*
X183866000Y-55650000D01*
X183937428Y-55721428D01*
X184008857Y-55864285D01*
X184008857Y-56078571D01*
X183937428Y-56221428D01*
X183866000Y-56292857D01*
X183723142Y-56364285D01*
X183151714Y-56364285D01*
X185223142Y-57007142D02*
X185080285Y-57078571D01*
X184794571Y-57078571D01*
X184651714Y-57007142D01*
X184580285Y-56864285D01*
X184580285Y-56292857D01*
X184651714Y-56150000D01*
X184794571Y-56078571D01*
X185080285Y-56078571D01*
X185223142Y-56150000D01*
X185294571Y-56292857D01*
X185294571Y-56435714D01*
X184580285Y-56578571D01*
X186151714Y-57078571D02*
X186008857Y-57007142D01*
X185937428Y-56864285D01*
X185937428Y-55578571D01*
X187366000Y-57078571D02*
X187366000Y-56292857D01*
X187294571Y-56150000D01*
X187151714Y-56078571D01*
X186866000Y-56078571D01*
X186723142Y-56150000D01*
X187366000Y-57007142D02*
X187223142Y-57078571D01*
X186866000Y-57078571D01*
X186723142Y-57007142D01*
X186651714Y-56864285D01*
X186651714Y-56721428D01*
X186723142Y-56578571D01*
X186866000Y-56507142D01*
X187223142Y-56507142D01*
X187366000Y-56435714D01*
X187937428Y-56078571D02*
X188294571Y-57078571D01*
X188651714Y-56078571D02*
X188294571Y-57078571D01*
X188151714Y-57435714D01*
X188080285Y-57507142D01*
X187937428Y-57578571D01*
X191151714Y-57078571D02*
X190294571Y-57078571D01*
X190723142Y-57078571D02*
X190723142Y-55578571D01*
X190580285Y-55792857D01*
X190437428Y-55935714D01*
X190294571Y-56007142D01*
D10*
X192202380Y-60835714D02*
X191202380Y-60835714D01*
X192202380Y-60264285D01*
X191202380Y-60264285D01*
X192107142Y-59216666D02*
X192154761Y-59264285D01*
X192202380Y-59407142D01*
X192202380Y-59502380D01*
X192154761Y-59645238D01*
X192059523Y-59740476D01*
X191964285Y-59788095D01*
X191773809Y-59835714D01*
X191630952Y-59835714D01*
X191440476Y-59788095D01*
X191345238Y-59740476D01*
X191250000Y-59645238D01*
X191202380Y-59502380D01*
X191202380Y-59407142D01*
X191250000Y-59264285D01*
X191297619Y-59216666D01*
X154171427Y-134642380D02*
X153838094Y-134166190D01*
X153599999Y-134642380D02*
X153599999Y-133642380D01*
X153980951Y-133642380D01*
X154076189Y-133690000D01*
X154123808Y-133737619D01*
X154171427Y-133832857D01*
X154171427Y-133975714D01*
X154123808Y-134070952D01*
X154076189Y-134118571D01*
X153980951Y-134166190D01*
X153599999Y-134166190D01*
X154980951Y-134594761D02*
X154885713Y-134642380D01*
X154695237Y-134642380D01*
X154599999Y-134594761D01*
X154552379Y-134499523D01*
X154552379Y-134118571D01*
X154599999Y-134023333D01*
X154695237Y-133975714D01*
X154885713Y-133975714D01*
X154980951Y-134023333D01*
X155028570Y-134118571D01*
X155028570Y-134213809D01*
X154552379Y-134309047D01*
X155599999Y-134642380D02*
X155504760Y-134594761D01*
X155457141Y-134499523D01*
X155457141Y-133642380D01*
X156409522Y-134642380D02*
X156409522Y-134118571D01*
X156361903Y-134023333D01*
X156266665Y-133975714D01*
X156076189Y-133975714D01*
X155980951Y-134023333D01*
X156409522Y-134594761D02*
X156314284Y-134642380D01*
X156076189Y-134642380D01*
X155980951Y-134594761D01*
X155933332Y-134499523D01*
X155933332Y-134404285D01*
X155980951Y-134309047D01*
X156076189Y-134261428D01*
X156314284Y-134261428D01*
X156409522Y-134213809D01*
X156790475Y-133975714D02*
X157028570Y-134642380D01*
X157266665Y-133975714D02*
X157028570Y-134642380D01*
X156933332Y-134880476D01*
X156885713Y-134928095D01*
X156790475Y-134975714D01*
X158361903Y-134594761D02*
X158504760Y-134642380D01*
X158742856Y-134642380D01*
X158838094Y-134594761D01*
X158885713Y-134547142D01*
X158933332Y-134451904D01*
X158933332Y-134356666D01*
X158885713Y-134261428D01*
X158838094Y-134213809D01*
X158742856Y-134166190D01*
X158552379Y-134118571D01*
X158457141Y-134070952D01*
X158409522Y-134023333D01*
X158361903Y-133928095D01*
X158361903Y-133832857D01*
X158409522Y-133737619D01*
X158457141Y-133690000D01*
X158552379Y-133642380D01*
X158790475Y-133642380D01*
X158933332Y-133690000D01*
X159504760Y-134642380D02*
X159409522Y-134594761D01*
X159361903Y-134499523D01*
X159361903Y-133642380D01*
X159885713Y-134642380D02*
X159885713Y-133975714D01*
X159885713Y-133642380D02*
X159838094Y-133690000D01*
X159885713Y-133737619D01*
X159933332Y-133690000D01*
X159885713Y-133642380D01*
X159885713Y-133737619D01*
X160790475Y-134594761D02*
X160695237Y-134642380D01*
X160504760Y-134642380D01*
X160409522Y-134594761D01*
X160361903Y-134547142D01*
X160314284Y-134451904D01*
X160314284Y-134166190D01*
X160361903Y-134070952D01*
X160409522Y-134023333D01*
X160504760Y-133975714D01*
X160695237Y-133975714D01*
X160790475Y-134023333D01*
X161599999Y-134594761D02*
X161504760Y-134642380D01*
X161314284Y-134642380D01*
X161219046Y-134594761D01*
X161171427Y-134499523D01*
X161171427Y-134118571D01*
X161219046Y-134023333D01*
X161314284Y-133975714D01*
X161504760Y-133975714D01*
X161599999Y-134023333D01*
X161647618Y-134118571D01*
X161647618Y-134213809D01*
X161171427Y-134309047D01*
X154266665Y-136204761D02*
X154409522Y-136252380D01*
X154647618Y-136252380D01*
X154742856Y-136204761D01*
X154790475Y-136157142D01*
X154838094Y-136061904D01*
X154838094Y-135966666D01*
X154790475Y-135871428D01*
X154742856Y-135823809D01*
X154647618Y-135776190D01*
X154457141Y-135728571D01*
X154361903Y-135680952D01*
X154314284Y-135633333D01*
X154266665Y-135538095D01*
X154266665Y-135442857D01*
X154314284Y-135347619D01*
X154361903Y-135300000D01*
X154457141Y-135252380D01*
X154695237Y-135252380D01*
X154838094Y-135300000D01*
X155742856Y-136252380D02*
X155266665Y-136252380D01*
X155266665Y-135252380D01*
X156647618Y-136157142D02*
X156599999Y-136204761D01*
X156457141Y-136252380D01*
X156361903Y-136252380D01*
X156219046Y-136204761D01*
X156123808Y-136109523D01*
X156076189Y-136014285D01*
X156028570Y-135823809D01*
X156028570Y-135680952D01*
X156076189Y-135490476D01*
X156123808Y-135395238D01*
X156219046Y-135300000D01*
X156361903Y-135252380D01*
X156457141Y-135252380D01*
X156599999Y-135300000D01*
X156647618Y-135347619D01*
X156838094Y-136347619D02*
X157599999Y-136347619D01*
X158409522Y-136252380D02*
X158076189Y-135776190D01*
X157838094Y-136252380D02*
X157838094Y-135252380D01*
X158219046Y-135252380D01*
X158314284Y-135300000D01*
X158361903Y-135347619D01*
X158409522Y-135442857D01*
X158409522Y-135585714D01*
X158361903Y-135680952D01*
X158314284Y-135728571D01*
X158219046Y-135776190D01*
X157838094Y-135776190D01*
X159314284Y-136252380D02*
X158838094Y-136252380D01*
X158838094Y-135252380D01*
X159599999Y-135966666D02*
X160076189Y-135966666D01*
X159504760Y-136252380D02*
X159838094Y-135252380D01*
X160171427Y-136252380D01*
X160695237Y-135776190D02*
X160695237Y-136252380D01*
X160361903Y-135252380D02*
X160695237Y-135776190D01*
X161028570Y-135252380D01*
X155147618Y-137862380D02*
X154814284Y-137386190D01*
X154576189Y-137862380D02*
X154576189Y-136862380D01*
X154957141Y-136862380D01*
X155052379Y-136910000D01*
X155099999Y-136957619D01*
X155147618Y-137052857D01*
X155147618Y-137195714D01*
X155099999Y-137290952D01*
X155052379Y-137338571D01*
X154957141Y-137386190D01*
X154576189Y-137386190D01*
X155766665Y-136862380D02*
X155861903Y-136862380D01*
X155957141Y-136910000D01*
X156004760Y-136957619D01*
X156052379Y-137052857D01*
X156099999Y-137243333D01*
X156099999Y-137481428D01*
X156052379Y-137671904D01*
X156004760Y-137767142D01*
X155957141Y-137814761D01*
X155861903Y-137862380D01*
X155766665Y-137862380D01*
X155671427Y-137814761D01*
X155623808Y-137767142D01*
X155576189Y-137671904D01*
X155528570Y-137481428D01*
X155528570Y-137243333D01*
X155576189Y-137052857D01*
X155623808Y-136957619D01*
X155671427Y-136910000D01*
X155766665Y-136862380D01*
X157242856Y-136957619D02*
X157290475Y-136910000D01*
X157385713Y-136862380D01*
X157623808Y-136862380D01*
X157719046Y-136910000D01*
X157766665Y-136957619D01*
X157814284Y-137052857D01*
X157814284Y-137148095D01*
X157766665Y-137290952D01*
X157195237Y-137862380D01*
X157814284Y-137862380D01*
X158433332Y-136862380D02*
X158528570Y-136862380D01*
X158623808Y-136910000D01*
X158671427Y-136957619D01*
X158719046Y-137052857D01*
X158766665Y-137243333D01*
X158766665Y-137481428D01*
X158719046Y-137671904D01*
X158671427Y-137767142D01*
X158623808Y-137814761D01*
X158528570Y-137862380D01*
X158433332Y-137862380D01*
X158338094Y-137814761D01*
X158290475Y-137767142D01*
X158242856Y-137671904D01*
X158195237Y-137481428D01*
X158195237Y-137243333D01*
X158242856Y-137052857D01*
X158290475Y-136957619D01*
X158338094Y-136910000D01*
X158433332Y-136862380D01*
X159147618Y-136957619D02*
X159195237Y-136910000D01*
X159290475Y-136862380D01*
X159528570Y-136862380D01*
X159623808Y-136910000D01*
X159671427Y-136957619D01*
X159719046Y-137052857D01*
X159719046Y-137148095D01*
X159671427Y-137290952D01*
X159099999Y-137862380D01*
X159719046Y-137862380D01*
X160671427Y-137862380D02*
X160099999Y-137862380D01*
X160385713Y-137862380D02*
X160385713Y-136862380D01*
X160290475Y-137005238D01*
X160195237Y-137100476D01*
X160099999Y-137148095D01*
X192252380Y-104035714D02*
X191252380Y-104035714D01*
X192252380Y-103464285D01*
X191252380Y-103464285D01*
X192157142Y-102416666D02*
X192204761Y-102464285D01*
X192252380Y-102607142D01*
X192252380Y-102702380D01*
X192204761Y-102845238D01*
X192109523Y-102940476D01*
X192014285Y-102988095D01*
X191823809Y-103035714D01*
X191680952Y-103035714D01*
X191490476Y-102988095D01*
X191395238Y-102940476D01*
X191300000Y-102845238D01*
X191252380Y-102702380D01*
X191252380Y-102607142D01*
X191300000Y-102464285D01*
X191347619Y-102416666D01*
X192202380Y-92859523D02*
X191202380Y-92859523D01*
X192202380Y-92288095D01*
X191202380Y-92288095D01*
X191202380Y-91621428D02*
X191202380Y-91430952D01*
X191250000Y-91335714D01*
X191345238Y-91240476D01*
X191535714Y-91192857D01*
X191869047Y-91192857D01*
X192059523Y-91240476D01*
X192154761Y-91335714D01*
X192202380Y-91430952D01*
X192202380Y-91621428D01*
X192154761Y-91716666D01*
X192059523Y-91811904D01*
X191869047Y-91859523D01*
X191535714Y-91859523D01*
X191345238Y-91811904D01*
X191250000Y-91716666D01*
X191202380Y-91621428D01*
X191685714Y-116114524D02*
X192352380Y-116114524D01*
X191304761Y-116352620D02*
X192019047Y-116590715D01*
X192019047Y-115971667D01*
D11*
X184008857Y-100428571D02*
X183508857Y-99714285D01*
X183151714Y-100428571D02*
X183151714Y-98928571D01*
X183723142Y-98928571D01*
X183866000Y-99000000D01*
X183937428Y-99071428D01*
X184008857Y-99214285D01*
X184008857Y-99428571D01*
X183937428Y-99571428D01*
X183866000Y-99642857D01*
X183723142Y-99714285D01*
X183151714Y-99714285D01*
X185223142Y-100357142D02*
X185080285Y-100428571D01*
X184794571Y-100428571D01*
X184651714Y-100357142D01*
X184580285Y-100214285D01*
X184580285Y-99642857D01*
X184651714Y-99500000D01*
X184794571Y-99428571D01*
X185080285Y-99428571D01*
X185223142Y-99500000D01*
X185294571Y-99642857D01*
X185294571Y-99785714D01*
X184580285Y-99928571D01*
X186151714Y-100428571D02*
X186008857Y-100357142D01*
X185937428Y-100214285D01*
X185937428Y-98928571D01*
X187366000Y-100428571D02*
X187366000Y-99642857D01*
X187294571Y-99500000D01*
X187151714Y-99428571D01*
X186866000Y-99428571D01*
X186723142Y-99500000D01*
X187366000Y-100357142D02*
X187223142Y-100428571D01*
X186866000Y-100428571D01*
X186723142Y-100357142D01*
X186651714Y-100214285D01*
X186651714Y-100071428D01*
X186723142Y-99928571D01*
X186866000Y-99857142D01*
X187223142Y-99857142D01*
X187366000Y-99785714D01*
X187937428Y-99428571D02*
X188294571Y-100428571D01*
X188651714Y-99428571D02*
X188294571Y-100428571D01*
X188151714Y-100785714D01*
X188080285Y-100857142D01*
X187937428Y-100928571D01*
X191008857Y-99428571D02*
X191008857Y-100428571D01*
X190651714Y-98857142D02*
X190294571Y-99928571D01*
X191223142Y-99928571D01*
D10*
X142943333Y-129907142D02*
X142943333Y-128954761D01*
X143514761Y-130097619D02*
X141514761Y-129430952D01*
X143514761Y-128764285D01*
X143514761Y-126954761D02*
X142562380Y-127621428D01*
X143514761Y-128097619D02*
X141514761Y-128097619D01*
X141514761Y-127335714D01*
X141610000Y-127145238D01*
X141705238Y-127050000D01*
X141895714Y-126954761D01*
X142181428Y-126954761D01*
X142371904Y-127050000D01*
X142467142Y-127145238D01*
X142562380Y-127335714D01*
X142562380Y-128097619D01*
X143514761Y-126097619D02*
X141514761Y-126097619D01*
X141514761Y-125621428D01*
X141610000Y-125335714D01*
X141800476Y-125145238D01*
X141990952Y-125050000D01*
X142371904Y-124954761D01*
X142657619Y-124954761D01*
X143038571Y-125050000D01*
X143229047Y-125145238D01*
X143419523Y-125335714D01*
X143514761Y-125621428D01*
X143514761Y-126097619D01*
X141514761Y-124097619D02*
X143133809Y-124097619D01*
X143324285Y-124002380D01*
X143419523Y-123907142D01*
X143514761Y-123716666D01*
X143514761Y-123335714D01*
X143419523Y-123145238D01*
X143324285Y-123050000D01*
X143133809Y-122954761D01*
X141514761Y-122954761D01*
X143514761Y-122002380D02*
X141514761Y-122002380D01*
X143514761Y-121050000D02*
X141514761Y-121050000D01*
X143514761Y-119907142D01*
X141514761Y-119907142D01*
X141514761Y-118573809D02*
X141514761Y-118192857D01*
X141610000Y-118002380D01*
X141800476Y-117811904D01*
X142181428Y-117716666D01*
X142848095Y-117716666D01*
X143229047Y-117811904D01*
X143419523Y-118002380D01*
X143514761Y-118192857D01*
X143514761Y-118573809D01*
X143419523Y-118764285D01*
X143229047Y-118954761D01*
X142848095Y-119050000D01*
X142181428Y-119050000D01*
X141800476Y-118954761D01*
X141610000Y-118764285D01*
X141514761Y-118573809D01*
X143514761Y-115335714D02*
X141514761Y-115335714D01*
X143514761Y-114192857D01*
X141514761Y-114192857D01*
X142943333Y-113335714D02*
X142943333Y-112383333D01*
X143514761Y-113526190D02*
X141514761Y-112859523D01*
X143514761Y-112192857D01*
X143514761Y-111526190D02*
X141514761Y-111526190D01*
X143514761Y-110383333D01*
X141514761Y-110383333D01*
X141514761Y-109050000D02*
X141514761Y-108669047D01*
X141610000Y-108478571D01*
X141800476Y-108288095D01*
X142181428Y-108192857D01*
X142848095Y-108192857D01*
X143229047Y-108288095D01*
X143419523Y-108478571D01*
X143514761Y-108669047D01*
X143514761Y-109050000D01*
X143419523Y-109240476D01*
X143229047Y-109430952D01*
X142848095Y-109526190D01*
X142181428Y-109526190D01*
X141800476Y-109430952D01*
X141610000Y-109240476D01*
X141514761Y-109050000D01*
X192202380Y-90285714D02*
X191202380Y-90285714D01*
X192202380Y-89714285D01*
X191202380Y-89714285D01*
X192107142Y-88666666D02*
X192154761Y-88714285D01*
X192202380Y-88857142D01*
X192202380Y-88952380D01*
X192154761Y-89095238D01*
X192059523Y-89190476D01*
X191964285Y-89238095D01*
X191773809Y-89285714D01*
X191630952Y-89285714D01*
X191440476Y-89238095D01*
X191345238Y-89190476D01*
X191250000Y-89095238D01*
X191202380Y-88952380D01*
X191202380Y-88857142D01*
X191250000Y-88714285D01*
X191297619Y-88666666D01*
D11*
X184008857Y-71378571D02*
X183508857Y-70664285D01*
X183151714Y-71378571D02*
X183151714Y-69878571D01*
X183723142Y-69878571D01*
X183866000Y-69950000D01*
X183937428Y-70021428D01*
X184008857Y-70164285D01*
X184008857Y-70378571D01*
X183937428Y-70521428D01*
X183866000Y-70592857D01*
X183723142Y-70664285D01*
X183151714Y-70664285D01*
X185223142Y-71307142D02*
X185080285Y-71378571D01*
X184794571Y-71378571D01*
X184651714Y-71307142D01*
X184580285Y-71164285D01*
X184580285Y-70592857D01*
X184651714Y-70450000D01*
X184794571Y-70378571D01*
X185080285Y-70378571D01*
X185223142Y-70450000D01*
X185294571Y-70592857D01*
X185294571Y-70735714D01*
X184580285Y-70878571D01*
X186151714Y-71378571D02*
X186008857Y-71307142D01*
X185937428Y-71164285D01*
X185937428Y-69878571D01*
X187366000Y-71378571D02*
X187366000Y-70592857D01*
X187294571Y-70450000D01*
X187151714Y-70378571D01*
X186866000Y-70378571D01*
X186723142Y-70450000D01*
X187366000Y-71307142D02*
X187223142Y-71378571D01*
X186866000Y-71378571D01*
X186723142Y-71307142D01*
X186651714Y-71164285D01*
X186651714Y-71021428D01*
X186723142Y-70878571D01*
X186866000Y-70807142D01*
X187223142Y-70807142D01*
X187366000Y-70735714D01*
X187937428Y-70378571D02*
X188294571Y-71378571D01*
X188651714Y-70378571D02*
X188294571Y-71378571D01*
X188151714Y-71735714D01*
X188080285Y-71807142D01*
X187937428Y-71878571D01*
X190294571Y-70021428D02*
X190366000Y-69950000D01*
X190508857Y-69878571D01*
X190866000Y-69878571D01*
X191008857Y-69950000D01*
X191080285Y-70021428D01*
X191151714Y-70164285D01*
X191151714Y-70307142D01*
X191080285Y-70521428D01*
X190223142Y-71378571D01*
X191151714Y-71378571D01*
D10*
X192252380Y-79873809D02*
X191252380Y-79873809D01*
X192252380Y-79397619D02*
X191252380Y-79397619D01*
X192252380Y-78826190D01*
X191252380Y-78826190D01*
X130933333Y-86773809D02*
X131047619Y-86811904D01*
X131238095Y-86811904D01*
X131314285Y-86773809D01*
X131352381Y-86735714D01*
X131390476Y-86659523D01*
X131390476Y-86583333D01*
X131352381Y-86507142D01*
X131314285Y-86469047D01*
X131238095Y-86430952D01*
X131085714Y-86392857D01*
X131009523Y-86354761D01*
X130971428Y-86316666D01*
X130933333Y-86240476D01*
X130933333Y-86164285D01*
X130971428Y-86088095D01*
X131009523Y-86050000D01*
X131085714Y-86011904D01*
X131276190Y-86011904D01*
X131390476Y-86050000D01*
X131733333Y-86811904D02*
X131733333Y-86011904D01*
X131923809Y-86011904D01*
X132038095Y-86050000D01*
X132114285Y-86126190D01*
X132152381Y-86202380D01*
X132190476Y-86354761D01*
X132190476Y-86469047D01*
X132152381Y-86621428D01*
X132114285Y-86697619D01*
X132038095Y-86773809D01*
X131923809Y-86811904D01*
X131733333Y-86811904D01*
X132495238Y-86583333D02*
X132876190Y-86583333D01*
X132419047Y-86811904D02*
X132685714Y-86011904D01*
X132952381Y-86811904D01*
X192252380Y-108873809D02*
X191252380Y-108873809D01*
X192252380Y-108397619D02*
X191252380Y-108397619D01*
X192252380Y-107826190D01*
X191252380Y-107826190D01*
X131390476Y-101250000D02*
X131314285Y-101211904D01*
X131200000Y-101211904D01*
X131085714Y-101250000D01*
X131009523Y-101326190D01*
X130971428Y-101402380D01*
X130933333Y-101554761D01*
X130933333Y-101669047D01*
X130971428Y-101821428D01*
X131009523Y-101897619D01*
X131085714Y-101973809D01*
X131200000Y-102011904D01*
X131276190Y-102011904D01*
X131390476Y-101973809D01*
X131428571Y-101935714D01*
X131428571Y-101669047D01*
X131276190Y-101669047D01*
X131771428Y-102011904D02*
X131771428Y-101211904D01*
X132228571Y-102011904D01*
X132228571Y-101211904D01*
X132609523Y-102011904D02*
X132609523Y-101211904D01*
X132800000Y-101211904D01*
X132914285Y-101250000D01*
X132990476Y-101326190D01*
X133028571Y-101402380D01*
X133066666Y-101554761D01*
X133066666Y-101669047D01*
X133028571Y-101821428D01*
X132990476Y-101897619D01*
X132914285Y-101973809D01*
X132800000Y-102011904D01*
X132609523Y-102011904D01*
X131390476Y-81711904D02*
X130933334Y-81711904D01*
X131161905Y-81711904D02*
X131161905Y-80911904D01*
X131085715Y-81026190D01*
X131009524Y-81102380D01*
X130933334Y-81140476D01*
X131695238Y-80988095D02*
X131733334Y-80950000D01*
X131809524Y-80911904D01*
X132000000Y-80911904D01*
X132076191Y-80950000D01*
X132114286Y-80988095D01*
X132152381Y-81064285D01*
X132152381Y-81140476D01*
X132114286Y-81254761D01*
X131657143Y-81711904D01*
X132152381Y-81711904D01*
X132380953Y-80911904D02*
X132647619Y-81711904D01*
X132914286Y-80911904D01*
X130933333Y-94373809D02*
X131047619Y-94411904D01*
X131238095Y-94411904D01*
X131314286Y-94373809D01*
X131352381Y-94335714D01*
X131390476Y-94259523D01*
X131390476Y-94183333D01*
X131352381Y-94107142D01*
X131314286Y-94069047D01*
X131238095Y-94030952D01*
X131085714Y-93992857D01*
X131009524Y-93954761D01*
X130971429Y-93916666D01*
X130933333Y-93840476D01*
X130933333Y-93764285D01*
X130971429Y-93688095D01*
X131009524Y-93650000D01*
X131085714Y-93611904D01*
X131276190Y-93611904D01*
X131390476Y-93650000D01*
X131885714Y-94030952D02*
X131885714Y-94411904D01*
X131619048Y-93611904D02*
X131885714Y-94030952D01*
X132152381Y-93611904D01*
X132419048Y-94411904D02*
X132419048Y-93611904D01*
X132876190Y-94411904D01*
X132876190Y-93611904D01*
X133714286Y-94335714D02*
X133676190Y-94373809D01*
X133561905Y-94411904D01*
X133485714Y-94411904D01*
X133371429Y-94373809D01*
X133295238Y-94297619D01*
X133257143Y-94221428D01*
X133219048Y-94069047D01*
X133219048Y-93954761D01*
X133257143Y-93802380D01*
X133295238Y-93726190D01*
X133371429Y-93650000D01*
X133485714Y-93611904D01*
X133561905Y-93611904D01*
X133676190Y-93650000D01*
X133714286Y-93688095D01*
X192202380Y-63409523D02*
X191202380Y-63409523D01*
X192202380Y-62838095D01*
X191202380Y-62838095D01*
X191202380Y-62171428D02*
X191202380Y-61980952D01*
X191250000Y-61885714D01*
X191345238Y-61790476D01*
X191535714Y-61742857D01*
X191869047Y-61742857D01*
X192059523Y-61790476D01*
X192154761Y-61885714D01*
X192202380Y-61980952D01*
X192202380Y-62171428D01*
X192154761Y-62266666D01*
X192059523Y-62361904D01*
X191869047Y-62409523D01*
X191535714Y-62409523D01*
X191345238Y-62361904D01*
X191250000Y-62266666D01*
X191202380Y-62171428D01*
X191447619Y-121670715D02*
X191400000Y-121623096D01*
X191352380Y-121527858D01*
X191352380Y-121289762D01*
X191400000Y-121194524D01*
X191447619Y-121146905D01*
X191542857Y-121099286D01*
X191638095Y-121099286D01*
X191780952Y-121146905D01*
X192352380Y-121718334D01*
X192352380Y-121099286D01*
X192252380Y-75035714D02*
X191252380Y-75035714D01*
X192252380Y-74464285D01*
X191252380Y-74464285D01*
X192157142Y-73416666D02*
X192204761Y-73464285D01*
X192252380Y-73607142D01*
X192252380Y-73702380D01*
X192204761Y-73845238D01*
X192109523Y-73940476D01*
X192014285Y-73988095D01*
X191823809Y-74035714D01*
X191680952Y-74035714D01*
X191490476Y-73988095D01*
X191395238Y-73940476D01*
X191300000Y-73845238D01*
X191252380Y-73702380D01*
X191252380Y-73607142D01*
X191300000Y-73464285D01*
X191347619Y-73416666D01*
D11*
X179935714Y-111778571D02*
X180435714Y-113278571D01*
X180935714Y-111778571D01*
X181650000Y-113278571D02*
X181507142Y-113207142D01*
X181435714Y-113135714D01*
X181364285Y-112992857D01*
X181364285Y-112564285D01*
X181435714Y-112421428D01*
X181507142Y-112350000D01*
X181650000Y-112278571D01*
X181864285Y-112278571D01*
X182007142Y-112350000D01*
X182078571Y-112421428D01*
X182150000Y-112564285D01*
X182150000Y-112992857D01*
X182078571Y-113135714D01*
X182007142Y-113207142D01*
X181864285Y-113278571D01*
X181650000Y-113278571D01*
X183007142Y-113278571D02*
X182864285Y-113207142D01*
X182792857Y-113064285D01*
X182792857Y-111778571D01*
X183364285Y-112278571D02*
X183935714Y-112278571D01*
X183578571Y-111778571D02*
X183578571Y-113064285D01*
X183650000Y-113207142D01*
X183792857Y-113278571D01*
X183935714Y-113278571D01*
X185078571Y-113278571D02*
X185078571Y-112492857D01*
X185007142Y-112350000D01*
X184864285Y-112278571D01*
X184578571Y-112278571D01*
X184435714Y-112350000D01*
X185078571Y-113207142D02*
X184935714Y-113278571D01*
X184578571Y-113278571D01*
X184435714Y-113207142D01*
X184364285Y-113064285D01*
X184364285Y-112921428D01*
X184435714Y-112778571D01*
X184578571Y-112707142D01*
X184935714Y-112707142D01*
X185078571Y-112635714D01*
X186435714Y-112278571D02*
X186435714Y-113492857D01*
X186364285Y-113635714D01*
X186292857Y-113707142D01*
X186150000Y-113778571D01*
X185935714Y-113778571D01*
X185792857Y-113707142D01*
X186435714Y-113207142D02*
X186292857Y-113278571D01*
X186007142Y-113278571D01*
X185864285Y-113207142D01*
X185792857Y-113135714D01*
X185721428Y-112992857D01*
X185721428Y-112564285D01*
X185792857Y-112421428D01*
X185864285Y-112350000D01*
X186007142Y-112278571D01*
X186292857Y-112278571D01*
X186435714Y-112350000D01*
X187721428Y-113207142D02*
X187578571Y-113278571D01*
X187292857Y-113278571D01*
X187150000Y-113207142D01*
X187078571Y-113064285D01*
X187078571Y-112492857D01*
X187150000Y-112350000D01*
X187292857Y-112278571D01*
X187578571Y-112278571D01*
X187721428Y-112350000D01*
X187792857Y-112492857D01*
X187792857Y-112635714D01*
X187078571Y-112778571D01*
X189578571Y-113278571D02*
X189578571Y-111778571D01*
X190292857Y-113278571D02*
X190292857Y-111778571D01*
X191150000Y-113278571D01*
X191150000Y-111778571D01*
D10*
%TO.C,A1*%
X141905714Y-95086666D02*
X142381904Y-95086666D01*
X141810476Y-95372380D02*
X142143809Y-94372380D01*
X142477142Y-95372380D01*
X143334285Y-95372380D02*
X142762857Y-95372380D01*
X143048571Y-95372380D02*
X143048571Y-94372380D01*
X142953333Y-94515238D01*
X142858095Y-94610476D01*
X142762857Y-94658095D01*
%TO.C,J1*%
X124886666Y-75482380D02*
X124886666Y-76196666D01*
X124839047Y-76339523D01*
X124743809Y-76434761D01*
X124600952Y-76482380D01*
X124505714Y-76482380D01*
X125886666Y-76482380D02*
X125315238Y-76482380D01*
X125600952Y-76482380D02*
X125600952Y-75482380D01*
X125505714Y-75625238D01*
X125410476Y-75720476D01*
X125315238Y-75768095D01*
%TO.C,J2*%
X182294380Y-62917333D02*
X183008666Y-62917333D01*
X183151523Y-62964952D01*
X183246761Y-63060190D01*
X183294380Y-63203047D01*
X183294380Y-63298285D01*
X182389619Y-62488761D02*
X182342000Y-62441142D01*
X182294380Y-62345904D01*
X182294380Y-62107809D01*
X182342000Y-62012571D01*
X182389619Y-61964952D01*
X182484857Y-61917333D01*
X182580095Y-61917333D01*
X182722952Y-61964952D01*
X183294380Y-62536380D01*
X183294380Y-61917333D01*
%TO.C,J3*%
X182302380Y-92381333D02*
X183016666Y-92381333D01*
X183159523Y-92428952D01*
X183254761Y-92524190D01*
X183302380Y-92667047D01*
X183302380Y-92762285D01*
X182302380Y-92000380D02*
X182302380Y-91381333D01*
X182683333Y-91714666D01*
X182683333Y-91571809D01*
X182730952Y-91476571D01*
X182778571Y-91428952D01*
X182873809Y-91381333D01*
X183111904Y-91381333D01*
X183207142Y-91428952D01*
X183254761Y-91476571D01*
X183302380Y-91571809D01*
X183302380Y-91857523D01*
X183254761Y-91952761D01*
X183207142Y-92000380D01*
%TO.C,J4*%
X182302380Y-77233333D02*
X183016666Y-77233333D01*
X183159523Y-77280952D01*
X183254761Y-77376190D01*
X183302380Y-77519047D01*
X183302380Y-77614285D01*
X182635714Y-76328571D02*
X183302380Y-76328571D01*
X182254761Y-76566666D02*
X182969047Y-76804761D01*
X182969047Y-76185714D01*
%TO.C,J5*%
X182102380Y-106083333D02*
X182816666Y-106083333D01*
X182959523Y-106130952D01*
X183054761Y-106226190D01*
X183102380Y-106369047D01*
X183102380Y-106464285D01*
X182102380Y-105130952D02*
X182102380Y-105607142D01*
X182578571Y-105654761D01*
X182530952Y-105607142D01*
X182483333Y-105511904D01*
X182483333Y-105273809D01*
X182530952Y-105178571D01*
X182578571Y-105130952D01*
X182673809Y-105083333D01*
X182911904Y-105083333D01*
X183007142Y-105130952D01*
X183054761Y-105178571D01*
X183102380Y-105273809D01*
X183102380Y-105511904D01*
X183054761Y-105607142D01*
X183007142Y-105654761D01*
%TO.C,J6*%
X182579380Y-120448333D02*
X183293666Y-120448333D01*
X183436523Y-120495952D01*
X183531761Y-120591190D01*
X183579380Y-120734047D01*
X183579380Y-120829285D01*
X182579380Y-119543571D02*
X182579380Y-119734047D01*
X182627000Y-119829285D01*
X182674619Y-119876904D01*
X182817476Y-119972142D01*
X183007952Y-120019761D01*
X183388904Y-120019761D01*
X183484142Y-119972142D01*
X183531761Y-119924523D01*
X183579380Y-119829285D01*
X183579380Y-119638809D01*
X183531761Y-119543571D01*
X183484142Y-119495952D01*
X183388904Y-119448333D01*
X183150809Y-119448333D01*
X183055571Y-119495952D01*
X183007952Y-119543571D01*
X182960333Y-119638809D01*
X182960333Y-119829285D01*
X183007952Y-119924523D01*
X183055571Y-119972142D01*
X183150809Y-120019761D01*
%TO.C,K1*%
X167937904Y-42376380D02*
X167937904Y-41376380D01*
X168509333Y-42376380D02*
X168080761Y-41804952D01*
X168509333Y-41376380D02*
X167937904Y-41947809D01*
X169461714Y-42376380D02*
X168890285Y-42376380D01*
X169176000Y-42376380D02*
X169176000Y-41376380D01*
X169080761Y-41519238D01*
X168985523Y-41614476D01*
X168890285Y-41662095D01*
%TO.C,K2*%
X167937904Y-56600380D02*
X167937904Y-55600380D01*
X168509333Y-56600380D02*
X168080761Y-56028952D01*
X168509333Y-55600380D02*
X167937904Y-56171809D01*
X168890285Y-55695619D02*
X168937904Y-55648000D01*
X169033142Y-55600380D01*
X169271238Y-55600380D01*
X169366476Y-55648000D01*
X169414095Y-55695619D01*
X169461714Y-55790857D01*
X169461714Y-55886095D01*
X169414095Y-56028952D01*
X168842666Y-56600380D01*
X169461714Y-56600380D01*
%TO.C,K3*%
X167937904Y-71332380D02*
X167937904Y-70332380D01*
X168509333Y-71332380D02*
X168080761Y-70760952D01*
X168509333Y-70332380D02*
X167937904Y-70903809D01*
X168842666Y-70332380D02*
X169461714Y-70332380D01*
X169128380Y-70713333D01*
X169271238Y-70713333D01*
X169366476Y-70760952D01*
X169414095Y-70808571D01*
X169461714Y-70903809D01*
X169461714Y-71141904D01*
X169414095Y-71237142D01*
X169366476Y-71284761D01*
X169271238Y-71332380D01*
X168985523Y-71332380D01*
X168890285Y-71284761D01*
X168842666Y-71237142D01*
%TO.C,K4*%
X167937904Y-85556380D02*
X167937904Y-84556380D01*
X168509333Y-85556380D02*
X168080761Y-84984952D01*
X168509333Y-84556380D02*
X167937904Y-85127809D01*
X169366476Y-84889714D02*
X169366476Y-85556380D01*
X169128380Y-84508761D02*
X168890285Y-85223047D01*
X169509333Y-85223047D01*
%TO.C,RV1*%
X173614380Y-125663238D02*
X173138190Y-125996571D01*
X173614380Y-126234666D02*
X172614380Y-126234666D01*
X172614380Y-125853714D01*
X172662000Y-125758476D01*
X172709619Y-125710857D01*
X172804857Y-125663238D01*
X172947714Y-125663238D01*
X173042952Y-125710857D01*
X173090571Y-125758476D01*
X173138190Y-125853714D01*
X173138190Y-126234666D01*
X172614380Y-125377523D02*
X173614380Y-125044190D01*
X172614380Y-124710857D01*
X173614380Y-123853714D02*
X173614380Y-124425142D01*
X173614380Y-124139428D02*
X172614380Y-124139428D01*
X172757238Y-124234666D01*
X172852476Y-124329904D01*
X172900095Y-124425142D01*
%TO.C,RV2*%
X164343380Y-118424238D02*
X163867190Y-118757571D01*
X164343380Y-118995666D02*
X163343380Y-118995666D01*
X163343380Y-118614714D01*
X163391000Y-118519476D01*
X163438619Y-118471857D01*
X163533857Y-118424238D01*
X163676714Y-118424238D01*
X163771952Y-118471857D01*
X163819571Y-118519476D01*
X163867190Y-118614714D01*
X163867190Y-118995666D01*
X163343380Y-118138523D02*
X164343380Y-117805190D01*
X163343380Y-117471857D01*
X163438619Y-117186142D02*
X163391000Y-117138523D01*
X163343380Y-117043285D01*
X163343380Y-116805190D01*
X163391000Y-116709952D01*
X163438619Y-116662333D01*
X163533857Y-116614714D01*
X163629095Y-116614714D01*
X163771952Y-116662333D01*
X164343380Y-117233761D01*
X164343380Y-116614714D01*
%TO.C,RV3*%
X173233380Y-110677238D02*
X172757190Y-111010571D01*
X173233380Y-111248666D02*
X172233380Y-111248666D01*
X172233380Y-110867714D01*
X172281000Y-110772476D01*
X172328619Y-110724857D01*
X172423857Y-110677238D01*
X172566714Y-110677238D01*
X172661952Y-110724857D01*
X172709571Y-110772476D01*
X172757190Y-110867714D01*
X172757190Y-111248666D01*
X172233380Y-110391523D02*
X173233380Y-110058190D01*
X172233380Y-109724857D01*
X172233380Y-109486761D02*
X172233380Y-108867714D01*
X172614333Y-109201047D01*
X172614333Y-109058190D01*
X172661952Y-108962952D01*
X172709571Y-108915333D01*
X172804809Y-108867714D01*
X173042904Y-108867714D01*
X173138142Y-108915333D01*
X173185761Y-108962952D01*
X173233380Y-109058190D01*
X173233380Y-109343904D01*
X173185761Y-109439142D01*
X173138142Y-109486761D01*
%TO.C,RV4*%
X164724380Y-104581238D02*
X164248190Y-104914571D01*
X164724380Y-105152666D02*
X163724380Y-105152666D01*
X163724380Y-104771714D01*
X163772000Y-104676476D01*
X163819619Y-104628857D01*
X163914857Y-104581238D01*
X164057714Y-104581238D01*
X164152952Y-104628857D01*
X164200571Y-104676476D01*
X164248190Y-104771714D01*
X164248190Y-105152666D01*
X163724380Y-104295523D02*
X164724380Y-103962190D01*
X163724380Y-103628857D01*
X164057714Y-102866952D02*
X164724380Y-102866952D01*
X163676761Y-103105047D02*
X164391047Y-103343142D01*
X164391047Y-102724095D01*
D12*
%TO.C,A1*%
X148970000Y-98730000D02*
X148970000Y-136830000D01*
X133600000Y-101270000D02*
X133600000Y-139500000D01*
X133600000Y-139500000D02*
X151640000Y-139500000D01*
X151640000Y-96060000D02*
X133600000Y-96060000D01*
X148970000Y-98730000D02*
X151640000Y-98730000D01*
X133600000Y-96060000D02*
X133600000Y-98730000D01*
X136270000Y-136830000D02*
X133600000Y-136830000D01*
X136270000Y-101270000D02*
X136270000Y-136830000D01*
X151640000Y-139500000D02*
X151640000Y-96060000D01*
X136270000Y-98730000D02*
X133600000Y-98730000D01*
X136270000Y-101270000D02*
X136270000Y-98730000D01*
X148970000Y-136830000D02*
X151640000Y-136830000D01*
X136270000Y-101270000D02*
X133600000Y-101270000D01*
%TO.C,J1*%
X119510000Y-79597615D02*
X128140000Y-79597615D01*
X119510000Y-77826190D02*
X128140000Y-77826190D01*
X128140000Y-99480000D02*
X128550000Y-99480000D01*
X128140000Y-94400000D02*
X128550000Y-94400000D01*
X119510000Y-78652855D02*
X128140000Y-78652855D01*
X119510000Y-79833805D02*
X128140000Y-79833805D01*
X128140000Y-86060000D02*
X128550000Y-86060000D01*
X128140000Y-86780000D02*
X128550000Y-86780000D01*
X119510000Y-79715710D02*
X128140000Y-79715710D01*
X119510000Y-80070000D02*
X128140000Y-80070000D01*
X119510000Y-79125235D02*
X128140000Y-79125235D01*
X119510000Y-78416665D02*
X128140000Y-78416665D01*
X130710000Y-77470000D02*
X130710000Y-78800000D01*
X128140000Y-91860000D02*
X128550000Y-91860000D01*
X128140000Y-80980000D02*
X128550000Y-80980000D01*
X119510000Y-77944285D02*
X128140000Y-77944285D01*
X119510000Y-78298570D02*
X128140000Y-78298570D01*
X128140000Y-84240000D02*
X128550000Y-84240000D01*
X128140000Y-89320000D02*
X128550000Y-89320000D01*
X119510000Y-79951900D02*
X128140000Y-79951900D01*
X128140000Y-101300000D02*
X128550000Y-101300000D01*
X119510000Y-79361425D02*
X128140000Y-79361425D01*
X128140000Y-93680000D02*
X128550000Y-93680000D01*
X119510000Y-79243330D02*
X128140000Y-79243330D01*
X128140000Y-81700000D02*
X128550000Y-81700000D01*
X119510000Y-77708095D02*
X128140000Y-77708095D01*
X128140000Y-78440000D02*
X128490000Y-78440000D01*
X119510000Y-102990000D02*
X128140000Y-102990000D01*
X119510000Y-82610000D02*
X128140000Y-82610000D01*
X119510000Y-92770000D02*
X128140000Y-92770000D01*
X119510000Y-87690000D02*
X128140000Y-87690000D01*
X119510000Y-100390000D02*
X128140000Y-100390000D01*
X119510000Y-78770950D02*
X128140000Y-78770950D01*
X119510000Y-77470000D02*
X128140000Y-77470000D01*
X119510000Y-85150000D02*
X128140000Y-85150000D01*
X119510000Y-78889045D02*
X128140000Y-78889045D01*
X128140000Y-102020000D02*
X128550000Y-102020000D01*
X128140000Y-79160000D02*
X128490000Y-79160000D01*
X128140000Y-96220000D02*
X128550000Y-96220000D01*
X119510000Y-78534760D02*
X128140000Y-78534760D01*
X128140000Y-91140000D02*
X128550000Y-91140000D01*
X128140000Y-83520000D02*
X128550000Y-83520000D01*
X119510000Y-77470000D02*
X119510000Y-102990000D01*
X119510000Y-79479520D02*
X128140000Y-79479520D01*
X128140000Y-77470000D02*
X128140000Y-102990000D01*
X119510000Y-95310000D02*
X128140000Y-95310000D01*
X119510000Y-78062380D02*
X128140000Y-78062380D01*
X129600000Y-77470000D02*
X130710000Y-77470000D01*
X119510000Y-90230000D02*
X128140000Y-90230000D01*
X119510000Y-97850000D02*
X128140000Y-97850000D01*
X128140000Y-96940000D02*
X128550000Y-96940000D01*
X128140000Y-88600000D02*
X128550000Y-88600000D01*
X119510000Y-77590000D02*
X128140000Y-77590000D01*
X119510000Y-79007140D02*
X128140000Y-79007140D01*
X128140000Y-98760000D02*
X128550000Y-98760000D01*
X119510000Y-78180475D02*
X128140000Y-78180475D01*
%TO.C,Logo1*%
G36*
X167155814Y-133268931D02*
G01*
X167239635Y-133713555D01*
X167548920Y-133841053D01*
X167858206Y-133968551D01*
X168229246Y-133716246D01*
X168333157Y-133645996D01*
X168427087Y-133583272D01*
X168506652Y-133530938D01*
X168567470Y-133491857D01*
X168605157Y-133468893D01*
X168615421Y-133463942D01*
X168633910Y-133476676D01*
X168673420Y-133511882D01*
X168729522Y-133565062D01*
X168797787Y-133631718D01*
X168873786Y-133707354D01*
X168953092Y-133787472D01*
X169031275Y-133867574D01*
X169103907Y-133943164D01*
X169166559Y-134009745D01*
X169214803Y-134062818D01*
X169244210Y-134097887D01*
X169251241Y-134109623D01*
X169241123Y-134131260D01*
X169212759Y-134178662D01*
X169169129Y-134247193D01*
X169113218Y-134332215D01*
X169048006Y-134429093D01*
X169010219Y-134484350D01*
X168941343Y-134585248D01*
X168880140Y-134676299D01*
X168829578Y-134752970D01*
X168792628Y-134810728D01*
X168772258Y-134845043D01*
X168769197Y-134852254D01*
X168776136Y-134872748D01*
X168795051Y-134920513D01*
X168823087Y-134988832D01*
X168857391Y-135070989D01*
X168895109Y-135160270D01*
X168933387Y-135249958D01*
X168969370Y-135333338D01*
X169000206Y-135403694D01*
X169023039Y-135454310D01*
X169035017Y-135478471D01*
X169035724Y-135479422D01*
X169054531Y-135484036D01*
X169104618Y-135494328D01*
X169180793Y-135509287D01*
X169277865Y-135527901D01*
X169390643Y-135549159D01*
X169456442Y-135561418D01*
X169576950Y-135584362D01*
X169685797Y-135606195D01*
X169777476Y-135625722D01*
X169846481Y-135641748D01*
X169887304Y-135653079D01*
X169895511Y-135656674D01*
X169903548Y-135681006D01*
X169910033Y-135735959D01*
X169914970Y-135815108D01*
X169918364Y-135912026D01*
X169920218Y-136020287D01*
X169920538Y-136133465D01*
X169919327Y-136245135D01*
X169916590Y-136348868D01*
X169912331Y-136438241D01*
X169906555Y-136506826D01*
X169899267Y-136548197D01*
X169894895Y-136556810D01*
X169868764Y-136567133D01*
X169813393Y-136581892D01*
X169736107Y-136599352D01*
X169644230Y-136617780D01*
X169612158Y-136623741D01*
X169457524Y-136652066D01*
X169335375Y-136674876D01*
X169241673Y-136693080D01*
X169172384Y-136707583D01*
X169123471Y-136719292D01*
X169090897Y-136729115D01*
X169070628Y-136737956D01*
X169058626Y-136746724D01*
X169056947Y-136748457D01*
X169040184Y-136776371D01*
X169014614Y-136830695D01*
X168982788Y-136904777D01*
X168947260Y-136991965D01*
X168910583Y-137085608D01*
X168875311Y-137179052D01*
X168843996Y-137265647D01*
X168819193Y-137338740D01*
X168803454Y-137391678D01*
X168799332Y-137417811D01*
X168799676Y-137418726D01*
X168813641Y-137440086D01*
X168845322Y-137487084D01*
X168891391Y-137554827D01*
X168948518Y-137638423D01*
X169013373Y-137732982D01*
X169031843Y-137759854D01*
X169097699Y-137857275D01*
X169155650Y-137946163D01*
X169202538Y-138021412D01*
X169235207Y-138077920D01*
X169250500Y-138110581D01*
X169251241Y-138114593D01*
X169238392Y-138135684D01*
X169202888Y-138177464D01*
X169149293Y-138235445D01*
X169082171Y-138305135D01*
X169006087Y-138382045D01*
X168925604Y-138461683D01*
X168845287Y-138539561D01*
X168769699Y-138611186D01*
X168703405Y-138672070D01*
X168650969Y-138717721D01*
X168616955Y-138743650D01*
X168607545Y-138747883D01*
X168585643Y-138737912D01*
X168540800Y-138711020D01*
X168480321Y-138671736D01*
X168433789Y-138640117D01*
X168349475Y-138582098D01*
X168249626Y-138513784D01*
X168149473Y-138445579D01*
X168095627Y-138409075D01*
X167913371Y-138285800D01*
X167760381Y-138368520D01*
X167690682Y-138404759D01*
X167631414Y-138432926D01*
X167591311Y-138448991D01*
X167581103Y-138451226D01*
X167568829Y-138434722D01*
X167544613Y-138388082D01*
X167510263Y-138315609D01*
X167467588Y-138221606D01*
X167418394Y-138110374D01*
X167364490Y-137986215D01*
X167307684Y-137853432D01*
X167249782Y-137716327D01*
X167192593Y-137579202D01*
X167137924Y-137446358D01*
X167087584Y-137322098D01*
X167043380Y-137210725D01*
X167007119Y-137116539D01*
X166980609Y-137043844D01*
X166965658Y-136996941D01*
X166963254Y-136980833D01*
X166982311Y-136960286D01*
X167024036Y-136926933D01*
X167079706Y-136887702D01*
X167084378Y-136884599D01*
X167228264Y-136769423D01*
X167344283Y-136635053D01*
X167431430Y-136485784D01*
X167488699Y-136325913D01*
X167515086Y-136159737D01*
X167509585Y-135991552D01*
X167471190Y-135825655D01*
X167398895Y-135666342D01*
X167377626Y-135631487D01*
X167266996Y-135490737D01*
X167136302Y-135377714D01*
X166990064Y-135293003D01*
X166832808Y-135237194D01*
X166669057Y-135210874D01*
X166503333Y-135214630D01*
X166340162Y-135249050D01*
X166184065Y-135314723D01*
X166039567Y-135412235D01*
X165994869Y-135451813D01*
X165881112Y-135575703D01*
X165798218Y-135706124D01*
X165741356Y-135852315D01*
X165709687Y-135997088D01*
X165701869Y-136159860D01*
X165727938Y-136323440D01*
X165785245Y-136482298D01*
X165871144Y-136630906D01*
X165982986Y-136763735D01*
X166118123Y-136875256D01*
X166135883Y-136887011D01*
X166192150Y-136925508D01*
X166234923Y-136958863D01*
X166255372Y-136980160D01*
X166255669Y-136980833D01*
X166251279Y-137003871D01*
X166233876Y-137056157D01*
X166205268Y-137133390D01*
X166167265Y-137231268D01*
X166121674Y-137345491D01*
X166070303Y-137471758D01*
X166014962Y-137605767D01*
X165957458Y-137743218D01*
X165899601Y-137879808D01*
X165843198Y-138011237D01*
X165790058Y-138133205D01*
X165741990Y-138241409D01*
X165700801Y-138331549D01*
X165668301Y-138399323D01*
X165646297Y-138440430D01*
X165637436Y-138451226D01*
X165610360Y-138442819D01*
X165559697Y-138420272D01*
X165494183Y-138387613D01*
X165458159Y-138368520D01*
X165305168Y-138285800D01*
X165122912Y-138409075D01*
X165029875Y-138472228D01*
X164928015Y-138541727D01*
X164832562Y-138607165D01*
X164784750Y-138640117D01*
X164717505Y-138685273D01*
X164660564Y-138721057D01*
X164621354Y-138742938D01*
X164608619Y-138747563D01*
X164590083Y-138735085D01*
X164549059Y-138700252D01*
X164489525Y-138646678D01*
X164415458Y-138577983D01*
X164330835Y-138497781D01*
X164277315Y-138446286D01*
X164183681Y-138354286D01*
X164102759Y-138271999D01*
X164037823Y-138202945D01*
X163992142Y-138150644D01*
X163968989Y-138118616D01*
X163966768Y-138112116D01*
X163977076Y-138087394D01*
X164005561Y-138037405D01*
X164049063Y-137967212D01*
X164104423Y-137881875D01*
X164168480Y-137786456D01*
X164186697Y-137759854D01*
X164253073Y-137663167D01*
X164312622Y-137576117D01*
X164362016Y-137503595D01*
X164397925Y-137450493D01*
X164417019Y-137421703D01*
X164418864Y-137418726D01*
X164416105Y-137395782D01*
X164401462Y-137345336D01*
X164377487Y-137274041D01*
X164346734Y-137188547D01*
X164311756Y-137095507D01*
X164275107Y-137001574D01*
X164239339Y-136913399D01*
X164207006Y-136837634D01*
X164180662Y-136780931D01*
X164162858Y-136749943D01*
X164161593Y-136748457D01*
X164150706Y-136739601D01*
X164132318Y-136730843D01*
X164102394Y-136721277D01*
X164056897Y-136709996D01*
X163991791Y-136696093D01*
X163903039Y-136678663D01*
X163786607Y-136656798D01*
X163638458Y-136629591D01*
X163606382Y-136623741D01*
X163511314Y-136605374D01*
X163428435Y-136587405D01*
X163365070Y-136571569D01*
X163328542Y-136559600D01*
X163323644Y-136556810D01*
X163315573Y-136532072D01*
X163309013Y-136476790D01*
X163303967Y-136397389D01*
X163300441Y-136300296D01*
X163298439Y-136191938D01*
X163297964Y-136078740D01*
X163299023Y-135967128D01*
X163301618Y-135863529D01*
X163305754Y-135774368D01*
X163311437Y-135706072D01*
X163318669Y-135665066D01*
X163323029Y-135656674D01*
X163347302Y-135648208D01*
X163402574Y-135634435D01*
X163483338Y-135616550D01*
X163584088Y-135595748D01*
X163699317Y-135573223D01*
X163762098Y-135561418D01*
X163881213Y-135539151D01*
X163987435Y-135518979D01*
X164075573Y-135501915D01*
X164140434Y-135488969D01*
X164176826Y-135481155D01*
X164182816Y-135479422D01*
X164192939Y-135459890D01*
X164214338Y-135412843D01*
X164244161Y-135345003D01*
X164279555Y-135263091D01*
X164317668Y-135173828D01*
X164355647Y-135083935D01*
X164390640Y-135000135D01*
X164419794Y-134929147D01*
X164440257Y-134877694D01*
X164449177Y-134852497D01*
X164449343Y-134851396D01*
X164439231Y-134831519D01*
X164410883Y-134785777D01*
X164367277Y-134718717D01*
X164311394Y-134634884D01*
X164246213Y-134538826D01*
X164208321Y-134483650D01*
X164139275Y-134382481D01*
X164077950Y-134290630D01*
X164027337Y-134212744D01*
X163990429Y-134153469D01*
X163970218Y-134117451D01*
X163967299Y-134109377D01*
X163979847Y-134090584D01*
X164014537Y-134050457D01*
X164066937Y-133993493D01*
X164132616Y-133924185D01*
X164207144Y-133847031D01*
X164286087Y-133766525D01*
X164365017Y-133687163D01*
X164439500Y-133613440D01*
X164505106Y-133549852D01*
X164557404Y-133500894D01*
X164591961Y-133471061D01*
X164603522Y-133463942D01*
X164622346Y-133473953D01*
X164667369Y-133502078D01*
X164734213Y-133545454D01*
X164818501Y-133601218D01*
X164915856Y-133666506D01*
X164989293Y-133716246D01*
X165360333Y-133968551D01*
X165978905Y-133713555D01*
X166062725Y-133268931D01*
X166146546Y-132824307D01*
X167071994Y-132824307D01*
X167155814Y-133268931D01*
G37*
D13*
X167155814Y-133268931D02*
X167239635Y-133713555D01*
X167548920Y-133841053D01*
X167858206Y-133968551D01*
X168229246Y-133716246D01*
X168333157Y-133645996D01*
X168427087Y-133583272D01*
X168506652Y-133530938D01*
X168567470Y-133491857D01*
X168605157Y-133468893D01*
X168615421Y-133463942D01*
X168633910Y-133476676D01*
X168673420Y-133511882D01*
X168729522Y-133565062D01*
X168797787Y-133631718D01*
X168873786Y-133707354D01*
X168953092Y-133787472D01*
X169031275Y-133867574D01*
X169103907Y-133943164D01*
X169166559Y-134009745D01*
X169214803Y-134062818D01*
X169244210Y-134097887D01*
X169251241Y-134109623D01*
X169241123Y-134131260D01*
X169212759Y-134178662D01*
X169169129Y-134247193D01*
X169113218Y-134332215D01*
X169048006Y-134429093D01*
X169010219Y-134484350D01*
X168941343Y-134585248D01*
X168880140Y-134676299D01*
X168829578Y-134752970D01*
X168792628Y-134810728D01*
X168772258Y-134845043D01*
X168769197Y-134852254D01*
X168776136Y-134872748D01*
X168795051Y-134920513D01*
X168823087Y-134988832D01*
X168857391Y-135070989D01*
X168895109Y-135160270D01*
X168933387Y-135249958D01*
X168969370Y-135333338D01*
X169000206Y-135403694D01*
X169023039Y-135454310D01*
X169035017Y-135478471D01*
X169035724Y-135479422D01*
X169054531Y-135484036D01*
X169104618Y-135494328D01*
X169180793Y-135509287D01*
X169277865Y-135527901D01*
X169390643Y-135549159D01*
X169456442Y-135561418D01*
X169576950Y-135584362D01*
X169685797Y-135606195D01*
X169777476Y-135625722D01*
X169846481Y-135641748D01*
X169887304Y-135653079D01*
X169895511Y-135656674D01*
X169903548Y-135681006D01*
X169910033Y-135735959D01*
X169914970Y-135815108D01*
X169918364Y-135912026D01*
X169920218Y-136020287D01*
X169920538Y-136133465D01*
X169919327Y-136245135D01*
X169916590Y-136348868D01*
X169912331Y-136438241D01*
X169906555Y-136506826D01*
X169899267Y-136548197D01*
X169894895Y-136556810D01*
X169868764Y-136567133D01*
X169813393Y-136581892D01*
X169736107Y-136599352D01*
X169644230Y-136617780D01*
X169612158Y-136623741D01*
X169457524Y-136652066D01*
X169335375Y-136674876D01*
X169241673Y-136693080D01*
X169172384Y-136707583D01*
X169123471Y-136719292D01*
X169090897Y-136729115D01*
X169070628Y-136737956D01*
X169058626Y-136746724D01*
X169056947Y-136748457D01*
X169040184Y-136776371D01*
X169014614Y-136830695D01*
X168982788Y-136904777D01*
X168947260Y-136991965D01*
X168910583Y-137085608D01*
X168875311Y-137179052D01*
X168843996Y-137265647D01*
X168819193Y-137338740D01*
X168803454Y-137391678D01*
X168799332Y-137417811D01*
X168799676Y-137418726D01*
X168813641Y-137440086D01*
X168845322Y-137487084D01*
X168891391Y-137554827D01*
X168948518Y-137638423D01*
X169013373Y-137732982D01*
X169031843Y-137759854D01*
X169097699Y-137857275D01*
X169155650Y-137946163D01*
X169202538Y-138021412D01*
X169235207Y-138077920D01*
X169250500Y-138110581D01*
X169251241Y-138114593D01*
X169238392Y-138135684D01*
X169202888Y-138177464D01*
X169149293Y-138235445D01*
X169082171Y-138305135D01*
X169006087Y-138382045D01*
X168925604Y-138461683D01*
X168845287Y-138539561D01*
X168769699Y-138611186D01*
X168703405Y-138672070D01*
X168650969Y-138717721D01*
X168616955Y-138743650D01*
X168607545Y-138747883D01*
X168585643Y-138737912D01*
X168540800Y-138711020D01*
X168480321Y-138671736D01*
X168433789Y-138640117D01*
X168349475Y-138582098D01*
X168249626Y-138513784D01*
X168149473Y-138445579D01*
X168095627Y-138409075D01*
X167913371Y-138285800D01*
X167760381Y-138368520D01*
X167690682Y-138404759D01*
X167631414Y-138432926D01*
X167591311Y-138448991D01*
X167581103Y-138451226D01*
X167568829Y-138434722D01*
X167544613Y-138388082D01*
X167510263Y-138315609D01*
X167467588Y-138221606D01*
X167418394Y-138110374D01*
X167364490Y-137986215D01*
X167307684Y-137853432D01*
X167249782Y-137716327D01*
X167192593Y-137579202D01*
X167137924Y-137446358D01*
X167087584Y-137322098D01*
X167043380Y-137210725D01*
X167007119Y-137116539D01*
X166980609Y-137043844D01*
X166965658Y-136996941D01*
X166963254Y-136980833D01*
X166982311Y-136960286D01*
X167024036Y-136926933D01*
X167079706Y-136887702D01*
X167084378Y-136884599D01*
X167228264Y-136769423D01*
X167344283Y-136635053D01*
X167431430Y-136485784D01*
X167488699Y-136325913D01*
X167515086Y-136159737D01*
X167509585Y-135991552D01*
X167471190Y-135825655D01*
X167398895Y-135666342D01*
X167377626Y-135631487D01*
X167266996Y-135490737D01*
X167136302Y-135377714D01*
X166990064Y-135293003D01*
X166832808Y-135237194D01*
X166669057Y-135210874D01*
X166503333Y-135214630D01*
X166340162Y-135249050D01*
X166184065Y-135314723D01*
X166039567Y-135412235D01*
X165994869Y-135451813D01*
X165881112Y-135575703D01*
X165798218Y-135706124D01*
X165741356Y-135852315D01*
X165709687Y-135997088D01*
X165701869Y-136159860D01*
X165727938Y-136323440D01*
X165785245Y-136482298D01*
X165871144Y-136630906D01*
X165982986Y-136763735D01*
X166118123Y-136875256D01*
X166135883Y-136887011D01*
X166192150Y-136925508D01*
X166234923Y-136958863D01*
X166255372Y-136980160D01*
X166255669Y-136980833D01*
X166251279Y-137003871D01*
X166233876Y-137056157D01*
X166205268Y-137133390D01*
X166167265Y-137231268D01*
X166121674Y-137345491D01*
X166070303Y-137471758D01*
X166014962Y-137605767D01*
X165957458Y-137743218D01*
X165899601Y-137879808D01*
X165843198Y-138011237D01*
X165790058Y-138133205D01*
X165741990Y-138241409D01*
X165700801Y-138331549D01*
X165668301Y-138399323D01*
X165646297Y-138440430D01*
X165637436Y-138451226D01*
X165610360Y-138442819D01*
X165559697Y-138420272D01*
X165494183Y-138387613D01*
X165458159Y-138368520D01*
X165305168Y-138285800D01*
X165122912Y-138409075D01*
X165029875Y-138472228D01*
X164928015Y-138541727D01*
X164832562Y-138607165D01*
X164784750Y-138640117D01*
X164717505Y-138685273D01*
X164660564Y-138721057D01*
X164621354Y-138742938D01*
X164608619Y-138747563D01*
X164590083Y-138735085D01*
X164549059Y-138700252D01*
X164489525Y-138646678D01*
X164415458Y-138577983D01*
X164330835Y-138497781D01*
X164277315Y-138446286D01*
X164183681Y-138354286D01*
X164102759Y-138271999D01*
X164037823Y-138202945D01*
X163992142Y-138150644D01*
X163968989Y-138118616D01*
X163966768Y-138112116D01*
X163977076Y-138087394D01*
X164005561Y-138037405D01*
X164049063Y-137967212D01*
X164104423Y-137881875D01*
X164168480Y-137786456D01*
X164186697Y-137759854D01*
X164253073Y-137663167D01*
X164312622Y-137576117D01*
X164362016Y-137503595D01*
X164397925Y-137450493D01*
X164417019Y-137421703D01*
X164418864Y-137418726D01*
X164416105Y-137395782D01*
X164401462Y-137345336D01*
X164377487Y-137274041D01*
X164346734Y-137188547D01*
X164311756Y-137095507D01*
X164275107Y-137001574D01*
X164239339Y-136913399D01*
X164207006Y-136837634D01*
X164180662Y-136780931D01*
X164162858Y-136749943D01*
X164161593Y-136748457D01*
X164150706Y-136739601D01*
X164132318Y-136730843D01*
X164102394Y-136721277D01*
X164056897Y-136709996D01*
X163991791Y-136696093D01*
X163903039Y-136678663D01*
X163786607Y-136656798D01*
X163638458Y-136629591D01*
X163606382Y-136623741D01*
X163511314Y-136605374D01*
X163428435Y-136587405D01*
X163365070Y-136571569D01*
X163328542Y-136559600D01*
X163323644Y-136556810D01*
X163315573Y-136532072D01*
X163309013Y-136476790D01*
X163303967Y-136397389D01*
X163300441Y-136300296D01*
X163298439Y-136191938D01*
X163297964Y-136078740D01*
X163299023Y-135967128D01*
X163301618Y-135863529D01*
X163305754Y-135774368D01*
X163311437Y-135706072D01*
X163318669Y-135665066D01*
X163323029Y-135656674D01*
X163347302Y-135648208D01*
X163402574Y-135634435D01*
X163483338Y-135616550D01*
X163584088Y-135595748D01*
X163699317Y-135573223D01*
X163762098Y-135561418D01*
X163881213Y-135539151D01*
X163987435Y-135518979D01*
X164075573Y-135501915D01*
X164140434Y-135488969D01*
X164176826Y-135481155D01*
X164182816Y-135479422D01*
X164192939Y-135459890D01*
X164214338Y-135412843D01*
X164244161Y-135345003D01*
X164279555Y-135263091D01*
X164317668Y-135173828D01*
X164355647Y-135083935D01*
X164390640Y-135000135D01*
X164419794Y-134929147D01*
X164440257Y-134877694D01*
X164449177Y-134852497D01*
X164449343Y-134851396D01*
X164439231Y-134831519D01*
X164410883Y-134785777D01*
X164367277Y-134718717D01*
X164311394Y-134634884D01*
X164246213Y-134538826D01*
X164208321Y-134483650D01*
X164139275Y-134382481D01*
X164077950Y-134290630D01*
X164027337Y-134212744D01*
X163990429Y-134153469D01*
X163970218Y-134117451D01*
X163967299Y-134109377D01*
X163979847Y-134090584D01*
X164014537Y-134050457D01*
X164066937Y-133993493D01*
X164132616Y-133924185D01*
X164207144Y-133847031D01*
X164286087Y-133766525D01*
X164365017Y-133687163D01*
X164439500Y-133613440D01*
X164505106Y-133549852D01*
X164557404Y-133500894D01*
X164591961Y-133471061D01*
X164603522Y-133463942D01*
X164622346Y-133473953D01*
X164667369Y-133502078D01*
X164734213Y-133545454D01*
X164818501Y-133601218D01*
X164915856Y-133666506D01*
X164989293Y-133716246D01*
X165360333Y-133968551D01*
X165978905Y-133713555D01*
X166062725Y-133268931D01*
X166146546Y-132824307D01*
X167071994Y-132824307D01*
X167155814Y-133268931D01*
D12*
%TO.C,J2*%
X184146000Y-58184000D02*
X183506000Y-58184000D01*
X189366000Y-58424000D02*
X189366000Y-66744000D01*
X190486000Y-58424000D02*
X190486000Y-66744000D01*
X183746000Y-58424000D02*
X183746000Y-66744000D01*
X190486000Y-58424000D02*
X183746000Y-58424000D01*
X184266000Y-58424000D02*
X184266000Y-66744000D01*
X190486000Y-66744000D02*
X183746000Y-66744000D01*
X183506000Y-58184000D02*
X183506000Y-58584000D01*
%TO.C,J3*%
X183746000Y-87888000D02*
X183746000Y-96208000D01*
X184146000Y-87648000D02*
X183506000Y-87648000D01*
X189366000Y-87888000D02*
X189366000Y-96208000D01*
X190486000Y-96208000D02*
X183746000Y-96208000D01*
X183506000Y-87648000D02*
X183506000Y-88048000D01*
X190486000Y-87888000D02*
X183746000Y-87888000D01*
X190486000Y-87888000D02*
X190486000Y-96208000D01*
X184266000Y-87888000D02*
X184266000Y-96208000D01*
%TO.C,J4*%
X183506000Y-72408000D02*
X183506000Y-72808000D01*
X183746000Y-72648000D02*
X183746000Y-80968000D01*
X190486000Y-80968000D02*
X183746000Y-80968000D01*
X190486000Y-72648000D02*
X190486000Y-80968000D01*
X184266000Y-72648000D02*
X184266000Y-80968000D01*
X184146000Y-72408000D02*
X183506000Y-72408000D01*
X189366000Y-72648000D02*
X189366000Y-80968000D01*
X190486000Y-72648000D02*
X183746000Y-72648000D01*
%TO.C,J5*%
X190486000Y-109924000D02*
X183746000Y-109924000D01*
X190486000Y-101604000D02*
X183746000Y-101604000D01*
X184266000Y-101604000D02*
X184266000Y-109924000D01*
X189366000Y-101604000D02*
X189366000Y-109924000D01*
X183506000Y-101364000D02*
X183506000Y-101764000D01*
X190486000Y-101604000D02*
X190486000Y-109924000D01*
X183746000Y-101604000D02*
X183746000Y-109924000D01*
X184146000Y-101364000D02*
X183506000Y-101364000D01*
%TO.C,J6*%
X184127000Y-114684000D02*
X190867000Y-114684000D01*
X190347000Y-125545000D02*
X190347000Y-114684000D01*
X185247000Y-125545000D02*
X185247000Y-114684000D01*
X184127000Y-125545000D02*
X184127000Y-114684000D01*
X191107000Y-125785000D02*
X191107000Y-125385000D01*
X190867000Y-125545000D02*
X190867000Y-114684000D01*
X184127000Y-125545000D02*
X190867000Y-125545000D01*
X190467000Y-125785000D02*
X191107000Y-125785000D01*
%TO.C,K1*%
X162226000Y-50134000D02*
X161716000Y-50134000D01*
X172511000Y-48614000D02*
X176321000Y-46074000D01*
X178636000Y-54114000D02*
X178636000Y-43114000D01*
X161716000Y-47594000D02*
X162226000Y-47594000D01*
X174416000Y-46074000D02*
X174416000Y-47344000D01*
X157496000Y-43114000D02*
X178636000Y-43114000D01*
X161206000Y-47594000D02*
X161716000Y-47594000D01*
X161716000Y-44804000D02*
X160446000Y-44804000D01*
X162226000Y-47594000D02*
X162226000Y-50134000D01*
X161206000Y-49374000D02*
X162226000Y-48364000D01*
X169336000Y-51154000D02*
X169336000Y-48614000D01*
X161716000Y-47594000D02*
X161716000Y-44804000D01*
X161716000Y-50134000D02*
X161206000Y-50134000D01*
X161206000Y-50134000D02*
X161206000Y-47594000D01*
X176956000Y-51154000D02*
X176956000Y-48614000D01*
X157496000Y-54114000D02*
X178636000Y-54114000D01*
X169336000Y-48614000D02*
X172511000Y-48614000D01*
X157496000Y-54114000D02*
X157496000Y-43114000D01*
X161716000Y-52424000D02*
X161716000Y-50134000D01*
X160446000Y-52424000D02*
X161716000Y-52424000D01*
X172638000Y-48614000D02*
G75*
G03*
X172638000Y-48614000I-127000J0D01*
G01*
%TO.C,K2*%
X161716000Y-61818000D02*
X162226000Y-61818000D01*
X161206000Y-64358000D02*
X161206000Y-61818000D01*
X169336000Y-65378000D02*
X169336000Y-62838000D01*
X161716000Y-66648000D02*
X161716000Y-64358000D01*
X157496000Y-68338000D02*
X157496000Y-57338000D01*
X161716000Y-61818000D02*
X161716000Y-59028000D01*
X161206000Y-63598000D02*
X162226000Y-62588000D01*
X174416000Y-60298000D02*
X174416000Y-61568000D01*
X160446000Y-66648000D02*
X161716000Y-66648000D01*
X162226000Y-64358000D02*
X161716000Y-64358000D01*
X176956000Y-65378000D02*
X176956000Y-62838000D01*
X162226000Y-61818000D02*
X162226000Y-64358000D01*
X157496000Y-68338000D02*
X178636000Y-68338000D01*
X161716000Y-59028000D02*
X160446000Y-59028000D01*
X161206000Y-61818000D02*
X161716000Y-61818000D01*
X178636000Y-68338000D02*
X178636000Y-57338000D01*
X169336000Y-62838000D02*
X172511000Y-62838000D01*
X157496000Y-57338000D02*
X178636000Y-57338000D01*
X161716000Y-64358000D02*
X161206000Y-64358000D01*
X172511000Y-62838000D02*
X176321000Y-60298000D01*
X172638000Y-62838000D02*
G75*
G03*
X172638000Y-62838000I-127000J0D01*
G01*
%TO.C,K3*%
X176956000Y-80110000D02*
X176956000Y-77570000D01*
X161716000Y-76550000D02*
X161716000Y-73760000D01*
X157496000Y-83070000D02*
X178636000Y-83070000D01*
X174416000Y-75030000D02*
X174416000Y-76300000D01*
X161206000Y-76550000D02*
X161716000Y-76550000D01*
X161206000Y-79090000D02*
X161206000Y-76550000D01*
X160446000Y-81380000D02*
X161716000Y-81380000D01*
X161716000Y-73760000D02*
X160446000Y-73760000D01*
X178636000Y-83070000D02*
X178636000Y-72070000D01*
X157496000Y-72070000D02*
X178636000Y-72070000D01*
X172511000Y-77570000D02*
X176321000Y-75030000D01*
X162226000Y-76550000D02*
X162226000Y-79090000D01*
X161206000Y-78330000D02*
X162226000Y-77320000D01*
X161716000Y-76550000D02*
X162226000Y-76550000D01*
X161716000Y-79090000D02*
X161206000Y-79090000D01*
X161716000Y-81380000D02*
X161716000Y-79090000D01*
X169336000Y-80110000D02*
X169336000Y-77570000D01*
X162226000Y-79090000D02*
X161716000Y-79090000D01*
X157496000Y-83070000D02*
X157496000Y-72070000D01*
X169336000Y-77570000D02*
X172511000Y-77570000D01*
X172638000Y-77570000D02*
G75*
G03*
X172638000Y-77570000I-127000J0D01*
G01*
%TO.C,K4*%
X157496000Y-86294000D02*
X178636000Y-86294000D01*
X174416000Y-89254000D02*
X174416000Y-90524000D01*
X161206000Y-93314000D02*
X161206000Y-90774000D01*
X169336000Y-91794000D02*
X172511000Y-91794000D01*
X162226000Y-93314000D02*
X161716000Y-93314000D01*
X169336000Y-94334000D02*
X169336000Y-91794000D01*
X160446000Y-95604000D02*
X161716000Y-95604000D01*
X161716000Y-93314000D02*
X161206000Y-93314000D01*
X157496000Y-97294000D02*
X178636000Y-97294000D01*
X161206000Y-90774000D02*
X161716000Y-90774000D01*
X161716000Y-90774000D02*
X161716000Y-87984000D01*
X161716000Y-95604000D02*
X161716000Y-93314000D01*
X178636000Y-97294000D02*
X178636000Y-86294000D01*
X161716000Y-87984000D02*
X160446000Y-87984000D01*
X176956000Y-94334000D02*
X176956000Y-91794000D01*
X161716000Y-90774000D02*
X162226000Y-90774000D01*
X161206000Y-92554000D02*
X162226000Y-91544000D01*
X162226000Y-90774000D02*
X162226000Y-93314000D01*
X157496000Y-97294000D02*
X157496000Y-86294000D01*
X172511000Y-91794000D02*
X176321000Y-89254000D01*
X172638000Y-91794000D02*
G75*
G03*
X172638000Y-91794000I-127000J0D01*
G01*
%TO.C,RV1*%
X175927000Y-121593000D02*
X179032000Y-121593000D01*
X174292000Y-128543000D02*
X174292000Y-121593000D01*
X174292000Y-121593000D02*
X174937000Y-121593000D01*
X175927000Y-128543000D02*
X179032000Y-128543000D01*
X174292000Y-128543000D02*
X174937000Y-128543000D01*
X179032000Y-128543000D02*
X179032000Y-121593000D01*
%TO.C,RV2*%
X165021000Y-121304000D02*
X165021000Y-114354000D01*
X165021000Y-114354000D02*
X165666000Y-114354000D01*
X166656000Y-114354000D02*
X169761000Y-114354000D01*
X169761000Y-121304000D02*
X169761000Y-114354000D01*
X165021000Y-121304000D02*
X165666000Y-121304000D01*
X166656000Y-121304000D02*
X169761000Y-121304000D01*
%TO.C,RV3*%
X173911000Y-113557000D02*
X173911000Y-106607000D01*
X175546000Y-106607000D02*
X178651000Y-106607000D01*
X173911000Y-113557000D02*
X174556000Y-113557000D01*
X173911000Y-106607000D02*
X174556000Y-106607000D01*
X178651000Y-113557000D02*
X178651000Y-106607000D01*
X175546000Y-113557000D02*
X178651000Y-113557000D01*
%TO.C,RV4*%
X170142000Y-107461000D02*
X170142000Y-100511000D01*
X165402000Y-100511000D02*
X166047000Y-100511000D01*
X167037000Y-107461000D02*
X170142000Y-107461000D01*
X167037000Y-100511000D02*
X170142000Y-100511000D01*
X165402000Y-107461000D02*
X165402000Y-100511000D01*
X165402000Y-107461000D02*
X166047000Y-107461000D01*
%TD*%
M02*
