%TF.GenerationSoftware,KiCad,Pcbnew,8.0.5*%
%TF.CreationDate,2024-09-29T21:47:55-04:00*%
%TF.ProjectId,BREAD_Slice,42524541-445f-4536-9c69-63652e6b6963,rev?*%
%TF.SameCoordinates,PX74eba40PY8552dc0*%
%TF.FileFunction,Legend,Top*%
%TF.FilePolarity,Positive*%
%FSLAX46Y46*%
G04 Gerber Fmt 4.6, Leading zero omitted, Abs format (unit mm)*
G04 Created by KiCad (PCBNEW 8.0.5) date 2024-09-29 21:47:55*
%MOMM*%
%LPD*%
G01*
G04 APERTURE LIST*
%ADD10C,0.300000*%
%ADD11C,0.150000*%
%ADD12C,0.100000*%
%ADD13C,0.000000*%
%ADD14C,0.120000*%
%ADD15C,0.010000*%
%ADD16C,0.177800*%
%ADD17C,0.200000*%
G04 APERTURE END LIST*
D10*
X57678328Y45792858D02*
X56964042Y45292858D01*
X57678328Y44935715D02*
X56178328Y44935715D01*
X56178328Y44935715D02*
X56178328Y45507144D01*
X56178328Y45507144D02*
X56249757Y45650001D01*
X56249757Y45650001D02*
X56321185Y45721430D01*
X56321185Y45721430D02*
X56464042Y45792858D01*
X56464042Y45792858D02*
X56678328Y45792858D01*
X56678328Y45792858D02*
X56821185Y45721430D01*
X56821185Y45721430D02*
X56892614Y45650001D01*
X56892614Y45650001D02*
X56964042Y45507144D01*
X56964042Y45507144D02*
X56964042Y44935715D01*
X57606900Y47007144D02*
X57678328Y46864287D01*
X57678328Y46864287D02*
X57678328Y46578572D01*
X57678328Y46578572D02*
X57606900Y46435715D01*
X57606900Y46435715D02*
X57464042Y46364287D01*
X57464042Y46364287D02*
X56892614Y46364287D01*
X56892614Y46364287D02*
X56749757Y46435715D01*
X56749757Y46435715D02*
X56678328Y46578572D01*
X56678328Y46578572D02*
X56678328Y46864287D01*
X56678328Y46864287D02*
X56749757Y47007144D01*
X56749757Y47007144D02*
X56892614Y47078572D01*
X56892614Y47078572D02*
X57035471Y47078572D01*
X57035471Y47078572D02*
X57178328Y46364287D01*
X57678328Y47935715D02*
X57606900Y47792858D01*
X57606900Y47792858D02*
X57464042Y47721429D01*
X57464042Y47721429D02*
X56178328Y47721429D01*
X57678328Y49150000D02*
X56892614Y49150000D01*
X56892614Y49150000D02*
X56749757Y49078572D01*
X56749757Y49078572D02*
X56678328Y48935715D01*
X56678328Y48935715D02*
X56678328Y48650000D01*
X56678328Y48650000D02*
X56749757Y48507143D01*
X57606900Y49150000D02*
X57678328Y49007143D01*
X57678328Y49007143D02*
X57678328Y48650000D01*
X57678328Y48650000D02*
X57606900Y48507143D01*
X57606900Y48507143D02*
X57464042Y48435715D01*
X57464042Y48435715D02*
X57321185Y48435715D01*
X57321185Y48435715D02*
X57178328Y48507143D01*
X57178328Y48507143D02*
X57106900Y48650000D01*
X57106900Y48650000D02*
X57106900Y49007143D01*
X57106900Y49007143D02*
X57035471Y49150000D01*
X56678328Y49721429D02*
X57678328Y50078572D01*
X56678328Y50435715D02*
X57678328Y50078572D01*
X57678328Y50078572D02*
X58035471Y49935715D01*
X58035471Y49935715D02*
X58106900Y49864286D01*
X58106900Y49864286D02*
X58178328Y49721429D01*
X56178328Y52007143D02*
X56178328Y52935715D01*
X56178328Y52935715D02*
X56749757Y52435715D01*
X56749757Y52435715D02*
X56749757Y52650000D01*
X56749757Y52650000D02*
X56821185Y52792857D01*
X56821185Y52792857D02*
X56892614Y52864286D01*
X56892614Y52864286D02*
X57035471Y52935715D01*
X57035471Y52935715D02*
X57392614Y52935715D01*
X57392614Y52935715D02*
X57535471Y52864286D01*
X57535471Y52864286D02*
X57606900Y52792857D01*
X57606900Y52792857D02*
X57678328Y52650000D01*
X57678328Y52650000D02*
X57678328Y52221429D01*
X57678328Y52221429D02*
X57606900Y52078572D01*
X57606900Y52078572D02*
X57535471Y52007143D01*
D11*
X6686666Y51677610D02*
X6610476Y51715705D01*
X6610476Y51715705D02*
X6496190Y51715705D01*
X6496190Y51715705D02*
X6381904Y51677610D01*
X6381904Y51677610D02*
X6305714Y51601420D01*
X6305714Y51601420D02*
X6267619Y51525229D01*
X6267619Y51525229D02*
X6229523Y51372848D01*
X6229523Y51372848D02*
X6229523Y51258562D01*
X6229523Y51258562D02*
X6267619Y51106181D01*
X6267619Y51106181D02*
X6305714Y51029991D01*
X6305714Y51029991D02*
X6381904Y50953800D01*
X6381904Y50953800D02*
X6496190Y50915705D01*
X6496190Y50915705D02*
X6572381Y50915705D01*
X6572381Y50915705D02*
X6686666Y50953800D01*
X6686666Y50953800D02*
X6724762Y50991896D01*
X6724762Y50991896D02*
X6724762Y51258562D01*
X6724762Y51258562D02*
X6572381Y51258562D01*
X7067619Y50915705D02*
X7067619Y51715705D01*
X7067619Y51715705D02*
X7524762Y50915705D01*
X7524762Y50915705D02*
X7524762Y51715705D01*
X7905714Y50915705D02*
X7905714Y51715705D01*
X7905714Y51715705D02*
X8096190Y51715705D01*
X8096190Y51715705D02*
X8210476Y51677610D01*
X8210476Y51677610D02*
X8286666Y51601420D01*
X8286666Y51601420D02*
X8324761Y51525229D01*
X8324761Y51525229D02*
X8362857Y51372848D01*
X8362857Y51372848D02*
X8362857Y51258562D01*
X8362857Y51258562D02*
X8324761Y51106181D01*
X8324761Y51106181D02*
X8286666Y51029991D01*
X8286666Y51029991D02*
X8210476Y50953800D01*
X8210476Y50953800D02*
X8096190Y50915705D01*
X8096190Y50915705D02*
X7905714Y50915705D01*
X69704819Y69564287D02*
X68704819Y69564287D01*
X68704819Y69564287D02*
X69704819Y70135715D01*
X69704819Y70135715D02*
X68704819Y70135715D01*
X69609580Y71183334D02*
X69657200Y71135715D01*
X69657200Y71135715D02*
X69704819Y70992858D01*
X69704819Y70992858D02*
X69704819Y70897620D01*
X69704819Y70897620D02*
X69657200Y70754763D01*
X69657200Y70754763D02*
X69561961Y70659525D01*
X69561961Y70659525D02*
X69466723Y70611906D01*
X69466723Y70611906D02*
X69276247Y70564287D01*
X69276247Y70564287D02*
X69133390Y70564287D01*
X69133390Y70564287D02*
X68942914Y70611906D01*
X68942914Y70611906D02*
X68847676Y70659525D01*
X68847676Y70659525D02*
X68752438Y70754763D01*
X68752438Y70754763D02*
X68704819Y70897620D01*
X68704819Y70897620D02*
X68704819Y70992858D01*
X68704819Y70992858D02*
X68752438Y71135715D01*
X68752438Y71135715D02*
X68800057Y71183334D01*
X69704819Y13135715D02*
X69704819Y12564287D01*
X69704819Y12850001D02*
X68704819Y12850001D01*
X68704819Y12850001D02*
X68847676Y12754763D01*
X68847676Y12754763D02*
X68942914Y12659525D01*
X68942914Y12659525D02*
X68990533Y12564287D01*
X68704819Y17166668D02*
X68704819Y17785715D01*
X68704819Y17785715D02*
X69085771Y17452382D01*
X69085771Y17452382D02*
X69085771Y17595239D01*
X69085771Y17595239D02*
X69133390Y17690477D01*
X69133390Y17690477D02*
X69181009Y17738096D01*
X69181009Y17738096D02*
X69276247Y17785715D01*
X69276247Y17785715D02*
X69514342Y17785715D01*
X69514342Y17785715D02*
X69609580Y17738096D01*
X69609580Y17738096D02*
X69657200Y17690477D01*
X69657200Y17690477D02*
X69704819Y17595239D01*
X69704819Y17595239D02*
X69704819Y17309525D01*
X69704819Y17309525D02*
X69657200Y17214287D01*
X69657200Y17214287D02*
X69609580Y17166668D01*
X69654819Y26926192D02*
X68654819Y26926192D01*
X69654819Y27402382D02*
X68654819Y27402382D01*
X68654819Y27402382D02*
X69654819Y27973810D01*
X69654819Y27973810D02*
X68654819Y27973810D01*
X55157142Y3145181D02*
X54680952Y3145181D01*
X54680952Y3145181D02*
X54680952Y4145181D01*
X55490476Y3668991D02*
X55823809Y3668991D01*
X55966666Y3145181D02*
X55490476Y3145181D01*
X55490476Y3145181D02*
X55490476Y4145181D01*
X55490476Y4145181D02*
X55966666Y4145181D01*
X56395238Y3145181D02*
X56395238Y4145181D01*
X56395238Y4145181D02*
X56633333Y4145181D01*
X56633333Y4145181D02*
X56776190Y4097562D01*
X56776190Y4097562D02*
X56871428Y4002324D01*
X56871428Y4002324D02*
X56919047Y3907086D01*
X56919047Y3907086D02*
X56966666Y3716610D01*
X56966666Y3716610D02*
X56966666Y3573753D01*
X56966666Y3573753D02*
X56919047Y3383277D01*
X56919047Y3383277D02*
X56871428Y3288039D01*
X56871428Y3288039D02*
X56776190Y3192800D01*
X56776190Y3192800D02*
X56633333Y3145181D01*
X56633333Y3145181D02*
X56395238Y3145181D01*
D10*
X57678328Y62842858D02*
X56964042Y62342858D01*
X57678328Y61985715D02*
X56178328Y61985715D01*
X56178328Y61985715D02*
X56178328Y62557144D01*
X56178328Y62557144D02*
X56249757Y62700001D01*
X56249757Y62700001D02*
X56321185Y62771430D01*
X56321185Y62771430D02*
X56464042Y62842858D01*
X56464042Y62842858D02*
X56678328Y62842858D01*
X56678328Y62842858D02*
X56821185Y62771430D01*
X56821185Y62771430D02*
X56892614Y62700001D01*
X56892614Y62700001D02*
X56964042Y62557144D01*
X56964042Y62557144D02*
X56964042Y61985715D01*
X57606900Y64057144D02*
X57678328Y63914287D01*
X57678328Y63914287D02*
X57678328Y63628572D01*
X57678328Y63628572D02*
X57606900Y63485715D01*
X57606900Y63485715D02*
X57464042Y63414287D01*
X57464042Y63414287D02*
X56892614Y63414287D01*
X56892614Y63414287D02*
X56749757Y63485715D01*
X56749757Y63485715D02*
X56678328Y63628572D01*
X56678328Y63628572D02*
X56678328Y63914287D01*
X56678328Y63914287D02*
X56749757Y64057144D01*
X56749757Y64057144D02*
X56892614Y64128572D01*
X56892614Y64128572D02*
X57035471Y64128572D01*
X57035471Y64128572D02*
X57178328Y63414287D01*
X57678328Y64985715D02*
X57606900Y64842858D01*
X57606900Y64842858D02*
X57464042Y64771429D01*
X57464042Y64771429D02*
X56178328Y64771429D01*
X57678328Y66200000D02*
X56892614Y66200000D01*
X56892614Y66200000D02*
X56749757Y66128572D01*
X56749757Y66128572D02*
X56678328Y65985715D01*
X56678328Y65985715D02*
X56678328Y65700000D01*
X56678328Y65700000D02*
X56749757Y65557143D01*
X57606900Y66200000D02*
X57678328Y66057143D01*
X57678328Y66057143D02*
X57678328Y65700000D01*
X57678328Y65700000D02*
X57606900Y65557143D01*
X57606900Y65557143D02*
X57464042Y65485715D01*
X57464042Y65485715D02*
X57321185Y65485715D01*
X57321185Y65485715D02*
X57178328Y65557143D01*
X57178328Y65557143D02*
X57106900Y65700000D01*
X57106900Y65700000D02*
X57106900Y66057143D01*
X57106900Y66057143D02*
X57035471Y66200000D01*
X56678328Y66771429D02*
X57678328Y67128572D01*
X56678328Y67485715D02*
X57678328Y67128572D01*
X57678328Y67128572D02*
X58035471Y66985715D01*
X58035471Y66985715D02*
X58106900Y66914286D01*
X58106900Y66914286D02*
X58178328Y66771429D01*
X56321185Y69128572D02*
X56249757Y69200000D01*
X56249757Y69200000D02*
X56178328Y69342857D01*
X56178328Y69342857D02*
X56178328Y69700000D01*
X56178328Y69700000D02*
X56249757Y69842857D01*
X56249757Y69842857D02*
X56321185Y69914286D01*
X56321185Y69914286D02*
X56464042Y69985715D01*
X56464042Y69985715D02*
X56606900Y69985715D01*
X56606900Y69985715D02*
X56821185Y69914286D01*
X56821185Y69914286D02*
X57678328Y69057143D01*
X57678328Y69057143D02*
X57678328Y69985715D01*
D11*
X69754819Y48140477D02*
X68754819Y48140477D01*
X68754819Y48140477D02*
X69754819Y48711905D01*
X69754819Y48711905D02*
X68754819Y48711905D01*
X68754819Y49378572D02*
X68754819Y49569048D01*
X68754819Y49569048D02*
X68802438Y49664286D01*
X68802438Y49664286D02*
X68897676Y49759524D01*
X68897676Y49759524D02*
X69088152Y49807143D01*
X69088152Y49807143D02*
X69421485Y49807143D01*
X69421485Y49807143D02*
X69611961Y49759524D01*
X69611961Y49759524D02*
X69707200Y49664286D01*
X69707200Y49664286D02*
X69754819Y49569048D01*
X69754819Y49569048D02*
X69754819Y49378572D01*
X69754819Y49378572D02*
X69707200Y49283334D01*
X69707200Y49283334D02*
X69611961Y49188096D01*
X69611961Y49188096D02*
X69421485Y49140477D01*
X69421485Y49140477D02*
X69088152Y49140477D01*
X69088152Y49140477D02*
X68897676Y49188096D01*
X68897676Y49188096D02*
X68802438Y49283334D01*
X68802438Y49283334D02*
X68754819Y49378572D01*
X6686666Y40765705D02*
X6229523Y40765705D01*
X6458095Y40765705D02*
X6458095Y41565705D01*
X6458095Y41565705D02*
X6381904Y41451420D01*
X6381904Y41451420D02*
X6305714Y41375229D01*
X6305714Y41375229D02*
X6229523Y41337134D01*
X6991428Y41489515D02*
X7029524Y41527610D01*
X7029524Y41527610D02*
X7105714Y41565705D01*
X7105714Y41565705D02*
X7296190Y41565705D01*
X7296190Y41565705D02*
X7372381Y41527610D01*
X7372381Y41527610D02*
X7410476Y41489515D01*
X7410476Y41489515D02*
X7448571Y41413324D01*
X7448571Y41413324D02*
X7448571Y41337134D01*
X7448571Y41337134D02*
X7410476Y41222848D01*
X7410476Y41222848D02*
X6953333Y40765705D01*
X6953333Y40765705D02*
X7448571Y40765705D01*
X7677143Y41565705D02*
X7943810Y40765705D01*
X7943810Y40765705D02*
X8210476Y41565705D01*
X69038152Y20390477D02*
X69704819Y20390477D01*
X68657200Y20152382D02*
X69371485Y19914287D01*
X69371485Y19914287D02*
X69371485Y20533334D01*
X6229523Y45903800D02*
X6343809Y45865705D01*
X6343809Y45865705D02*
X6534285Y45865705D01*
X6534285Y45865705D02*
X6610476Y45903800D01*
X6610476Y45903800D02*
X6648571Y45941896D01*
X6648571Y45941896D02*
X6686666Y46018086D01*
X6686666Y46018086D02*
X6686666Y46094277D01*
X6686666Y46094277D02*
X6648571Y46170467D01*
X6648571Y46170467D02*
X6610476Y46208562D01*
X6610476Y46208562D02*
X6534285Y46246658D01*
X6534285Y46246658D02*
X6381904Y46284753D01*
X6381904Y46284753D02*
X6305714Y46322848D01*
X6305714Y46322848D02*
X6267619Y46360943D01*
X6267619Y46360943D02*
X6229523Y46437134D01*
X6229523Y46437134D02*
X6229523Y46513324D01*
X6229523Y46513324D02*
X6267619Y46589515D01*
X6267619Y46589515D02*
X6305714Y46627610D01*
X6305714Y46627610D02*
X6381904Y46665705D01*
X6381904Y46665705D02*
X6572381Y46665705D01*
X6572381Y46665705D02*
X6686666Y46627610D01*
X7181905Y46246658D02*
X7181905Y45865705D01*
X6915238Y46665705D02*
X7181905Y46246658D01*
X7181905Y46246658D02*
X7448571Y46665705D01*
X7715238Y45865705D02*
X7715238Y46665705D01*
X7715238Y46665705D02*
X8172381Y45865705D01*
X8172381Y45865705D02*
X8172381Y46665705D01*
X9010476Y45941896D02*
X8972380Y45903800D01*
X8972380Y45903800D02*
X8858095Y45865705D01*
X8858095Y45865705D02*
X8781904Y45865705D01*
X8781904Y45865705D02*
X8667618Y45903800D01*
X8667618Y45903800D02*
X8591428Y45979991D01*
X8591428Y45979991D02*
X8553333Y46056181D01*
X8553333Y46056181D02*
X8515237Y46208562D01*
X8515237Y46208562D02*
X8515237Y46322848D01*
X8515237Y46322848D02*
X8553333Y46475229D01*
X8553333Y46475229D02*
X8591428Y46551420D01*
X8591428Y46551420D02*
X8667618Y46627610D01*
X8667618Y46627610D02*
X8781904Y46665705D01*
X8781904Y46665705D02*
X8858095Y46665705D01*
X8858095Y46665705D02*
X8972380Y46627610D01*
X8972380Y46627610D02*
X9010476Y46589515D01*
X6686666Y39027610D02*
X6610476Y39065705D01*
X6610476Y39065705D02*
X6496190Y39065705D01*
X6496190Y39065705D02*
X6381904Y39027610D01*
X6381904Y39027610D02*
X6305714Y38951420D01*
X6305714Y38951420D02*
X6267619Y38875229D01*
X6267619Y38875229D02*
X6229523Y38722848D01*
X6229523Y38722848D02*
X6229523Y38608562D01*
X6229523Y38608562D02*
X6267619Y38456181D01*
X6267619Y38456181D02*
X6305714Y38379991D01*
X6305714Y38379991D02*
X6381904Y38303800D01*
X6381904Y38303800D02*
X6496190Y38265705D01*
X6496190Y38265705D02*
X6572381Y38265705D01*
X6572381Y38265705D02*
X6686666Y38303800D01*
X6686666Y38303800D02*
X6724762Y38341896D01*
X6724762Y38341896D02*
X6724762Y38608562D01*
X6724762Y38608562D02*
X6572381Y38608562D01*
X7067619Y38265705D02*
X7067619Y39065705D01*
X7067619Y39065705D02*
X7524762Y38265705D01*
X7524762Y38265705D02*
X7524762Y39065705D01*
X7905714Y38265705D02*
X7905714Y39065705D01*
X7905714Y39065705D02*
X8096190Y39065705D01*
X8096190Y39065705D02*
X8210476Y39027610D01*
X8210476Y39027610D02*
X8286666Y38951420D01*
X8286666Y38951420D02*
X8324761Y38875229D01*
X8324761Y38875229D02*
X8362857Y38722848D01*
X8362857Y38722848D02*
X8362857Y38608562D01*
X8362857Y38608562D02*
X8324761Y38456181D01*
X8324761Y38456181D02*
X8286666Y38379991D01*
X8286666Y38379991D02*
X8210476Y38303800D01*
X8210476Y38303800D02*
X8096190Y38265705D01*
X8096190Y38265705D02*
X7905714Y38265705D01*
X7438878Y35229888D02*
X7391259Y35087031D01*
X7391259Y35087031D02*
X7343640Y35039412D01*
X7343640Y35039412D02*
X7248402Y34991793D01*
X7248402Y34991793D02*
X7105545Y34991793D01*
X7105545Y34991793D02*
X7010307Y35039412D01*
X7010307Y35039412D02*
X6962688Y35087031D01*
X6962688Y35087031D02*
X6915068Y35182269D01*
X6915068Y35182269D02*
X6915068Y35563221D01*
X6915068Y35563221D02*
X7915068Y35563221D01*
X7915068Y35563221D02*
X7915068Y35229888D01*
X7915068Y35229888D02*
X7867449Y35134650D01*
X7867449Y35134650D02*
X7819830Y35087031D01*
X7819830Y35087031D02*
X7724592Y35039412D01*
X7724592Y35039412D02*
X7629354Y35039412D01*
X7629354Y35039412D02*
X7534116Y35087031D01*
X7534116Y35087031D02*
X7486497Y35134650D01*
X7486497Y35134650D02*
X7438878Y35229888D01*
X7438878Y35229888D02*
X7438878Y35563221D01*
X6915068Y33991793D02*
X7391259Y34325126D01*
X6915068Y34563221D02*
X7915068Y34563221D01*
X7915068Y34563221D02*
X7915068Y34182269D01*
X7915068Y34182269D02*
X7867449Y34087031D01*
X7867449Y34087031D02*
X7819830Y34039412D01*
X7819830Y34039412D02*
X7724592Y33991793D01*
X7724592Y33991793D02*
X7581735Y33991793D01*
X7581735Y33991793D02*
X7486497Y34039412D01*
X7486497Y34039412D02*
X7438878Y34087031D01*
X7438878Y34087031D02*
X7391259Y34182269D01*
X7391259Y34182269D02*
X7391259Y34563221D01*
X7438878Y33563221D02*
X7438878Y33229888D01*
X6915068Y33087031D02*
X6915068Y33563221D01*
X6915068Y33563221D02*
X7915068Y33563221D01*
X7915068Y33563221D02*
X7915068Y33087031D01*
X7200783Y32706078D02*
X7200783Y32229888D01*
X6915068Y32801316D02*
X7915068Y32467983D01*
X7915068Y32467983D02*
X6915068Y32134650D01*
X6915068Y31801316D02*
X7915068Y31801316D01*
X7915068Y31801316D02*
X7915068Y31563221D01*
X7915068Y31563221D02*
X7867449Y31420364D01*
X7867449Y31420364D02*
X7772211Y31325126D01*
X7772211Y31325126D02*
X7676973Y31277507D01*
X7676973Y31277507D02*
X7486497Y31229888D01*
X7486497Y31229888D02*
X7343640Y31229888D01*
X7343640Y31229888D02*
X7153164Y31277507D01*
X7153164Y31277507D02*
X7057926Y31325126D01*
X7057926Y31325126D02*
X6962688Y31420364D01*
X6962688Y31420364D02*
X6915068Y31563221D01*
X6915068Y31563221D02*
X6915068Y31801316D01*
X6962688Y30087030D02*
X6915068Y29944173D01*
X6915068Y29944173D02*
X6915068Y29706078D01*
X6915068Y29706078D02*
X6962688Y29610840D01*
X6962688Y29610840D02*
X7010307Y29563221D01*
X7010307Y29563221D02*
X7105545Y29515602D01*
X7105545Y29515602D02*
X7200783Y29515602D01*
X7200783Y29515602D02*
X7296021Y29563221D01*
X7296021Y29563221D02*
X7343640Y29610840D01*
X7343640Y29610840D02*
X7391259Y29706078D01*
X7391259Y29706078D02*
X7438878Y29896554D01*
X7438878Y29896554D02*
X7486497Y29991792D01*
X7486497Y29991792D02*
X7534116Y30039411D01*
X7534116Y30039411D02*
X7629354Y30087030D01*
X7629354Y30087030D02*
X7724592Y30087030D01*
X7724592Y30087030D02*
X7819830Y30039411D01*
X7819830Y30039411D02*
X7867449Y29991792D01*
X7867449Y29991792D02*
X7915068Y29896554D01*
X7915068Y29896554D02*
X7915068Y29658459D01*
X7915068Y29658459D02*
X7867449Y29515602D01*
X6915068Y28944173D02*
X6962688Y29039411D01*
X6962688Y29039411D02*
X7057926Y29087030D01*
X7057926Y29087030D02*
X7915068Y29087030D01*
X6915068Y28563220D02*
X7581735Y28563220D01*
X7915068Y28563220D02*
X7867449Y28610839D01*
X7867449Y28610839D02*
X7819830Y28563220D01*
X7819830Y28563220D02*
X7867449Y28515601D01*
X7867449Y28515601D02*
X7915068Y28563220D01*
X7915068Y28563220D02*
X7819830Y28563220D01*
X6962688Y27658459D02*
X6915068Y27753697D01*
X6915068Y27753697D02*
X6915068Y27944173D01*
X6915068Y27944173D02*
X6962688Y28039411D01*
X6962688Y28039411D02*
X7010307Y28087030D01*
X7010307Y28087030D02*
X7105545Y28134649D01*
X7105545Y28134649D02*
X7391259Y28134649D01*
X7391259Y28134649D02*
X7486497Y28087030D01*
X7486497Y28087030D02*
X7534116Y28039411D01*
X7534116Y28039411D02*
X7581735Y27944173D01*
X7581735Y27944173D02*
X7581735Y27753697D01*
X7581735Y27753697D02*
X7534116Y27658459D01*
X6962688Y26848935D02*
X6915068Y26944173D01*
X6915068Y26944173D02*
X6915068Y27134649D01*
X6915068Y27134649D02*
X6962688Y27229887D01*
X6962688Y27229887D02*
X7057926Y27277506D01*
X7057926Y27277506D02*
X7438878Y27277506D01*
X7438878Y27277506D02*
X7534116Y27229887D01*
X7534116Y27229887D02*
X7581735Y27134649D01*
X7581735Y27134649D02*
X7581735Y26944173D01*
X7581735Y26944173D02*
X7534116Y26848935D01*
X7534116Y26848935D02*
X7438878Y26801316D01*
X7438878Y26801316D02*
X7343640Y26801316D01*
X7343640Y26801316D02*
X7248402Y27277506D01*
X5305124Y34991793D02*
X5781315Y35325126D01*
X5305124Y35563221D02*
X6305124Y35563221D01*
X6305124Y35563221D02*
X6305124Y35182269D01*
X6305124Y35182269D02*
X6257505Y35087031D01*
X6257505Y35087031D02*
X6209886Y35039412D01*
X6209886Y35039412D02*
X6114648Y34991793D01*
X6114648Y34991793D02*
X5971791Y34991793D01*
X5971791Y34991793D02*
X5876553Y35039412D01*
X5876553Y35039412D02*
X5828934Y35087031D01*
X5828934Y35087031D02*
X5781315Y35182269D01*
X5781315Y35182269D02*
X5781315Y35563221D01*
X5352744Y34182269D02*
X5305124Y34277507D01*
X5305124Y34277507D02*
X5305124Y34467983D01*
X5305124Y34467983D02*
X5352744Y34563221D01*
X5352744Y34563221D02*
X5447982Y34610840D01*
X5447982Y34610840D02*
X5828934Y34610840D01*
X5828934Y34610840D02*
X5924172Y34563221D01*
X5924172Y34563221D02*
X5971791Y34467983D01*
X5971791Y34467983D02*
X5971791Y34277507D01*
X5971791Y34277507D02*
X5924172Y34182269D01*
X5924172Y34182269D02*
X5828934Y34134650D01*
X5828934Y34134650D02*
X5733696Y34134650D01*
X5733696Y34134650D02*
X5638458Y34610840D01*
X5305124Y33563221D02*
X5352744Y33658459D01*
X5352744Y33658459D02*
X5447982Y33706078D01*
X5447982Y33706078D02*
X6305124Y33706078D01*
X5305124Y32753697D02*
X5828934Y32753697D01*
X5828934Y32753697D02*
X5924172Y32801316D01*
X5924172Y32801316D02*
X5971791Y32896554D01*
X5971791Y32896554D02*
X5971791Y33087030D01*
X5971791Y33087030D02*
X5924172Y33182268D01*
X5352744Y32753697D02*
X5305124Y32848935D01*
X5305124Y32848935D02*
X5305124Y33087030D01*
X5305124Y33087030D02*
X5352744Y33182268D01*
X5352744Y33182268D02*
X5447982Y33229887D01*
X5447982Y33229887D02*
X5543220Y33229887D01*
X5543220Y33229887D02*
X5638458Y33182268D01*
X5638458Y33182268D02*
X5686077Y33087030D01*
X5686077Y33087030D02*
X5686077Y32848935D01*
X5686077Y32848935D02*
X5733696Y32753697D01*
X5971791Y32372744D02*
X5305124Y32134649D01*
X5971791Y31896554D02*
X5305124Y32134649D01*
X5305124Y32134649D02*
X5067029Y32229887D01*
X5067029Y32229887D02*
X5019410Y32277506D01*
X5019410Y32277506D02*
X4971791Y32372744D01*
X5305124Y30753696D02*
X6305124Y30753696D01*
X6352744Y29563221D02*
X5067029Y30420363D01*
X6305124Y29039411D02*
X6305124Y28848935D01*
X6305124Y28848935D02*
X6257505Y28753697D01*
X6257505Y28753697D02*
X6162267Y28658459D01*
X6162267Y28658459D02*
X5971791Y28610840D01*
X5971791Y28610840D02*
X5638458Y28610840D01*
X5638458Y28610840D02*
X5447982Y28658459D01*
X5447982Y28658459D02*
X5352744Y28753697D01*
X5352744Y28753697D02*
X5305124Y28848935D01*
X5305124Y28848935D02*
X5305124Y29039411D01*
X5305124Y29039411D02*
X5352744Y29134649D01*
X5352744Y29134649D02*
X5447982Y29229887D01*
X5447982Y29229887D02*
X5638458Y29277506D01*
X5638458Y29277506D02*
X5971791Y29277506D01*
X5971791Y29277506D02*
X6162267Y29229887D01*
X6162267Y29229887D02*
X6257505Y29134649D01*
X6257505Y29134649D02*
X6305124Y29039411D01*
X3314228Y35277507D02*
X3361847Y35325126D01*
X3361847Y35325126D02*
X3504704Y35420364D01*
X3504704Y35420364D02*
X3599942Y35467983D01*
X3599942Y35467983D02*
X3742800Y35515602D01*
X3742800Y35515602D02*
X3980895Y35563221D01*
X3980895Y35563221D02*
X4171371Y35563221D01*
X4171371Y35563221D02*
X4409466Y35515602D01*
X4409466Y35515602D02*
X4552323Y35467983D01*
X4552323Y35467983D02*
X4647561Y35420364D01*
X4647561Y35420364D02*
X4790419Y35325126D01*
X4790419Y35325126D02*
X4838038Y35277507D01*
X3742800Y34944173D02*
X3695180Y34801316D01*
X3695180Y34801316D02*
X3695180Y34563221D01*
X3695180Y34563221D02*
X3742800Y34467983D01*
X3742800Y34467983D02*
X3790419Y34420364D01*
X3790419Y34420364D02*
X3885657Y34372745D01*
X3885657Y34372745D02*
X3980895Y34372745D01*
X3980895Y34372745D02*
X4076133Y34420364D01*
X4076133Y34420364D02*
X4123752Y34467983D01*
X4123752Y34467983D02*
X4171371Y34563221D01*
X4171371Y34563221D02*
X4218990Y34753697D01*
X4218990Y34753697D02*
X4266609Y34848935D01*
X4266609Y34848935D02*
X4314228Y34896554D01*
X4314228Y34896554D02*
X4409466Y34944173D01*
X4409466Y34944173D02*
X4504704Y34944173D01*
X4504704Y34944173D02*
X4599942Y34896554D01*
X4599942Y34896554D02*
X4647561Y34848935D01*
X4647561Y34848935D02*
X4695180Y34753697D01*
X4695180Y34753697D02*
X4695180Y34515602D01*
X4695180Y34515602D02*
X4647561Y34372745D01*
X3695180Y33467983D02*
X3695180Y33944173D01*
X3695180Y33944173D02*
X4695180Y33944173D01*
X3790419Y32563221D02*
X3742800Y32610840D01*
X3742800Y32610840D02*
X3695180Y32753697D01*
X3695180Y32753697D02*
X3695180Y32848935D01*
X3695180Y32848935D02*
X3742800Y32991792D01*
X3742800Y32991792D02*
X3838038Y33087030D01*
X3838038Y33087030D02*
X3933276Y33134649D01*
X3933276Y33134649D02*
X4123752Y33182268D01*
X4123752Y33182268D02*
X4266609Y33182268D01*
X4266609Y33182268D02*
X4457085Y33134649D01*
X4457085Y33134649D02*
X4552323Y33087030D01*
X4552323Y33087030D02*
X4647561Y32991792D01*
X4647561Y32991792D02*
X4695180Y32848935D01*
X4695180Y32848935D02*
X4695180Y32753697D01*
X4695180Y32753697D02*
X4647561Y32610840D01*
X4647561Y32610840D02*
X4599942Y32563221D01*
X3599942Y32372744D02*
X3599942Y31610840D01*
X3695180Y30801316D02*
X4171371Y31134649D01*
X3695180Y31372744D02*
X4695180Y31372744D01*
X4695180Y31372744D02*
X4695180Y30991792D01*
X4695180Y30991792D02*
X4647561Y30896554D01*
X4647561Y30896554D02*
X4599942Y30848935D01*
X4599942Y30848935D02*
X4504704Y30801316D01*
X4504704Y30801316D02*
X4361847Y30801316D01*
X4361847Y30801316D02*
X4266609Y30848935D01*
X4266609Y30848935D02*
X4218990Y30896554D01*
X4218990Y30896554D02*
X4171371Y30991792D01*
X4171371Y30991792D02*
X4171371Y31372744D01*
X3695180Y29896554D02*
X3695180Y30372744D01*
X3695180Y30372744D02*
X4695180Y30372744D01*
X3980895Y29610839D02*
X3980895Y29134649D01*
X3695180Y29706077D02*
X4695180Y29372744D01*
X4695180Y29372744D02*
X3695180Y29039411D01*
X4171371Y28515601D02*
X3695180Y28515601D01*
X4695180Y28848934D02*
X4171371Y28515601D01*
X4171371Y28515601D02*
X4695180Y28182268D01*
X3314228Y27944172D02*
X3361847Y27896553D01*
X3361847Y27896553D02*
X3504704Y27801315D01*
X3504704Y27801315D02*
X3599942Y27753696D01*
X3599942Y27753696D02*
X3742800Y27706077D01*
X3742800Y27706077D02*
X3980895Y27658458D01*
X3980895Y27658458D02*
X4171371Y27658458D01*
X4171371Y27658458D02*
X4409466Y27706077D01*
X4409466Y27706077D02*
X4552323Y27753696D01*
X4552323Y27753696D02*
X4647561Y27801315D01*
X4647561Y27801315D02*
X4790419Y27896553D01*
X4790419Y27896553D02*
X4838038Y27944172D01*
X2180475Y34991793D02*
X2132856Y35039412D01*
X2132856Y35039412D02*
X2085236Y35182269D01*
X2085236Y35182269D02*
X2085236Y35277507D01*
X2085236Y35277507D02*
X2132856Y35420364D01*
X2132856Y35420364D02*
X2228094Y35515602D01*
X2228094Y35515602D02*
X2323332Y35563221D01*
X2323332Y35563221D02*
X2513808Y35610840D01*
X2513808Y35610840D02*
X2656665Y35610840D01*
X2656665Y35610840D02*
X2847141Y35563221D01*
X2847141Y35563221D02*
X2942379Y35515602D01*
X2942379Y35515602D02*
X3037617Y35420364D01*
X3037617Y35420364D02*
X3085236Y35277507D01*
X3085236Y35277507D02*
X3085236Y35182269D01*
X3085236Y35182269D02*
X3037617Y35039412D01*
X3037617Y35039412D02*
X2989998Y34991793D01*
X2085236Y34134650D02*
X2609046Y34134650D01*
X2609046Y34134650D02*
X2704284Y34182269D01*
X2704284Y34182269D02*
X2751903Y34277507D01*
X2751903Y34277507D02*
X2751903Y34467983D01*
X2751903Y34467983D02*
X2704284Y34563221D01*
X2132856Y34134650D02*
X2085236Y34229888D01*
X2085236Y34229888D02*
X2085236Y34467983D01*
X2085236Y34467983D02*
X2132856Y34563221D01*
X2132856Y34563221D02*
X2228094Y34610840D01*
X2228094Y34610840D02*
X2323332Y34610840D01*
X2323332Y34610840D02*
X2418570Y34563221D01*
X2418570Y34563221D02*
X2466189Y34467983D01*
X2466189Y34467983D02*
X2466189Y34229888D01*
X2466189Y34229888D02*
X2513808Y34134650D01*
X2085236Y33658459D02*
X2751903Y33658459D01*
X2656665Y33658459D02*
X2704284Y33610840D01*
X2704284Y33610840D02*
X2751903Y33515602D01*
X2751903Y33515602D02*
X2751903Y33372745D01*
X2751903Y33372745D02*
X2704284Y33277507D01*
X2704284Y33277507D02*
X2609046Y33229888D01*
X2609046Y33229888D02*
X2085236Y33229888D01*
X2609046Y33229888D02*
X2704284Y33182269D01*
X2704284Y33182269D02*
X2751903Y33087031D01*
X2751903Y33087031D02*
X2751903Y32944174D01*
X2751903Y32944174D02*
X2704284Y32848935D01*
X2704284Y32848935D02*
X2609046Y32801316D01*
X2609046Y32801316D02*
X2085236Y32801316D01*
X2085236Y31563221D02*
X3085236Y31563221D01*
X2085236Y30991793D02*
X2656665Y31420364D01*
X3085236Y30991793D02*
X2513808Y31563221D01*
X2609046Y29467983D02*
X2561427Y29325126D01*
X2561427Y29325126D02*
X2513808Y29277507D01*
X2513808Y29277507D02*
X2418570Y29229888D01*
X2418570Y29229888D02*
X2275713Y29229888D01*
X2275713Y29229888D02*
X2180475Y29277507D01*
X2180475Y29277507D02*
X2132856Y29325126D01*
X2132856Y29325126D02*
X2085236Y29420364D01*
X2085236Y29420364D02*
X2085236Y29801316D01*
X2085236Y29801316D02*
X3085236Y29801316D01*
X3085236Y29801316D02*
X3085236Y29467983D01*
X3085236Y29467983D02*
X3037617Y29372745D01*
X3037617Y29372745D02*
X2989998Y29325126D01*
X2989998Y29325126D02*
X2894760Y29277507D01*
X2894760Y29277507D02*
X2799522Y29277507D01*
X2799522Y29277507D02*
X2704284Y29325126D01*
X2704284Y29325126D02*
X2656665Y29372745D01*
X2656665Y29372745D02*
X2609046Y29467983D01*
X2609046Y29467983D02*
X2609046Y29801316D01*
X2085236Y28801316D02*
X2751903Y28801316D01*
X2561427Y28801316D02*
X2656665Y28753697D01*
X2656665Y28753697D02*
X2704284Y28706078D01*
X2704284Y28706078D02*
X2751903Y28610840D01*
X2751903Y28610840D02*
X2751903Y28515602D01*
X2085236Y28039411D02*
X2132856Y28134649D01*
X2132856Y28134649D02*
X2180475Y28182268D01*
X2180475Y28182268D02*
X2275713Y28229887D01*
X2275713Y28229887D02*
X2561427Y28229887D01*
X2561427Y28229887D02*
X2656665Y28182268D01*
X2656665Y28182268D02*
X2704284Y28134649D01*
X2704284Y28134649D02*
X2751903Y28039411D01*
X2751903Y28039411D02*
X2751903Y27896554D01*
X2751903Y27896554D02*
X2704284Y27801316D01*
X2704284Y27801316D02*
X2656665Y27753697D01*
X2656665Y27753697D02*
X2561427Y27706078D01*
X2561427Y27706078D02*
X2275713Y27706078D01*
X2275713Y27706078D02*
X2180475Y27753697D01*
X2180475Y27753697D02*
X2132856Y27801316D01*
X2132856Y27801316D02*
X2085236Y27896554D01*
X2085236Y27896554D02*
X2085236Y28039411D01*
X2085236Y27134649D02*
X2132856Y27229887D01*
X2132856Y27229887D02*
X2180475Y27277506D01*
X2180475Y27277506D02*
X2275713Y27325125D01*
X2275713Y27325125D02*
X2561427Y27325125D01*
X2561427Y27325125D02*
X2656665Y27277506D01*
X2656665Y27277506D02*
X2704284Y27229887D01*
X2704284Y27229887D02*
X2751903Y27134649D01*
X2751903Y27134649D02*
X2751903Y26991792D01*
X2751903Y26991792D02*
X2704284Y26896554D01*
X2704284Y26896554D02*
X2656665Y26848935D01*
X2656665Y26848935D02*
X2561427Y26801316D01*
X2561427Y26801316D02*
X2275713Y26801316D01*
X2275713Y26801316D02*
X2180475Y26848935D01*
X2180475Y26848935D02*
X2132856Y26896554D01*
X2132856Y26896554D02*
X2085236Y26991792D01*
X2085236Y26991792D02*
X2085236Y27134649D01*
X2085236Y26372744D02*
X3085236Y26372744D01*
X2466189Y26277506D02*
X2085236Y25991792D01*
X2751903Y25991792D02*
X2370951Y26372744D01*
X2132856Y25610839D02*
X2085236Y25515601D01*
X2085236Y25515601D02*
X2085236Y25325125D01*
X2085236Y25325125D02*
X2132856Y25229887D01*
X2132856Y25229887D02*
X2228094Y25182268D01*
X2228094Y25182268D02*
X2275713Y25182268D01*
X2275713Y25182268D02*
X2370951Y25229887D01*
X2370951Y25229887D02*
X2418570Y25325125D01*
X2418570Y25325125D02*
X2418570Y25467982D01*
X2418570Y25467982D02*
X2466189Y25563220D01*
X2466189Y25563220D02*
X2561427Y25610839D01*
X2561427Y25610839D02*
X2609046Y25610839D01*
X2609046Y25610839D02*
X2704284Y25563220D01*
X2704284Y25563220D02*
X2751903Y25467982D01*
X2751903Y25467982D02*
X2751903Y25325125D01*
X2751903Y25325125D02*
X2704284Y25229887D01*
X475292Y35563221D02*
X1141959Y35563221D01*
X951483Y35563221D02*
X1046721Y35515602D01*
X1046721Y35515602D02*
X1094340Y35467983D01*
X1094340Y35467983D02*
X1141959Y35372745D01*
X1141959Y35372745D02*
X1141959Y35277507D01*
X522912Y34563221D02*
X475292Y34658459D01*
X475292Y34658459D02*
X475292Y34848935D01*
X475292Y34848935D02*
X522912Y34944173D01*
X522912Y34944173D02*
X618150Y34991792D01*
X618150Y34991792D02*
X999102Y34991792D01*
X999102Y34991792D02*
X1094340Y34944173D01*
X1094340Y34944173D02*
X1141959Y34848935D01*
X1141959Y34848935D02*
X1141959Y34658459D01*
X1141959Y34658459D02*
X1094340Y34563221D01*
X1094340Y34563221D02*
X999102Y34515602D01*
X999102Y34515602D02*
X903864Y34515602D01*
X903864Y34515602D02*
X808626Y34991792D01*
X1141959Y34182268D02*
X475292Y33944173D01*
X475292Y33944173D02*
X1141959Y33706078D01*
X570531Y33325125D02*
X522912Y33277506D01*
X522912Y33277506D02*
X475292Y33325125D01*
X475292Y33325125D02*
X522912Y33372744D01*
X522912Y33372744D02*
X570531Y33325125D01*
X570531Y33325125D02*
X475292Y33325125D01*
X761007Y32896554D02*
X761007Y32420364D01*
X475292Y32991792D02*
X1475292Y32658459D01*
X1475292Y32658459D02*
X475292Y32325126D01*
X141959Y30944173D02*
X141959Y31182268D01*
X141959Y31182268D02*
X1570531Y31182268D01*
X1570531Y31182268D02*
X1570531Y30944173D01*
X1475292Y30372744D02*
X1475292Y30277506D01*
X1475292Y30277506D02*
X1427673Y30182268D01*
X1427673Y30182268D02*
X1380054Y30134649D01*
X1380054Y30134649D02*
X1284816Y30087030D01*
X1284816Y30087030D02*
X1094340Y30039411D01*
X1094340Y30039411D02*
X856245Y30039411D01*
X856245Y30039411D02*
X665769Y30087030D01*
X665769Y30087030D02*
X570531Y30134649D01*
X570531Y30134649D02*
X522912Y30182268D01*
X522912Y30182268D02*
X475292Y30277506D01*
X475292Y30277506D02*
X475292Y30372744D01*
X475292Y30372744D02*
X522912Y30467982D01*
X522912Y30467982D02*
X570531Y30515601D01*
X570531Y30515601D02*
X665769Y30563220D01*
X665769Y30563220D02*
X856245Y30610839D01*
X856245Y30610839D02*
X1094340Y30610839D01*
X1094340Y30610839D02*
X1284816Y30563220D01*
X1284816Y30563220D02*
X1380054Y30515601D01*
X1380054Y30515601D02*
X1427673Y30467982D01*
X1427673Y30467982D02*
X1475292Y30372744D01*
X475292Y29563220D02*
X475292Y29372744D01*
X475292Y29372744D02*
X522912Y29277506D01*
X522912Y29277506D02*
X570531Y29229887D01*
X570531Y29229887D02*
X713388Y29134649D01*
X713388Y29134649D02*
X903864Y29087030D01*
X903864Y29087030D02*
X1284816Y29087030D01*
X1284816Y29087030D02*
X1380054Y29134649D01*
X1380054Y29134649D02*
X1427673Y29182268D01*
X1427673Y29182268D02*
X1475292Y29277506D01*
X1475292Y29277506D02*
X1475292Y29467982D01*
X1475292Y29467982D02*
X1427673Y29563220D01*
X1427673Y29563220D02*
X1380054Y29610839D01*
X1380054Y29610839D02*
X1284816Y29658458D01*
X1284816Y29658458D02*
X1046721Y29658458D01*
X1046721Y29658458D02*
X951483Y29610839D01*
X951483Y29610839D02*
X903864Y29563220D01*
X903864Y29563220D02*
X856245Y29467982D01*
X856245Y29467982D02*
X856245Y29277506D01*
X856245Y29277506D02*
X903864Y29182268D01*
X903864Y29182268D02*
X951483Y29134649D01*
X951483Y29134649D02*
X1046721Y29087030D01*
X856245Y28658458D02*
X856245Y27896553D01*
X1380054Y27467982D02*
X1427673Y27420363D01*
X1427673Y27420363D02*
X1475292Y27325125D01*
X1475292Y27325125D02*
X1475292Y27087030D01*
X1475292Y27087030D02*
X1427673Y26991792D01*
X1427673Y26991792D02*
X1380054Y26944173D01*
X1380054Y26944173D02*
X1284816Y26896554D01*
X1284816Y26896554D02*
X1189578Y26896554D01*
X1189578Y26896554D02*
X1046721Y26944173D01*
X1046721Y26944173D02*
X475292Y27515601D01*
X475292Y27515601D02*
X475292Y26896554D01*
X1475292Y26277506D02*
X1475292Y26182268D01*
X1475292Y26182268D02*
X1427673Y26087030D01*
X1427673Y26087030D02*
X1380054Y26039411D01*
X1380054Y26039411D02*
X1284816Y25991792D01*
X1284816Y25991792D02*
X1094340Y25944173D01*
X1094340Y25944173D02*
X856245Y25944173D01*
X856245Y25944173D02*
X665769Y25991792D01*
X665769Y25991792D02*
X570531Y26039411D01*
X570531Y26039411D02*
X522912Y26087030D01*
X522912Y26087030D02*
X475292Y26182268D01*
X475292Y26182268D02*
X475292Y26277506D01*
X475292Y26277506D02*
X522912Y26372744D01*
X522912Y26372744D02*
X570531Y26420363D01*
X570531Y26420363D02*
X665769Y26467982D01*
X665769Y26467982D02*
X856245Y26515601D01*
X856245Y26515601D02*
X1094340Y26515601D01*
X1094340Y26515601D02*
X1284816Y26467982D01*
X1284816Y26467982D02*
X1380054Y26420363D01*
X1380054Y26420363D02*
X1427673Y26372744D01*
X1427673Y26372744D02*
X1475292Y26277506D01*
X1380054Y25563220D02*
X1427673Y25515601D01*
X1427673Y25515601D02*
X1475292Y25420363D01*
X1475292Y25420363D02*
X1475292Y25182268D01*
X1475292Y25182268D02*
X1427673Y25087030D01*
X1427673Y25087030D02*
X1380054Y25039411D01*
X1380054Y25039411D02*
X1284816Y24991792D01*
X1284816Y24991792D02*
X1189578Y24991792D01*
X1189578Y24991792D02*
X1046721Y25039411D01*
X1046721Y25039411D02*
X475292Y25610839D01*
X475292Y25610839D02*
X475292Y24991792D01*
X1141959Y24134649D02*
X475292Y24134649D01*
X1522912Y24372744D02*
X808626Y24610839D01*
X808626Y24610839D02*
X808626Y23991792D01*
X141959Y23706077D02*
X141959Y23467982D01*
X141959Y23467982D02*
X1570531Y23467982D01*
X1570531Y23467982D02*
X1570531Y23706077D01*
X6686666Y61877610D02*
X6610476Y61915705D01*
X6610476Y61915705D02*
X6496190Y61915705D01*
X6496190Y61915705D02*
X6381904Y61877610D01*
X6381904Y61877610D02*
X6305714Y61801420D01*
X6305714Y61801420D02*
X6267619Y61725229D01*
X6267619Y61725229D02*
X6229523Y61572848D01*
X6229523Y61572848D02*
X6229523Y61458562D01*
X6229523Y61458562D02*
X6267619Y61306181D01*
X6267619Y61306181D02*
X6305714Y61229991D01*
X6305714Y61229991D02*
X6381904Y61153800D01*
X6381904Y61153800D02*
X6496190Y61115705D01*
X6496190Y61115705D02*
X6572381Y61115705D01*
X6572381Y61115705D02*
X6686666Y61153800D01*
X6686666Y61153800D02*
X6724762Y61191896D01*
X6724762Y61191896D02*
X6724762Y61458562D01*
X6724762Y61458562D02*
X6572381Y61458562D01*
X7067619Y61115705D02*
X7067619Y61915705D01*
X7067619Y61915705D02*
X7524762Y61115705D01*
X7524762Y61115705D02*
X7524762Y61915705D01*
X7905714Y61115705D02*
X7905714Y61915705D01*
X7905714Y61915705D02*
X8096190Y61915705D01*
X8096190Y61915705D02*
X8210476Y61877610D01*
X8210476Y61877610D02*
X8286666Y61801420D01*
X8286666Y61801420D02*
X8324761Y61725229D01*
X8324761Y61725229D02*
X8362857Y61572848D01*
X8362857Y61572848D02*
X8362857Y61458562D01*
X8362857Y61458562D02*
X8324761Y61306181D01*
X8324761Y61306181D02*
X8286666Y61229991D01*
X8286666Y61229991D02*
X8210476Y61153800D01*
X8210476Y61153800D02*
X8096190Y61115705D01*
X8096190Y61115705D02*
X7905714Y61115705D01*
X69704819Y80890477D02*
X68704819Y80890477D01*
X68704819Y80890477D02*
X69704819Y81461905D01*
X69704819Y81461905D02*
X68704819Y81461905D01*
X68704819Y82128572D02*
X68704819Y82319048D01*
X68704819Y82319048D02*
X68752438Y82414286D01*
X68752438Y82414286D02*
X68847676Y82509524D01*
X68847676Y82509524D02*
X69038152Y82557143D01*
X69038152Y82557143D02*
X69371485Y82557143D01*
X69371485Y82557143D02*
X69561961Y82509524D01*
X69561961Y82509524D02*
X69657200Y82414286D01*
X69657200Y82414286D02*
X69704819Y82319048D01*
X69704819Y82319048D02*
X69704819Y82128572D01*
X69704819Y82128572D02*
X69657200Y82033334D01*
X69657200Y82033334D02*
X69561961Y81938096D01*
X69561961Y81938096D02*
X69371485Y81890477D01*
X69371485Y81890477D02*
X69038152Y81890477D01*
X69038152Y81890477D02*
X68847676Y81938096D01*
X68847676Y81938096D02*
X68752438Y82033334D01*
X68752438Y82033334D02*
X68704819Y82128572D01*
X69754819Y59626192D02*
X68754819Y59626192D01*
X69754819Y60102382D02*
X68754819Y60102382D01*
X68754819Y60102382D02*
X69754819Y60673810D01*
X69754819Y60673810D02*
X68754819Y60673810D01*
D10*
X57578328Y29542858D02*
X56864042Y29042858D01*
X57578328Y28685715D02*
X56078328Y28685715D01*
X56078328Y28685715D02*
X56078328Y29257144D01*
X56078328Y29257144D02*
X56149757Y29400001D01*
X56149757Y29400001D02*
X56221185Y29471430D01*
X56221185Y29471430D02*
X56364042Y29542858D01*
X56364042Y29542858D02*
X56578328Y29542858D01*
X56578328Y29542858D02*
X56721185Y29471430D01*
X56721185Y29471430D02*
X56792614Y29400001D01*
X56792614Y29400001D02*
X56864042Y29257144D01*
X56864042Y29257144D02*
X56864042Y28685715D01*
X57506900Y30757144D02*
X57578328Y30614287D01*
X57578328Y30614287D02*
X57578328Y30328572D01*
X57578328Y30328572D02*
X57506900Y30185715D01*
X57506900Y30185715D02*
X57364042Y30114287D01*
X57364042Y30114287D02*
X56792614Y30114287D01*
X56792614Y30114287D02*
X56649757Y30185715D01*
X56649757Y30185715D02*
X56578328Y30328572D01*
X56578328Y30328572D02*
X56578328Y30614287D01*
X56578328Y30614287D02*
X56649757Y30757144D01*
X56649757Y30757144D02*
X56792614Y30828572D01*
X56792614Y30828572D02*
X56935471Y30828572D01*
X56935471Y30828572D02*
X57078328Y30114287D01*
X57578328Y31685715D02*
X57506900Y31542858D01*
X57506900Y31542858D02*
X57364042Y31471429D01*
X57364042Y31471429D02*
X56078328Y31471429D01*
X57578328Y32900000D02*
X56792614Y32900000D01*
X56792614Y32900000D02*
X56649757Y32828572D01*
X56649757Y32828572D02*
X56578328Y32685715D01*
X56578328Y32685715D02*
X56578328Y32400000D01*
X56578328Y32400000D02*
X56649757Y32257143D01*
X57506900Y32900000D02*
X57578328Y32757143D01*
X57578328Y32757143D02*
X57578328Y32400000D01*
X57578328Y32400000D02*
X57506900Y32257143D01*
X57506900Y32257143D02*
X57364042Y32185715D01*
X57364042Y32185715D02*
X57221185Y32185715D01*
X57221185Y32185715D02*
X57078328Y32257143D01*
X57078328Y32257143D02*
X57006900Y32400000D01*
X57006900Y32400000D02*
X57006900Y32757143D01*
X57006900Y32757143D02*
X56935471Y32900000D01*
X56578328Y33471429D02*
X57578328Y33828572D01*
X56578328Y34185715D02*
X57578328Y33828572D01*
X57578328Y33828572D02*
X57935471Y33685715D01*
X57935471Y33685715D02*
X58006900Y33614286D01*
X58006900Y33614286D02*
X58078328Y33471429D01*
X56578328Y36542857D02*
X57578328Y36542857D01*
X56006900Y36185715D02*
X57078328Y35828572D01*
X57078328Y35828572D02*
X57078328Y36757143D01*
X59578328Y10885715D02*
X61078328Y11385715D01*
X61078328Y11385715D02*
X59578328Y11885715D01*
X61078328Y12600000D02*
X61006900Y12457143D01*
X61006900Y12457143D02*
X60935471Y12385714D01*
X60935471Y12385714D02*
X60792614Y12314286D01*
X60792614Y12314286D02*
X60364042Y12314286D01*
X60364042Y12314286D02*
X60221185Y12385714D01*
X60221185Y12385714D02*
X60149757Y12457143D01*
X60149757Y12457143D02*
X60078328Y12600000D01*
X60078328Y12600000D02*
X60078328Y12814286D01*
X60078328Y12814286D02*
X60149757Y12957143D01*
X60149757Y12957143D02*
X60221185Y13028571D01*
X60221185Y13028571D02*
X60364042Y13100000D01*
X60364042Y13100000D02*
X60792614Y13100000D01*
X60792614Y13100000D02*
X60935471Y13028571D01*
X60935471Y13028571D02*
X61006900Y12957143D01*
X61006900Y12957143D02*
X61078328Y12814286D01*
X61078328Y12814286D02*
X61078328Y12600000D01*
X61078328Y13957143D02*
X61006900Y13814286D01*
X61006900Y13814286D02*
X60864042Y13742857D01*
X60864042Y13742857D02*
X59578328Y13742857D01*
X60078328Y14314286D02*
X60078328Y14885714D01*
X59578328Y14528571D02*
X60864042Y14528571D01*
X60864042Y14528571D02*
X61006900Y14600000D01*
X61006900Y14600000D02*
X61078328Y14742857D01*
X61078328Y14742857D02*
X61078328Y14885714D01*
X61078328Y16028571D02*
X60292614Y16028571D01*
X60292614Y16028571D02*
X60149757Y15957143D01*
X60149757Y15957143D02*
X60078328Y15814286D01*
X60078328Y15814286D02*
X60078328Y15528571D01*
X60078328Y15528571D02*
X60149757Y15385714D01*
X61006900Y16028571D02*
X61078328Y15885714D01*
X61078328Y15885714D02*
X61078328Y15528571D01*
X61078328Y15528571D02*
X61006900Y15385714D01*
X61006900Y15385714D02*
X60864042Y15314286D01*
X60864042Y15314286D02*
X60721185Y15314286D01*
X60721185Y15314286D02*
X60578328Y15385714D01*
X60578328Y15385714D02*
X60506900Y15528571D01*
X60506900Y15528571D02*
X60506900Y15885714D01*
X60506900Y15885714D02*
X60435471Y16028571D01*
X60078328Y17385714D02*
X61292614Y17385714D01*
X61292614Y17385714D02*
X61435471Y17314286D01*
X61435471Y17314286D02*
X61506900Y17242857D01*
X61506900Y17242857D02*
X61578328Y17100000D01*
X61578328Y17100000D02*
X61578328Y16885714D01*
X61578328Y16885714D02*
X61506900Y16742857D01*
X61006900Y17385714D02*
X61078328Y17242857D01*
X61078328Y17242857D02*
X61078328Y16957143D01*
X61078328Y16957143D02*
X61006900Y16814286D01*
X61006900Y16814286D02*
X60935471Y16742857D01*
X60935471Y16742857D02*
X60792614Y16671429D01*
X60792614Y16671429D02*
X60364042Y16671429D01*
X60364042Y16671429D02*
X60221185Y16742857D01*
X60221185Y16742857D02*
X60149757Y16814286D01*
X60149757Y16814286D02*
X60078328Y16957143D01*
X60078328Y16957143D02*
X60078328Y17242857D01*
X60078328Y17242857D02*
X60149757Y17385714D01*
X61006900Y18671429D02*
X61078328Y18528572D01*
X61078328Y18528572D02*
X61078328Y18242857D01*
X61078328Y18242857D02*
X61006900Y18100000D01*
X61006900Y18100000D02*
X60864042Y18028572D01*
X60864042Y18028572D02*
X60292614Y18028572D01*
X60292614Y18028572D02*
X60149757Y18100000D01*
X60149757Y18100000D02*
X60078328Y18242857D01*
X60078328Y18242857D02*
X60078328Y18528572D01*
X60078328Y18528572D02*
X60149757Y18671429D01*
X60149757Y18671429D02*
X60292614Y18742857D01*
X60292614Y18742857D02*
X60435471Y18742857D01*
X60435471Y18742857D02*
X60578328Y18028572D01*
X61078328Y20528571D02*
X59578328Y20528571D01*
X61078328Y21242857D02*
X59578328Y21242857D01*
X59578328Y21242857D02*
X61078328Y22100000D01*
X61078328Y22100000D02*
X59578328Y22100000D01*
D11*
X6267618Y48834753D02*
X6534284Y48834753D01*
X6648570Y48415705D02*
X6267618Y48415705D01*
X6267618Y48415705D02*
X6267618Y49215705D01*
X6267618Y49215705D02*
X6648570Y49215705D01*
X6953332Y48453800D02*
X7067618Y48415705D01*
X7067618Y48415705D02*
X7258094Y48415705D01*
X7258094Y48415705D02*
X7334285Y48453800D01*
X7334285Y48453800D02*
X7372380Y48491896D01*
X7372380Y48491896D02*
X7410475Y48568086D01*
X7410475Y48568086D02*
X7410475Y48644277D01*
X7410475Y48644277D02*
X7372380Y48720467D01*
X7372380Y48720467D02*
X7334285Y48758562D01*
X7334285Y48758562D02*
X7258094Y48796658D01*
X7258094Y48796658D02*
X7105713Y48834753D01*
X7105713Y48834753D02*
X7029523Y48872848D01*
X7029523Y48872848D02*
X6991428Y48910943D01*
X6991428Y48910943D02*
X6953332Y48987134D01*
X6953332Y48987134D02*
X6953332Y49063324D01*
X6953332Y49063324D02*
X6991428Y49139515D01*
X6991428Y49139515D02*
X7029523Y49177610D01*
X7029523Y49177610D02*
X7105713Y49215705D01*
X7105713Y49215705D02*
X7296190Y49215705D01*
X7296190Y49215705D02*
X7410475Y49177610D01*
X7639047Y49215705D02*
X8096190Y49215705D01*
X7867618Y48415705D02*
X7867618Y49215705D01*
X8515238Y49215705D02*
X8667619Y49215705D01*
X8667619Y49215705D02*
X8743809Y49177610D01*
X8743809Y49177610D02*
X8820000Y49101420D01*
X8820000Y49101420D02*
X8858095Y48949039D01*
X8858095Y48949039D02*
X8858095Y48682372D01*
X8858095Y48682372D02*
X8820000Y48529991D01*
X8820000Y48529991D02*
X8743809Y48453800D01*
X8743809Y48453800D02*
X8667619Y48415705D01*
X8667619Y48415705D02*
X8515238Y48415705D01*
X8515238Y48415705D02*
X8439047Y48453800D01*
X8439047Y48453800D02*
X8362857Y48529991D01*
X8362857Y48529991D02*
X8324761Y48682372D01*
X8324761Y48682372D02*
X8324761Y48949039D01*
X8324761Y48949039D02*
X8362857Y49101420D01*
X8362857Y49101420D02*
X8439047Y49177610D01*
X8439047Y49177610D02*
X8515238Y49215705D01*
X9200952Y48415705D02*
X9200952Y49215705D01*
X9200952Y49215705D02*
X9505714Y49215705D01*
X9505714Y49215705D02*
X9581904Y49177610D01*
X9581904Y49177610D02*
X9619999Y49139515D01*
X9619999Y49139515D02*
X9658095Y49063324D01*
X9658095Y49063324D02*
X9658095Y48949039D01*
X9658095Y48949039D02*
X9619999Y48872848D01*
X9619999Y48872848D02*
X9581904Y48834753D01*
X9581904Y48834753D02*
X9505714Y48796658D01*
X9505714Y48796658D02*
X9200952Y48796658D01*
X69704819Y53314287D02*
X68704819Y53314287D01*
X68704819Y53314287D02*
X69704819Y53885715D01*
X69704819Y53885715D02*
X68704819Y53885715D01*
X69609580Y54933334D02*
X69657200Y54885715D01*
X69657200Y54885715D02*
X69704819Y54742858D01*
X69704819Y54742858D02*
X69704819Y54647620D01*
X69704819Y54647620D02*
X69657200Y54504763D01*
X69657200Y54504763D02*
X69561961Y54409525D01*
X69561961Y54409525D02*
X69466723Y54361906D01*
X69466723Y54361906D02*
X69276247Y54314287D01*
X69276247Y54314287D02*
X69133390Y54314287D01*
X69133390Y54314287D02*
X68942914Y54361906D01*
X68942914Y54361906D02*
X68847676Y54409525D01*
X68847676Y54409525D02*
X68752438Y54504763D01*
X68752438Y54504763D02*
X68704819Y54647620D01*
X68704819Y54647620D02*
X68704819Y54742858D01*
X68704819Y54742858D02*
X68752438Y54885715D01*
X68752438Y54885715D02*
X68800057Y54933334D01*
X69654819Y36964287D02*
X68654819Y36964287D01*
X68654819Y36964287D02*
X69654819Y37535715D01*
X69654819Y37535715D02*
X68654819Y37535715D01*
X69559580Y38583334D02*
X69607200Y38535715D01*
X69607200Y38535715D02*
X69654819Y38392858D01*
X69654819Y38392858D02*
X69654819Y38297620D01*
X69654819Y38297620D02*
X69607200Y38154763D01*
X69607200Y38154763D02*
X69511961Y38059525D01*
X69511961Y38059525D02*
X69416723Y38011906D01*
X69416723Y38011906D02*
X69226247Y37964287D01*
X69226247Y37964287D02*
X69083390Y37964287D01*
X69083390Y37964287D02*
X68892914Y38011906D01*
X68892914Y38011906D02*
X68797676Y38059525D01*
X68797676Y38059525D02*
X68702438Y38154763D01*
X68702438Y38154763D02*
X68654819Y38297620D01*
X68654819Y38297620D02*
X68654819Y38392858D01*
X68654819Y38392858D02*
X68702438Y38535715D01*
X68702438Y38535715D02*
X68750057Y38583334D01*
X6267619Y43315705D02*
X6267619Y44115705D01*
X6648571Y43315705D02*
X6648571Y44115705D01*
X6648571Y44115705D02*
X7105714Y43315705D01*
X7105714Y43315705D02*
X7105714Y44115705D01*
X7372380Y44115705D02*
X7829523Y44115705D01*
X7600951Y43315705D02*
X7600951Y44115705D01*
X6229523Y53503800D02*
X6343809Y53465705D01*
X6343809Y53465705D02*
X6534285Y53465705D01*
X6534285Y53465705D02*
X6610476Y53503800D01*
X6610476Y53503800D02*
X6648571Y53541896D01*
X6648571Y53541896D02*
X6686666Y53618086D01*
X6686666Y53618086D02*
X6686666Y53694277D01*
X6686666Y53694277D02*
X6648571Y53770467D01*
X6648571Y53770467D02*
X6610476Y53808562D01*
X6610476Y53808562D02*
X6534285Y53846658D01*
X6534285Y53846658D02*
X6381904Y53884753D01*
X6381904Y53884753D02*
X6305714Y53922848D01*
X6305714Y53922848D02*
X6267619Y53960943D01*
X6267619Y53960943D02*
X6229523Y54037134D01*
X6229523Y54037134D02*
X6229523Y54113324D01*
X6229523Y54113324D02*
X6267619Y54189515D01*
X6267619Y54189515D02*
X6305714Y54227610D01*
X6305714Y54227610D02*
X6381904Y54265705D01*
X6381904Y54265705D02*
X6572381Y54265705D01*
X6572381Y54265705D02*
X6686666Y54227610D01*
X7029524Y53465705D02*
X7029524Y54265705D01*
X7029524Y54265705D02*
X7220000Y54265705D01*
X7220000Y54265705D02*
X7334286Y54227610D01*
X7334286Y54227610D02*
X7410476Y54151420D01*
X7410476Y54151420D02*
X7448571Y54075229D01*
X7448571Y54075229D02*
X7486667Y53922848D01*
X7486667Y53922848D02*
X7486667Y53808562D01*
X7486667Y53808562D02*
X7448571Y53656181D01*
X7448571Y53656181D02*
X7410476Y53579991D01*
X7410476Y53579991D02*
X7334286Y53503800D01*
X7334286Y53503800D02*
X7220000Y53465705D01*
X7220000Y53465705D02*
X7029524Y53465705D01*
X7791428Y53694277D02*
X8172381Y53694277D01*
X7715238Y53465705D02*
X7981905Y54265705D01*
X7981905Y54265705D02*
X8248571Y53465705D01*
X69754819Y75676192D02*
X68754819Y75676192D01*
X69754819Y76152382D02*
X68754819Y76152382D01*
X68754819Y76152382D02*
X69754819Y76723810D01*
X69754819Y76723810D02*
X68754819Y76723810D01*
X6229523Y56053800D02*
X6343809Y56015705D01*
X6343809Y56015705D02*
X6534285Y56015705D01*
X6534285Y56015705D02*
X6610476Y56053800D01*
X6610476Y56053800D02*
X6648571Y56091896D01*
X6648571Y56091896D02*
X6686666Y56168086D01*
X6686666Y56168086D02*
X6686666Y56244277D01*
X6686666Y56244277D02*
X6648571Y56320467D01*
X6648571Y56320467D02*
X6610476Y56358562D01*
X6610476Y56358562D02*
X6534285Y56396658D01*
X6534285Y56396658D02*
X6381904Y56434753D01*
X6381904Y56434753D02*
X6305714Y56472848D01*
X6305714Y56472848D02*
X6267619Y56510943D01*
X6267619Y56510943D02*
X6229523Y56587134D01*
X6229523Y56587134D02*
X6229523Y56663324D01*
X6229523Y56663324D02*
X6267619Y56739515D01*
X6267619Y56739515D02*
X6305714Y56777610D01*
X6305714Y56777610D02*
X6381904Y56815705D01*
X6381904Y56815705D02*
X6572381Y56815705D01*
X6572381Y56815705D02*
X6686666Y56777610D01*
X7486667Y56091896D02*
X7448571Y56053800D01*
X7448571Y56053800D02*
X7334286Y56015705D01*
X7334286Y56015705D02*
X7258095Y56015705D01*
X7258095Y56015705D02*
X7143809Y56053800D01*
X7143809Y56053800D02*
X7067619Y56129991D01*
X7067619Y56129991D02*
X7029524Y56206181D01*
X7029524Y56206181D02*
X6991428Y56358562D01*
X6991428Y56358562D02*
X6991428Y56472848D01*
X6991428Y56472848D02*
X7029524Y56625229D01*
X7029524Y56625229D02*
X7067619Y56701420D01*
X7067619Y56701420D02*
X7143809Y56777610D01*
X7143809Y56777610D02*
X7258095Y56815705D01*
X7258095Y56815705D02*
X7334286Y56815705D01*
X7334286Y56815705D02*
X7448571Y56777610D01*
X7448571Y56777610D02*
X7486667Y56739515D01*
X8210476Y56015705D02*
X7829524Y56015705D01*
X7829524Y56015705D02*
X7829524Y56815705D01*
X27944009Y9892858D02*
X27944009Y10845239D01*
X28515438Y9702382D02*
X26515438Y10369048D01*
X26515438Y10369048D02*
X28515438Y11035715D01*
X28515438Y12845239D02*
X27563057Y12178572D01*
X28515438Y11702382D02*
X26515438Y11702382D01*
X26515438Y11702382D02*
X26515438Y12464287D01*
X26515438Y12464287D02*
X26610676Y12654763D01*
X26610676Y12654763D02*
X26705914Y12750001D01*
X26705914Y12750001D02*
X26896390Y12845239D01*
X26896390Y12845239D02*
X27182104Y12845239D01*
X27182104Y12845239D02*
X27372580Y12750001D01*
X27372580Y12750001D02*
X27467819Y12654763D01*
X27467819Y12654763D02*
X27563057Y12464287D01*
X27563057Y12464287D02*
X27563057Y11702382D01*
X28515438Y13702382D02*
X26515438Y13702382D01*
X26515438Y13702382D02*
X26515438Y14178572D01*
X26515438Y14178572D02*
X26610676Y14464287D01*
X26610676Y14464287D02*
X26801152Y14654763D01*
X26801152Y14654763D02*
X26991628Y14750001D01*
X26991628Y14750001D02*
X27372580Y14845239D01*
X27372580Y14845239D02*
X27658295Y14845239D01*
X27658295Y14845239D02*
X28039247Y14750001D01*
X28039247Y14750001D02*
X28229723Y14654763D01*
X28229723Y14654763D02*
X28420200Y14464287D01*
X28420200Y14464287D02*
X28515438Y14178572D01*
X28515438Y14178572D02*
X28515438Y13702382D01*
X26515438Y15702382D02*
X28134485Y15702382D01*
X28134485Y15702382D02*
X28324961Y15797620D01*
X28324961Y15797620D02*
X28420200Y15892858D01*
X28420200Y15892858D02*
X28515438Y16083334D01*
X28515438Y16083334D02*
X28515438Y16464287D01*
X28515438Y16464287D02*
X28420200Y16654763D01*
X28420200Y16654763D02*
X28324961Y16750001D01*
X28324961Y16750001D02*
X28134485Y16845239D01*
X28134485Y16845239D02*
X26515438Y16845239D01*
X28515438Y17797620D02*
X26515438Y17797620D01*
X28515438Y18750001D02*
X26515438Y18750001D01*
X26515438Y18750001D02*
X28515438Y19892858D01*
X28515438Y19892858D02*
X26515438Y19892858D01*
X26515438Y21226191D02*
X26515438Y21607144D01*
X26515438Y21607144D02*
X26610676Y21797620D01*
X26610676Y21797620D02*
X26801152Y21988096D01*
X26801152Y21988096D02*
X27182104Y22083334D01*
X27182104Y22083334D02*
X27848771Y22083334D01*
X27848771Y22083334D02*
X28229723Y21988096D01*
X28229723Y21988096D02*
X28420200Y21797620D01*
X28420200Y21797620D02*
X28515438Y21607144D01*
X28515438Y21607144D02*
X28515438Y21226191D01*
X28515438Y21226191D02*
X28420200Y21035715D01*
X28420200Y21035715D02*
X28229723Y20845239D01*
X28229723Y20845239D02*
X27848771Y20750001D01*
X27848771Y20750001D02*
X27182104Y20750001D01*
X27182104Y20750001D02*
X26801152Y20845239D01*
X26801152Y20845239D02*
X26610676Y21035715D01*
X26610676Y21035715D02*
X26515438Y21226191D01*
X28515438Y24464287D02*
X26515438Y24464287D01*
X26515438Y24464287D02*
X28515438Y25607144D01*
X28515438Y25607144D02*
X26515438Y25607144D01*
X27944009Y26464287D02*
X27944009Y27416668D01*
X28515438Y26273811D02*
X26515438Y26940477D01*
X26515438Y26940477D02*
X28515438Y27607144D01*
X28515438Y28273811D02*
X26515438Y28273811D01*
X26515438Y28273811D02*
X28515438Y29416668D01*
X28515438Y29416668D02*
X26515438Y29416668D01*
X26515438Y30750001D02*
X26515438Y31130954D01*
X26515438Y31130954D02*
X26610676Y31321430D01*
X26610676Y31321430D02*
X26801152Y31511906D01*
X26801152Y31511906D02*
X27182104Y31607144D01*
X27182104Y31607144D02*
X27848771Y31607144D01*
X27848771Y31607144D02*
X28229723Y31511906D01*
X28229723Y31511906D02*
X28420200Y31321430D01*
X28420200Y31321430D02*
X28515438Y31130954D01*
X28515438Y31130954D02*
X28515438Y30750001D01*
X28515438Y30750001D02*
X28420200Y30559525D01*
X28420200Y30559525D02*
X28229723Y30369049D01*
X28229723Y30369049D02*
X27848771Y30273811D01*
X27848771Y30273811D02*
X27182104Y30273811D01*
X27182104Y30273811D02*
X26801152Y30369049D01*
X26801152Y30369049D02*
X26610676Y30559525D01*
X26610676Y30559525D02*
X26515438Y30750001D01*
D10*
X57678328Y78642858D02*
X56964042Y78142858D01*
X57678328Y77785715D02*
X56178328Y77785715D01*
X56178328Y77785715D02*
X56178328Y78357144D01*
X56178328Y78357144D02*
X56249757Y78500001D01*
X56249757Y78500001D02*
X56321185Y78571430D01*
X56321185Y78571430D02*
X56464042Y78642858D01*
X56464042Y78642858D02*
X56678328Y78642858D01*
X56678328Y78642858D02*
X56821185Y78571430D01*
X56821185Y78571430D02*
X56892614Y78500001D01*
X56892614Y78500001D02*
X56964042Y78357144D01*
X56964042Y78357144D02*
X56964042Y77785715D01*
X57606900Y79857144D02*
X57678328Y79714287D01*
X57678328Y79714287D02*
X57678328Y79428572D01*
X57678328Y79428572D02*
X57606900Y79285715D01*
X57606900Y79285715D02*
X57464042Y79214287D01*
X57464042Y79214287D02*
X56892614Y79214287D01*
X56892614Y79214287D02*
X56749757Y79285715D01*
X56749757Y79285715D02*
X56678328Y79428572D01*
X56678328Y79428572D02*
X56678328Y79714287D01*
X56678328Y79714287D02*
X56749757Y79857144D01*
X56749757Y79857144D02*
X56892614Y79928572D01*
X56892614Y79928572D02*
X57035471Y79928572D01*
X57035471Y79928572D02*
X57178328Y79214287D01*
X57678328Y80785715D02*
X57606900Y80642858D01*
X57606900Y80642858D02*
X57464042Y80571429D01*
X57464042Y80571429D02*
X56178328Y80571429D01*
X57678328Y82000000D02*
X56892614Y82000000D01*
X56892614Y82000000D02*
X56749757Y81928572D01*
X56749757Y81928572D02*
X56678328Y81785715D01*
X56678328Y81785715D02*
X56678328Y81500000D01*
X56678328Y81500000D02*
X56749757Y81357143D01*
X57606900Y82000000D02*
X57678328Y81857143D01*
X57678328Y81857143D02*
X57678328Y81500000D01*
X57678328Y81500000D02*
X57606900Y81357143D01*
X57606900Y81357143D02*
X57464042Y81285715D01*
X57464042Y81285715D02*
X57321185Y81285715D01*
X57321185Y81285715D02*
X57178328Y81357143D01*
X57178328Y81357143D02*
X57106900Y81500000D01*
X57106900Y81500000D02*
X57106900Y81857143D01*
X57106900Y81857143D02*
X57035471Y82000000D01*
X56678328Y82571429D02*
X57678328Y82928572D01*
X56678328Y83285715D02*
X57678328Y82928572D01*
X57678328Y82928572D02*
X58035471Y82785715D01*
X58035471Y82785715D02*
X58106900Y82714286D01*
X58106900Y82714286D02*
X58178328Y82571429D01*
X57678328Y85785715D02*
X57678328Y84928572D01*
X57678328Y85357143D02*
X56178328Y85357143D01*
X56178328Y85357143D02*
X56392614Y85214286D01*
X56392614Y85214286D02*
X56535471Y85071429D01*
X56535471Y85071429D02*
X56606900Y84928572D01*
D11*
X68800057Y15064287D02*
X68752438Y15111906D01*
X68752438Y15111906D02*
X68704819Y15207144D01*
X68704819Y15207144D02*
X68704819Y15445239D01*
X68704819Y15445239D02*
X68752438Y15540477D01*
X68752438Y15540477D02*
X68800057Y15588096D01*
X68800057Y15588096D02*
X68895295Y15635715D01*
X68895295Y15635715D02*
X68990533Y15635715D01*
X68990533Y15635715D02*
X69133390Y15588096D01*
X69133390Y15588096D02*
X69704819Y15016668D01*
X69704819Y15016668D02*
X69704819Y15635715D01*
X6686666Y58565705D02*
X6229523Y58565705D01*
X6458095Y58565705D02*
X6458095Y59365705D01*
X6458095Y59365705D02*
X6381904Y59251420D01*
X6381904Y59251420D02*
X6305714Y59175229D01*
X6305714Y59175229D02*
X6229523Y59137134D01*
X6991428Y59289515D02*
X7029524Y59327610D01*
X7029524Y59327610D02*
X7105714Y59365705D01*
X7105714Y59365705D02*
X7296190Y59365705D01*
X7296190Y59365705D02*
X7372381Y59327610D01*
X7372381Y59327610D02*
X7410476Y59289515D01*
X7410476Y59289515D02*
X7448571Y59213324D01*
X7448571Y59213324D02*
X7448571Y59137134D01*
X7448571Y59137134D02*
X7410476Y59022848D01*
X7410476Y59022848D02*
X6953333Y58565705D01*
X6953333Y58565705D02*
X7448571Y58565705D01*
X7677143Y59365705D02*
X7943810Y58565705D01*
X7943810Y58565705D02*
X8210476Y59365705D01*
X69704819Y43226192D02*
X68704819Y43226192D01*
X69704819Y43702382D02*
X68704819Y43702382D01*
X68704819Y43702382D02*
X69704819Y44273810D01*
X69704819Y44273810D02*
X68704819Y44273810D01*
X69654819Y31890477D02*
X68654819Y31890477D01*
X68654819Y31890477D02*
X69654819Y32461905D01*
X69654819Y32461905D02*
X68654819Y32461905D01*
X68654819Y33128572D02*
X68654819Y33319048D01*
X68654819Y33319048D02*
X68702438Y33414286D01*
X68702438Y33414286D02*
X68797676Y33509524D01*
X68797676Y33509524D02*
X68988152Y33557143D01*
X68988152Y33557143D02*
X69321485Y33557143D01*
X69321485Y33557143D02*
X69511961Y33509524D01*
X69511961Y33509524D02*
X69607200Y33414286D01*
X69607200Y33414286D02*
X69654819Y33319048D01*
X69654819Y33319048D02*
X69654819Y33128572D01*
X69654819Y33128572D02*
X69607200Y33033334D01*
X69607200Y33033334D02*
X69511961Y32938096D01*
X69511961Y32938096D02*
X69321485Y32890477D01*
X69321485Y32890477D02*
X68988152Y32890477D01*
X68988152Y32890477D02*
X68797676Y32938096D01*
X68797676Y32938096D02*
X68702438Y33033334D01*
X68702438Y33033334D02*
X68654819Y33128572D01*
X69854819Y85414287D02*
X68854819Y85414287D01*
X68854819Y85414287D02*
X69854819Y85985715D01*
X69854819Y85985715D02*
X68854819Y85985715D01*
X69759580Y87033334D02*
X69807200Y86985715D01*
X69807200Y86985715D02*
X69854819Y86842858D01*
X69854819Y86842858D02*
X69854819Y86747620D01*
X69854819Y86747620D02*
X69807200Y86604763D01*
X69807200Y86604763D02*
X69711961Y86509525D01*
X69711961Y86509525D02*
X69616723Y86461906D01*
X69616723Y86461906D02*
X69426247Y86414287D01*
X69426247Y86414287D02*
X69283390Y86414287D01*
X69283390Y86414287D02*
X69092914Y86461906D01*
X69092914Y86461906D02*
X68997676Y86509525D01*
X68997676Y86509525D02*
X68902438Y86604763D01*
X68902438Y86604763D02*
X68854819Y86747620D01*
X68854819Y86747620D02*
X68854819Y86842858D01*
X68854819Y86842858D02*
X68902438Y86985715D01*
X68902438Y86985715D02*
X68950057Y87033334D01*
X69704819Y64590477D02*
X68704819Y64590477D01*
X68704819Y64590477D02*
X69704819Y65161905D01*
X69704819Y65161905D02*
X68704819Y65161905D01*
X68704819Y65828572D02*
X68704819Y66019048D01*
X68704819Y66019048D02*
X68752438Y66114286D01*
X68752438Y66114286D02*
X68847676Y66209524D01*
X68847676Y66209524D02*
X69038152Y66257143D01*
X69038152Y66257143D02*
X69371485Y66257143D01*
X69371485Y66257143D02*
X69561961Y66209524D01*
X69561961Y66209524D02*
X69657200Y66114286D01*
X69657200Y66114286D02*
X69704819Y66019048D01*
X69704819Y66019048D02*
X69704819Y65828572D01*
X69704819Y65828572D02*
X69657200Y65733334D01*
X69657200Y65733334D02*
X69561961Y65638096D01*
X69561961Y65638096D02*
X69371485Y65590477D01*
X69371485Y65590477D02*
X69038152Y65590477D01*
X69038152Y65590477D02*
X68847676Y65638096D01*
X68847676Y65638096D02*
X68752438Y65733334D01*
X68752438Y65733334D02*
X68704819Y65828572D01*
D10*
X19078572Y77450243D02*
X18935715Y77521672D01*
X18935715Y77521672D02*
X18721429Y77521672D01*
X18721429Y77521672D02*
X18507143Y77450243D01*
X18507143Y77450243D02*
X18364286Y77307386D01*
X18364286Y77307386D02*
X18292857Y77164529D01*
X18292857Y77164529D02*
X18221429Y76878815D01*
X18221429Y76878815D02*
X18221429Y76664529D01*
X18221429Y76664529D02*
X18292857Y76378815D01*
X18292857Y76378815D02*
X18364286Y76235958D01*
X18364286Y76235958D02*
X18507143Y76093100D01*
X18507143Y76093100D02*
X18721429Y76021672D01*
X18721429Y76021672D02*
X18864286Y76021672D01*
X18864286Y76021672D02*
X19078572Y76093100D01*
X19078572Y76093100D02*
X19150000Y76164529D01*
X19150000Y76164529D02*
X19150000Y76664529D01*
X19150000Y76664529D02*
X18864286Y76664529D01*
X20007143Y77521672D02*
X20007143Y77164529D01*
X19650000Y77307386D02*
X20007143Y77164529D01*
X20007143Y77164529D02*
X20364286Y77307386D01*
X19792857Y76878815D02*
X20007143Y77164529D01*
X20007143Y77164529D02*
X20221429Y76878815D01*
X21150000Y77521672D02*
X21150000Y77164529D01*
X20792857Y77307386D02*
X21150000Y77164529D01*
X21150000Y77164529D02*
X21507143Y77307386D01*
X20935714Y76878815D02*
X21150000Y77164529D01*
X21150000Y77164529D02*
X21364286Y76878815D01*
X22292857Y77521672D02*
X22292857Y77164529D01*
X21935714Y77307386D02*
X22292857Y77164529D01*
X22292857Y77164529D02*
X22650000Y77307386D01*
X22078571Y76878815D02*
X22292857Y77164529D01*
X22292857Y77164529D02*
X22507143Y76878815D01*
D11*
X16049714Y41994896D02*
X16525904Y41994896D01*
X15954476Y41709181D02*
X16287809Y42709181D01*
X16287809Y42709181D02*
X16621142Y41709181D01*
X17478285Y41709181D02*
X16906857Y41709181D01*
X17192571Y41709181D02*
X17192571Y42709181D01*
X17192571Y42709181D02*
X17097333Y42566324D01*
X17097333Y42566324D02*
X17002095Y42471086D01*
X17002095Y42471086D02*
X16906857Y42423467D01*
X26346095Y4785181D02*
X26346095Y3975658D01*
X26346095Y3975658D02*
X26393714Y3880420D01*
X26393714Y3880420D02*
X26441333Y3832800D01*
X26441333Y3832800D02*
X26536571Y3785181D01*
X26536571Y3785181D02*
X26727047Y3785181D01*
X26727047Y3785181D02*
X26822285Y3832800D01*
X26822285Y3832800D02*
X26869904Y3880420D01*
X26869904Y3880420D02*
X26917523Y3975658D01*
X26917523Y3975658D02*
X26917523Y4785181D01*
X27346095Y3832800D02*
X27488952Y3785181D01*
X27488952Y3785181D02*
X27727047Y3785181D01*
X27727047Y3785181D02*
X27822285Y3832800D01*
X27822285Y3832800D02*
X27869904Y3880420D01*
X27869904Y3880420D02*
X27917523Y3975658D01*
X27917523Y3975658D02*
X27917523Y4070896D01*
X27917523Y4070896D02*
X27869904Y4166134D01*
X27869904Y4166134D02*
X27822285Y4213753D01*
X27822285Y4213753D02*
X27727047Y4261372D01*
X27727047Y4261372D02*
X27536571Y4308991D01*
X27536571Y4308991D02*
X27441333Y4356610D01*
X27441333Y4356610D02*
X27393714Y4404229D01*
X27393714Y4404229D02*
X27346095Y4499467D01*
X27346095Y4499467D02*
X27346095Y4594705D01*
X27346095Y4594705D02*
X27393714Y4689943D01*
X27393714Y4689943D02*
X27441333Y4737562D01*
X27441333Y4737562D02*
X27536571Y4785181D01*
X27536571Y4785181D02*
X27774666Y4785181D01*
X27774666Y4785181D02*
X27917523Y4737562D01*
X28679428Y4308991D02*
X28822285Y4261372D01*
X28822285Y4261372D02*
X28869904Y4213753D01*
X28869904Y4213753D02*
X28917523Y4118515D01*
X28917523Y4118515D02*
X28917523Y3975658D01*
X28917523Y3975658D02*
X28869904Y3880420D01*
X28869904Y3880420D02*
X28822285Y3832800D01*
X28822285Y3832800D02*
X28727047Y3785181D01*
X28727047Y3785181D02*
X28346095Y3785181D01*
X28346095Y3785181D02*
X28346095Y4785181D01*
X28346095Y4785181D02*
X28679428Y4785181D01*
X28679428Y4785181D02*
X28774666Y4737562D01*
X28774666Y4737562D02*
X28822285Y4689943D01*
X28822285Y4689943D02*
X28869904Y4594705D01*
X28869904Y4594705D02*
X28869904Y4499467D01*
X28869904Y4499467D02*
X28822285Y4404229D01*
X28822285Y4404229D02*
X28774666Y4356610D01*
X28774666Y4356610D02*
X28679428Y4308991D01*
X28679428Y4308991D02*
X28346095Y4308991D01*
X666666Y59445181D02*
X666666Y58730896D01*
X666666Y58730896D02*
X619047Y58588039D01*
X619047Y58588039D02*
X523809Y58492800D01*
X523809Y58492800D02*
X380952Y58445181D01*
X380952Y58445181D02*
X285714Y58445181D01*
X1095238Y59349943D02*
X1142857Y59397562D01*
X1142857Y59397562D02*
X1238095Y59445181D01*
X1238095Y59445181D02*
X1476190Y59445181D01*
X1476190Y59445181D02*
X1571428Y59397562D01*
X1571428Y59397562D02*
X1619047Y59349943D01*
X1619047Y59349943D02*
X1666666Y59254705D01*
X1666666Y59254705D02*
X1666666Y59159467D01*
X1666666Y59159467D02*
X1619047Y59016610D01*
X1619047Y59016610D02*
X1047619Y58445181D01*
X1047619Y58445181D02*
X1666666Y58445181D01*
D12*
X5495238Y11042581D02*
X5495238Y12042581D01*
X5495238Y11566391D02*
X6066666Y11566391D01*
X6066666Y11042581D02*
X6066666Y12042581D01*
X6923809Y11090200D02*
X6828571Y11042581D01*
X6828571Y11042581D02*
X6638095Y11042581D01*
X6638095Y11042581D02*
X6542857Y11090200D01*
X6542857Y11090200D02*
X6495238Y11185439D01*
X6495238Y11185439D02*
X6495238Y11566391D01*
X6495238Y11566391D02*
X6542857Y11661629D01*
X6542857Y11661629D02*
X6638095Y11709248D01*
X6638095Y11709248D02*
X6828571Y11709248D01*
X6828571Y11709248D02*
X6923809Y11661629D01*
X6923809Y11661629D02*
X6971428Y11566391D01*
X6971428Y11566391D02*
X6971428Y11471153D01*
X6971428Y11471153D02*
X6495238Y11375915D01*
X7828571Y11042581D02*
X7828571Y11566391D01*
X7828571Y11566391D02*
X7780952Y11661629D01*
X7780952Y11661629D02*
X7685714Y11709248D01*
X7685714Y11709248D02*
X7495238Y11709248D01*
X7495238Y11709248D02*
X7400000Y11661629D01*
X7828571Y11090200D02*
X7733333Y11042581D01*
X7733333Y11042581D02*
X7495238Y11042581D01*
X7495238Y11042581D02*
X7400000Y11090200D01*
X7400000Y11090200D02*
X7352381Y11185439D01*
X7352381Y11185439D02*
X7352381Y11280677D01*
X7352381Y11280677D02*
X7400000Y11375915D01*
X7400000Y11375915D02*
X7495238Y11423534D01*
X7495238Y11423534D02*
X7733333Y11423534D01*
X7733333Y11423534D02*
X7828571Y11471153D01*
X8161905Y11709248D02*
X8542857Y11709248D01*
X8304762Y12042581D02*
X8304762Y11185439D01*
X8304762Y11185439D02*
X8352381Y11090200D01*
X8352381Y11090200D02*
X8447619Y11042581D01*
X8447619Y11042581D02*
X8542857Y11042581D01*
X9590477Y11090200D02*
X9733334Y11042581D01*
X9733334Y11042581D02*
X9971429Y11042581D01*
X9971429Y11042581D02*
X10066667Y11090200D01*
X10066667Y11090200D02*
X10114286Y11137820D01*
X10114286Y11137820D02*
X10161905Y11233058D01*
X10161905Y11233058D02*
X10161905Y11328296D01*
X10161905Y11328296D02*
X10114286Y11423534D01*
X10114286Y11423534D02*
X10066667Y11471153D01*
X10066667Y11471153D02*
X9971429Y11518772D01*
X9971429Y11518772D02*
X9780953Y11566391D01*
X9780953Y11566391D02*
X9685715Y11614010D01*
X9685715Y11614010D02*
X9638096Y11661629D01*
X9638096Y11661629D02*
X9590477Y11756867D01*
X9590477Y11756867D02*
X9590477Y11852105D01*
X9590477Y11852105D02*
X9638096Y11947343D01*
X9638096Y11947343D02*
X9685715Y11994962D01*
X9685715Y11994962D02*
X9780953Y12042581D01*
X9780953Y12042581D02*
X10019048Y12042581D01*
X10019048Y12042581D02*
X10161905Y11994962D01*
X10590477Y11042581D02*
X10590477Y11709248D01*
X10590477Y12042581D02*
X10542858Y11994962D01*
X10542858Y11994962D02*
X10590477Y11947343D01*
X10590477Y11947343D02*
X10638096Y11994962D01*
X10638096Y11994962D02*
X10590477Y12042581D01*
X10590477Y12042581D02*
X10590477Y11947343D01*
X11066667Y11709248D02*
X11066667Y11042581D01*
X11066667Y11614010D02*
X11114286Y11661629D01*
X11114286Y11661629D02*
X11209524Y11709248D01*
X11209524Y11709248D02*
X11352381Y11709248D01*
X11352381Y11709248D02*
X11447619Y11661629D01*
X11447619Y11661629D02*
X11495238Y11566391D01*
X11495238Y11566391D02*
X11495238Y11042581D01*
X11971429Y11042581D02*
X11971429Y12042581D01*
X12066667Y11423534D02*
X12352381Y11042581D01*
X12352381Y11709248D02*
X11971429Y11328296D01*
D11*
X56766666Y56695181D02*
X56766666Y55980896D01*
X56766666Y55980896D02*
X56719047Y55838039D01*
X56719047Y55838039D02*
X56623809Y55742800D01*
X56623809Y55742800D02*
X56480952Y55695181D01*
X56480952Y55695181D02*
X56385714Y55695181D01*
X57671428Y56695181D02*
X57480952Y56695181D01*
X57480952Y56695181D02*
X57385714Y56647562D01*
X57385714Y56647562D02*
X57338095Y56599943D01*
X57338095Y56599943D02*
X57242857Y56457086D01*
X57242857Y56457086D02*
X57195238Y56266610D01*
X57195238Y56266610D02*
X57195238Y55885658D01*
X57195238Y55885658D02*
X57242857Y55790420D01*
X57242857Y55790420D02*
X57290476Y55742800D01*
X57290476Y55742800D02*
X57385714Y55695181D01*
X57385714Y55695181D02*
X57576190Y55695181D01*
X57576190Y55695181D02*
X57671428Y55742800D01*
X57671428Y55742800D02*
X57719047Y55790420D01*
X57719047Y55790420D02*
X57766666Y55885658D01*
X57766666Y55885658D02*
X57766666Y56123753D01*
X57766666Y56123753D02*
X57719047Y56218991D01*
X57719047Y56218991D02*
X57671428Y56266610D01*
X57671428Y56266610D02*
X57576190Y56314229D01*
X57576190Y56314229D02*
X57385714Y56314229D01*
X57385714Y56314229D02*
X57290476Y56266610D01*
X57290476Y56266610D02*
X57242857Y56218991D01*
X57242857Y56218991D02*
X57195238Y56123753D01*
X55954819Y6004762D02*
X55478628Y5671429D01*
X55954819Y5433334D02*
X54954819Y5433334D01*
X54954819Y5433334D02*
X54954819Y5814286D01*
X54954819Y5814286D02*
X55002438Y5909524D01*
X55002438Y5909524D02*
X55050057Y5957143D01*
X55050057Y5957143D02*
X55145295Y6004762D01*
X55145295Y6004762D02*
X55288152Y6004762D01*
X55288152Y6004762D02*
X55383390Y5957143D01*
X55383390Y5957143D02*
X55431009Y5909524D01*
X55431009Y5909524D02*
X55478628Y5814286D01*
X55478628Y5814286D02*
X55478628Y5433334D01*
X54954819Y6290477D02*
X55954819Y6623810D01*
X55954819Y6623810D02*
X54954819Y6957143D01*
X55954819Y7814286D02*
X55954819Y7242858D01*
X55954819Y7528572D02*
X54954819Y7528572D01*
X54954819Y7528572D02*
X55097676Y7433334D01*
X55097676Y7433334D02*
X55192914Y7338096D01*
X55192914Y7338096D02*
X55240533Y7242858D01*
X60494819Y16211667D02*
X61209104Y16211667D01*
X61209104Y16211667D02*
X61351961Y16164048D01*
X61351961Y16164048D02*
X61447200Y16068810D01*
X61447200Y16068810D02*
X61494819Y15925953D01*
X61494819Y15925953D02*
X61494819Y15830715D01*
X60494819Y16592620D02*
X60494819Y17211667D01*
X60494819Y17211667D02*
X60875771Y16878334D01*
X60875771Y16878334D02*
X60875771Y17021191D01*
X60875771Y17021191D02*
X60923390Y17116429D01*
X60923390Y17116429D02*
X60971009Y17164048D01*
X60971009Y17164048D02*
X61066247Y17211667D01*
X61066247Y17211667D02*
X61304342Y17211667D01*
X61304342Y17211667D02*
X61399580Y17164048D01*
X61399580Y17164048D02*
X61447200Y17116429D01*
X61447200Y17116429D02*
X61494819Y17021191D01*
X61494819Y17021191D02*
X61494819Y16735477D01*
X61494819Y16735477D02*
X61447200Y16640239D01*
X61447200Y16640239D02*
X61399580Y16592620D01*
X47604819Y23804762D02*
X47128628Y23471429D01*
X47604819Y23233334D02*
X46604819Y23233334D01*
X46604819Y23233334D02*
X46604819Y23614286D01*
X46604819Y23614286D02*
X46652438Y23709524D01*
X46652438Y23709524D02*
X46700057Y23757143D01*
X46700057Y23757143D02*
X46795295Y23804762D01*
X46795295Y23804762D02*
X46938152Y23804762D01*
X46938152Y23804762D02*
X47033390Y23757143D01*
X47033390Y23757143D02*
X47081009Y23709524D01*
X47081009Y23709524D02*
X47128628Y23614286D01*
X47128628Y23614286D02*
X47128628Y23233334D01*
X46604819Y24090477D02*
X47604819Y24423810D01*
X47604819Y24423810D02*
X46604819Y24757143D01*
X46938152Y25519048D02*
X47604819Y25519048D01*
X46557200Y25280953D02*
X47271485Y25042858D01*
X47271485Y25042858D02*
X47271485Y25661905D01*
X56666666Y39995181D02*
X56666666Y39280896D01*
X56666666Y39280896D02*
X56619047Y39138039D01*
X56619047Y39138039D02*
X56523809Y39042800D01*
X56523809Y39042800D02*
X56380952Y38995181D01*
X56380952Y38995181D02*
X56285714Y38995181D01*
X57047619Y39995181D02*
X57714285Y39995181D01*
X57714285Y39995181D02*
X57285714Y38995181D01*
X45151905Y96953181D02*
X45151905Y97953181D01*
X45723333Y96953181D02*
X45294762Y97524610D01*
X45723333Y97953181D02*
X45151905Y97381753D01*
X46675714Y96953181D02*
X46104286Y96953181D01*
X46390000Y96953181D02*
X46390000Y97953181D01*
X46390000Y97953181D02*
X46294762Y97810324D01*
X46294762Y97810324D02*
X46199524Y97715086D01*
X46199524Y97715086D02*
X46104286Y97667467D01*
X47554819Y16304762D02*
X47078628Y15971429D01*
X47554819Y15733334D02*
X46554819Y15733334D01*
X46554819Y15733334D02*
X46554819Y16114286D01*
X46554819Y16114286D02*
X46602438Y16209524D01*
X46602438Y16209524D02*
X46650057Y16257143D01*
X46650057Y16257143D02*
X46745295Y16304762D01*
X46745295Y16304762D02*
X46888152Y16304762D01*
X46888152Y16304762D02*
X46983390Y16257143D01*
X46983390Y16257143D02*
X47031009Y16209524D01*
X47031009Y16209524D02*
X47078628Y16114286D01*
X47078628Y16114286D02*
X47078628Y15733334D01*
X46554819Y16590477D02*
X47554819Y16923810D01*
X47554819Y16923810D02*
X46554819Y17257143D01*
X46650057Y17542858D02*
X46602438Y17590477D01*
X46602438Y17590477D02*
X46554819Y17685715D01*
X46554819Y17685715D02*
X46554819Y17923810D01*
X46554819Y17923810D02*
X46602438Y18019048D01*
X46602438Y18019048D02*
X46650057Y18066667D01*
X46650057Y18066667D02*
X46745295Y18114286D01*
X46745295Y18114286D02*
X46840533Y18114286D01*
X46840533Y18114286D02*
X46983390Y18066667D01*
X46983390Y18066667D02*
X47554819Y17495239D01*
X47554819Y17495239D02*
X47554819Y18114286D01*
X45121905Y56405181D02*
X45121905Y57405181D01*
X45693333Y56405181D02*
X45264762Y56976610D01*
X45693333Y57405181D02*
X45121905Y56833753D01*
X46550476Y57071848D02*
X46550476Y56405181D01*
X46312381Y57452800D02*
X46074286Y56738515D01*
X46074286Y56738515D02*
X46693333Y56738515D01*
X56766666Y89195181D02*
X56766666Y88480896D01*
X56766666Y88480896D02*
X56719047Y88338039D01*
X56719047Y88338039D02*
X56623809Y88242800D01*
X56623809Y88242800D02*
X56480952Y88195181D01*
X56480952Y88195181D02*
X56385714Y88195181D01*
X57671428Y88861848D02*
X57671428Y88195181D01*
X57433333Y89242800D02*
X57195238Y88528515D01*
X57195238Y88528515D02*
X57814285Y88528515D01*
X45186905Y83577181D02*
X45186905Y84577181D01*
X45758333Y83577181D02*
X45329762Y84148610D01*
X45758333Y84577181D02*
X45186905Y84005753D01*
X46139286Y84481943D02*
X46186905Y84529562D01*
X46186905Y84529562D02*
X46282143Y84577181D01*
X46282143Y84577181D02*
X46520238Y84577181D01*
X46520238Y84577181D02*
X46615476Y84529562D01*
X46615476Y84529562D02*
X46663095Y84481943D01*
X46663095Y84481943D02*
X46710714Y84386705D01*
X46710714Y84386705D02*
X46710714Y84291467D01*
X46710714Y84291467D02*
X46663095Y84148610D01*
X46663095Y84148610D02*
X46091667Y83577181D01*
X46091667Y83577181D02*
X46710714Y83577181D01*
X49961905Y3197412D02*
X49961905Y4197412D01*
X49961905Y4197412D02*
X50200000Y4197412D01*
X50200000Y4197412D02*
X50342857Y4149793D01*
X50342857Y4149793D02*
X50438095Y4054555D01*
X50438095Y4054555D02*
X50485714Y3959317D01*
X50485714Y3959317D02*
X50533333Y3768841D01*
X50533333Y3768841D02*
X50533333Y3625984D01*
X50533333Y3625984D02*
X50485714Y3435508D01*
X50485714Y3435508D02*
X50438095Y3340270D01*
X50438095Y3340270D02*
X50342857Y3245031D01*
X50342857Y3245031D02*
X50200000Y3197412D01*
X50200000Y3197412D02*
X49961905Y3197412D01*
X51485714Y3197412D02*
X50914286Y3197412D01*
X51200000Y3197412D02*
X51200000Y4197412D01*
X51200000Y4197412D02*
X51104762Y4054555D01*
X51104762Y4054555D02*
X51009524Y3959317D01*
X51009524Y3959317D02*
X50914286Y3911698D01*
X45186905Y69945181D02*
X45186905Y70945181D01*
X45758333Y69945181D02*
X45329762Y70516610D01*
X45758333Y70945181D02*
X45186905Y70373753D01*
X46091667Y70945181D02*
X46710714Y70945181D01*
X46710714Y70945181D02*
X46377381Y70564229D01*
X46377381Y70564229D02*
X46520238Y70564229D01*
X46520238Y70564229D02*
X46615476Y70516610D01*
X46615476Y70516610D02*
X46663095Y70468991D01*
X46663095Y70468991D02*
X46710714Y70373753D01*
X46710714Y70373753D02*
X46710714Y70135658D01*
X46710714Y70135658D02*
X46663095Y70040420D01*
X46663095Y70040420D02*
X46615476Y69992800D01*
X46615476Y69992800D02*
X46520238Y69945181D01*
X46520238Y69945181D02*
X46234524Y69945181D01*
X46234524Y69945181D02*
X46139286Y69992800D01*
X46139286Y69992800D02*
X46091667Y70040420D01*
X56154819Y23754762D02*
X55678628Y23421429D01*
X56154819Y23183334D02*
X55154819Y23183334D01*
X55154819Y23183334D02*
X55154819Y23564286D01*
X55154819Y23564286D02*
X55202438Y23659524D01*
X55202438Y23659524D02*
X55250057Y23707143D01*
X55250057Y23707143D02*
X55345295Y23754762D01*
X55345295Y23754762D02*
X55488152Y23754762D01*
X55488152Y23754762D02*
X55583390Y23707143D01*
X55583390Y23707143D02*
X55631009Y23659524D01*
X55631009Y23659524D02*
X55678628Y23564286D01*
X55678628Y23564286D02*
X55678628Y23183334D01*
X55154819Y24040477D02*
X56154819Y24373810D01*
X56154819Y24373810D02*
X55154819Y24707143D01*
X55154819Y24945239D02*
X55154819Y25564286D01*
X55154819Y25564286D02*
X55535771Y25230953D01*
X55535771Y25230953D02*
X55535771Y25373810D01*
X55535771Y25373810D02*
X55583390Y25469048D01*
X55583390Y25469048D02*
X55631009Y25516667D01*
X55631009Y25516667D02*
X55726247Y25564286D01*
X55726247Y25564286D02*
X55964342Y25564286D01*
X55964342Y25564286D02*
X56059580Y25516667D01*
X56059580Y25516667D02*
X56107200Y25469048D01*
X56107200Y25469048D02*
X56154819Y25373810D01*
X56154819Y25373810D02*
X56154819Y25088096D01*
X56154819Y25088096D02*
X56107200Y24992858D01*
X56107200Y24992858D02*
X56059580Y24945239D01*
X56816666Y72645181D02*
X56816666Y71930896D01*
X56816666Y71930896D02*
X56769047Y71788039D01*
X56769047Y71788039D02*
X56673809Y71692800D01*
X56673809Y71692800D02*
X56530952Y71645181D01*
X56530952Y71645181D02*
X56435714Y71645181D01*
X57769047Y72645181D02*
X57292857Y72645181D01*
X57292857Y72645181D02*
X57245238Y72168991D01*
X57245238Y72168991D02*
X57292857Y72216610D01*
X57292857Y72216610D02*
X57388095Y72264229D01*
X57388095Y72264229D02*
X57626190Y72264229D01*
X57626190Y72264229D02*
X57721428Y72216610D01*
X57721428Y72216610D02*
X57769047Y72168991D01*
X57769047Y72168991D02*
X57816666Y72073753D01*
X57816666Y72073753D02*
X57816666Y71835658D01*
X57816666Y71835658D02*
X57769047Y71740420D01*
X57769047Y71740420D02*
X57721428Y71692800D01*
X57721428Y71692800D02*
X57626190Y71645181D01*
X57626190Y71645181D02*
X57388095Y71645181D01*
X57388095Y71645181D02*
X57292857Y71692800D01*
X57292857Y71692800D02*
X57245238Y71740420D01*
D13*
%TO.C,G\u002A\u002A\u002A*%
G36*
X27332446Y88755211D02*
G01*
X27685248Y88677397D01*
X27984833Y88556057D01*
X28225198Y88392664D01*
X28286238Y88334236D01*
X28415707Y88199339D01*
X28222364Y88173691D01*
X28085229Y88166319D01*
X27962945Y88177433D01*
X27924274Y88187868D01*
X27736357Y88225811D01*
X27499913Y88220766D01*
X27229830Y88175428D01*
X26940994Y88092490D01*
X26648294Y87974644D01*
X26588866Y87946272D01*
X26417000Y87857492D01*
X26308499Y87789648D01*
X26253694Y87735862D01*
X26242000Y87699512D01*
X26245856Y87670227D01*
X26265159Y87649942D01*
X26311511Y87637388D01*
X26396516Y87631299D01*
X26531777Y87630408D01*
X26728896Y87633447D01*
X26828154Y87635489D01*
X27051937Y87637460D01*
X27249101Y87633971D01*
X27404041Y87625630D01*
X27501151Y87613049D01*
X27516572Y87608579D01*
X27663522Y87588904D01*
X27827552Y87623130D01*
X27977917Y87703345D01*
X28018417Y87737714D01*
X28056535Y87772595D01*
X28095536Y87798720D01*
X28146925Y87817624D01*
X28222205Y87830841D01*
X28332884Y87839907D01*
X28490465Y87846357D01*
X28706455Y87851726D01*
X28903054Y87855753D01*
X29199139Y87862459D01*
X29522154Y87871057D01*
X29843685Y87880709D01*
X30135317Y87890577D01*
X30306000Y87897146D01*
X30931231Y87922936D01*
X31060277Y87596622D01*
X31104377Y87480734D01*
X31159774Y87327104D01*
X31227812Y87131681D01*
X31309837Y86890411D01*
X31407195Y86599242D01*
X31521233Y86254121D01*
X31653295Y85850996D01*
X31804727Y85385814D01*
X31976876Y84854523D01*
X32171087Y84253069D01*
X32187305Y84202769D01*
X32300213Y83849750D01*
X32389920Y83562190D01*
X32458706Y83331665D01*
X32508850Y83149751D01*
X32542633Y83008024D01*
X32562333Y82898059D01*
X32570231Y82811432D01*
X32570635Y82786231D01*
X32572869Y82659195D01*
X32585495Y82591753D01*
X32615407Y82565424D01*
X32654457Y82561538D01*
X32735001Y82594714D01*
X32760382Y82642568D01*
X32796487Y82701471D01*
X32875472Y82712566D01*
X32891940Y82710953D01*
X32960188Y82695288D01*
X32997010Y82653966D01*
X33017150Y82564945D01*
X33023460Y82514335D01*
X33044476Y82377847D01*
X33072528Y82313526D01*
X33115334Y82315387D01*
X33180615Y82377447D01*
X33188427Y82386444D01*
X33256827Y82455381D01*
X33311101Y82469906D01*
X33370202Y82446093D01*
X33424742Y82400760D01*
X33443101Y82331466D01*
X33426413Y82221050D01*
X33392775Y82104687D01*
X33383305Y82053061D01*
X33408802Y82025603D01*
X33486287Y82012076D01*
X33555199Y82006995D01*
X33670965Y81994910D01*
X33730167Y81970297D01*
X33754387Y81921720D01*
X33758250Y81899420D01*
X33741834Y81799000D01*
X33704666Y81754879D01*
X33656586Y81681599D01*
X33662033Y81608501D01*
X33694994Y81540273D01*
X33764965Y81507889D01*
X33832847Y81499042D01*
X33928833Y81485371D01*
X33969873Y81450548D01*
X33979146Y81371277D01*
X33979231Y81351916D01*
X33968886Y81255499D01*
X33926750Y81208847D01*
X33881539Y81194072D01*
X33807371Y81156396D01*
X33775088Y81073932D01*
X33771601Y81045772D01*
X33770652Y80959091D01*
X33802110Y80925233D01*
X33856891Y80920308D01*
X33945650Y80888447D01*
X33989690Y80804795D01*
X33979672Y80687247D01*
X33979231Y80685846D01*
X33927886Y80623495D01*
X33839828Y80607692D01*
X33757967Y80597353D01*
X33728327Y80549704D01*
X33725231Y80493095D01*
X33746752Y80394839D01*
X33803385Y80353692D01*
X33867916Y80300422D01*
X33876164Y80218177D01*
X33834646Y80146584D01*
X33746464Y80106203D01*
X33626942Y80106809D01*
X33527277Y80140144D01*
X33471031Y80159303D01*
X33452722Y80120209D01*
X33451692Y80086313D01*
X33474690Y79992477D01*
X33510308Y79943384D01*
X33564065Y79867485D01*
X33547015Y79800607D01*
X33490769Y79767538D01*
X33427652Y79733639D01*
X33412616Y79709081D01*
X33387750Y79657599D01*
X33348841Y79611654D01*
X33302512Y79575495D01*
X33257979Y79582606D01*
X33189801Y79639252D01*
X33173402Y79654860D01*
X33085727Y79725668D01*
X33039581Y79730275D01*
X33034938Y79668662D01*
X33059807Y79575536D01*
X33083748Y79474723D01*
X33084007Y79404266D01*
X33080934Y79397072D01*
X33017950Y79360825D01*
X32919514Y79364105D01*
X32814998Y79402783D01*
X32760750Y79442051D01*
X32681627Y79498911D01*
X32641836Y79489249D01*
X32646153Y79416646D01*
X32662264Y79368253D01*
X32675465Y79298507D01*
X32689310Y79163448D01*
X32702928Y78975901D01*
X32715448Y78748691D01*
X32726000Y78494645D01*
X32730005Y78370538D01*
X32756039Y77481538D01*
X32644712Y77481261D01*
X32547582Y77477429D01*
X32405644Y77467728D01*
X32269616Y77456071D01*
X32005846Y77431160D01*
X32005846Y77801777D01*
X32003726Y78122195D01*
X31997722Y78433849D01*
X31988373Y78727243D01*
X31976215Y78992884D01*
X31961784Y79221276D01*
X31945619Y79402927D01*
X31928255Y79528340D01*
X31910230Y79588022D01*
X31904621Y79591692D01*
X31853967Y79559232D01*
X31830000Y79513538D01*
X31776730Y79449008D01*
X31694485Y79440759D01*
X31622892Y79482277D01*
X31590448Y79551655D01*
X31576043Y79655516D01*
X31576000Y79661228D01*
X31570711Y79749320D01*
X31541081Y79778826D01*
X31466471Y79769227D01*
X31462489Y79768355D01*
X31358770Y79765899D01*
X31314355Y79813318D01*
X31332819Y79905698D01*
X31344893Y79930114D01*
X31376072Y80005236D01*
X31360041Y80047660D01*
X31339733Y80062558D01*
X31253022Y80093465D01*
X31202816Y80099094D01*
X31093962Y80127259D01*
X31058118Y80175063D01*
X31849539Y80175063D01*
X31880714Y80124402D01*
X31955359Y80062423D01*
X32045150Y80008692D01*
X32121762Y79982774D01*
X32128347Y79982461D01*
X32166943Y79991389D01*
X32188996Y80029186D01*
X32198946Y80112371D01*
X32200582Y80213568D01*
X32551634Y80213568D01*
X32554254Y80081853D01*
X32563402Y79980053D01*
X32578974Y79930359D01*
X32607808Y79908731D01*
X32646173Y79913413D01*
X32721340Y79949277D01*
X32740479Y79959210D01*
X32844554Y80028918D01*
X32938374Y80113005D01*
X33030747Y80211896D01*
X32946589Y80330086D01*
X32859795Y80430701D01*
X32755638Y80522639D01*
X32657338Y80587527D01*
X32595737Y80607692D01*
X32577592Y80572262D01*
X32563837Y80480368D01*
X32555006Y80353605D01*
X32551634Y80213568D01*
X32200582Y80213568D01*
X32201231Y80253694D01*
X32196311Y80392031D01*
X32183391Y80497215D01*
X32165228Y80547133D01*
X32164566Y80547586D01*
X32126700Y80530108D01*
X32060913Y80468097D01*
X31983842Y80381226D01*
X31912124Y80289169D01*
X31862397Y80211599D01*
X31849539Y80175063D01*
X31058118Y80175063D01*
X31040385Y80198712D01*
X31047078Y80296917D01*
X31112452Y80398490D01*
X31167113Y80469936D01*
X31171172Y80537127D01*
X31146788Y80606162D01*
X31087101Y80701170D01*
X31019426Y80718922D01*
X30950769Y80666308D01*
X30874990Y80619574D01*
X30809215Y80607692D01*
X30736647Y80580884D01*
X30712396Y80515167D01*
X30735888Y80432606D01*
X30806548Y80355264D01*
X30815961Y80348814D01*
X30893533Y80266935D01*
X30903884Y80201375D01*
X30883223Y80149462D01*
X30826691Y80121539D01*
X30713687Y80107789D01*
X30706539Y80107320D01*
X30588840Y80097399D01*
X30535392Y80075188D01*
X30532530Y80022297D01*
X30566590Y79920336D01*
X30566920Y79919424D01*
X30592921Y79818694D01*
X30577337Y79752057D01*
X30562135Y79731034D01*
X30477023Y79675019D01*
X30389036Y79692292D01*
X30345267Y79734811D01*
X30285633Y79774955D01*
X30221217Y79771465D01*
X30181653Y79732789D01*
X30184715Y79689055D01*
X30220258Y79601400D01*
X30230094Y79577192D01*
X30221589Y79509551D01*
X30166172Y79440894D01*
X30089466Y79399310D01*
X30065089Y79396308D01*
X30008156Y79429092D01*
X29985169Y79474461D01*
X29934340Y79539953D01*
X29886698Y79552615D01*
X29838886Y79543677D01*
X29821695Y79503114D01*
X29828263Y79410306D01*
X29831428Y79386538D01*
X29839319Y79298736D01*
X29848541Y79146896D01*
X29858426Y78945109D01*
X29868306Y78707466D01*
X29877511Y78448057D01*
X29880563Y78351000D01*
X29906934Y77481538D01*
X29770276Y77481538D01*
X29653353Y77477330D01*
X29500428Y77466529D01*
X29401285Y77457255D01*
X29272485Y77445517D01*
X29202988Y77448293D01*
X29174478Y77470964D01*
X29168640Y77518913D01*
X29168597Y77525639D01*
X29168203Y77589454D01*
X29167285Y77719529D01*
X29165930Y77903970D01*
X29164228Y78130886D01*
X29162266Y78388384D01*
X29160736Y78586631D01*
X29153231Y79554955D01*
X29038821Y79470368D01*
X28927301Y79409899D01*
X28850852Y79419273D01*
X28809535Y79498458D01*
X28801539Y79591175D01*
X28801539Y79749418D01*
X28635462Y79738940D01*
X28531565Y79736197D01*
X28484670Y79753054D01*
X28474068Y79800767D01*
X28475060Y79826154D01*
X28491552Y79942714D01*
X28508926Y80011769D01*
X28519672Y80070263D01*
X28488373Y80094769D01*
X28398580Y80099692D01*
X28260235Y80124637D01*
X28172171Y80189229D01*
X28172010Y80189694D01*
X28978949Y80189694D01*
X28981116Y80146387D01*
X29015539Y80100274D01*
X29021980Y80093085D01*
X29110445Y80018056D01*
X29204378Y79971711D01*
X29275605Y79967500D01*
X29280231Y79969817D01*
X29294822Y80014655D01*
X29305320Y80116055D01*
X29309532Y80252452D01*
X29309539Y80258306D01*
X29307442Y80320413D01*
X29639576Y80320413D01*
X29648766Y80197896D01*
X29668061Y80048224D01*
X29698633Y79967302D01*
X29751945Y79945725D01*
X29839461Y79974088D01*
X29890710Y79999423D01*
X30007259Y80068635D01*
X30059503Y80132928D01*
X30049151Y80208867D01*
X29977912Y80313015D01*
X29929023Y80370554D01*
X29808303Y80497253D01*
X29722304Y80557626D01*
X29667721Y80549635D01*
X29641247Y80471243D01*
X29639576Y80320413D01*
X29307442Y80320413D01*
X29305008Y80392489D01*
X29293093Y80489466D01*
X29276308Y80529390D01*
X29275169Y80529538D01*
X29233775Y80501543D01*
X29161883Y80429032D01*
X29095072Y80351697D01*
X29014961Y80251147D01*
X28978949Y80189694D01*
X28172010Y80189694D01*
X28141323Y80278101D01*
X28174627Y80375889D01*
X28243206Y80443910D01*
X28311515Y80503364D01*
X28320127Y80549220D01*
X28300325Y80579977D01*
X28231939Y80621178D01*
X28123017Y80650120D01*
X28092039Y80654050D01*
X27985063Y80657359D01*
X27926367Y80633271D01*
X27890228Y80576233D01*
X27869405Y80498696D01*
X27905427Y80440874D01*
X27932937Y80418453D01*
X28001947Y80333837D01*
X28028784Y80256000D01*
X28027804Y80193994D01*
X27993489Y80162961D01*
X27905913Y80148827D01*
X27873462Y80146292D01*
X27768093Y80133105D01*
X27719783Y80105040D01*
X27707451Y80048747D01*
X27707385Y80041136D01*
X27722126Y79959285D01*
X27746462Y79923846D01*
X27783129Y79871239D01*
X27750701Y79796476D01*
X27707385Y79748000D01*
X27623516Y79681491D01*
X27567337Y79683822D01*
X27530856Y79750151D01*
X27493409Y79811883D01*
X27450679Y79804591D01*
X27413045Y79735819D01*
X27394769Y79651243D01*
X27360419Y79524879D01*
X27304340Y79455765D01*
X27237061Y79451045D01*
X27178055Y79504237D01*
X27110278Y79573154D01*
X27050403Y79593057D01*
X27017266Y79564002D01*
X27023230Y79503769D01*
X27029830Y79450535D01*
X27038208Y79333735D01*
X27047844Y79166208D01*
X27058215Y78960793D01*
X27068800Y78730329D01*
X27079077Y78487655D01*
X27088525Y78245611D01*
X27096620Y78017035D01*
X27102842Y77814767D01*
X27106669Y77651645D01*
X27107579Y77540510D01*
X27105049Y77494199D01*
X27104914Y77493944D01*
X27066686Y77489918D01*
X26968065Y77485128D01*
X26826797Y77480354D01*
X26749380Y77478306D01*
X26398308Y77469801D01*
X26369292Y78536968D01*
X26360962Y78817855D01*
X26352083Y79072531D01*
X26343119Y79290736D01*
X26334536Y79462207D01*
X26326799Y79576684D01*
X26320371Y79623903D01*
X26320038Y79624372D01*
X26282367Y79612885D01*
X26212416Y79559751D01*
X26184390Y79534040D01*
X26084810Y79463530D01*
X26011353Y79466153D01*
X25965557Y79540854D01*
X25948959Y79686581D01*
X25948923Y79695396D01*
X25932269Y79827638D01*
X25884869Y79891985D01*
X25810567Y79885605D01*
X25749698Y79842216D01*
X25687922Y79796175D01*
X25650513Y79805839D01*
X25634333Y79827708D01*
X25614265Y79875936D01*
X25621402Y79937121D01*
X25659236Y80039377D01*
X25661252Y80044268D01*
X25639413Y80082559D01*
X25563954Y80129666D01*
X25520734Y80148586D01*
X25412218Y80205487D01*
X26144308Y80205487D01*
X26176465Y80147166D01*
X26253477Y80084046D01*
X26346154Y80036340D01*
X26408077Y80022838D01*
X26457436Y80028657D01*
X26483797Y80060206D01*
X26494273Y80135823D01*
X26496000Y80249487D01*
X26495740Y80257226D01*
X26847692Y80257226D01*
X26850766Y80086548D01*
X26867018Y79986684D01*
X26906990Y79950339D01*
X26981228Y79970220D01*
X27100274Y80039032D01*
X27133119Y80059755D01*
X27234363Y80132542D01*
X27301007Y80196904D01*
X27316616Y80227465D01*
X27290418Y80280258D01*
X27222328Y80365688D01*
X27143667Y80448541D01*
X27025219Y80554483D01*
X26942147Y80598925D01*
X26888762Y80578189D01*
X26859375Y80488598D01*
X26848299Y80326475D01*
X26847692Y80257226D01*
X26495740Y80257226D01*
X26491718Y80376893D01*
X26480641Y80470739D01*
X26469154Y80504282D01*
X26430721Y80493848D01*
X26360186Y80442946D01*
X26277212Y80369663D01*
X26201463Y80292084D01*
X26152599Y80228294D01*
X26144308Y80205487D01*
X25412218Y80205487D01*
X25406947Y80208251D01*
X25369034Y80273550D01*
X25404789Y80353602D01*
X25457639Y80409656D01*
X25525190Y80497657D01*
X25517630Y80569894D01*
X25433553Y80633628D01*
X25412315Y80643791D01*
X25333353Y80670307D01*
X25289579Y80650321D01*
X25274541Y80627379D01*
X25232516Y80586436D01*
X25184266Y80609897D01*
X25104929Y80638209D01*
X25037132Y80607246D01*
X25011077Y80536821D01*
X25038556Y80456760D01*
X25091081Y80391095D01*
X25154243Y80288481D01*
X25159465Y80218962D01*
X25144655Y80156959D01*
X25104404Y80129662D01*
X25015900Y80125532D01*
X24977727Y80127030D01*
X24873260Y80128618D01*
X24829082Y80114084D01*
X24827597Y80073804D01*
X24834842Y80048876D01*
X24875250Y79898823D01*
X24880500Y79798136D01*
X24849385Y79725789D01*
X24814174Y79688505D01*
X24751187Y79637247D01*
X24713418Y79640728D01*
X24669508Y79699154D01*
X24597740Y79778903D01*
X24545492Y79785350D01*
X24521354Y79722580D01*
X24527044Y79631419D01*
X24536979Y79525776D01*
X24518444Y79471054D01*
X24482778Y79449224D01*
X24402714Y79455425D01*
X24359688Y79496445D01*
X24306432Y79546359D01*
X24244920Y79531783D01*
X24229099Y79522333D01*
X24148248Y79498117D01*
X24003616Y79481727D01*
X23809314Y79474636D01*
X23770412Y79474461D01*
X23593715Y79475726D01*
X23479229Y79481675D01*
X23411026Y79495544D01*
X23373176Y79520565D01*
X23349805Y79559857D01*
X23300245Y79633333D01*
X23249348Y79661538D01*
X23216911Y79637008D01*
X23213539Y79611231D01*
X23200437Y79556098D01*
X23169857Y79559444D01*
X23134884Y79607819D01*
X23108605Y79687772D01*
X23103566Y79724266D01*
X23091214Y79818804D01*
X23062184Y79854156D01*
X22995621Y79849181D01*
X22971191Y79843960D01*
X22889611Y79831356D01*
X22863616Y79853029D01*
X22870985Y79909791D01*
X22898771Y80012267D01*
X22918694Y80067978D01*
X22923891Y80110337D01*
X22882695Y80133437D01*
X22779356Y80145975D01*
X22777181Y80146132D01*
X22670748Y80158552D01*
X22619281Y80186877D01*
X22609813Y80216404D01*
X23311231Y80216404D01*
X23438847Y80099433D01*
X23534643Y80026996D01*
X23621443Y79985945D01*
X23644001Y79982461D01*
X23684766Y79989996D01*
X23708120Y80023726D01*
X23718795Y80100338D01*
X23719123Y80116733D01*
X23958475Y80116733D01*
X23964463Y80002748D01*
X23989077Y79945929D01*
X24039497Y79935840D01*
X24122904Y79962045D01*
X24179182Y79985480D01*
X24297623Y80041444D01*
X24390391Y80095023D01*
X24419404Y80117384D01*
X24448109Y80159312D01*
X24443877Y80209658D01*
X24400055Y80281990D01*
X24309988Y80389878D01*
X24256728Y80449103D01*
X24144859Y80559122D01*
X24064843Y80602502D01*
X24011513Y80576584D01*
X23979708Y80478709D01*
X23964261Y80306217D01*
X23963934Y80298319D01*
X23958475Y80116733D01*
X23719123Y80116733D01*
X23721521Y80236521D01*
X23721539Y80256000D01*
X23716100Y80402918D01*
X23701169Y80498666D01*
X23680948Y80529538D01*
X23632563Y80504419D01*
X23549560Y80439473D01*
X23475795Y80372971D01*
X23311231Y80216404D01*
X22609813Y80216404D01*
X22599600Y80248257D01*
X22595982Y80280202D01*
X22599647Y80372702D01*
X22642340Y80416078D01*
X22661838Y80422421D01*
X22716072Y80464868D01*
X22717295Y80531578D01*
X22672540Y80596785D01*
X22604780Y80631492D01*
X22490957Y80687242D01*
X22444232Y80782636D01*
X22451187Y80879630D01*
X22485473Y80967034D01*
X22548394Y80997367D01*
X22571874Y80998461D01*
X22646374Y81023082D01*
X22663787Y81075056D01*
X22982080Y81075056D01*
X22990240Y80969967D01*
X23013963Y80827001D01*
X23047113Y80674060D01*
X23083551Y80539044D01*
X23117141Y80449855D01*
X23121163Y80442782D01*
X23158986Y80446668D01*
X23232499Y80495843D01*
X23299869Y80555305D01*
X23455364Y80705384D01*
X23435974Y80957960D01*
X23424748Y81067288D01*
X24307692Y81067288D01*
X24311173Y80931486D01*
X24330110Y80842528D01*
X24377247Y80769153D01*
X24465327Y80680099D01*
X24465646Y80679796D01*
X24559313Y80596950D01*
X24633626Y80542377D01*
X24663024Y80529538D01*
X24701447Y80562206D01*
X24749306Y80643764D01*
X24763808Y80676077D01*
X24802923Y80841396D01*
X24808033Y81043689D01*
X24806604Y81054984D01*
X25085307Y81054984D01*
X25103471Y80976967D01*
X25167385Y80931630D01*
X25230733Y80900700D01*
X25245539Y80876673D01*
X25267378Y80843943D01*
X25330094Y80874034D01*
X25369462Y80906826D01*
X25424163Y80999073D01*
X25440923Y81102210D01*
X25429263Y81169920D01*
X25803749Y81169920D01*
X25804764Y80950632D01*
X25832794Y80743250D01*
X25885618Y80578055D01*
X25890815Y80567635D01*
X25938671Y80488750D01*
X25975015Y80451771D01*
X25977374Y80451384D01*
X26018875Y80476295D01*
X26093324Y80539292D01*
X26132678Y80576281D01*
X26201711Y80649034D01*
X26240370Y80716057D01*
X26257387Y80803852D01*
X26261496Y80938921D01*
X26261539Y80967309D01*
X26258796Y81099114D01*
X27134444Y81099114D01*
X27142906Y81020356D01*
X27181595Y80929253D01*
X27257603Y80819105D01*
X27353033Y80709712D01*
X27449993Y80620873D01*
X27530588Y80572389D01*
X27551171Y80568615D01*
X27593554Y80601026D01*
X27630198Y80668851D01*
X27666425Y80841647D01*
X27666439Y80845187D01*
X27945103Y80845187D01*
X27962456Y80864193D01*
X27979914Y80891000D01*
X28053115Y80943768D01*
X28139173Y80959384D01*
X28217520Y80967601D01*
X28248995Y81008210D01*
X28254462Y81091878D01*
X28249890Y81146626D01*
X28590362Y81146626D01*
X28591146Y80955427D01*
X28606287Y80769327D01*
X28635156Y80615509D01*
X28654697Y80558846D01*
X28702441Y80467277D01*
X28743294Y80416161D01*
X28752537Y80412308D01*
X28796155Y80438185D01*
X28873221Y80504784D01*
X28935724Y80565969D01*
X29085771Y80719631D01*
X29058937Y80966508D01*
X29047847Y81045712D01*
X29934769Y81045712D01*
X29938337Y80923624D01*
X29957535Y80838095D01*
X30005106Y80760933D01*
X30093794Y80663948D01*
X30118916Y80638342D01*
X30213495Y80544149D01*
X30284381Y80476979D01*
X30316211Y80451384D01*
X30338531Y80483489D01*
X30380235Y80564958D01*
X30404745Y80617461D01*
X30465022Y80823199D01*
X30477010Y81045978D01*
X30801980Y81045978D01*
X30802373Y80970135D01*
X30834109Y80925880D01*
X30914136Y80900666D01*
X31017383Y80886552D01*
X31055170Y80916860D01*
X31086084Y80998121D01*
X31089157Y81012881D01*
X31091144Y81030075D01*
X31467218Y81030075D01*
X31482087Y80829525D01*
X31513613Y80651073D01*
X31554843Y80532668D01*
X31618555Y80409462D01*
X31728890Y80488028D01*
X31826697Y80573087D01*
X31901823Y80662129D01*
X31936868Y80739148D01*
X31949450Y80842220D01*
X31942183Y80995228D01*
X31940406Y81014832D01*
X31931970Y81080315D01*
X32834572Y81080315D01*
X32839513Y81043567D01*
X32871170Y80941756D01*
X32941927Y80839180D01*
X33065547Y80715913D01*
X33066384Y80715154D01*
X33171162Y80623422D01*
X33253736Y80557077D01*
X33297197Y80529651D01*
X33298269Y80529538D01*
X33328051Y80562215D01*
X33348909Y80617461D01*
X33370919Y80784300D01*
X33365703Y80999911D01*
X33334478Y81240271D01*
X33311585Y81353116D01*
X33249631Y81625507D01*
X33033540Y81405936D01*
X32924821Y81292169D01*
X32862338Y81212897D01*
X32835714Y81148740D01*
X32834572Y81080315D01*
X31931970Y81080315D01*
X31923639Y81144989D01*
X31902919Y81237485D01*
X31883077Y81272000D01*
X31837495Y81296262D01*
X31756522Y81358499D01*
X31695540Y81411332D01*
X31541316Y81550664D01*
X31495511Y81382024D01*
X31471020Y81223863D01*
X31467218Y81030075D01*
X31091144Y81030075D01*
X31102720Y81130251D01*
X31100746Y81228168D01*
X31100696Y81228489D01*
X31088847Y81280518D01*
X31061596Y81291741D01*
X30997092Y81263693D01*
X30950769Y81239034D01*
X30850250Y81166821D01*
X30806808Y81078381D01*
X30801980Y81045978D01*
X30477010Y81045978D01*
X30477135Y81048295D01*
X30443153Y81266685D01*
X30365151Y81452306D01*
X30334910Y81495877D01*
X30266923Y81582986D01*
X30100846Y81424555D01*
X30006601Y81329111D01*
X29957000Y81252585D01*
X29937808Y81162506D01*
X29934769Y81045712D01*
X29047847Y81045712D01*
X29039018Y81108773D01*
X29006874Y81205266D01*
X28946562Y81288282D01*
X28856294Y81376979D01*
X28680486Y81540574D01*
X28634383Y81435594D01*
X28604564Y81315742D01*
X28590362Y81146626D01*
X28249890Y81146626D01*
X28246951Y81181828D01*
X28208538Y81222784D01*
X28117692Y81240339D01*
X28027989Y81246298D01*
X27989767Y81221667D01*
X27981062Y81145682D01*
X27980923Y81111042D01*
X27974967Y80993864D01*
X27960427Y80901109D01*
X27958434Y80894196D01*
X27945103Y80845187D01*
X27666439Y80845187D01*
X27667227Y81050398D01*
X27635048Y81262691D01*
X27572329Y81446114D01*
X27571480Y81447846D01*
X27519727Y81546417D01*
X27484345Y81601152D01*
X27474145Y81603483D01*
X27449411Y81555982D01*
X27385682Y81469368D01*
X27296660Y81362241D01*
X27295084Y81360437D01*
X27200405Y81247225D01*
X27150203Y81167592D01*
X27134444Y81099114D01*
X26258796Y81099114D01*
X26258502Y81113222D01*
X26244664Y81204940D01*
X26212929Y81266329D01*
X26156389Y81321104D01*
X26054810Y81410995D01*
X25967050Y81495875D01*
X25882860Y81582982D01*
X25831966Y81370834D01*
X25803749Y81169920D01*
X25429263Y81169920D01*
X25424866Y81195455D01*
X25370168Y81233883D01*
X25267041Y81221097D01*
X25189467Y81194813D01*
X25114749Y81136864D01*
X25085307Y81054984D01*
X24806604Y81054984D01*
X24781814Y81250918D01*
X24726943Y81431044D01*
X24695687Y81491413D01*
X24610497Y81629252D01*
X24459095Y81466888D01*
X24373753Y81368945D01*
X24328436Y81287982D01*
X24310604Y81190909D01*
X24307692Y81067288D01*
X23424748Y81067288D01*
X23421369Y81100196D01*
X23395269Y81194851D01*
X23343663Y81272458D01*
X23252538Y81363550D01*
X23247836Y81367940D01*
X23079090Y81525345D01*
X23032086Y81369365D01*
X22999923Y81229600D01*
X22982712Y81091537D01*
X22982080Y81075056D01*
X22663787Y81075056D01*
X22666613Y81083490D01*
X22632876Y81159504D01*
X22568769Y81216978D01*
X22493037Y81295687D01*
X22471078Y81411290D01*
X22471077Y81412286D01*
X22476662Y81500103D01*
X22507013Y81529801D01*
X22582525Y81521295D01*
X22582684Y81521263D01*
X22674901Y81518527D01*
X22718227Y81561317D01*
X22724346Y81662523D01*
X22672581Y81740617D01*
X22643902Y81756214D01*
X22603635Y81808080D01*
X22588308Y81901149D01*
X22588907Y81911964D01*
X23218015Y81911964D01*
X23225619Y81872742D01*
X23271113Y81793580D01*
X23341595Y81693942D01*
X23424162Y81593288D01*
X23443027Y81572554D01*
X23545168Y81462800D01*
X23614720Y81548692D01*
X23660118Y81632742D01*
X23666054Y81697523D01*
X23659547Y81727699D01*
X23979672Y81727699D01*
X23991944Y81616685D01*
X24024758Y81559936D01*
X24066654Y81546137D01*
X24101324Y81568474D01*
X24177543Y81626855D01*
X24252270Y81687015D01*
X24346500Y81771832D01*
X24409210Y81842846D01*
X24424923Y81875089D01*
X24394820Y81938578D01*
X24319401Y82020765D01*
X24221005Y82101218D01*
X24121969Y82159505D01*
X24107494Y82165432D01*
X24004989Y82204143D01*
X23985408Y81904148D01*
X23979672Y81727699D01*
X23659547Y81727699D01*
X23649822Y81772799D01*
X23629966Y81889880D01*
X23621635Y81946077D01*
X23601588Y82054058D01*
X23579912Y82120991D01*
X23569865Y82131692D01*
X23528814Y82112365D01*
X23447650Y82064638D01*
X23351002Y82003889D01*
X23263496Y81945499D01*
X23218015Y81911964D01*
X22588907Y81911964D01*
X22592639Y81979408D01*
X22620429Y82010925D01*
X22693870Y82010274D01*
X22744608Y82003788D01*
X22867929Y82000491D01*
X22925048Y82030603D01*
X22913068Y82091575D01*
X22885213Y82127462D01*
X22836355Y82215554D01*
X22824793Y82310667D01*
X22853554Y82379498D01*
X22861766Y82385643D01*
X22918498Y82383777D01*
X23005859Y82347416D01*
X23018041Y82340466D01*
X23101136Y82297248D01*
X23151745Y82296793D01*
X23197782Y82333650D01*
X23238560Y82397254D01*
X23219829Y82471345D01*
X23214344Y82481879D01*
X23186412Y82584496D01*
X23215035Y82653395D01*
X23282326Y82678656D01*
X23370397Y82650361D01*
X23428462Y82600615D01*
X23492169Y82542418D01*
X23532210Y82522461D01*
X23563626Y82553034D01*
X23563446Y82628576D01*
X23536336Y82724822D01*
X23486959Y82817508D01*
X23471705Y82837251D01*
X23406573Y82938976D01*
X23329736Y83096422D01*
X23249303Y83289711D01*
X23173381Y83498962D01*
X23110078Y83704298D01*
X23095255Y83760210D01*
X23043965Y83962420D01*
X23174389Y84110964D01*
X23266969Y84225763D01*
X23373706Y84371585D01*
X23452035Y84487289D01*
X23529923Y84604690D01*
X23578587Y84664507D01*
X23609780Y84675704D01*
X23635257Y84647247D01*
X23643158Y84633040D01*
X23669717Y84565364D01*
X23710790Y84439302D01*
X23761047Y84272062D01*
X23815158Y84080850D01*
X23822368Y84054505D01*
X23884048Y83833403D01*
X23949690Y83606742D01*
X24011113Y83402320D01*
X24056809Y83257949D01*
X24107688Y83092023D01*
X24132327Y82970103D01*
X24134318Y82863962D01*
X24120102Y82760716D01*
X24103479Y82644741D01*
X24100146Y82563670D01*
X24105345Y82542450D01*
X24143668Y82553178D01*
X24213471Y82605732D01*
X24238020Y82628279D01*
X24340916Y82698201D01*
X24420398Y82697918D01*
X24466132Y82631850D01*
X24470902Y82528687D01*
X24470834Y82401460D01*
X24494208Y82301451D01*
X24534943Y82251117D01*
X24546662Y82248923D01*
X24595477Y82275927D01*
X24665872Y82342322D01*
X24678430Y82356384D01*
X24749477Y82425359D01*
X24804474Y82437718D01*
X24842632Y82420581D01*
X24915453Y82339245D01*
X24918018Y82240578D01*
X24879214Y82176190D01*
X24837208Y82076856D01*
X24842140Y82019459D01*
X24868688Y81960078D01*
X24921975Y81944220D01*
X24997532Y81954392D01*
X25091301Y81963582D01*
X25140240Y81936275D01*
X25163449Y81889338D01*
X25172662Y81786262D01*
X25119764Y81718946D01*
X25045369Y81701846D01*
X24986692Y81675688D01*
X24972000Y81605924D01*
X24986927Y81536476D01*
X25046195Y81499017D01*
X25106234Y81484820D01*
X25206806Y81473881D01*
X25273800Y81480669D01*
X25277652Y81482619D01*
X25329495Y81476129D01*
X25363126Y81447416D01*
X25416586Y81392599D01*
X25451072Y81384992D01*
X25467685Y81430991D01*
X25467525Y81536997D01*
X25451694Y81709409D01*
X25433770Y81858154D01*
X25434473Y81916769D01*
X26103687Y81916769D01*
X26222480Y81711615D01*
X26310359Y81578841D01*
X26382835Y81516538D01*
X26447470Y81520475D01*
X26492318Y81560640D01*
X26514138Y81613761D01*
X26515785Y81707026D01*
X26497214Y81856566D01*
X26494035Y81876291D01*
X26844938Y81876291D01*
X26845720Y81740171D01*
X26857836Y81622560D01*
X26881677Y81547350D01*
X26896539Y81533627D01*
X26952838Y81548443D01*
X27035865Y81607986D01*
X27126981Y81693344D01*
X27207551Y81785602D01*
X27258936Y81865848D01*
X27266401Y81908968D01*
X27216343Y81978431D01*
X27129290Y82054221D01*
X27030192Y82119146D01*
X26943999Y82156016D01*
X26906707Y82156791D01*
X26875822Y82108492D01*
X26855102Y82007028D01*
X26844938Y81876291D01*
X26494035Y81876291D01*
X26491376Y81892794D01*
X26465585Y82028231D01*
X26440220Y82127160D01*
X26420334Y82170264D01*
X26418630Y82170769D01*
X26376098Y82147010D01*
X26297790Y82086509D01*
X26247739Y82043769D01*
X26103687Y81916769D01*
X25434473Y81916769D01*
X25434549Y81923119D01*
X25472705Y81954167D01*
X25567923Y81967974D01*
X25673443Y81983950D01*
X25708847Y82016866D01*
X25682074Y82079765D01*
X25657089Y82114454D01*
X25610395Y82211915D01*
X25601333Y82311658D01*
X25631883Y82381938D01*
X25640023Y82387988D01*
X25697048Y82384683D01*
X25780527Y82341848D01*
X25792763Y82333146D01*
X25889826Y82284928D01*
X25952442Y82304951D01*
X25976803Y82389557D01*
X25966439Y82499961D01*
X25953412Y82592214D01*
X25972479Y82631070D01*
X26039588Y82639596D01*
X26063031Y82639692D01*
X26162261Y82621714D01*
X26208330Y82581077D01*
X26253912Y82535644D01*
X26319575Y82524253D01*
X26370131Y82548119D01*
X26378769Y82575188D01*
X26361529Y82634125D01*
X26316178Y82739473D01*
X26252272Y82869164D01*
X26247639Y82878034D01*
X26204047Y82974554D01*
X26140008Y83134688D01*
X26059423Y83347785D01*
X25966195Y83603195D01*
X25864226Y83890268D01*
X25757420Y84198354D01*
X25676765Y84435976D01*
X25570396Y84750440D01*
X25467880Y85049977D01*
X25372816Y85324330D01*
X25288806Y85563242D01*
X25219450Y85756454D01*
X25168348Y85893708D01*
X25143588Y85955070D01*
X25093235Y86075022D01*
X25059313Y86167502D01*
X25050154Y86204749D01*
X25072367Y86249402D01*
X25132822Y86342430D01*
X25222242Y86470158D01*
X25329457Y86616388D01*
X25449326Y86774171D01*
X25532819Y86876276D01*
X25588614Y86930885D01*
X25625385Y86946181D01*
X25651811Y86930348D01*
X25656287Y86924621D01*
X25684427Y86865979D01*
X25730497Y86747420D01*
X25789150Y86583634D01*
X25855042Y86389310D01*
X25889632Y86283427D01*
X25957167Y86074300D01*
X26042413Y85810776D01*
X26138917Y85512782D01*
X26240223Y85200244D01*
X26339878Y84893089D01*
X26380045Y84769384D01*
X26516269Y84349242D01*
X26629912Y83996542D01*
X26722860Y83704501D01*
X26796995Y83466335D01*
X26854202Y83275262D01*
X26896366Y83124496D01*
X26925369Y83007255D01*
X26943096Y82916756D01*
X26951431Y82846214D01*
X26952258Y82788845D01*
X26947461Y82737867D01*
X26946363Y82730290D01*
X26934280Y82625273D01*
X26944801Y82576110D01*
X26985157Y82562028D01*
X27005111Y82561538D01*
X27090820Y82590328D01*
X27161365Y82649461D01*
X27239956Y82709495D01*
X27308369Y82698624D01*
X27356746Y82624099D01*
X27375230Y82493170D01*
X27375231Y82492177D01*
X27382688Y82366041D01*
X27411047Y82310435D01*
X27469284Y82318653D01*
X27543318Y82366596D01*
X27632277Y82421039D01*
X27699728Y82425475D01*
X27741774Y82407739D01*
X27796214Y82354610D01*
X27823727Y82284891D01*
X27817920Y82227486D01*
X27785539Y82209846D01*
X27759960Y82175435D01*
X27746896Y82090568D01*
X27746462Y82069717D01*
X27746462Y81929587D01*
X27908984Y81942717D01*
X28028819Y81941184D01*
X28080451Y81908583D01*
X28065307Y81840332D01*
X27984819Y81731849D01*
X27977443Y81723390D01*
X27903485Y81632122D01*
X27876436Y81568771D01*
X27887626Y81506307D01*
X27899150Y81479262D01*
X27945632Y81377245D01*
X28005981Y81463406D01*
X28080520Y81527862D01*
X28189704Y81537783D01*
X28270863Y81536193D01*
X28308313Y81566535D01*
X28323239Y81649938D01*
X28325229Y81672946D01*
X28314028Y81813961D01*
X28274639Y81882636D01*
X28230955Y81952481D01*
X28885608Y81952481D01*
X28894470Y81914709D01*
X28939693Y81836683D01*
X29007135Y81737793D01*
X29082655Y81637432D01*
X29152112Y81554991D01*
X29201366Y81509862D01*
X29210861Y81506461D01*
X29276207Y81533855D01*
X29308496Y81563821D01*
X29331924Y81614292D01*
X29335758Y81697685D01*
X29335307Y81701551D01*
X29663535Y81701551D01*
X29668903Y81605144D01*
X29690579Y81553815D01*
X29704094Y81542372D01*
X29750926Y81517109D01*
X29791028Y81518081D01*
X29840457Y81554916D01*
X29915271Y81637244D01*
X29970093Y81701890D01*
X30134881Y81897319D01*
X30006358Y82014706D01*
X29890463Y82106344D01*
X29790777Y82159374D01*
X29723974Y82165514D01*
X29715016Y82159426D01*
X29702940Y82114138D01*
X29688347Y82012027D01*
X29674200Y81874229D01*
X29672900Y81859016D01*
X29663535Y81701551D01*
X29335307Y81701551D01*
X29320068Y81832148D01*
X29309750Y81895975D01*
X29283644Y82030518D01*
X29258131Y82128465D01*
X29238357Y82170403D01*
X29236925Y82170769D01*
X29195477Y82151448D01*
X29113842Y82103671D01*
X29016607Y82042712D01*
X28928358Y81983849D01*
X28885608Y81952481D01*
X28230955Y81952481D01*
X28226901Y81958963D01*
X28253270Y82014310D01*
X28351581Y82044756D01*
X28364933Y82046245D01*
X28450184Y82064749D01*
X28488732Y82093036D01*
X28488923Y82095091D01*
X28461080Y82131000D01*
X28454404Y82131692D01*
X28417675Y82164847D01*
X28393646Y82240788D01*
X28391405Y82324234D01*
X28398084Y82350384D01*
X28451900Y82398829D01*
X28543016Y82392563D01*
X28636605Y82344351D01*
X28724532Y82303026D01*
X28773761Y82329468D01*
X28784414Y82423803D01*
X28777090Y82485743D01*
X28772109Y82596267D01*
X28805859Y82640504D01*
X28882144Y82620422D01*
X28952444Y82576554D01*
X29032468Y82537293D01*
X29086166Y82556997D01*
X29103002Y82607402D01*
X29093923Y82641998D01*
X29192308Y82641998D01*
X29220674Y82602206D01*
X29231385Y82600615D01*
X29269446Y82613948D01*
X29270462Y82617848D01*
X29243079Y82651210D01*
X29231385Y82659231D01*
X29195376Y82656132D01*
X29192308Y82641998D01*
X29093923Y82641998D01*
X29079590Y82696612D01*
X29039530Y82786211D01*
X29013291Y82850322D01*
X28965292Y82977937D01*
X28898368Y83160951D01*
X28815352Y83391257D01*
X28719081Y83660753D01*
X28612389Y83961331D01*
X28498111Y84284887D01*
X28379082Y84623316D01*
X28258136Y84968512D01*
X28138110Y85312371D01*
X28021837Y85646787D01*
X27912152Y85963655D01*
X27811892Y86254870D01*
X27723889Y86512326D01*
X27650980Y86727919D01*
X27596000Y86893543D01*
X27561782Y87001094D01*
X27551077Y87041773D01*
X27513795Y87051081D01*
X27409124Y87059380D01*
X27247826Y87066282D01*
X27040664Y87071401D01*
X26798399Y87074352D01*
X26627766Y87074923D01*
X26336076Y87075108D01*
X26112662Y87076253D01*
X25947647Y87079243D01*
X25831153Y87084962D01*
X25753301Y87094295D01*
X25752712Y87094461D01*
X28409280Y87094461D01*
X28434736Y86987000D01*
X28452456Y86925635D01*
X28491461Y86799202D01*
X28548813Y86616940D01*
X28621577Y86388088D01*
X28706816Y86121883D01*
X28801596Y85827566D01*
X28891121Y85550923D01*
X29058099Y85035446D01*
X29202220Y84588861D01*
X29325090Y84205833D01*
X29428312Y83881026D01*
X29513490Y83609106D01*
X29582229Y83384736D01*
X29636135Y83202582D01*
X29676810Y83057307D01*
X29705859Y82943578D01*
X29724888Y82856059D01*
X29735500Y82789414D01*
X29739300Y82738308D01*
X29739385Y82730194D01*
X29744052Y82624317D01*
X29765843Y82575243D01*
X29816443Y82561811D01*
X29832519Y82561538D01*
X29918457Y82591198D01*
X29946900Y82642784D01*
X29988949Y82704988D01*
X30058919Y82711168D01*
X30126537Y82682960D01*
X30151412Y82609297D01*
X30152968Y82581077D01*
X30167401Y82449026D01*
X30198118Y82345105D01*
X30237880Y82291170D01*
X30250018Y82288000D01*
X30285237Y82317981D01*
X30286462Y82328336D01*
X30319829Y82375700D01*
X30397594Y82407007D01*
X30486250Y82412449D01*
X30529989Y82399615D01*
X30566886Y82368185D01*
X30582677Y82311266D01*
X30580479Y82208708D01*
X30572580Y82124113D01*
X30560586Y81993625D01*
X30561879Y81925355D01*
X30580102Y81903967D01*
X30618898Y81914121D01*
X30622130Y81915471D01*
X30752423Y81952041D01*
X30832726Y81930023D01*
X30864753Y81855526D01*
X30852883Y81768117D01*
X30780082Y81711323D01*
X30776830Y81709825D01*
X30694035Y81639599D01*
X30677231Y81569171D01*
X30683145Y81505927D01*
X30711931Y81469575D01*
X30780150Y81453178D01*
X30904365Y81449801D01*
X30960889Y81450366D01*
X31080695Y81454856D01*
X31143332Y81471463D01*
X31169778Y81511159D01*
X31178669Y81564289D01*
X31172264Y81679284D01*
X31145507Y81761670D01*
X31107189Y81878979D01*
X31123303Y81923716D01*
X31817357Y81923716D01*
X31830261Y81855219D01*
X31877328Y81749547D01*
X31928237Y81661920D01*
X32001253Y81554516D01*
X32052005Y81503319D01*
X32096554Y81496425D01*
X32131728Y81511091D01*
X32173252Y81541501D01*
X32194695Y81589347D01*
X32199811Y81674355D01*
X32199045Y81688931D01*
X32558663Y81688931D01*
X32574481Y81563324D01*
X32612058Y81509132D01*
X32675141Y81523643D01*
X32767477Y81604145D01*
X32840956Y81685886D01*
X32944178Y81816220D01*
X32988198Y81907844D01*
X32971039Y81975283D01*
X32890720Y82033059D01*
X32787385Y82078972D01*
X32572462Y82165867D01*
X32560857Y81888667D01*
X32558663Y81688931D01*
X32199045Y81688931D01*
X32192358Y81816251D01*
X32191672Y81825905D01*
X32176906Y81967210D01*
X32156757Y82078042D01*
X32135531Y82134851D01*
X32135090Y82135310D01*
X32081910Y82139956D01*
X31999314Y82103764D01*
X31911444Y82042811D01*
X31842445Y81973176D01*
X31817357Y81923716D01*
X31123303Y81923716D01*
X31135627Y81957931D01*
X31228855Y81994628D01*
X31264103Y81996776D01*
X31360482Y82008245D01*
X31403570Y82048344D01*
X31412641Y82084699D01*
X31406698Y82151763D01*
X31383333Y82170769D01*
X31350050Y82201547D01*
X31342678Y82271107D01*
X31359073Y82345286D01*
X31397089Y82389923D01*
X31397100Y82389928D01*
X31473818Y82389962D01*
X31531039Y82369303D01*
X31635723Y82339531D01*
X31701607Y82375267D01*
X31719596Y82469728D01*
X31714720Y82506269D01*
X31707154Y82602492D01*
X31739784Y82658038D01*
X31777298Y82681934D01*
X31842736Y82705321D01*
X31896005Y82681348D01*
X31950189Y82620447D01*
X32029656Y82548224D01*
X32088148Y82550539D01*
X32119484Y82625189D01*
X32123077Y82682052D01*
X32110274Y82767464D01*
X32055790Y82808647D01*
X32003956Y82821778D01*
X31965601Y82829774D01*
X31931665Y82841128D01*
X31899666Y82861727D01*
X31867122Y82897454D01*
X31831551Y82954195D01*
X31790473Y83037835D01*
X31741406Y83154258D01*
X31681869Y83309350D01*
X31609380Y83508996D01*
X31521457Y83759081D01*
X31415621Y84065489D01*
X31289388Y84434106D01*
X31141554Y84867077D01*
X31041998Y85158977D01*
X30938969Y85461544D01*
X30838990Y85755580D01*
X30748586Y86021892D01*
X30674282Y86241284D01*
X30650085Y86312923D01*
X30581941Y86514715D01*
X30519167Y86700257D01*
X30467760Y86851851D01*
X30433716Y86951798D01*
X30428337Y86967461D01*
X30384569Y87094461D01*
X29396925Y87094461D01*
X28409280Y87094461D01*
X25752712Y87094461D01*
X25704216Y87108127D01*
X25674019Y87127342D01*
X25652832Y87152825D01*
X25646077Y87162846D01*
X25572325Y87231789D01*
X25476031Y87245978D01*
X25354125Y87203386D01*
X25203536Y87101983D01*
X25021193Y86939739D01*
X24804026Y86714626D01*
X24574834Y86454925D01*
X24393414Y86243241D01*
X24199888Y86017892D01*
X24011716Y85799178D01*
X23846355Y85607399D01*
X23765277Y85513620D01*
X23618328Y85341488D01*
X23441376Y85130471D01*
X23252987Y84902915D01*
X23071726Y84681167D01*
X23002326Y84595312D01*
X22634744Y84146379D01*
X22302944Y83758029D01*
X22001319Y83424552D01*
X21724260Y83140239D01*
X21466158Y82899380D01*
X21221404Y82696266D01*
X20984389Y82525187D01*
X20940293Y82496172D01*
X20688685Y82345647D01*
X20404262Y82200146D01*
X20080823Y82057445D01*
X19712170Y81915324D01*
X19292105Y81771561D01*
X18814429Y81623933D01*
X18272943Y81470219D01*
X17661448Y81308197D01*
X17537116Y81276362D01*
X17251955Y81202675D01*
X16986715Y81132181D01*
X16752275Y81067924D01*
X16559512Y81012950D01*
X16419307Y80970302D01*
X16342537Y80943025D01*
X16337442Y80940591D01*
X16254119Y80899993D01*
X16206378Y80881360D01*
X16204955Y80881231D01*
X16168774Y80911161D01*
X16096026Y80993342D01*
X15995473Y81116361D01*
X15875877Y81268804D01*
X15746000Y81439256D01*
X15614605Y81616304D01*
X15490454Y81788535D01*
X15382309Y81944533D01*
X15341336Y82006189D01*
X15063892Y82390509D01*
X14779291Y82700642D01*
X14481043Y82940551D01*
X14162657Y83114199D01*
X13817642Y83225550D01*
X13439508Y83278567D01*
X13248055Y83284461D01*
X13058334Y83282830D01*
X12922478Y83274810D01*
X12816216Y83255711D01*
X12715278Y83220842D01*
X12595393Y83165513D01*
X12571255Y83153672D01*
X12440710Y83085262D01*
X12356341Y83033115D01*
X12323443Y83002522D01*
X12347308Y82998774D01*
X12433232Y83027161D01*
X12452196Y83034678D01*
X12545583Y83056758D01*
X12688566Y83073304D01*
X12852624Y83081182D01*
X12877692Y83081424D01*
X13226405Y83045630D01*
X13578432Y82939848D01*
X13921364Y82770644D01*
X14242794Y82544586D01*
X14530314Y82268242D01*
X14623306Y82157491D01*
X14726168Y82016790D01*
X14770897Y81927963D01*
X14757485Y81890635D01*
X14685923Y81904435D01*
X14618172Y81935513D01*
X14503551Y81989909D01*
X14439897Y82011676D01*
X14433462Y81999925D01*
X14490494Y81953768D01*
X14490656Y81953654D01*
X14545920Y81902686D01*
X14639228Y81803616D01*
X14759282Y81668950D01*
X14894785Y81511195D01*
X14952279Y81442630D01*
X15282539Y81056580D01*
X15582950Y80730215D01*
X15863126Y80455760D01*
X16132684Y80225444D01*
X16401238Y80031491D01*
X16678403Y79866130D01*
X16973796Y79721586D01*
X17195692Y79628972D01*
X17326213Y79579199D01*
X17453467Y79534882D01*
X17583577Y79495256D01*
X17722665Y79459561D01*
X17876855Y79427031D01*
X18052270Y79396904D01*
X18255033Y79368418D01*
X18491266Y79340809D01*
X18767094Y79313313D01*
X19088639Y79285168D01*
X19462023Y79255612D01*
X19893371Y79223880D01*
X20388804Y79189209D01*
X20954447Y79150838D01*
X21122923Y79139548D01*
X21243893Y79133263D01*
X21431504Y79125850D01*
X21674259Y79117657D01*
X21960658Y79109032D01*
X22279205Y79100322D01*
X22618399Y79091874D01*
X22940000Y79084609D01*
X23381257Y79074072D01*
X23747675Y79062925D01*
X24042566Y79050998D01*
X24269244Y79038124D01*
X24431023Y79024134D01*
X24531215Y79008860D01*
X24553827Y79002685D01*
X24729499Y78904644D01*
X24876940Y78750489D01*
X24984032Y78560583D01*
X25038654Y78355287D01*
X25036204Y78192251D01*
X24972145Y77983646D01*
X24859803Y77810159D01*
X24731684Y77703356D01*
X24671117Y77669984D01*
X24616010Y77649359D01*
X24550005Y77641098D01*
X24456742Y77644819D01*
X24319862Y77660142D01*
X24123008Y77686684D01*
X24107681Y77688798D01*
X23807146Y77725236D01*
X23516310Y77748925D01*
X23223619Y77759381D01*
X22917518Y77756121D01*
X22586452Y77738659D01*
X22218865Y77706513D01*
X21803204Y77659199D01*
X21327913Y77596232D01*
X21089666Y77562396D01*
X20603687Y77492425D01*
X20186510Y77433032D01*
X19829625Y77383355D01*
X19524522Y77342531D01*
X19262690Y77309697D01*
X19035619Y77283991D01*
X18834799Y77264551D01*
X18651721Y77250513D01*
X18477873Y77241015D01*
X18304747Y77235195D01*
X18123831Y77232190D01*
X17926615Y77231137D01*
X17820923Y77231073D01*
X17534227Y77231855D01*
X17309753Y77234873D01*
X17131575Y77241428D01*
X16983765Y77252823D01*
X16850399Y77270360D01*
X16715550Y77295340D01*
X16563292Y77329066D01*
X16531385Y77336499D01*
X16117074Y77458372D01*
X15688449Y77634578D01*
X15239769Y77868202D01*
X14765296Y78162327D01*
X14259290Y78520038D01*
X14089077Y78648973D01*
X13555814Y79077320D01*
X13073747Y79502103D01*
X12646460Y79919354D01*
X12277539Y80325105D01*
X11970570Y80715388D01*
X11729136Y81086235D01*
X11556824Y81433676D01*
X11543814Y81466257D01*
X11514325Y81539155D01*
X11500574Y81557351D01*
X11500135Y81513571D01*
X11510582Y81400538D01*
X11513207Y81374493D01*
X11598279Y80912989D01*
X11758520Y80452366D01*
X11991015Y79996828D01*
X12292849Y79550582D01*
X12661110Y79117834D01*
X13092882Y78702789D01*
X13585252Y78309653D01*
X13687931Y78236004D01*
X13990169Y78022961D01*
X13849501Y77801096D01*
X13390469Y77143716D01*
X12920113Y76578588D01*
X12645915Y76269418D01*
X12425675Y76011356D01*
X12259967Y75805124D01*
X12149366Y75651442D01*
X12094447Y75551030D01*
X12090240Y75537578D01*
X12085238Y75434339D01*
X12105610Y75312773D01*
X12108544Y75302780D01*
X12128235Y75212340D01*
X12118974Y75136189D01*
X12071844Y75062157D01*
X11977924Y74978077D01*
X11828299Y74871781D01*
X11758729Y74825503D01*
X11613398Y74720607D01*
X11438519Y74580397D01*
X11248857Y74418231D01*
X11059176Y74247469D01*
X10884243Y74081472D01*
X10738822Y73933600D01*
X10637679Y73817213D01*
X10623928Y73798700D01*
X10582073Y73736158D01*
X10575927Y73710515D01*
X10613063Y73723816D01*
X10701053Y73778107D01*
X10806616Y73848053D01*
X10970156Y73944555D01*
X11197899Y74059832D01*
X11479422Y74189435D01*
X11804301Y74328919D01*
X12162115Y74473837D01*
X12542441Y74619740D01*
X12934857Y74762183D01*
X13014462Y74790070D01*
X13545815Y74956059D01*
X14049216Y75075356D01*
X14517467Y75146973D01*
X14943370Y75169924D01*
X15319728Y75143223D01*
X15437231Y75122215D01*
X15836329Y75000477D01*
X16196114Y74814251D01*
X16510536Y74568164D01*
X16773544Y74266839D01*
X16957472Y73960032D01*
X17076630Y73686138D01*
X17158984Y73413896D01*
X17209133Y73120961D01*
X17231676Y72784987D01*
X17234037Y72616461D01*
X17211471Y72122108D01*
X17140589Y71625789D01*
X17018603Y71116702D01*
X16842728Y70584042D01*
X16610175Y70017008D01*
X16503125Y69783384D01*
X16342331Y69433398D01*
X16219928Y69148183D01*
X16134849Y68925049D01*
X16086027Y68761305D01*
X16075442Y68705126D01*
X16066726Y68633166D01*
X16067535Y68574796D01*
X16085543Y68527295D01*
X16128429Y68487945D01*
X16203868Y68454027D01*
X16319536Y68422822D01*
X16483110Y68391611D01*
X16702266Y68357674D01*
X16984682Y68318293D01*
X17279668Y68278580D01*
X17773711Y68192741D01*
X18198082Y68076209D01*
X18555712Y67927225D01*
X18849527Y67744034D01*
X19082455Y67524877D01*
X19257427Y67267999D01*
X19358611Y67031270D01*
X19386308Y66924679D01*
X19407028Y66800851D01*
X19419772Y66677199D01*
X19423544Y66571138D01*
X19417344Y66500081D01*
X19400176Y66481444D01*
X19389424Y66493485D01*
X19355523Y66512545D01*
X19307903Y66467960D01*
X19285472Y66435548D01*
X19213977Y66326433D01*
X19130630Y66599293D01*
X19018601Y66885612D01*
X18868743Y67149245D01*
X18692127Y67375459D01*
X18499824Y67549521D01*
X18350274Y67637738D01*
X18234685Y67683592D01*
X18185323Y67688369D01*
X18202517Y67652473D01*
X18286596Y67576307D01*
X18294709Y67569709D01*
X18563271Y67325238D01*
X18785473Y67067239D01*
X18954902Y66805821D01*
X19065151Y66551096D01*
X19109808Y66313172D01*
X19110462Y66283056D01*
X19103186Y66161854D01*
X19084526Y66075104D01*
X19068785Y66049931D01*
X19034237Y66045071D01*
X18992412Y66076339D01*
X18937831Y66151810D01*
X18865014Y66279561D01*
X18768483Y66467668D01*
X18723025Y66559538D01*
X18562625Y66851737D01*
X18406804Y67066285D01*
X18351802Y67124521D01*
X18260938Y67206964D01*
X18196461Y67254205D01*
X18172616Y67256305D01*
X18199710Y67198257D01*
X18232001Y67164591D01*
X18299165Y67092116D01*
X18391514Y66971000D01*
X18495933Y66820727D01*
X18599302Y66660781D01*
X18688505Y66510643D01*
X18743789Y66404437D01*
X18792795Y66285768D01*
X18812325Y66185597D01*
X18802840Y66075580D01*
X18764800Y65927373D01*
X18752229Y65885461D01*
X18700176Y65785234D01*
X18640814Y65758461D01*
X18585694Y65766734D01*
X18547574Y65801398D01*
X18519506Y65877218D01*
X18494543Y66008962D01*
X18481540Y66096990D01*
X18430474Y66345648D01*
X18350743Y66543623D01*
X18248777Y66696308D01*
X18170383Y66794000D01*
X18234742Y66626963D01*
X18276588Y66459851D01*
X18287155Y66276808D01*
X18268283Y66102902D01*
X18221809Y65963201D01*
X18181912Y65906698D01*
X18110314Y65857121D01*
X18047926Y65867623D01*
X17989586Y65943274D01*
X17930126Y66089146D01*
X17900425Y66183070D01*
X17836643Y66373511D01*
X17769997Y66506996D01*
X17685371Y66603752D01*
X17567646Y66684011D01*
X17498603Y66720764D01*
X17358047Y66788798D01*
X17225530Y66843988D01*
X17085518Y66890623D01*
X16922476Y66932993D01*
X16720870Y66975389D01*
X16465164Y67022100D01*
X16311978Y67048446D01*
X15932748Y67115947D01*
X15618391Y67179446D01*
X15355981Y67242352D01*
X15132589Y67308069D01*
X14935287Y67380006D01*
X14759668Y67457482D01*
X14510465Y67591031D01*
X14323918Y67727523D01*
X14185170Y67879910D01*
X14088056Y68043051D01*
X14016294Y68220594D01*
X13975059Y68406977D01*
X13963549Y68618075D01*
X13980965Y68869767D01*
X14026505Y69177928D01*
X14029880Y69197231D01*
X14142367Y69879283D01*
X14227474Y70493574D01*
X14285696Y71045360D01*
X14317522Y71539894D01*
X14323445Y71982433D01*
X14314181Y72235460D01*
X14293160Y72596920D01*
X14210616Y72351640D01*
X14088125Y72081065D01*
X13912397Y71817859D01*
X13704641Y71593171D01*
X13678578Y71570287D01*
X13525915Y71459040D01*
X13320022Y71336096D01*
X13082460Y71212430D01*
X12834794Y71099014D01*
X12598586Y71006823D01*
X12520706Y70981005D01*
X12238504Y70907621D01*
X11932788Y70853536D01*
X11621042Y70819731D01*
X11320754Y70807186D01*
X11049409Y70816883D01*
X10824492Y70849800D01*
X10721608Y70880144D01*
X10641149Y70902044D01*
X10600108Y70898979D01*
X10606193Y70855340D01*
X10643783Y70757998D01*
X10705755Y70621192D01*
X10784984Y70459159D01*
X10874344Y70286134D01*
X10966711Y70116357D01*
X11054959Y69964062D01*
X11118031Y69864044D01*
X11311365Y69595986D01*
X11549384Y69300354D01*
X11815188Y68995778D01*
X12091883Y68700892D01*
X12362569Y68434327D01*
X12610351Y68214716D01*
X12623692Y68203788D01*
X12907830Y67984338D01*
X13232516Y67753848D01*
X13580411Y67523191D01*
X13934178Y67303240D01*
X14276476Y67104868D01*
X14589968Y66938948D01*
X14792462Y66843780D01*
X14998129Y66760514D01*
X15261386Y66663804D01*
X15564079Y66559472D01*
X15888055Y66453340D01*
X16215163Y66351233D01*
X16527248Y66258972D01*
X16806159Y66182382D01*
X17009230Y66132684D01*
X17238454Y66080875D01*
X17404401Y66039690D01*
X17520006Y66002444D01*
X17598203Y65962449D01*
X17651928Y65913021D01*
X17694116Y65847472D01*
X17737702Y65759117D01*
X17739586Y65755163D01*
X17843462Y65583114D01*
X17982017Y65450695D01*
X18035846Y65412622D01*
X18129371Y65351990D01*
X18204864Y65314511D01*
X18284809Y65295624D01*
X18391689Y65290771D01*
X18547988Y65295391D01*
X18602462Y65297710D01*
X18866013Y65321201D01*
X19073126Y65371755D01*
X19243325Y65458067D01*
X19396138Y65588835D01*
X19487178Y65691735D01*
X19538329Y65718615D01*
X19647616Y65740517D01*
X19821984Y65758458D01*
X20034254Y65771749D01*
X20636035Y65825027D01*
X21223561Y65920601D01*
X21788360Y66055285D01*
X22321960Y66225894D01*
X22815886Y66429241D01*
X23261667Y66662141D01*
X23650829Y66921409D01*
X23974901Y67203858D01*
X24047454Y67280701D01*
X24281451Y67590295D01*
X24475901Y67949475D01*
X24620837Y68335486D01*
X24706292Y68725577D01*
X24715804Y68806461D01*
X24719371Y69204226D01*
X24652429Y69579765D01*
X24518766Y69925948D01*
X24322170Y70235647D01*
X24066429Y70501732D01*
X23755331Y70717073D01*
X23679322Y70757188D01*
X23313453Y70904815D01*
X22959190Y70975340D01*
X22615867Y70968643D01*
X22282816Y70884606D01*
X21959371Y70723110D01*
X21644866Y70484037D01*
X21528727Y70373991D01*
X21266793Y70077998D01*
X21076878Y69780044D01*
X20953759Y69466270D01*
X20892212Y69122817D01*
X20887015Y68735824D01*
X20890309Y68680033D01*
X20901336Y68497943D01*
X20904035Y68376898D01*
X20896390Y68300047D01*
X20876388Y68250535D01*
X20842015Y68211510D01*
X20833371Y68203600D01*
X20757616Y68157251D01*
X20646711Y68132879D01*
X20499875Y68125446D01*
X20353182Y68128410D01*
X20257486Y68146097D01*
X20186014Y68185547D01*
X20148718Y68217762D01*
X20069523Y68315018D01*
X20015919Y68440683D01*
X19985547Y68607061D01*
X19976049Y68826456D01*
X19983428Y69080000D01*
X20040079Y69601234D01*
X20158735Y70089985D01*
X20345183Y70568061D01*
X20418238Y70718663D01*
X20564317Y70945529D01*
X20768826Y71178286D01*
X21014572Y71403105D01*
X21284361Y71606153D01*
X21560998Y71773602D01*
X21827290Y71891620D01*
X21907635Y71916721D01*
X22196812Y71970209D01*
X22535618Y71990075D01*
X22905007Y71978736D01*
X23285932Y71938611D01*
X23659348Y71872117D01*
X24006207Y71781673D01*
X24307464Y71669698D01*
X24459100Y71592781D01*
X24664797Y71453282D01*
X24868957Y71270846D01*
X25084655Y71033225D01*
X25175801Y70921605D01*
X25447295Y70528772D01*
X25645750Y70119372D01*
X25776161Y69681226D01*
X25833191Y69318132D01*
X25846712Y68817912D01*
X25784338Y68323263D01*
X25648312Y67838303D01*
X25440880Y67367149D01*
X25164286Y66913916D01*
X24820775Y66482722D01*
X24412590Y66077684D01*
X23941977Y65702917D01*
X23813190Y65613325D01*
X23486971Y65400168D01*
X23197031Y65229991D01*
X22921982Y65093027D01*
X22640434Y64979507D01*
X22330999Y64879662D01*
X22026608Y64797370D01*
X21648627Y64706168D01*
X21303529Y64634164D01*
X20972860Y64579140D01*
X20638165Y64538878D01*
X20280988Y64511160D01*
X19882874Y64493767D01*
X19425370Y64484483D01*
X19423077Y64484455D01*
X19079950Y64481159D01*
X18801485Y64480773D01*
X18574226Y64483829D01*
X18384716Y64490862D01*
X18219499Y64502405D01*
X18065121Y64518990D01*
X17908123Y64541152D01*
X17879539Y64545617D01*
X17021161Y64699147D01*
X16224754Y64880524D01*
X15477611Y65094531D01*
X14767029Y65345955D01*
X14080302Y65639582D01*
X13404727Y65980196D01*
X12727597Y66372584D01*
X12291539Y66650467D01*
X11591099Y67150792D01*
X10914196Y67711465D01*
X10270649Y68322158D01*
X9670275Y68972543D01*
X9122894Y69652293D01*
X8638323Y70351079D01*
X8399278Y70744747D01*
X7943172Y71600442D01*
X7561034Y72454993D01*
X7253658Y73306117D01*
X7021840Y74151532D01*
X6866375Y74988955D01*
X6835158Y75234615D01*
X6813515Y75488764D01*
X6798143Y75802369D01*
X6788942Y76157771D01*
X6785813Y76537306D01*
X6788654Y76923316D01*
X6797366Y77298138D01*
X6811848Y77644112D01*
X6832000Y77943576D01*
X6851613Y78133686D01*
X6922528Y78595102D01*
X7022326Y79104476D01*
X7145438Y79640239D01*
X7286295Y80180822D01*
X7439329Y80704656D01*
X7598972Y81190173D01*
X7734583Y81553812D01*
X8065054Y82330246D01*
X8415298Y83046469D01*
X8794534Y83716642D01*
X9211978Y84354926D01*
X9676847Y84975484D01*
X10198357Y85592475D01*
X10743297Y86176542D01*
X11045294Y86481969D01*
X11312930Y86739861D01*
X11561363Y86963144D01*
X11805753Y87164746D01*
X12061258Y87357595D01*
X12343036Y87554618D01*
X12420050Y87606501D01*
X12659723Y87763462D01*
X12840439Y87872807D01*
X12965062Y87934731D01*
X13036458Y87949431D01*
X13057493Y87917102D01*
X13031031Y87837939D01*
X12959938Y87712138D01*
X12914055Y87640221D01*
X12816010Y87481226D01*
X12713068Y87300836D01*
X12655328Y87192154D01*
X12599596Y87097422D01*
X12518165Y86985250D01*
X12404792Y86848443D01*
X12253235Y86679808D01*
X12057251Y86472149D01*
X11810597Y86218273D01*
X11807612Y86215231D01*
X11411097Y85805944D01*
X11065712Y85437574D01*
X10763129Y85100310D01*
X10495023Y84784344D01*
X10253066Y84479867D01*
X10028932Y84177070D01*
X9817283Y83870615D01*
X9318168Y83056650D01*
X8874710Y82192184D01*
X8490441Y81284951D01*
X8168897Y80342686D01*
X8103614Y80119812D01*
X7925527Y79447091D01*
X7787977Y78819760D01*
X7688083Y78218223D01*
X7622966Y77622885D01*
X7589748Y77014150D01*
X7583911Y76582769D01*
X7592764Y76090606D01*
X7617288Y75626861D01*
X7656362Y75200609D01*
X7708865Y74820922D01*
X7773676Y74496873D01*
X7849676Y74237535D01*
X7884349Y74150798D01*
X7960671Y73991848D01*
X8021130Y73901085D01*
X8072610Y73871924D01*
X8121995Y73897781D01*
X8134431Y73911599D01*
X8148723Y73941829D01*
X8160385Y73999264D01*
X8169659Y74090794D01*
X8176785Y74223308D01*
X8182003Y74403698D01*
X8185556Y74638851D01*
X8187682Y74935658D01*
X8188623Y75301008D01*
X8188721Y75465389D01*
X8189679Y75905982D01*
X8192967Y76281180D01*
X8199458Y76603725D01*
X8210025Y76886361D01*
X8225541Y77141834D01*
X8246878Y77382885D01*
X8274910Y77622261D01*
X8310509Y77872703D01*
X8354547Y78146958D01*
X8384386Y78322454D01*
X8460356Y78701213D01*
X8564014Y79127795D01*
X8688752Y79580235D01*
X8827965Y80036569D01*
X8975045Y80474833D01*
X9123387Y80873062D01*
X9225310Y81118222D01*
X9569648Y81846883D01*
X9937391Y82513151D01*
X10338005Y83129698D01*
X10780958Y83709195D01*
X11275718Y84264314D01*
X11831751Y84807726D01*
X12272000Y85196003D01*
X12431844Y85333634D01*
X12571184Y85457246D01*
X12678595Y85556424D01*
X12742649Y85620751D01*
X12754398Y85635750D01*
X12779454Y85701055D01*
X12814378Y85818197D01*
X12833905Y85893364D01*
X13605772Y85893364D01*
X13654783Y85644256D01*
X13757181Y85413963D01*
X13894445Y85236527D01*
X14002282Y85142689D01*
X14131206Y85052082D01*
X14266438Y84972144D01*
X14393202Y84910311D01*
X14496721Y84874022D01*
X14562218Y84870712D01*
X14577539Y84892718D01*
X14560142Y84934969D01*
X14512566Y85032266D01*
X14441732Y85170870D01*
X14354560Y85337041D01*
X14338676Y85366926D01*
X14240449Y85553614D01*
X14174331Y85688660D01*
X14134735Y85788883D01*
X14116072Y85871101D01*
X14112753Y85952132D01*
X14117748Y86031752D01*
X14161063Y86222935D01*
X14249944Y86353172D01*
X14377703Y86419637D01*
X14537652Y86419502D01*
X14723105Y86349940D01*
X14784811Y86313784D01*
X14889927Y86250628D01*
X14945737Y86229236D01*
X14966442Y86245822D01*
X14968090Y86264937D01*
X14933003Y86456040D01*
X14838390Y86641628D01*
X14751596Y86744502D01*
X14670968Y86817060D01*
X14599760Y86857565D01*
X14510237Y86875287D01*
X14374663Y86879499D01*
X14347634Y86879538D01*
X14194962Y86875111D01*
X14090235Y86856372D01*
X14003486Y86815134D01*
X13935292Y86766881D01*
X13774907Y86598045D01*
X13666249Y86385812D01*
X13609732Y86145734D01*
X13605772Y85893364D01*
X12833905Y85893364D01*
X12851933Y85962758D01*
X12854685Y85974152D01*
X12959802Y86310722D01*
X13111465Y86657897D01*
X13297635Y86994259D01*
X13506278Y87298390D01*
X13725356Y87548874D01*
X13756383Y87578636D01*
X14121376Y87867801D01*
X14526548Y88094543D01*
X14963016Y88257272D01*
X15421897Y88354401D01*
X15894308Y88384341D01*
X16371366Y88345505D01*
X16844188Y88236304D01*
X17045532Y88166728D01*
X17371059Y88013895D01*
X17684872Y87813310D01*
X17974417Y87576757D01*
X18227142Y87316018D01*
X18430492Y87042876D01*
X18571914Y86769113D01*
X18591562Y86715619D01*
X18653475Y86533914D01*
X18540522Y86443849D01*
X18411154Y86349707D01*
X18303630Y86302486D01*
X18194049Y86300344D01*
X18058510Y86341439D01*
X17931146Y86396898D01*
X17758872Y86469685D01*
X17618464Y86509620D01*
X17475337Y86524988D01*
X17391925Y86526047D01*
X17126080Y86490766D01*
X16897166Y86395490D01*
X16711642Y86250093D01*
X16575971Y86064446D01*
X16496610Y85848422D01*
X16480022Y85611894D01*
X16532667Y85364735D01*
X16571281Y85271946D01*
X16652168Y85141603D01*
X16781557Y84981100D01*
X16945592Y84807388D01*
X16972923Y84780665D01*
X17284427Y84479329D01*
X17176349Y84253126D01*
X17088732Y84032444D01*
X17049940Y83844076D01*
X17061342Y83697985D01*
X17091538Y83636489D01*
X17117376Y83608423D01*
X17154258Y83588078D01*
X17213870Y83574255D01*
X17307897Y83565757D01*
X17448027Y83561384D01*
X17645944Y83559939D01*
X17837144Y83560052D01*
X18083604Y83560252D01*
X18262271Y83558891D01*
X18383506Y83554743D01*
X18457668Y83546582D01*
X18495119Y83533181D01*
X18506219Y83513313D01*
X18501327Y83485752D01*
X18500064Y83481563D01*
X18468211Y83403443D01*
X18419010Y83352284D01*
X18335689Y83320334D01*
X18201475Y83299838D01*
X18084344Y83289405D01*
X17815996Y83282912D01*
X17545671Y83301801D01*
X17305957Y83343200D01*
X17227673Y83364868D01*
X17176220Y83376971D01*
X17175861Y83353260D01*
X17211566Y83295539D01*
X17310715Y83194746D01*
X17464065Y83097142D01*
X17648274Y83015638D01*
X17796598Y82971944D01*
X17988354Y82928756D01*
X17714108Y82784644D01*
X17315854Y82618087D01*
X16890172Y82518743D01*
X16455692Y82490687D01*
X16381596Y82493335D01*
X16186150Y82498897D01*
X16060427Y82489219D01*
X15996814Y82460333D01*
X15987698Y82408272D01*
X16025465Y82329069D01*
X16035700Y82313078D01*
X16150327Y82202657D01*
X16324878Y82116515D01*
X16543908Y82058261D01*
X16791968Y82031507D01*
X17053612Y82039864D01*
X17150361Y82052512D01*
X17558253Y82148848D01*
X17929981Y82298955D01*
X18259631Y82496932D01*
X18541286Y82736873D01*
X18769031Y83012875D01*
X18936951Y83319035D01*
X19039129Y83649448D01*
X19069989Y83968308D01*
X19063169Y84122759D01*
X19046381Y84271616D01*
X19035444Y84329977D01*
X19019483Y84404617D01*
X19020612Y84457492D01*
X19050459Y84498559D01*
X19120650Y84537773D01*
X19242813Y84585091D01*
X19396661Y84639281D01*
X19656243Y84741697D01*
X19946146Y84878580D01*
X20272164Y85053190D01*
X20640087Y85268786D01*
X21055708Y85528626D01*
X21524818Y85835971D01*
X21533075Y85841482D01*
X21989105Y86148855D01*
X22397484Y86430875D01*
X22777955Y86701770D01*
X23150259Y86975763D01*
X23534137Y87267080D01*
X23831208Y87497438D01*
X24264619Y87824454D01*
X24657988Y88095213D01*
X25020530Y88314137D01*
X25361458Y88485649D01*
X25689985Y88614173D01*
X26015323Y88704131D01*
X26346687Y88759946D01*
X26491189Y88774378D01*
X26932425Y88788029D01*
X27332446Y88755211D01*
G37*
G36*
X31220725Y72893240D02*
G01*
X31324678Y72852058D01*
X31438561Y72797560D01*
X31539233Y72741312D01*
X31603550Y72694882D01*
X31615077Y72677002D01*
X31599987Y72629129D01*
X31554601Y72511395D01*
X31478741Y72323364D01*
X31372231Y72064601D01*
X31234896Y71734671D01*
X31191892Y71631861D01*
X30955708Y71124982D01*
X30662195Y70589439D01*
X30320491Y70037678D01*
X29939737Y69482146D01*
X29529071Y68935288D01*
X29097632Y68409551D01*
X28654559Y67917382D01*
X28208990Y67471225D01*
X27989300Y67270328D01*
X27752499Y67068363D01*
X27471785Y66840781D01*
X27166598Y66602448D01*
X26856379Y66368231D01*
X26560568Y66152996D01*
X26298606Y65971610D01*
X26242000Y65934156D01*
X25964946Y65762835D01*
X25662079Y65592805D01*
X25344875Y65429079D01*
X25024815Y65276668D01*
X24713374Y65140581D01*
X24422032Y65025830D01*
X24162267Y64937426D01*
X23945555Y64880379D01*
X23783376Y64859700D01*
X23780780Y64859692D01*
X23675676Y64866082D01*
X23612513Y64882253D01*
X23604308Y64891957D01*
X23626223Y64935388D01*
X23695643Y65003541D01*
X23818075Y65100963D01*
X23999029Y65232203D01*
X24112308Y65311326D01*
X24260699Y65416277D01*
X24451341Y65554389D01*
X24664515Y65711203D01*
X24880500Y65872257D01*
X24991539Y65956036D01*
X25198489Y66111188D01*
X25411214Y66267643D01*
X25610736Y66411643D01*
X25778079Y66529433D01*
X25851231Y66579200D01*
X26438694Y66997455D01*
X27030332Y67469040D01*
X27609437Y67978694D01*
X28159300Y68511157D01*
X28663212Y69051167D01*
X29012785Y69466757D01*
X29324736Y69881649D01*
X29639162Y70344341D01*
X29942494Y70832528D01*
X30221163Y71323903D01*
X30461599Y71796161D01*
X30558937Y72008354D01*
X30676708Y72258900D01*
X30796009Y72481883D01*
X30910576Y72667752D01*
X31014146Y72806954D01*
X31100457Y72889939D01*
X31149847Y72909538D01*
X31220725Y72893240D01*
G37*
G36*
X23099092Y69885736D02*
G01*
X23358121Y69762310D01*
X23515764Y69646443D01*
X23667844Y69467505D01*
X23762239Y69249352D01*
X23799397Y69005009D01*
X23779764Y68747498D01*
X23703788Y68489842D01*
X23571916Y68245066D01*
X23462891Y68106162D01*
X23252213Y67917958D01*
X23007027Y67774720D01*
X22744313Y67681993D01*
X22481054Y67645325D01*
X22234233Y67670263D01*
X22178000Y67686470D01*
X21877582Y67815665D01*
X21638780Y67986503D01*
X21453246Y68205802D01*
X21374263Y68342807D01*
X21287803Y68547857D01*
X21259670Y68718511D01*
X21290766Y68873387D01*
X21381994Y69031105D01*
X21409370Y69066954D01*
X21421272Y69080579D01*
X22111827Y69080579D01*
X22139182Y68860066D01*
X22197612Y68702613D01*
X22300131Y68594136D01*
X22430412Y68540998D01*
X22572131Y68549560D01*
X22708961Y68626184D01*
X22718130Y68634443D01*
X22841230Y68789605D01*
X22887122Y68954902D01*
X22877874Y69056908D01*
X22808296Y69238547D01*
X22690996Y69359245D01*
X22522825Y69421440D01*
X22393876Y69431692D01*
X22257255Y69413441D01*
X22166900Y69353762D01*
X22119521Y69245270D01*
X22111827Y69080579D01*
X21421272Y69080579D01*
X21571618Y69252694D01*
X21762827Y69441065D01*
X21963836Y69615376D01*
X22155485Y69758935D01*
X22308369Y69850140D01*
X22561078Y69931867D01*
X22829031Y69942993D01*
X23099092Y69885736D01*
G37*
G36*
X14866315Y77346570D02*
G01*
X14968584Y77299032D01*
X15103428Y77230201D01*
X15177764Y77190323D01*
X15673478Y76962493D01*
X16205660Y76800134D01*
X16776881Y76702717D01*
X17389712Y76669717D01*
X17684154Y76675929D01*
X17898301Y76686295D01*
X18091505Y76697789D01*
X18247030Y76709259D01*
X18348140Y76719551D01*
X18370183Y76723208D01*
X18414457Y76728286D01*
X18452473Y76713885D01*
X18492551Y76668834D01*
X18543012Y76581960D01*
X18612179Y76442090D01*
X18668928Y76322105D01*
X18789409Y76058413D01*
X18901487Y75796121D01*
X19008569Y75525233D01*
X19114055Y75235754D01*
X19221351Y74917686D01*
X19333859Y74561033D01*
X19454983Y74155799D01*
X19588126Y73691988D01*
X19697743Y73300308D01*
X19752182Y73112115D01*
X19805491Y72941686D01*
X19851176Y72808994D01*
X19880265Y72738630D01*
X19923288Y72669302D01*
X19975055Y72641556D01*
X20064661Y72644039D01*
X20108251Y72649661D01*
X20200157Y72671218D01*
X20349085Y72716476D01*
X20539440Y72780243D01*
X20755627Y72857330D01*
X20942315Y72927253D01*
X21228247Y73035531D01*
X21455096Y73117688D01*
X21636088Y73177251D01*
X21784453Y73217748D01*
X21913417Y73242704D01*
X22036209Y73255646D01*
X22166057Y73260102D01*
X22191400Y73260275D01*
X22381059Y73249566D01*
X22610154Y73219494D01*
X22853906Y73175013D01*
X23087538Y73121079D01*
X23286272Y73062643D01*
X23396455Y73019343D01*
X23526677Y72940710D01*
X23673019Y72824854D01*
X23822445Y72685693D01*
X23961918Y72537146D01*
X24078403Y72393132D01*
X24158864Y72267570D01*
X24190265Y72174379D01*
X24190316Y72171701D01*
X24158839Y72134835D01*
X24075218Y72130305D01*
X23956107Y72153368D01*
X23818159Y72199283D01*
X23678030Y72263308D01*
X23552374Y72340701D01*
X23526154Y72360792D01*
X23434872Y72407902D01*
X23287823Y72455768D01*
X23107186Y72499440D01*
X22915138Y72533967D01*
X22733859Y72554398D01*
X22643405Y72557839D01*
X22461757Y72540558D01*
X22240050Y72494076D01*
X22006920Y72426455D01*
X21791008Y72345758D01*
X21653324Y72279121D01*
X21555136Y72221508D01*
X21404526Y72129893D01*
X21214816Y72012534D01*
X20999327Y71877687D01*
X20771379Y71733611D01*
X20697812Y71686799D01*
X20475165Y71546631D01*
X20266362Y71418433D01*
X20083164Y71309173D01*
X19937333Y71225819D01*
X19840632Y71175338D01*
X19818582Y71165995D01*
X19658069Y71129642D01*
X19469120Y71117139D01*
X19285113Y71128418D01*
X19139422Y71163408D01*
X19130000Y71167418D01*
X18985247Y71259812D01*
X18814719Y71416649D01*
X18624914Y71631192D01*
X18422332Y71896705D01*
X18410647Y71913077D01*
X18288258Y72079729D01*
X18161668Y72243125D01*
X18049325Y72379836D01*
X17995207Y72440615D01*
X17829914Y72616461D01*
X17809603Y73026769D01*
X17758977Y73526369D01*
X17657843Y73968495D01*
X17503651Y74357384D01*
X17293847Y74697274D01*
X17025880Y74992402D01*
X16697196Y75247006D01*
X16355539Y75440982D01*
X16101803Y75555820D01*
X15862240Y75639068D01*
X15616176Y75694919D01*
X15342937Y75727571D01*
X15021849Y75741217D01*
X14870616Y75742292D01*
X14535587Y75735775D01*
X14242239Y75713818D01*
X13963850Y75672206D01*
X13673698Y75606726D01*
X13345061Y75513163D01*
X13269397Y75489783D01*
X13017857Y75414623D01*
X12834372Y75367767D01*
X12714518Y75348282D01*
X12653872Y75355232D01*
X12649403Y75358700D01*
X12641821Y75395720D01*
X12671367Y75460099D01*
X12741882Y75556414D01*
X12857205Y75689241D01*
X13021177Y75863158D01*
X13237637Y76082742D01*
X13353728Y76198204D01*
X13688021Y76519101D01*
X13991393Y76789789D01*
X14257815Y77005001D01*
X14371024Y77087204D01*
X14527168Y77193249D01*
X14662154Y77280549D01*
X14762101Y77340430D01*
X14813132Y77364217D01*
X14814393Y77364308D01*
X14866315Y77346570D01*
G37*
G36*
X32629060Y74556485D02*
G01*
X32801970Y74465436D01*
X32937648Y74330252D01*
X33027039Y74164488D01*
X33061086Y73981696D01*
X33030732Y73795428D01*
X33002349Y73730233D01*
X32883118Y73574593D01*
X32719541Y73461843D01*
X32532074Y73399732D01*
X32341174Y73396006D01*
X32216046Y73432469D01*
X32115932Y73498796D01*
X32011982Y73598460D01*
X31981584Y73635308D01*
X31915400Y73735035D01*
X31881734Y73831968D01*
X31870746Y73960191D01*
X31870446Y74020316D01*
X31897868Y74245845D01*
X31961250Y74378721D01*
X32592000Y74378721D01*
X32607062Y74318100D01*
X32643881Y74218285D01*
X32689907Y74110302D01*
X32732593Y74025180D01*
X32739732Y74013461D01*
X32804071Y73939030D01*
X32857950Y73940818D01*
X32909897Y74019231D01*
X32910996Y74021630D01*
X32924834Y74135670D01*
X32871420Y74243353D01*
X32760963Y74327951D01*
X32711310Y74348804D01*
X32630086Y74373977D01*
X32592337Y74379483D01*
X32592000Y74378721D01*
X31961250Y74378721D01*
X31977986Y74413807D01*
X32111981Y74525411D01*
X32301038Y74581866D01*
X32427973Y74589846D01*
X32629060Y74556485D01*
G37*
G36*
X29743450Y74847222D02*
G01*
X29773924Y74782821D01*
X29777863Y74724777D01*
X29804923Y74654191D01*
X29873861Y74558044D01*
X29935623Y74491320D01*
X30076500Y74319920D01*
X30141879Y74150779D01*
X30133786Y73976241D01*
X30098653Y73874948D01*
X30019514Y73740312D01*
X29914981Y73620061D01*
X29804253Y73532486D01*
X29706529Y73495874D01*
X29700506Y73495692D01*
X29609438Y73488241D01*
X29576504Y73481641D01*
X29499187Y73477451D01*
X29427281Y73485572D01*
X29252073Y73555104D01*
X29115459Y73684221D01*
X29027175Y73859878D01*
X28996923Y74062308D01*
X29023633Y74265195D01*
X29110054Y74435299D01*
X29153385Y74479485D01*
X29720804Y74479485D01*
X29740983Y74395097D01*
X29783558Y74276881D01*
X29839837Y74149502D01*
X29902398Y74047762D01*
X29953054Y74022570D01*
X29989002Y74073595D01*
X30005297Y74169167D01*
X30003213Y74268316D01*
X29964578Y74340471D01*
X29884378Y74410377D01*
X29797695Y74472765D01*
X29738652Y74508446D01*
X29728655Y74511692D01*
X29720804Y74479485D01*
X29153385Y74479485D01*
X29254582Y74582678D01*
X29335039Y74662056D01*
X29377262Y74729975D01*
X29378848Y74752271D01*
X29399427Y74795486D01*
X29494347Y74833942D01*
X29540452Y74845413D01*
X29670489Y74865616D01*
X29743450Y74847222D01*
G37*
G36*
X26731049Y74750389D02*
G01*
X26739291Y74748569D01*
X26959418Y74661387D01*
X27142524Y74514490D01*
X27274142Y74321649D01*
X27321039Y74194742D01*
X27347035Y74073718D01*
X27342218Y73984783D01*
X27302804Y73886695D01*
X27290560Y73862588D01*
X27163118Y73687159D01*
X26995466Y73578568D01*
X26785634Y73535627D01*
X26747219Y73534769D01*
X26603766Y73544125D01*
X26500129Y73580032D01*
X26415531Y73640406D01*
X26268886Y73806465D01*
X26195635Y73991215D01*
X26195351Y74187696D01*
X26267604Y74388945D01*
X26310189Y74447664D01*
X26895806Y74447664D01*
X26921021Y74355065D01*
X26964800Y74245069D01*
X27018140Y74143513D01*
X27025205Y74132434D01*
X27092472Y74056502D01*
X27149810Y74056208D01*
X27198015Y74118364D01*
X27217139Y74228984D01*
X27171346Y74342221D01*
X27070313Y74437373D01*
X27041124Y74454087D01*
X26954753Y74490920D01*
X26901722Y74499104D01*
X26898158Y74497030D01*
X26895806Y74447664D01*
X26310189Y74447664D01*
X26411966Y74588003D01*
X26478026Y74654535D01*
X26569467Y74730807D01*
X26643019Y74758875D01*
X26731049Y74750389D01*
G37*
G36*
X24130926Y74735794D02*
G01*
X24212001Y74683363D01*
X24377225Y74518431D01*
X24475680Y74332739D01*
X24504837Y74137415D01*
X24462168Y73943587D01*
X24404264Y73837341D01*
X24265793Y73690686D01*
X24097385Y73599585D01*
X23916327Y73567528D01*
X23739907Y73598004D01*
X23605902Y73676193D01*
X23457723Y73841547D01*
X23382102Y74030498D01*
X23369846Y74160000D01*
X23394200Y74340390D01*
X23449703Y74450323D01*
X24078078Y74450323D01*
X24086874Y74394629D01*
X24120568Y74288843D01*
X24172594Y74184660D01*
X24228254Y74107416D01*
X24268325Y74081846D01*
X24315325Y74108376D01*
X24346348Y74139954D01*
X24378205Y74231954D01*
X24356074Y74339016D01*
X24293340Y74436588D01*
X24203385Y74500117D01*
X24143709Y74511692D01*
X24089476Y74500104D01*
X24078078Y74450323D01*
X23449703Y74450323D01*
X23474032Y74498511D01*
X23619500Y74654278D01*
X23623970Y74658231D01*
X23789286Y74761620D01*
X23959740Y74787538D01*
X24130926Y74735794D01*
G37*
G36*
X26886769Y74804769D02*
G01*
X26867231Y74785231D01*
X26847692Y74804769D01*
X26867231Y74824308D01*
X26886769Y74804769D01*
G37*
G36*
X32307231Y77148658D02*
G01*
X32383788Y77106542D01*
X32500145Y77022732D01*
X32591231Y76922630D01*
X32678185Y76781258D01*
X32709231Y76721967D01*
X32777574Y76580909D01*
X32818300Y76468279D01*
X32838311Y76353279D01*
X32844508Y76205113D01*
X32844622Y76117786D01*
X32835927Y75903730D01*
X32805132Y75737521D01*
X32742126Y75589780D01*
X32636796Y75431125D01*
X32585158Y75363883D01*
X32415042Y75189332D01*
X32236881Y75091212D01*
X32046106Y75067880D01*
X31869077Y75106160D01*
X31693673Y75199754D01*
X31520003Y75348058D01*
X31370490Y75530419D01*
X31320871Y75611152D01*
X31265448Y75718282D01*
X31231078Y75812068D01*
X31212819Y75917227D01*
X31205730Y76058478D01*
X31204863Y76178944D01*
X31828866Y76178944D01*
X31831461Y76116766D01*
X31867435Y76052253D01*
X31958320Y75974043D01*
X32074796Y75964855D01*
X32192536Y76018370D01*
X32262915Y76105123D01*
X32271868Y76205983D01*
X32227954Y76300264D01*
X32139730Y76367282D01*
X32039870Y76387384D01*
X31946984Y76365958D01*
X31879461Y76289080D01*
X31867537Y76267176D01*
X31828866Y76178944D01*
X31204863Y76178944D01*
X31204769Y76192000D01*
X31206825Y76371957D01*
X31216405Y76498527D01*
X31238630Y76596438D01*
X31278622Y76690422D01*
X31326145Y76778154D01*
X31480803Y76988524D01*
X31665296Y77133571D01*
X31870569Y77210484D01*
X32087566Y77216450D01*
X32307231Y77148658D01*
G37*
G36*
X33231118Y77240908D02*
G01*
X33305286Y77225898D01*
X33361623Y77194917D01*
X33420210Y77143821D01*
X33422242Y77141906D01*
X33495298Y77052428D01*
X33580663Y76917603D01*
X33661383Y76764551D01*
X33671002Y76743968D01*
X33742062Y76577606D01*
X33782328Y76442592D01*
X33800000Y76302544D01*
X33803385Y76156711D01*
X33798328Y75983725D01*
X33777354Y75849542D01*
X33731760Y75716386D01*
X33671704Y75585205D01*
X33573828Y75397687D01*
X33483809Y75270919D01*
X33384659Y75191554D01*
X33259389Y75146241D01*
X33091011Y75121633D01*
X33080462Y75120642D01*
X32914345Y75104102D01*
X32754968Y75086216D01*
X32650616Y75072750D01*
X32494308Y75050076D01*
X32654270Y75200961D01*
X32770985Y75328249D01*
X32884498Y75478920D01*
X32927809Y75547231D01*
X32980539Y75644210D01*
X33013867Y75730427D01*
X33032187Y75828556D01*
X33039893Y75961274D01*
X33041385Y76133384D01*
X33037975Y76322484D01*
X33028841Y76502239D01*
X33015621Y76645058D01*
X33008097Y76693457D01*
X32974810Y76862760D01*
X33271957Y76849765D01*
X33412983Y76847248D01*
X33517755Y76852334D01*
X33567371Y76863924D01*
X33569014Y76867044D01*
X33532483Y76908783D01*
X33433684Y76942955D01*
X33288411Y76965787D01*
X33123287Y76973538D01*
X32972368Y76979450D01*
X32866724Y77003182D01*
X32773977Y77053730D01*
X32736486Y77081000D01*
X32651515Y77149162D01*
X32600197Y77197435D01*
X32593459Y77208000D01*
X32629005Y77217765D01*
X32725471Y77227688D01*
X32865642Y77236240D01*
X32948967Y77239599D01*
X33119039Y77244093D01*
X33231118Y77240908D01*
G37*
G36*
X26512996Y77224814D02*
G01*
X26707640Y77141278D01*
X26880506Y77001203D01*
X27023226Y76811772D01*
X27127435Y76580166D01*
X27184767Y76313566D01*
X27190279Y76250615D01*
X27189499Y75983979D01*
X27144906Y75767128D01*
X27051110Y75581794D01*
X26959279Y75467479D01*
X26821765Y75341697D01*
X26666562Y75235939D01*
X26516452Y75163532D01*
X26395740Y75137781D01*
X26313737Y75154108D01*
X26200803Y75193851D01*
X26163846Y75209827D01*
X25958581Y75344148D01*
X25789926Y75535101D01*
X25663718Y75767476D01*
X25585794Y76026065D01*
X25568417Y76222871D01*
X26150306Y76222871D01*
X26168022Y76118666D01*
X26223984Y76043061D01*
X26311689Y75971860D01*
X26395621Y75968118D01*
X26487305Y76018370D01*
X26559956Y76109346D01*
X26563967Y76221028D01*
X26498953Y76336048D01*
X26494478Y76340939D01*
X26390132Y76414145D01*
X26289651Y76412408D01*
X26205139Y76339613D01*
X26150306Y76222871D01*
X25568417Y76222871D01*
X25561990Y76295659D01*
X25598142Y76561050D01*
X25618890Y76629867D01*
X25700676Y76801266D01*
X25819840Y76967961D01*
X25956709Y77106506D01*
X26091608Y77193451D01*
X26091835Y77193546D01*
X26304939Y77244631D01*
X26512996Y77224814D01*
G37*
G36*
X27981975Y76835502D02*
G01*
X28009842Y76776987D01*
X28046996Y76667135D01*
X28082047Y76542272D01*
X28126488Y76254927D01*
X28105856Y75978403D01*
X28017583Y75699583D01*
X27859528Y75406023D01*
X27745156Y75225738D01*
X27442963Y75199565D01*
X27275828Y75183713D01*
X27120628Y75166651D01*
X27009254Y75151902D01*
X27004000Y75151060D01*
X26867231Y75128730D01*
X27013808Y75252934D01*
X27200324Y75460473D01*
X27334466Y75717122D01*
X27390890Y75910616D01*
X27422238Y76117603D01*
X27430987Y76312562D01*
X27417622Y76475617D01*
X27393449Y76552494D01*
X27493335Y76552494D01*
X27565705Y76545747D01*
X27698566Y76543692D01*
X27828330Y76549576D01*
X27924282Y76564865D01*
X27961148Y76582386D01*
X27940628Y76601748D01*
X27848049Y76604698D01*
X27738762Y76596455D01*
X27580211Y76578305D01*
X27498286Y76563499D01*
X27493335Y76552494D01*
X27393449Y76552494D01*
X27382632Y76586895D01*
X27373988Y76600007D01*
X27329156Y76674954D01*
X27316666Y76717238D01*
X27352038Y76746770D01*
X27443599Y76778422D01*
X27569612Y76808331D01*
X27708341Y76832632D01*
X27838051Y76847462D01*
X27937004Y76848957D01*
X27981975Y76835502D01*
G37*
G36*
X29393202Y77178449D02*
G01*
X29584047Y77081475D01*
X29586014Y77080153D01*
X29757628Y76919875D01*
X29885526Y76709705D01*
X29967843Y76465754D01*
X30002715Y76204135D01*
X29988276Y75940961D01*
X29922661Y75692341D01*
X29804006Y75474390D01*
X29776024Y75438635D01*
X29608147Y75283143D01*
X29415350Y75181528D01*
X29213949Y75138028D01*
X29020259Y75156884D01*
X28896838Y75210163D01*
X28711478Y75362724D01*
X28553698Y75567767D01*
X28433509Y75804557D01*
X28360919Y76052357D01*
X28353798Y76165528D01*
X28959089Y76165528D01*
X28987379Y76083418D01*
X29057486Y76002109D01*
X29060808Y75999451D01*
X29144682Y75938535D01*
X29201182Y75924257D01*
X29263068Y75953334D01*
X29295974Y75975881D01*
X29382905Y76073536D01*
X29394191Y76186376D01*
X29341999Y76289228D01*
X29241334Y76368555D01*
X29132294Y76383384D01*
X29035720Y76340445D01*
X28972451Y76246471D01*
X28959089Y76165528D01*
X28353798Y76165528D01*
X28345939Y76290433D01*
X28351441Y76339929D01*
X28412245Y76580485D01*
X28515135Y76803025D01*
X28649585Y76993279D01*
X28805072Y77136981D01*
X28971072Y77219864D01*
X29006731Y77228291D01*
X29190662Y77229971D01*
X29393202Y77178449D01*
G37*
G36*
X30749997Y76823090D02*
G01*
X30810048Y76742428D01*
X30862003Y76612527D01*
X30900482Y76447824D01*
X30920105Y76262753D01*
X30921469Y76211538D01*
X30891839Y75910525D01*
X30794251Y75621170D01*
X30655643Y75375297D01*
X30604699Y75304374D01*
X30551502Y75253810D01*
X30481128Y75218530D01*
X30378655Y75193457D01*
X30229159Y75173515D01*
X30017719Y75153627D01*
X29999273Y75152024D01*
X29692546Y75125440D01*
X29885171Y75318065D01*
X30004534Y75450053D01*
X30081139Y75574741D01*
X30136639Y75729087D01*
X30146321Y75763842D01*
X30178825Y75936893D01*
X30196575Y76144088D01*
X30199359Y76358710D01*
X30186965Y76554043D01*
X30179714Y76593016D01*
X30266923Y76593016D01*
X30538508Y76587893D01*
X30678490Y76589681D01*
X30759655Y76600477D01*
X30772969Y76618444D01*
X30714804Y76633563D01*
X30602452Y76633353D01*
X30501385Y76623567D01*
X30266923Y76593016D01*
X30179714Y76593016D01*
X30159181Y76703372D01*
X30153892Y76719538D01*
X30145229Y76762294D01*
X30167762Y76787078D01*
X30237022Y76800183D01*
X30368541Y76807903D01*
X30372403Y76808066D01*
X30513665Y76816899D01*
X30630309Y76829290D01*
X30687229Y76840080D01*
X30749997Y76823090D01*
G37*
G36*
X25205524Y76873003D02*
G01*
X25241017Y76773788D01*
X25270906Y76634637D01*
X25291701Y76468238D01*
X25299897Y76289692D01*
X25298256Y76112529D01*
X25287328Y75985913D01*
X25261422Y75882322D01*
X25214849Y75774232D01*
X25178702Y75703538D01*
X25046388Y75481364D01*
X24921636Y75334689D01*
X24802463Y75261444D01*
X24745726Y75251738D01*
X24653746Y75246641D01*
X24514196Y75235595D01*
X24357216Y75220986D01*
X24356539Y75220918D01*
X24219511Y75211050D01*
X24118925Y75211183D01*
X24073988Y75221153D01*
X24073231Y75223334D01*
X24102536Y75253809D01*
X24107671Y75254154D01*
X24168017Y75285290D01*
X24252279Y75367102D01*
X24345975Y75482196D01*
X24434622Y75613178D01*
X24490115Y75713481D01*
X24539442Y75824832D01*
X24569639Y75929059D01*
X24585052Y76051427D01*
X24590025Y76217199D01*
X24590089Y76294692D01*
X24585096Y76473403D01*
X24572579Y76613121D01*
X24554269Y76697486D01*
X24545948Y76711837D01*
X24506986Y76771494D01*
X24514872Y76808833D01*
X24551923Y76807403D01*
X24628236Y76799141D01*
X24746767Y76806400D01*
X24882030Y76825073D01*
X25008536Y76851049D01*
X25100798Y76880221D01*
X25131697Y76900869D01*
X25167920Y76919593D01*
X25205524Y76873003D01*
G37*
G36*
X23744605Y77258488D02*
G01*
X23936028Y77177565D01*
X23986846Y77141364D01*
X24146833Y76966599D01*
X24270367Y76739835D01*
X24351890Y76480862D01*
X24385843Y76209469D01*
X24366667Y75945447D01*
X24346797Y75859943D01*
X24278069Y75704695D01*
X24165234Y75538717D01*
X24029980Y75389042D01*
X23894002Y75282703D01*
X23875312Y75272382D01*
X23702640Y75222981D01*
X23508269Y75231020D01*
X23325005Y75293837D01*
X23138643Y75432286D01*
X22978437Y75626932D01*
X22854533Y75857473D01*
X22777075Y76103609D01*
X22764370Y76250615D01*
X23330769Y76250615D01*
X23359398Y76171229D01*
X23427848Y76084004D01*
X23509964Y76016939D01*
X23568067Y75996615D01*
X23650834Y76023042D01*
X23721539Y76074769D01*
X23790234Y76188767D01*
X23784821Y76307772D01*
X23706444Y76415696D01*
X23696730Y76423625D01*
X23611462Y76479610D01*
X23545625Y76504534D01*
X23543259Y76504615D01*
X23484934Y76474588D01*
X23414355Y76403301D01*
X23355108Y76318948D01*
X23330769Y76250615D01*
X22764370Y76250615D01*
X22756209Y76345040D01*
X22763155Y76418083D01*
X22823990Y76661597D01*
X22926555Y76883562D01*
X23060445Y77068384D01*
X23215255Y77200470D01*
X23317740Y77249225D01*
X23529270Y77283864D01*
X23744605Y77258488D01*
G37*
G36*
X27630288Y77256780D02*
G01*
X27702395Y77245581D01*
X27707385Y77243505D01*
X27766520Y77191567D01*
X27830686Y77104178D01*
X27834828Y77097218D01*
X27903656Y76979517D01*
X27582730Y76966759D01*
X27419664Y76962412D01*
X27310492Y76968364D01*
X27231139Y76989484D01*
X27157533Y77030642D01*
X27113363Y77061707D01*
X27025443Y77132311D01*
X26972206Y77188200D01*
X26964923Y77204235D01*
X27000565Y77221802D01*
X27093763Y77237297D01*
X27223926Y77249631D01*
X27370462Y77257716D01*
X27512780Y77260462D01*
X27630288Y77256780D01*
G37*
G36*
X24991621Y77261177D02*
G01*
X25037330Y77216116D01*
X25075828Y77138772D01*
X25092618Y77064696D01*
X25084155Y77034250D01*
X25041083Y77024312D01*
X24940285Y77010574D01*
X24801922Y76995714D01*
X24773624Y76993037D01*
X24620293Y76980781D01*
X24521396Y76981547D01*
X24453736Y76999346D01*
X24394115Y77038186D01*
X24363317Y77063950D01*
X24295465Y77131084D01*
X24267767Y77176659D01*
X24269545Y77182811D01*
X24320211Y77200058D01*
X24426292Y77219222D01*
X24565173Y77237849D01*
X24714237Y77253484D01*
X24850868Y77263672D01*
X24952451Y77265960D01*
X24991621Y77261177D01*
G37*
G36*
X30470878Y77271434D02*
G01*
X30479214Y77268242D01*
X30519808Y77223133D01*
X30576415Y77138808D01*
X30587544Y77120202D01*
X30662032Y76993077D01*
X30344371Y76984787D01*
X30178299Y76983278D01*
X30065558Y76992413D01*
X29981548Y77016957D01*
X29901669Y77061673D01*
X29883048Y77074119D01*
X29796061Y77139817D01*
X29745005Y77191118D01*
X29739385Y77203802D01*
X29774992Y77219897D01*
X29868030Y77236850D01*
X29997817Y77252859D01*
X30143674Y77266123D01*
X30284923Y77274841D01*
X30400884Y77277211D01*
X30470878Y77271434D01*
G37*
G36*
X18190842Y84712016D02*
G01*
X18283798Y84619211D01*
X18338692Y84540875D01*
X18409464Y84404071D01*
X18442902Y84285592D01*
X18437235Y84200558D01*
X18390688Y84164090D01*
X18382941Y84163692D01*
X18321471Y84189811D01*
X18231454Y84256886D01*
X18168018Y84315403D01*
X18054147Y84460209D01*
X18016483Y84591395D01*
X18051105Y84705182D01*
X18110423Y84742304D01*
X18190842Y84712016D01*
G37*
G36*
X18614368Y84663520D02*
G01*
X18633659Y84629887D01*
X18637653Y84546810D01*
X18633817Y84450639D01*
X18619659Y84308619D01*
X18593480Y84232657D01*
X18563385Y84211944D01*
X18529342Y84221357D01*
X18511210Y84275859D01*
X18504953Y84390170D01*
X18504769Y84425710D01*
X18509017Y84557091D01*
X18525391Y84629054D01*
X18559334Y84660047D01*
X18575201Y84664405D01*
X18614368Y84663520D01*
G37*
G36*
X18634481Y85841676D02*
G01*
X18661596Y85826097D01*
X18663825Y85784356D01*
X18639865Y85703544D01*
X18588416Y85570753D01*
X18545590Y85465133D01*
X18478969Y85318235D01*
X18425188Y85242757D01*
X18378650Y85234170D01*
X18333757Y85287947D01*
X18331569Y85291979D01*
X18302889Y85384429D01*
X18289912Y85503012D01*
X18289846Y85511053D01*
X18321232Y85650953D01*
X18403124Y85765450D01*
X18517125Y85833701D01*
X18583780Y85844000D01*
X18634481Y85841676D01*
G37*
G36*
X17693004Y85946600D02*
G01*
X17827176Y85901812D01*
X17876501Y85874943D01*
X17971749Y85812748D01*
X18032964Y85760484D01*
X18042740Y85745822D01*
X18025493Y85694922D01*
X17966345Y85609806D01*
X17881500Y85508524D01*
X17787160Y85409127D01*
X17699529Y85329667D01*
X17634811Y85288194D01*
X17630883Y85286998D01*
X17545825Y85290026D01*
X17439373Y85323769D01*
X17429237Y85328506D01*
X17319835Y85407376D01*
X17225174Y85519034D01*
X17166285Y85635527D01*
X17156762Y85690650D01*
X17192390Y85783965D01*
X17286928Y85867126D01*
X17421186Y85927074D01*
X17536340Y85948941D01*
X17693004Y85946600D01*
G37*
G36*
X22299456Y87898108D02*
G01*
X22368846Y87884943D01*
X22374186Y87882745D01*
X22447994Y87817834D01*
X22506008Y87693677D01*
X22550832Y87503276D01*
X22573401Y87346730D01*
X22597179Y87149614D01*
X22309436Y86936422D01*
X22180376Y86841464D01*
X22075615Y86765622D01*
X22010558Y86719992D01*
X21997852Y86712028D01*
X21971031Y86738219D01*
X21928191Y86817485D01*
X21898272Y86885381D01*
X21822532Y87069937D01*
X20822583Y87059507D01*
X19822634Y87049077D01*
X19720548Y87182919D01*
X19636188Y87345385D01*
X19617777Y87512972D01*
X19665527Y87667192D01*
X19714288Y87733525D01*
X19763360Y87781390D01*
X19815357Y87811640D01*
X19888743Y87828298D01*
X20001982Y87835383D01*
X20173539Y87836919D01*
X20189007Y87836923D01*
X20345784Y87839028D01*
X20561821Y87844900D01*
X20818352Y87853870D01*
X21096611Y87865274D01*
X21377828Y87878443D01*
X21424964Y87880829D01*
X21745222Y87895664D01*
X21993692Y87903481D01*
X22176421Y87904292D01*
X22299456Y87898108D01*
G37*
G36*
X33359406Y88017880D02*
G01*
X33525935Y87945688D01*
X33664179Y87811430D01*
X33733312Y87690986D01*
X33779919Y87569985D01*
X33791128Y87477522D01*
X33770796Y87374555D01*
X33766148Y87358732D01*
X33678417Y87173597D01*
X33546841Y87030897D01*
X33386361Y86940620D01*
X33211916Y86912751D01*
X33119539Y86926532D01*
X33032616Y86963698D01*
X32933370Y87023925D01*
X32933361Y87023931D01*
X32889469Y87051064D01*
X32837720Y87070633D01*
X32765940Y87083611D01*
X32661956Y87090966D01*
X32513593Y87093669D01*
X32308680Y87092690D01*
X32103960Y87090026D01*
X31874196Y87087945D01*
X31671989Y87088547D01*
X31510067Y87091597D01*
X31401156Y87096859D01*
X31358168Y87103883D01*
X31336444Y87149793D01*
X31298626Y87252424D01*
X31251197Y87393679D01*
X31225997Y87472841D01*
X31184059Y87606933D01*
X33339695Y87606933D01*
X33372243Y87500332D01*
X33414053Y87433663D01*
X33497149Y87363642D01*
X33571472Y87364877D01*
X33624398Y87436722D01*
X33627046Y87444602D01*
X33627664Y87552140D01*
X33582448Y87671013D01*
X33514876Y87754978D01*
X33435488Y87792268D01*
X33376424Y87769175D01*
X33342791Y87701972D01*
X33339695Y87606933D01*
X31184059Y87606933D01*
X31118239Y87817384D01*
X31220120Y87846988D01*
X31290059Y87856048D01*
X31424125Y87863648D01*
X31608299Y87869362D01*
X31828560Y87872762D01*
X32070889Y87873422D01*
X32086564Y87873362D01*
X32351338Y87872730D01*
X32550262Y87874126D01*
X32695633Y87878669D01*
X32799750Y87887477D01*
X32874912Y87901669D01*
X32933415Y87922362D01*
X32987558Y87950675D01*
X32996878Y87956128D01*
X33178438Y88023022D01*
X33359406Y88017880D01*
G37*
G36*
X23350308Y87697657D02*
G01*
X23230893Y87593470D01*
X23098045Y87488478D01*
X22968884Y87394939D01*
X22860528Y87325113D01*
X22790095Y87291257D01*
X22780827Y87289846D01*
X22736632Y87316765D01*
X22717156Y87338692D01*
X22678056Y87406855D01*
X22630561Y87511562D01*
X22583651Y87629421D01*
X22546302Y87737043D01*
X22527494Y87811036D01*
X22528774Y87829492D01*
X22573011Y87837935D01*
X22679976Y87847100D01*
X22834262Y87855951D01*
X23020465Y87863454D01*
X23046925Y87864298D01*
X23545692Y87879720D01*
X23350308Y87697657D01*
G37*
D14*
%TO.C,A1*%
X18588000Y43740000D02*
X18588000Y41070000D01*
X18588000Y38530000D02*
X18588000Y300000D01*
X18588000Y300000D02*
X23668000Y300000D01*
X21258000Y41070000D02*
X18588000Y41070000D01*
X21258000Y38530000D02*
X18588000Y38530000D01*
X21258000Y38530000D02*
X21258000Y41070000D01*
X21258000Y38530000D02*
X21258000Y2970000D01*
X21258000Y2970000D02*
X18588000Y2970000D01*
X23668000Y8180000D02*
X31548000Y8180000D01*
X23668000Y-2240000D02*
X23668000Y8180000D01*
X31548000Y8180000D02*
X31548000Y-2240000D01*
X31548000Y-2240000D02*
X23668000Y-2240000D01*
X33958000Y41070000D02*
X33958000Y2970000D01*
X33958000Y41070000D02*
X36628000Y41070000D01*
X33958000Y2970000D02*
X36628000Y2970000D01*
X36628000Y43740000D02*
X18588000Y43740000D01*
X36628000Y300000D02*
X31548000Y300000D01*
X36628000Y300000D02*
X36628000Y43740000D01*
%TO.C,J2*%
X-6490000Y62780000D02*
X-6490000Y37260000D01*
X-6490000Y62780000D02*
X2140000Y62780000D01*
X-6490000Y62660000D02*
X2140000Y62660000D01*
X-6490000Y62541905D02*
X2140000Y62541905D01*
X-6490000Y62423810D02*
X2140000Y62423810D01*
X-6490000Y62305715D02*
X2140000Y62305715D01*
X-6490000Y62187620D02*
X2140000Y62187620D01*
X-6490000Y62069525D02*
X2140000Y62069525D01*
X-6490000Y61951430D02*
X2140000Y61951430D01*
X-6490000Y61833335D02*
X2140000Y61833335D01*
X-6490000Y61715240D02*
X2140000Y61715240D01*
X-6490000Y61597145D02*
X2140000Y61597145D01*
X-6490000Y61479050D02*
X2140000Y61479050D01*
X-6490000Y61360955D02*
X2140000Y61360955D01*
X-6490000Y61242860D02*
X2140000Y61242860D01*
X-6490000Y61124765D02*
X2140000Y61124765D01*
X-6490000Y61006670D02*
X2140000Y61006670D01*
X-6490000Y60888575D02*
X2140000Y60888575D01*
X-6490000Y60770480D02*
X2140000Y60770480D01*
X-6490000Y60652385D02*
X2140000Y60652385D01*
X-6490000Y60534290D02*
X2140000Y60534290D01*
X-6490000Y60416195D02*
X2140000Y60416195D01*
X-6490000Y60298100D02*
X2140000Y60298100D01*
X-6490000Y60180000D02*
X2140000Y60180000D01*
X-6490000Y57640000D02*
X2140000Y57640000D01*
X-6490000Y55100000D02*
X2140000Y55100000D01*
X-6490000Y52560000D02*
X2140000Y52560000D01*
X-6490000Y50020000D02*
X2140000Y50020000D01*
X-6490000Y47480000D02*
X2140000Y47480000D01*
X-6490000Y44940000D02*
X2140000Y44940000D01*
X-6490000Y42400000D02*
X2140000Y42400000D01*
X-6490000Y39860000D02*
X2140000Y39860000D01*
X-6490000Y37260000D02*
X2140000Y37260000D01*
X2140000Y62780000D02*
X2140000Y37260000D01*
X2140000Y61810000D02*
X2490000Y61810000D01*
X2140000Y61090000D02*
X2490000Y61090000D01*
X2140000Y59270000D02*
X2550000Y59270000D01*
X2140000Y58550000D02*
X2550000Y58550000D01*
X2140000Y56730000D02*
X2550000Y56730000D01*
X2140000Y56010000D02*
X2550000Y56010000D01*
X2140000Y54190000D02*
X2550000Y54190000D01*
X2140000Y53470000D02*
X2550000Y53470000D01*
X2140000Y51650000D02*
X2550000Y51650000D01*
X2140000Y50930000D02*
X2550000Y50930000D01*
X2140000Y49110000D02*
X2550000Y49110000D01*
X2140000Y48390000D02*
X2550000Y48390000D01*
X2140000Y46570000D02*
X2550000Y46570000D01*
X2140000Y45850000D02*
X2550000Y45850000D01*
X2140000Y44030000D02*
X2550000Y44030000D01*
X2140000Y43310000D02*
X2550000Y43310000D01*
X2140000Y41490000D02*
X2550000Y41490000D01*
X2140000Y40770000D02*
X2550000Y40770000D01*
X2140000Y38950000D02*
X2550000Y38950000D01*
X2140000Y38230000D02*
X2550000Y38230000D01*
X3600000Y62780000D02*
X4710000Y62780000D01*
X4710000Y62780000D02*
X4710000Y61450000D01*
D15*
%TO.C,Logo1*%
X3896872Y70864977D02*
X4000471Y70862382D01*
X4089632Y70858246D01*
X4157928Y70852563D01*
X4198934Y70845331D01*
X4207326Y70840971D01*
X4215792Y70816698D01*
X4229565Y70761426D01*
X4247450Y70680662D01*
X4268252Y70579912D01*
X4290777Y70464683D01*
X4302582Y70401902D01*
X4324849Y70282787D01*
X4345021Y70176565D01*
X4362085Y70088427D01*
X4375031Y70023566D01*
X4382845Y69987174D01*
X4384578Y69981184D01*
X4404110Y69971061D01*
X4451157Y69949662D01*
X4518997Y69919839D01*
X4600909Y69884445D01*
X4690172Y69846332D01*
X4780065Y69808353D01*
X4863865Y69773360D01*
X4934853Y69744206D01*
X4986306Y69723743D01*
X5011503Y69714823D01*
X5012604Y69714657D01*
X5032481Y69724769D01*
X5078223Y69753117D01*
X5145283Y69796723D01*
X5229116Y69852606D01*
X5325174Y69917787D01*
X5380350Y69955679D01*
X5481519Y70024725D01*
X5573370Y70086050D01*
X5651256Y70136663D01*
X5710531Y70173571D01*
X5746549Y70193782D01*
X5754623Y70196701D01*
X5773416Y70184153D01*
X5813543Y70149463D01*
X5870507Y70097063D01*
X5939815Y70031384D01*
X6016969Y69956856D01*
X6097475Y69877913D01*
X6176837Y69798983D01*
X6250560Y69724500D01*
X6314148Y69658894D01*
X6363106Y69606596D01*
X6392939Y69572039D01*
X6400058Y69560478D01*
X6390047Y69541654D01*
X6361922Y69496631D01*
X6318546Y69429787D01*
X6262782Y69345499D01*
X6197494Y69248144D01*
X6147754Y69174707D01*
X5895449Y68803667D01*
X6150445Y68185095D01*
X6595069Y68101275D01*
X7039693Y68017454D01*
X7039693Y67092006D01*
X6595069Y67008186D01*
X6150445Y66924365D01*
X6022947Y66615080D01*
X5895449Y66305794D01*
X6147754Y65934754D01*
X6218004Y65830843D01*
X6280728Y65736913D01*
X6333062Y65657348D01*
X6372143Y65596530D01*
X6395107Y65558843D01*
X6400058Y65548579D01*
X6387324Y65530090D01*
X6352118Y65490580D01*
X6298938Y65434478D01*
X6232282Y65366213D01*
X6156646Y65290214D01*
X6076528Y65210908D01*
X5996426Y65132725D01*
X5920836Y65060093D01*
X5854255Y64997441D01*
X5801182Y64949197D01*
X5766113Y64919790D01*
X5754377Y64912759D01*
X5732740Y64922877D01*
X5685338Y64951241D01*
X5616807Y64994871D01*
X5531785Y65050782D01*
X5434907Y65115994D01*
X5379650Y65153781D01*
X5278752Y65222657D01*
X5187701Y65283860D01*
X5111030Y65334422D01*
X5053272Y65371372D01*
X5018957Y65391742D01*
X5011746Y65394803D01*
X4991252Y65387864D01*
X4943487Y65368949D01*
X4875168Y65340913D01*
X4793011Y65306609D01*
X4703730Y65268891D01*
X4614042Y65230613D01*
X4530662Y65194630D01*
X4460306Y65163794D01*
X4409690Y65140961D01*
X4385529Y65128983D01*
X4384578Y65128276D01*
X4379964Y65109469D01*
X4369672Y65059382D01*
X4354713Y64983207D01*
X4336099Y64886135D01*
X4314841Y64773357D01*
X4302582Y64707558D01*
X4279638Y64587050D01*
X4257805Y64478203D01*
X4238278Y64386524D01*
X4222252Y64317519D01*
X4210921Y64276696D01*
X4207326Y64268489D01*
X4182994Y64260452D01*
X4128041Y64253967D01*
X4048892Y64249030D01*
X3951974Y64245636D01*
X3843713Y64243782D01*
X3730535Y64243462D01*
X3618865Y64244673D01*
X3515132Y64247410D01*
X3425759Y64251669D01*
X3357174Y64257445D01*
X3315803Y64264733D01*
X3307190Y64269105D01*
X3296867Y64295236D01*
X3282108Y64350607D01*
X3264648Y64427893D01*
X3246220Y64519770D01*
X3240259Y64551842D01*
X3211934Y64706476D01*
X3189124Y64828625D01*
X3170920Y64922327D01*
X3156417Y64991616D01*
X3144708Y65040529D01*
X3134885Y65073103D01*
X3126044Y65093372D01*
X3117276Y65105374D01*
X3115543Y65107053D01*
X3087629Y65123816D01*
X3033305Y65149386D01*
X2959223Y65181212D01*
X2872035Y65216740D01*
X2778392Y65253417D01*
X2684948Y65288689D01*
X2598353Y65320004D01*
X2525260Y65344807D01*
X2472322Y65360546D01*
X2446189Y65364668D01*
X2445274Y65364324D01*
X2423914Y65350359D01*
X2376916Y65318678D01*
X2309173Y65272609D01*
X2225577Y65215482D01*
X2131018Y65150627D01*
X2104146Y65132157D01*
X2006725Y65066301D01*
X1917837Y65008350D01*
X1842588Y64961462D01*
X1786080Y64928793D01*
X1753419Y64913500D01*
X1749407Y64912759D01*
X1728316Y64925608D01*
X1686536Y64961112D01*
X1628555Y65014707D01*
X1558865Y65081829D01*
X1481955Y65157913D01*
X1402317Y65238396D01*
X1324439Y65318713D01*
X1252814Y65394301D01*
X1191930Y65460595D01*
X1146279Y65513031D01*
X1120350Y65547045D01*
X1116117Y65556455D01*
X1126088Y65578357D01*
X1152980Y65623200D01*
X1192264Y65683679D01*
X1223883Y65730211D01*
X1281902Y65814525D01*
X1350216Y65914374D01*
X1418421Y66014527D01*
X1454925Y66068373D01*
X1578200Y66250629D01*
X1495480Y66403619D01*
X1459241Y66473318D01*
X1431074Y66532586D01*
X1415009Y66572689D01*
X1412774Y66582897D01*
X1429278Y66595171D01*
X1475918Y66619387D01*
X1548391Y66653737D01*
X1642394Y66696412D01*
X1753626Y66745606D01*
X1877785Y66799510D01*
X2010568Y66856316D01*
X2147673Y66914218D01*
X2284798Y66971407D01*
X2417642Y67026076D01*
X2541902Y67076416D01*
X2653275Y67120620D01*
X2747461Y67156881D01*
X2820156Y67183391D01*
X2867059Y67198342D01*
X2883167Y67200746D01*
X2903714Y67181689D01*
X2937067Y67139964D01*
X2976298Y67084294D01*
X2979401Y67079622D01*
X3094577Y66935736D01*
X3228947Y66819717D01*
X3378216Y66732570D01*
X3538087Y66675301D01*
X3704263Y66648914D01*
X3872448Y66654415D01*
X4038345Y66692810D01*
X4197658Y66765105D01*
X4232513Y66786374D01*
X4373263Y66897004D01*
X4486286Y67027698D01*
X4570997Y67173936D01*
X4626806Y67331192D01*
X4653126Y67494943D01*
X4649370Y67660667D01*
X4614950Y67823838D01*
X4549277Y67979935D01*
X4451765Y68124433D01*
X4412187Y68169131D01*
X4288297Y68282888D01*
X4157876Y68365782D01*
X4011685Y68422644D01*
X3866912Y68454313D01*
X3704140Y68462131D01*
X3540560Y68436062D01*
X3381702Y68378755D01*
X3233094Y68292856D01*
X3100265Y68181014D01*
X2988744Y68045877D01*
X2976989Y68028117D01*
X2938492Y67971850D01*
X2905137Y67929077D01*
X2883840Y67908628D01*
X2883167Y67908331D01*
X2860129Y67912721D01*
X2807843Y67930124D01*
X2730610Y67958732D01*
X2632732Y67996735D01*
X2518509Y68042326D01*
X2392242Y68093697D01*
X2258233Y68149038D01*
X2120782Y68206542D01*
X1984192Y68264399D01*
X1852763Y68320802D01*
X1730795Y68373942D01*
X1622591Y68422010D01*
X1532451Y68463199D01*
X1464677Y68495699D01*
X1423570Y68517703D01*
X1412774Y68526564D01*
X1421181Y68553640D01*
X1443728Y68604303D01*
X1476387Y68669817D01*
X1495480Y68705841D01*
X1578200Y68858832D01*
X1454925Y69041088D01*
X1391772Y69134125D01*
X1322273Y69235985D01*
X1256835Y69331438D01*
X1223883Y69379250D01*
X1178727Y69446495D01*
X1142943Y69503436D01*
X1121062Y69542646D01*
X1116437Y69555381D01*
X1128915Y69573917D01*
X1163748Y69614941D01*
X1217322Y69674475D01*
X1286017Y69748542D01*
X1366219Y69833165D01*
X1417714Y69886685D01*
X1509714Y69980319D01*
X1592001Y70061241D01*
X1661055Y70126177D01*
X1713356Y70171858D01*
X1745384Y70195011D01*
X1751884Y70197232D01*
X1776606Y70186924D01*
X1826595Y70158439D01*
X1896788Y70114937D01*
X1982125Y70059577D01*
X2077544Y69995520D01*
X2104146Y69977303D01*
X2200833Y69910927D01*
X2287883Y69851378D01*
X2360405Y69801984D01*
X2413507Y69766075D01*
X2442297Y69746981D01*
X2445274Y69745136D01*
X2468218Y69747895D01*
X2518664Y69762538D01*
X2589959Y69786513D01*
X2675453Y69817266D01*
X2768493Y69852244D01*
X2862426Y69888893D01*
X2950601Y69924661D01*
X3026366Y69956994D01*
X3083069Y69983338D01*
X3114057Y70001142D01*
X3115543Y70002407D01*
X3124399Y70013294D01*
X3133157Y70031682D01*
X3142723Y70061606D01*
X3154004Y70107103D01*
X3167907Y70172209D01*
X3185337Y70260961D01*
X3207202Y70377393D01*
X3234409Y70525542D01*
X3240259Y70557618D01*
X3258626Y70652686D01*
X3276595Y70735565D01*
X3292431Y70798930D01*
X3304400Y70835458D01*
X3307190Y70840356D01*
X3331928Y70848427D01*
X3387210Y70854987D01*
X3466611Y70860033D01*
X3563704Y70863559D01*
X3672062Y70865561D01*
X3785260Y70866036D01*
X3896872Y70864977D01*
G36*
X3896872Y70864977D02*
G01*
X4000471Y70862382D01*
X4089632Y70858246D01*
X4157928Y70852563D01*
X4198934Y70845331D01*
X4207326Y70840971D01*
X4215792Y70816698D01*
X4229565Y70761426D01*
X4247450Y70680662D01*
X4268252Y70579912D01*
X4290777Y70464683D01*
X4302582Y70401902D01*
X4324849Y70282787D01*
X4345021Y70176565D01*
X4362085Y70088427D01*
X4375031Y70023566D01*
X4382845Y69987174D01*
X4384578Y69981184D01*
X4404110Y69971061D01*
X4451157Y69949662D01*
X4518997Y69919839D01*
X4600909Y69884445D01*
X4690172Y69846332D01*
X4780065Y69808353D01*
X4863865Y69773360D01*
X4934853Y69744206D01*
X4986306Y69723743D01*
X5011503Y69714823D01*
X5012604Y69714657D01*
X5032481Y69724769D01*
X5078223Y69753117D01*
X5145283Y69796723D01*
X5229116Y69852606D01*
X5325174Y69917787D01*
X5380350Y69955679D01*
X5481519Y70024725D01*
X5573370Y70086050D01*
X5651256Y70136663D01*
X5710531Y70173571D01*
X5746549Y70193782D01*
X5754623Y70196701D01*
X5773416Y70184153D01*
X5813543Y70149463D01*
X5870507Y70097063D01*
X5939815Y70031384D01*
X6016969Y69956856D01*
X6097475Y69877913D01*
X6176837Y69798983D01*
X6250560Y69724500D01*
X6314148Y69658894D01*
X6363106Y69606596D01*
X6392939Y69572039D01*
X6400058Y69560478D01*
X6390047Y69541654D01*
X6361922Y69496631D01*
X6318546Y69429787D01*
X6262782Y69345499D01*
X6197494Y69248144D01*
X6147754Y69174707D01*
X5895449Y68803667D01*
X6150445Y68185095D01*
X6595069Y68101275D01*
X7039693Y68017454D01*
X7039693Y67092006D01*
X6595069Y67008186D01*
X6150445Y66924365D01*
X6022947Y66615080D01*
X5895449Y66305794D01*
X6147754Y65934754D01*
X6218004Y65830843D01*
X6280728Y65736913D01*
X6333062Y65657348D01*
X6372143Y65596530D01*
X6395107Y65558843D01*
X6400058Y65548579D01*
X6387324Y65530090D01*
X6352118Y65490580D01*
X6298938Y65434478D01*
X6232282Y65366213D01*
X6156646Y65290214D01*
X6076528Y65210908D01*
X5996426Y65132725D01*
X5920836Y65060093D01*
X5854255Y64997441D01*
X5801182Y64949197D01*
X5766113Y64919790D01*
X5754377Y64912759D01*
X5732740Y64922877D01*
X5685338Y64951241D01*
X5616807Y64994871D01*
X5531785Y65050782D01*
X5434907Y65115994D01*
X5379650Y65153781D01*
X5278752Y65222657D01*
X5187701Y65283860D01*
X5111030Y65334422D01*
X5053272Y65371372D01*
X5018957Y65391742D01*
X5011746Y65394803D01*
X4991252Y65387864D01*
X4943487Y65368949D01*
X4875168Y65340913D01*
X4793011Y65306609D01*
X4703730Y65268891D01*
X4614042Y65230613D01*
X4530662Y65194630D01*
X4460306Y65163794D01*
X4409690Y65140961D01*
X4385529Y65128983D01*
X4384578Y65128276D01*
X4379964Y65109469D01*
X4369672Y65059382D01*
X4354713Y64983207D01*
X4336099Y64886135D01*
X4314841Y64773357D01*
X4302582Y64707558D01*
X4279638Y64587050D01*
X4257805Y64478203D01*
X4238278Y64386524D01*
X4222252Y64317519D01*
X4210921Y64276696D01*
X4207326Y64268489D01*
X4182994Y64260452D01*
X4128041Y64253967D01*
X4048892Y64249030D01*
X3951974Y64245636D01*
X3843713Y64243782D01*
X3730535Y64243462D01*
X3618865Y64244673D01*
X3515132Y64247410D01*
X3425759Y64251669D01*
X3357174Y64257445D01*
X3315803Y64264733D01*
X3307190Y64269105D01*
X3296867Y64295236D01*
X3282108Y64350607D01*
X3264648Y64427893D01*
X3246220Y64519770D01*
X3240259Y64551842D01*
X3211934Y64706476D01*
X3189124Y64828625D01*
X3170920Y64922327D01*
X3156417Y64991616D01*
X3144708Y65040529D01*
X3134885Y65073103D01*
X3126044Y65093372D01*
X3117276Y65105374D01*
X3115543Y65107053D01*
X3087629Y65123816D01*
X3033305Y65149386D01*
X2959223Y65181212D01*
X2872035Y65216740D01*
X2778392Y65253417D01*
X2684948Y65288689D01*
X2598353Y65320004D01*
X2525260Y65344807D01*
X2472322Y65360546D01*
X2446189Y65364668D01*
X2445274Y65364324D01*
X2423914Y65350359D01*
X2376916Y65318678D01*
X2309173Y65272609D01*
X2225577Y65215482D01*
X2131018Y65150627D01*
X2104146Y65132157D01*
X2006725Y65066301D01*
X1917837Y65008350D01*
X1842588Y64961462D01*
X1786080Y64928793D01*
X1753419Y64913500D01*
X1749407Y64912759D01*
X1728316Y64925608D01*
X1686536Y64961112D01*
X1628555Y65014707D01*
X1558865Y65081829D01*
X1481955Y65157913D01*
X1402317Y65238396D01*
X1324439Y65318713D01*
X1252814Y65394301D01*
X1191930Y65460595D01*
X1146279Y65513031D01*
X1120350Y65547045D01*
X1116117Y65556455D01*
X1126088Y65578357D01*
X1152980Y65623200D01*
X1192264Y65683679D01*
X1223883Y65730211D01*
X1281902Y65814525D01*
X1350216Y65914374D01*
X1418421Y66014527D01*
X1454925Y66068373D01*
X1578200Y66250629D01*
X1495480Y66403619D01*
X1459241Y66473318D01*
X1431074Y66532586D01*
X1415009Y66572689D01*
X1412774Y66582897D01*
X1429278Y66595171D01*
X1475918Y66619387D01*
X1548391Y66653737D01*
X1642394Y66696412D01*
X1753626Y66745606D01*
X1877785Y66799510D01*
X2010568Y66856316D01*
X2147673Y66914218D01*
X2284798Y66971407D01*
X2417642Y67026076D01*
X2541902Y67076416D01*
X2653275Y67120620D01*
X2747461Y67156881D01*
X2820156Y67183391D01*
X2867059Y67198342D01*
X2883167Y67200746D01*
X2903714Y67181689D01*
X2937067Y67139964D01*
X2976298Y67084294D01*
X2979401Y67079622D01*
X3094577Y66935736D01*
X3228947Y66819717D01*
X3378216Y66732570D01*
X3538087Y66675301D01*
X3704263Y66648914D01*
X3872448Y66654415D01*
X4038345Y66692810D01*
X4197658Y66765105D01*
X4232513Y66786374D01*
X4373263Y66897004D01*
X4486286Y67027698D01*
X4570997Y67173936D01*
X4626806Y67331192D01*
X4653126Y67494943D01*
X4649370Y67660667D01*
X4614950Y67823838D01*
X4549277Y67979935D01*
X4451765Y68124433D01*
X4412187Y68169131D01*
X4288297Y68282888D01*
X4157876Y68365782D01*
X4011685Y68422644D01*
X3866912Y68454313D01*
X3704140Y68462131D01*
X3540560Y68436062D01*
X3381702Y68378755D01*
X3233094Y68292856D01*
X3100265Y68181014D01*
X2988744Y68045877D01*
X2976989Y68028117D01*
X2938492Y67971850D01*
X2905137Y67929077D01*
X2883840Y67908628D01*
X2883167Y67908331D01*
X2860129Y67912721D01*
X2807843Y67930124D01*
X2730610Y67958732D01*
X2632732Y67996735D01*
X2518509Y68042326D01*
X2392242Y68093697D01*
X2258233Y68149038D01*
X2120782Y68206542D01*
X1984192Y68264399D01*
X1852763Y68320802D01*
X1730795Y68373942D01*
X1622591Y68422010D01*
X1532451Y68463199D01*
X1464677Y68495699D01*
X1423570Y68517703D01*
X1412774Y68526564D01*
X1421181Y68553640D01*
X1443728Y68604303D01*
X1476387Y68669817D01*
X1495480Y68705841D01*
X1578200Y68858832D01*
X1454925Y69041088D01*
X1391772Y69134125D01*
X1322273Y69235985D01*
X1256835Y69331438D01*
X1223883Y69379250D01*
X1178727Y69446495D01*
X1142943Y69503436D01*
X1121062Y69542646D01*
X1116437Y69555381D01*
X1128915Y69573917D01*
X1163748Y69614941D01*
X1217322Y69674475D01*
X1286017Y69748542D01*
X1366219Y69833165D01*
X1417714Y69886685D01*
X1509714Y69980319D01*
X1592001Y70061241D01*
X1661055Y70126177D01*
X1713356Y70171858D01*
X1745384Y70195011D01*
X1751884Y70197232D01*
X1776606Y70186924D01*
X1826595Y70158439D01*
X1896788Y70114937D01*
X1982125Y70059577D01*
X2077544Y69995520D01*
X2104146Y69977303D01*
X2200833Y69910927D01*
X2287883Y69851378D01*
X2360405Y69801984D01*
X2413507Y69766075D01*
X2442297Y69746981D01*
X2445274Y69745136D01*
X2468218Y69747895D01*
X2518664Y69762538D01*
X2589959Y69786513D01*
X2675453Y69817266D01*
X2768493Y69852244D01*
X2862426Y69888893D01*
X2950601Y69924661D01*
X3026366Y69956994D01*
X3083069Y69983338D01*
X3114057Y70001142D01*
X3115543Y70002407D01*
X3124399Y70013294D01*
X3133157Y70031682D01*
X3142723Y70061606D01*
X3154004Y70107103D01*
X3167907Y70172209D01*
X3185337Y70260961D01*
X3207202Y70377393D01*
X3234409Y70525542D01*
X3240259Y70557618D01*
X3258626Y70652686D01*
X3276595Y70735565D01*
X3292431Y70798930D01*
X3304400Y70835458D01*
X3307190Y70840356D01*
X3331928Y70848427D01*
X3387210Y70854987D01*
X3466611Y70860033D01*
X3563704Y70863559D01*
X3672062Y70865561D01*
X3785260Y70866036D01*
X3896872Y70864977D01*
G37*
D14*
%TO.C,J6*%
X58250000Y56690000D02*
X58250000Y56190000D01*
X58490000Y56450000D02*
X58490000Y41090000D01*
X58990000Y56690000D02*
X58250000Y56690000D01*
X59050000Y56450000D02*
X59050000Y41090000D01*
X60550000Y56450000D02*
X60550000Y41090000D01*
X61911000Y49804000D02*
X61876000Y49839000D01*
X61911000Y44724000D02*
X61876000Y44759000D01*
X62127000Y49997000D02*
X62081000Y50044000D01*
X62127000Y44917000D02*
X62081000Y44964000D01*
X64219000Y47495000D02*
X64173000Y47542000D01*
X64219000Y42415000D02*
X64173000Y42462000D01*
X64425000Y47700000D02*
X64389000Y47735000D01*
X64425000Y42620000D02*
X64389000Y42655000D01*
X65451000Y56450000D02*
X65451000Y41090000D01*
X68411000Y56450000D02*
X58490000Y56450000D01*
X68411000Y56450000D02*
X68411000Y41090000D01*
X68411000Y41090000D02*
X58490000Y41090000D01*
X61469747Y53821195D02*
G75*
G02*
X61615000Y54534000I1680254J28806D01*
G01*
X61615244Y53166682D02*
G75*
G02*
X61470000Y53850000I1534756J683318D01*
G01*
X62466958Y55385427D02*
G75*
G02*
X63834000Y55385000I683041J-1535420D01*
G01*
X63833042Y52314573D02*
G75*
G02*
X62466000Y52315000I-683042J1535427D01*
G01*
X64685427Y54533042D02*
G75*
G02*
X64685000Y53166000I-1535420J-683041D01*
G01*
X64830000Y48770000D02*
G75*
G02*
X61470000Y48770000I-1680000J0D01*
G01*
X61470000Y48770000D02*
G75*
G02*
X64830000Y48770000I1680000J0D01*
G01*
X64830000Y43690000D02*
G75*
G02*
X61470000Y43690000I-1680000J0D01*
G01*
X61470000Y43690000D02*
G75*
G02*
X64830000Y43690000I1680000J0D01*
G01*
%TO.C,RV1*%
X53220000Y15075000D02*
X53865000Y15075000D01*
X53220000Y8125000D02*
X53220000Y15075000D01*
X53220000Y8125000D02*
X53865000Y8125000D01*
X54855000Y15075000D02*
X57960000Y15075000D01*
X54855000Y8125000D02*
X57960000Y8125000D01*
X57960000Y8125000D02*
X57960000Y15075000D01*
%TO.C,J3*%
X62040000Y21915000D02*
X68360000Y21915000D01*
X62040000Y11175000D02*
X62040000Y21915000D01*
X62040000Y11175000D02*
X68360000Y11175000D01*
X62500000Y11175000D02*
X62500000Y21915000D01*
X67800000Y11175000D02*
X67800000Y21915000D01*
X67860000Y10935000D02*
X68600000Y10935000D01*
X68360000Y11175000D02*
X68360000Y21915000D01*
X68600000Y10935000D02*
X68600000Y11435000D01*
%TO.C,RV4*%
X48020000Y27835000D02*
X48665000Y27835000D01*
X48020000Y20885000D02*
X48020000Y27835000D01*
X48020000Y20885000D02*
X48665000Y20885000D01*
X49655000Y27835000D02*
X52760000Y27835000D01*
X49655000Y20885000D02*
X52760000Y20885000D01*
X52760000Y20885000D02*
X52760000Y27835000D01*
%TO.C,J7*%
X58250000Y40390000D02*
X58250000Y39890000D01*
X58490000Y40150000D02*
X58490000Y24790000D01*
X58990000Y40390000D02*
X58250000Y40390000D01*
X59050000Y40150000D02*
X59050000Y24790000D01*
X60550000Y40150000D02*
X60550000Y24790000D01*
X61911000Y33504000D02*
X61876000Y33539000D01*
X61911000Y28424000D02*
X61876000Y28459000D01*
X62127000Y33697000D02*
X62081000Y33744000D01*
X62127000Y28617000D02*
X62081000Y28664000D01*
X64219000Y31195000D02*
X64173000Y31242000D01*
X64219000Y26115000D02*
X64173000Y26162000D01*
X64425000Y31400000D02*
X64389000Y31435000D01*
X64425000Y26320000D02*
X64389000Y26355000D01*
X65451000Y40150000D02*
X65451000Y24790000D01*
X68411000Y40150000D02*
X58490000Y40150000D01*
X68411000Y40150000D02*
X68411000Y24790000D01*
X68411000Y24790000D02*
X58490000Y24790000D01*
X61469747Y37521195D02*
G75*
G02*
X61615000Y38234000I1680254J28806D01*
G01*
X61615244Y36866682D02*
G75*
G02*
X61470000Y37550000I1534756J683318D01*
G01*
X62466958Y39085427D02*
G75*
G02*
X63834000Y39085000I683041J-1535420D01*
G01*
X63833042Y36014573D02*
G75*
G02*
X62466000Y36015000I-683042J1535427D01*
G01*
X64685427Y38233042D02*
G75*
G02*
X64685000Y36866000I-1535420J-683041D01*
G01*
X64830000Y32470000D02*
G75*
G02*
X61470000Y32470000I-1680000J0D01*
G01*
X61470000Y32470000D02*
G75*
G02*
X64830000Y32470000I1680000J0D01*
G01*
X64830000Y27390000D02*
G75*
G02*
X61470000Y27390000I-1680000J0D01*
G01*
X61470000Y27390000D02*
G75*
G02*
X64830000Y27390000I1680000J0D01*
G01*
%TO.C,K1*%
X34710000Y96218000D02*
X55850000Y96218000D01*
X34710000Y85218000D02*
X34710000Y96218000D01*
X34710000Y85218000D02*
X55850000Y85218000D01*
X37660000Y86908000D02*
X38930000Y86908000D01*
X38420000Y91738000D02*
X38930000Y91738000D01*
X38420000Y89958000D02*
X39440000Y90968000D01*
X38420000Y89198000D02*
X38420000Y91738000D01*
X38930000Y94528000D02*
X37660000Y94528000D01*
X38930000Y91738000D02*
X38930000Y94528000D01*
X38930000Y91738000D02*
X39440000Y91738000D01*
X38930000Y89198000D02*
X38420000Y89198000D01*
X38930000Y86908000D02*
X38930000Y89198000D01*
X39440000Y91738000D02*
X39440000Y89198000D01*
X39440000Y89198000D02*
X38930000Y89198000D01*
X46550000Y90718000D02*
X49725000Y90718000D01*
X46550000Y88178000D02*
X46550000Y90718000D01*
X49725000Y90718000D02*
X53535000Y93258000D01*
X51630000Y93258000D02*
X51630000Y91988000D01*
X54170000Y88178000D02*
X54170000Y90718000D01*
X55850000Y85218000D02*
X55850000Y96218000D01*
X49852000Y90718000D02*
G75*
G02*
X49598000Y90718000I-127000J0D01*
G01*
X49598000Y90718000D02*
G75*
G02*
X49852000Y90718000I127000J0D01*
G01*
%TO.C,RV2*%
X48020000Y20175000D02*
X48665000Y20175000D01*
X48020000Y13225000D02*
X48020000Y20175000D01*
X48020000Y13225000D02*
X48665000Y13225000D01*
X49655000Y20175000D02*
X52760000Y20175000D01*
X49655000Y13225000D02*
X52760000Y13225000D01*
X52760000Y13225000D02*
X52760000Y20175000D01*
%TO.C,K4*%
X34680000Y55670000D02*
X55820000Y55670000D01*
X34680000Y44670000D02*
X34680000Y55670000D01*
X34680000Y44670000D02*
X55820000Y44670000D01*
X37630000Y46360000D02*
X38900000Y46360000D01*
X38390000Y51190000D02*
X38900000Y51190000D01*
X38390000Y49410000D02*
X39410000Y50420000D01*
X38390000Y48650000D02*
X38390000Y51190000D01*
X38900000Y53980000D02*
X37630000Y53980000D01*
X38900000Y51190000D02*
X38900000Y53980000D01*
X38900000Y51190000D02*
X39410000Y51190000D01*
X38900000Y48650000D02*
X38390000Y48650000D01*
X38900000Y46360000D02*
X38900000Y48650000D01*
X39410000Y51190000D02*
X39410000Y48650000D01*
X39410000Y48650000D02*
X38900000Y48650000D01*
X46520000Y50170000D02*
X49695000Y50170000D01*
X46520000Y47630000D02*
X46520000Y50170000D01*
X49695000Y50170000D02*
X53505000Y52710000D01*
X51600000Y52710000D02*
X51600000Y51440000D01*
X54140000Y47630000D02*
X54140000Y50170000D01*
X55820000Y44670000D02*
X55820000Y55670000D01*
X49822000Y50170000D02*
G75*
G02*
X49568000Y50170000I-127000J0D01*
G01*
X49568000Y50170000D02*
G75*
G02*
X49822000Y50170000I127000J0D01*
G01*
%TO.C,J4*%
X58245000Y89275000D02*
X58245000Y88775000D01*
X58485000Y89035000D02*
X58485000Y73675000D01*
X58985000Y89275000D02*
X58245000Y89275000D01*
X59045000Y89035000D02*
X59045000Y73675000D01*
X60545000Y89035000D02*
X60545000Y73675000D01*
X61906000Y82389000D02*
X61871000Y82424000D01*
X61906000Y77309000D02*
X61871000Y77344000D01*
X62122000Y82582000D02*
X62076000Y82629000D01*
X62122000Y77502000D02*
X62076000Y77549000D01*
X64214000Y80080000D02*
X64168000Y80127000D01*
X64214000Y75000000D02*
X64168000Y75047000D01*
X64420000Y80285000D02*
X64384000Y80320000D01*
X64420000Y75205000D02*
X64384000Y75240000D01*
X65446000Y89035000D02*
X65446000Y73675000D01*
X68406000Y89035000D02*
X58485000Y89035000D01*
X68406000Y89035000D02*
X68406000Y73675000D01*
X68406000Y73675000D02*
X58485000Y73675000D01*
X61464747Y86406195D02*
G75*
G02*
X61610000Y87119000I1680254J28806D01*
G01*
X61610244Y85751682D02*
G75*
G02*
X61465000Y86435000I1534756J683318D01*
G01*
X62461958Y87970427D02*
G75*
G02*
X63829000Y87970000I683041J-1535420D01*
G01*
X63828042Y84899573D02*
G75*
G02*
X62461000Y84900000I-683042J1535427D01*
G01*
X64680427Y87118042D02*
G75*
G02*
X64680000Y85751000I-1535420J-683041D01*
G01*
X64825000Y81355000D02*
G75*
G02*
X61465000Y81355000I-1680000J0D01*
G01*
X61465000Y81355000D02*
G75*
G02*
X64825000Y81355000I1680000J0D01*
G01*
X64825000Y76275000D02*
G75*
G02*
X61465000Y76275000I-1680000J0D01*
G01*
X61465000Y76275000D02*
G75*
G02*
X64825000Y76275000I1680000J0D01*
G01*
%TO.C,K2*%
X34745000Y82842000D02*
X55885000Y82842000D01*
X34745000Y71842000D02*
X34745000Y82842000D01*
X34745000Y71842000D02*
X55885000Y71842000D01*
X37695000Y73532000D02*
X38965000Y73532000D01*
X38455000Y78362000D02*
X38965000Y78362000D01*
X38455000Y76582000D02*
X39475000Y77592000D01*
X38455000Y75822000D02*
X38455000Y78362000D01*
X38965000Y81152000D02*
X37695000Y81152000D01*
X38965000Y78362000D02*
X38965000Y81152000D01*
X38965000Y78362000D02*
X39475000Y78362000D01*
X38965000Y75822000D02*
X38455000Y75822000D01*
X38965000Y73532000D02*
X38965000Y75822000D01*
X39475000Y78362000D02*
X39475000Y75822000D01*
X39475000Y75822000D02*
X38965000Y75822000D01*
X46585000Y77342000D02*
X49760000Y77342000D01*
X46585000Y74802000D02*
X46585000Y77342000D01*
X49760000Y77342000D02*
X53570000Y79882000D01*
X51665000Y79882000D02*
X51665000Y78612000D01*
X54205000Y74802000D02*
X54205000Y77342000D01*
X55885000Y71842000D02*
X55885000Y82842000D01*
X49887000Y77342000D02*
G75*
G02*
X49633000Y77342000I-127000J0D01*
G01*
X49633000Y77342000D02*
G75*
G02*
X49887000Y77342000I127000J0D01*
G01*
D16*
%TO.C,D1*%
X48200000Y6267231D02*
X53200000Y6267231D01*
X48200000Y6067231D02*
X48200000Y6267231D01*
X48200000Y2767231D02*
X48200000Y4467231D01*
X48200000Y1267231D02*
X48200000Y1067231D01*
X48200000Y1067231D02*
X53200000Y1067231D01*
X53200000Y6267231D02*
X53200000Y6067231D01*
X53200000Y4567231D02*
X53200000Y3567231D01*
X53200000Y3567231D02*
X50600000Y1067231D01*
X53200000Y3567231D02*
X53200000Y2767231D01*
X53200000Y1067231D02*
X53200000Y1267231D01*
D17*
X53608182Y707769D02*
G75*
G02*
X53408182Y707769I-100000J0D01*
G01*
X53408182Y707769D02*
G75*
G02*
X53608182Y707769I100000J0D01*
G01*
D14*
%TO.C,K3*%
X34745000Y69210000D02*
X55885000Y69210000D01*
X34745000Y58210000D02*
X34745000Y69210000D01*
X34745000Y58210000D02*
X55885000Y58210000D01*
X37695000Y59900000D02*
X38965000Y59900000D01*
X38455000Y64730000D02*
X38965000Y64730000D01*
X38455000Y62950000D02*
X39475000Y63960000D01*
X38455000Y62190000D02*
X38455000Y64730000D01*
X38965000Y67520000D02*
X37695000Y67520000D01*
X38965000Y64730000D02*
X38965000Y67520000D01*
X38965000Y64730000D02*
X39475000Y64730000D01*
X38965000Y62190000D02*
X38455000Y62190000D01*
X38965000Y59900000D02*
X38965000Y62190000D01*
X39475000Y64730000D02*
X39475000Y62190000D01*
X39475000Y62190000D02*
X38965000Y62190000D01*
X46585000Y63710000D02*
X49760000Y63710000D01*
X46585000Y61170000D02*
X46585000Y63710000D01*
X49760000Y63710000D02*
X53570000Y66250000D01*
X51665000Y66250000D02*
X51665000Y64980000D01*
X54205000Y61170000D02*
X54205000Y63710000D01*
X55885000Y58210000D02*
X55885000Y69210000D01*
X49887000Y63710000D02*
G75*
G02*
X49633000Y63710000I-127000J0D01*
G01*
X49633000Y63710000D02*
G75*
G02*
X49887000Y63710000I127000J0D01*
G01*
%TO.C,RV3*%
X53320000Y22775000D02*
X53965000Y22775000D01*
X53320000Y15825000D02*
X53320000Y22775000D01*
X53320000Y15825000D02*
X53965000Y15825000D01*
X54955000Y22775000D02*
X58060000Y22775000D01*
X54955000Y15825000D02*
X58060000Y15825000D01*
X58060000Y15825000D02*
X58060000Y22775000D01*
%TO.C,J5*%
X58245000Y72975000D02*
X58245000Y72475000D01*
X58485000Y72735000D02*
X58485000Y57375000D01*
X58985000Y72975000D02*
X58245000Y72975000D01*
X59045000Y72735000D02*
X59045000Y57375000D01*
X60545000Y72735000D02*
X60545000Y57375000D01*
X61906000Y66089000D02*
X61871000Y66124000D01*
X61906000Y61009000D02*
X61871000Y61044000D01*
X62122000Y66282000D02*
X62076000Y66329000D01*
X62122000Y61202000D02*
X62076000Y61249000D01*
X64214000Y63780000D02*
X64168000Y63827000D01*
X64214000Y58700000D02*
X64168000Y58747000D01*
X64420000Y63985000D02*
X64384000Y64020000D01*
X64420000Y58905000D02*
X64384000Y58940000D01*
X65446000Y72735000D02*
X65446000Y57375000D01*
X68406000Y72735000D02*
X58485000Y72735000D01*
X68406000Y72735000D02*
X68406000Y57375000D01*
X68406000Y57375000D02*
X58485000Y57375000D01*
X61464747Y70106195D02*
G75*
G02*
X61610000Y70819000I1680254J28806D01*
G01*
X61610244Y69451682D02*
G75*
G02*
X61465000Y70135000I1534756J683318D01*
G01*
X62461958Y71670427D02*
G75*
G02*
X63829000Y71670000I683041J-1535420D01*
G01*
X63828042Y68599573D02*
G75*
G02*
X62461000Y68600000I-683042J1535427D01*
G01*
X64680427Y70818042D02*
G75*
G02*
X64680000Y69451000I-1535420J-683041D01*
G01*
X64825000Y65055000D02*
G75*
G02*
X61465000Y65055000I-1680000J0D01*
G01*
X61465000Y65055000D02*
G75*
G02*
X64825000Y65055000I1680000J0D01*
G01*
X64825000Y59975000D02*
G75*
G02*
X61465000Y59975000I-1680000J0D01*
G01*
X61465000Y59975000D02*
G75*
G02*
X64825000Y59975000I1680000J0D01*
G01*
%TD*%
M02*
