M48
; DRILL file {KiCad 8.0.5} date 2024-09-29T21:47:56-0400
; FORMAT={-:-/ absolute / inch / decimal}
; #@! TF.CreationDate,2024-09-29T21:47:56-04:00
; #@! TF.GenerationSoftware,Kicad,Pcbnew,8.0.5
; #@! TF.FileFunction,Plated,1,2,PTH
FMAT,2
INCH
; #@! TA.AperFunction,Plated,PTH,ViaDrill
T1C0.0079
; #@! TA.AperFunction,Plated,PTH,ViaDrill
T2C0.0157
; #@! TA.AperFunction,Plated,PTH,ComponentDrill
T3C0.0315
; #@! TA.AperFunction,Plated,PTH,ComponentDrill
T4C0.0394
; #@! TA.AperFunction,Plated,PTH,ComponentDrill
T5C0.0433
; #@! TA.AperFunction,Plated,PTH,ComponentDrill
T6C0.0512
%
G90
G05
T1
X0.2421Y0.6356
X0.2854Y0.7419
X0.2933Y0.86
X0.3209Y0.7419
X0.3366Y0.8285
X0.3366Y0.7695
X0.3839Y0.86
T2
X0.1398Y0.6533
X0.1476Y0.5254
X0.2894Y0.9289
X0.561Y0.862
X0.561Y0.7478
X0.561Y0.551
X1.0074Y0.2835
X1.0544Y0.2833
X1.1058Y0.1279
X1.2357Y0.9646
X1.2357Y0.8661
X1.9764Y0.0827
T3
X1.9354Y1.0591
X1.9354Y0.8591
X1.9354Y0.7575
X1.9354Y0.5575
X2.0354Y0.9591
X2.0354Y0.6575
X2.1402Y0.5567
X2.1402Y0.3567
X2.1441Y0.8598
X2.1441Y0.6598
X2.2402Y0.4567
X2.2441Y0.7598
T4
X0.1417Y2.4193
X0.1417Y2.3193
X0.1417Y2.2193
X0.1417Y2.1193
X0.1417Y2.0193
X0.1417Y1.9193
X0.1417Y1.8193
X0.1417Y1.7193
X0.1417Y1.6193
X0.1417Y1.5193
X0.7869Y1.5669
X0.7869Y1.4669
X0.7869Y1.3669
X0.7869Y1.2669
X0.7869Y1.1669
X0.7869Y1.0669
X0.7869Y0.9669
X0.7869Y0.8669
X0.7869Y0.7669
X0.7869Y0.6669
X0.7869Y0.5669
X0.7869Y0.4669
X0.7869Y0.3669
X0.7869Y0.2669
X0.7869Y0.1669
X1.3869Y1.5669
X1.3869Y1.4669
X1.3869Y1.3669
X1.3869Y1.2669
X1.3869Y1.1669
X1.3869Y1.0669
X1.3869Y0.9669
X1.3869Y0.8669
X1.3869Y0.7669
X1.3869Y0.6669
X1.3869Y0.5669
X1.3869Y0.4669
X1.3869Y0.3669
X1.3869Y0.2669
X1.3869Y0.1669
T5
X2.5669Y0.8014
X2.5669Y0.7014
X2.5669Y0.6014
X2.5669Y0.5014
T6
X1.4315Y2.1252
X1.4315Y1.8252
X1.4327Y3.7216
X1.4327Y3.4216
X1.4341Y3.195
X1.4341Y2.895
X1.4341Y2.6583
X1.4341Y2.3583
X1.8315Y1.8252
X1.8327Y3.4216
X1.8341Y2.895
X1.8341Y2.3583
X2.0315Y2.1252
X2.0327Y3.7216
X2.0341Y3.195
X2.0341Y2.6583
X2.1315Y1.8252
X2.1327Y3.4216
X2.1341Y2.895
X2.1341Y2.3583
X2.486Y3.403
X2.486Y3.203
X2.486Y3.003
X2.486Y2.7612
X2.486Y2.5612
X2.486Y2.3612
X2.4862Y2.1201
X2.4862Y1.9201
X2.4862Y1.7201
X2.4862Y1.4783
X2.4862Y1.2783
X2.4862Y1.0783
M30
